  0
SECTION
  2
HEADER
  9
$ANGBASE
  50
0.0
  9
$ANGDIR
  70
  1
  9
$MEASUREMENT
  70
0
  0
ENDSEC
  0
SECTION
  2
TABLES
  0
TABLE
  2
LTYPE
  70
4
  0
LTYPE
  5
40F
  2
CONTINUOUS
  70
0
  3
Solid line
  72
65
  73
0
  40
0.0
  0
LTYPE
  5
410
  2
DASHDOT
 70
0
  3
Dash Dot ____ _ ____ _
 72
65
 73
4
 40
2.0
 49
1.25
 49
-0.25
 49
0.25
 49
-0.25
  0
LTYPE
  5
411
  2
DASHED
 70
0
  3
Dashed __ __ __ __ __
 72
65
 73
2
 40
0.75
 49
0.5
 49
-0.25
  0
LTYPE
  5
43B
  2
DOTTED
 70
0
  3
Dotted .  .  .  .
 72
65
 73
2
 40
0.2
 49
0.0
 49
-0.2
  0
ENDTAB
  0
TABLE
  2
STYLE
  70
4
  0
STYLE
  2
KICAD
  70
0
  40
0
  41
1
  42
1
  50
0
  71
0
  3
isocp.shx
  0
STYLE
  2
KICADB
  70
0
  40
0
  41
1
  42
1
  50
0
  71
0
  3
isocp.shx
  0
STYLE
  2
KICADI
  70
0
  40
0
  41
1
  42
1
  50
15
  71
0
  3
isocp.shx
  0
STYLE
  2
KICADBI
  70
0
  40
0
  41
1
  42
1
  50
15
  71
0
  3
isocp.shx
  0
ENDTAB
  0
TABLE
  2
LAYER
  70
30
  0
LAYER
  2
BLACK
  70
0
  62
7
  6
CONTINUOUS
  0
LAYER
  2
GRAY1
  70
0
  62
251
  6
CONTINUOUS
  0
LAYER
  2
GRAY2
  70
0
  62
8
  6
CONTINUOUS
  0
LAYER
  2
GRAY3
  70
0
  62
9
  6
CONTINUOUS
  0
LAYER
  2
WHITE
  70
0
  62
7
  6
CONTINUOUS
  0
LAYER
  2
LYELLOW
  70
0
  62
51
  6
CONTINUOUS
  0
LAYER
  2
BLUE1
  70
0
  62
178
  6
CONTINUOUS
  0
LAYER
  2
GREEN1
  70
0
  62
98
  6
CONTINUOUS
  0
LAYER
  2
CYAN1
  70
0
  62
138
  6
CONTINUOUS
  0
LAYER
  2
RED1
  70
0
  62
18
  6
CONTINUOUS
  0
LAYER
  2
MAGENTA1
  70
0
  62
228
  6
CONTINUOUS
  0
LAYER
  2
BROWN1
  70
0
  62
58
  6
CONTINUOUS
  0
LAYER
  2
BLUE2
  70
0
  62
5
  6
CONTINUOUS
  0
LAYER
  2
GREEN2
  70
0
  62
3
  6
CONTINUOUS
  0
LAYER
  2
CYAN2
  70
0
  62
4
  6
CONTINUOUS
  0
LAYER
  2
RED2
  70
0
  62
1
  6
CONTINUOUS
  0
LAYER
  2
MAGENTA2
  70
0
  62
6
  6
CONTINUOUS
  0
LAYER
  2
BROWN2
  70
0
  62
54
  6
CONTINUOUS
  0
LAYER
  2
BLUE3
  70
0
  62
171
  6
CONTINUOUS
  0
LAYER
  2
GREEN3
  70
0
  62
91
  6
CONTINUOUS
  0
LAYER
  2
CYAN3
  70
0
  62
131
  6
CONTINUOUS
  0
LAYER
  2
RED3
  70
0
  62
11
  6
CONTINUOUS
  0
LAYER
  2
MAGENTA3
  70
0
  62
221
  6
CONTINUOUS
  0
LAYER
  2
YELLOW3
  70
0
  62
2
  6
CONTINUOUS
  0
LAYER
  2
BLUE4
  70
0
  62
5
  6
CONTINUOUS
  0
LAYER
  2
GREEN4
  70
0
  62
3
  6
CONTINUOUS
  0
LAYER
  2
CYAN4
  70
0
  62
4
  6
CONTINUOUS
  0
LAYER
  2
RED4
  70
0
  62
1
  6
CONTINUOUS
  0
LAYER
  2
MAGENTA4
  70
0
  62
6
  6
CONTINUOUS
  0
LAYER
  2
YELLOW4
  70
0
  62
2
  6
CONTINUOUS
  0
ENDTAB
  0
ENDSEC
  0
SECTION
  2
ENTITIES
0
LINE
8
BLACK
6
CONTINUOUS
10
111.025
20
-61.3796
11
111.025
21
-61.37
0
LINE
8
BLACK
6
CONTINUOUS
10
111.025
20
-61.37
11
111.025
21
-61.3598
0
LINE
8
BLACK
6
CONTINUOUS
10
111.025
20
-61.3598
11
111.025
21
-61.3598
0
LINE
8
BLACK
6
CONTINUOUS
10
111.025
20
-61.3598
11
111.025
21
-61.3531
0
LINE
8
BLACK
6
CONTINUOUS
10
111.025
20
-61.3531
11
111.027
21
-61.3469
0
LINE
8
BLACK
6
CONTINUOUS
10
111.027
20
-61.3469
11
111.028
21
-61.3404
0
LINE
8
BLACK
6
CONTINUOUS
10
111.028
20
-61.3404
11
111.031
21
-61.3346
0
LINE
8
BLACK
6
CONTINUOUS
10
111.031
20
-61.3346
11
111.034
21
-61.3283
0
LINE
8
BLACK
6
CONTINUOUS
10
111.034
20
-61.3283
11
111.038
21
-61.3232
0
LINE
8
BLACK
6
CONTINUOUS
10
111.038
20
-61.3232
11
111.041
21
-61.3174
0
LINE
8
BLACK
6
CONTINUOUS
10
111.041
20
-61.3174
11
111.046
21
-61.3132
0
LINE
8
BLACK
6
CONTINUOUS
10
111.046
20
-61.3132
11
111.051
21
-61.308
0
LINE
8
BLACK
6
CONTINUOUS
10
111.051
20
-61.308
11
111.056
21
-61.3047
0
LINE
8
BLACK
6
CONTINUOUS
10
111.056
20
-61.3047
11
111.062
21
-61.3004
0
LINE
8
BLACK
6
CONTINUOUS
10
111.062
20
-61.3004
11
111.068
21
-61.2982
0
LINE
8
BLACK
6
CONTINUOUS
10
111.068
20
-61.2982
11
111.074
21
-61.2948
0
LINE
8
BLACK
6
CONTINUOUS
10
111.074
20
-61.2948
11
111.08
21
-61.2937
0
LINE
8
BLACK
6
CONTINUOUS
10
111.08
20
-61.2937
11
111.086
21
-61.2914
0
LINE
8
BLACK
6
CONTINUOUS
10
111.086
20
-61.2914
11
111.093
21
-61.2914
0
LINE
8
BLACK
6
CONTINUOUS
10
111.093
20
-61.2914
11
111.093
21
-61.2914
0
LINE
8
BLACK
6
CONTINUOUS
10
111.093
20
-61.2914
11
111.1
21
-61.2914
0
LINE
8
BLACK
6
CONTINUOUS
10
111.1
20
-61.2914
11
111.113
21
-61.2914
0
LINE
8
BLACK
6
CONTINUOUS
10
111.113
20
-61.2914
11
111.113
21
-61.2914
0
LINE
8
BLACK
6
CONTINUOUS
10
111.113
20
-61.2914
11
225.452
21
-61.3422
0
LINE
8
BLACK
6
CONTINUOUS
10
225.452
20
-61.3422
11
225.464
21
-61.3422
0
LINE
8
BLACK
6
CONTINUOUS
10
225.464
20
-61.3422
11
225.47
21
-61.3445
0
LINE
8
BLACK
6
CONTINUOUS
10
225.47
20
-61.3445
11
225.476
21
-61.3456
0
LINE
8
BLACK
6
CONTINUOUS
10
225.476
20
-61.3456
11
225.482
21
-61.349
0
LINE
8
BLACK
6
CONTINUOUS
10
225.482
20
-61.349
11
225.488
21
-61.3512
0
LINE
8
BLACK
6
CONTINUOUS
10
225.488
20
-61.3512
11
225.494
21
-61.3555
0
LINE
8
BLACK
6
CONTINUOUS
10
225.494
20
-61.3555
11
225.499
21
-61.3589
0
LINE
8
BLACK
6
CONTINUOUS
10
225.499
20
-61.3589
11
225.504
21
-61.364
0
LINE
8
BLACK
6
CONTINUOUS
10
225.504
20
-61.364
11
225.509
21
-61.3682
0
LINE
8
BLACK
6
CONTINUOUS
10
225.509
20
-61.3682
11
225.512
21
-61.374
0
LINE
8
BLACK
6
CONTINUOUS
10
225.512
20
-61.374
11
225.516
21
-61.3792
0
LINE
8
BLACK
6
CONTINUOUS
10
225.516
20
-61.3792
11
225.519
21
-61.3854
0
LINE
8
BLACK
6
CONTINUOUS
10
225.519
20
-61.3854
11
225.522
21
-61.3912
0
LINE
8
BLACK
6
CONTINUOUS
10
225.522
20
-61.3912
11
225.523
21
-61.3977
0
LINE
8
BLACK
6
CONTINUOUS
10
225.523
20
-61.3977
11
225.525
21
-61.404
0
LINE
8
BLACK
6
CONTINUOUS
10
225.525
20
-61.404
11
225.525
21
-61.4128
0
LINE
8
BLACK
6
CONTINUOUS
10
225.525
20
-61.4128
11
225.525
21
-80.3922
0
LINE
8
BLACK
6
CONTINUOUS
10
225.525
20
-80.3922
11
230.181
21
-80.3922
0
LINE
8
BLACK
6
CONTINUOUS
10
230.181
20
-80.3922
11
230.181
21
-80.3922
0
LINE
8
BLACK
6
CONTINUOUS
10
230.181
20
-80.3922
11
230.188
21
-80.3922
0
LINE
8
BLACK
6
CONTINUOUS
10
230.188
20
-80.3922
11
230.194
21
-80.3945
0
LINE
8
BLACK
6
CONTINUOUS
10
230.194
20
-80.3945
11
230.201
21
-80.3956
0
LINE
8
BLACK
6
CONTINUOUS
10
230.201
20
-80.3956
11
230.207
21
-80.399
0
LINE
8
BLACK
6
CONTINUOUS
10
230.207
20
-80.399
11
230.213
21
-80.4012
0
LINE
8
BLACK
6
CONTINUOUS
10
230.213
20
-80.4012
11
230.218
21
-80.4055
0
LINE
8
BLACK
6
CONTINUOUS
10
230.218
20
-80.4055
11
230.224
21
-80.4089
0
LINE
8
BLACK
6
CONTINUOUS
10
230.224
20
-80.4089
11
230.228
21
-80.414
0
LINE
8
BLACK
6
CONTINUOUS
10
230.228
20
-80.414
11
230.233
21
-80.4182
0
LINE
8
BLACK
6
CONTINUOUS
10
230.233
20
-80.4182
11
230.236
21
-80.424
0
LINE
8
BLACK
6
CONTINUOUS
10
230.236
20
-80.424
11
230.241
21
-80.4291
0
LINE
8
BLACK
6
CONTINUOUS
10
230.241
20
-80.4291
11
230.243
21
-80.4354
0
LINE
8
BLACK
6
CONTINUOUS
10
230.243
20
-80.4354
11
230.246
21
-80.4412
0
LINE
8
BLACK
6
CONTINUOUS
10
230.246
20
-80.4412
11
230.248
21
-80.4477
0
LINE
8
BLACK
6
CONTINUOUS
10
230.248
20
-80.4477
11
230.25
21
-80.454
0
LINE
8
BLACK
6
CONTINUOUS
10
230.25
20
-80.454
11
230.25
21
-80.4606
0
LINE
8
BLACK
6
CONTINUOUS
10
230.25
20
-80.4606
11
230.25
21
-80.4606
0
LINE
8
BLACK
6
CONTINUOUS
10
230.25
20
-80.4606
11
230.25
21
-99.4422
0
LINE
8
BLACK
6
CONTINUOUS
10
230.25
20
-99.4422
11
234.957
21
-99.4422
0
LINE
8
BLACK
6
CONTINUOUS
10
234.957
20
-99.4422
11
234.957
21
-99.4422
0
LINE
8
BLACK
6
CONTINUOUS
10
234.957
20
-99.4422
11
234.963
21
-99.4422
0
LINE
8
BLACK
6
CONTINUOUS
10
234.963
20
-99.4422
11
234.969
21
-99.4445
0
LINE
8
BLACK
6
CONTINUOUS
10
234.969
20
-99.4445
11
234.976
21
-99.4456
0
LINE
8
BLACK
6
CONTINUOUS
10
234.976
20
-99.4456
11
234.982
21
-99.449
0
LINE
8
BLACK
6
CONTINUOUS
10
234.982
20
-99.449
11
234.988
21
-99.4512
0
LINE
8
BLACK
6
CONTINUOUS
10
234.988
20
-99.4512
11
234.993
21
-99.4555
0
LINE
8
BLACK
6
CONTINUOUS
10
234.993
20
-99.4555
11
234.999
21
-99.4589
0
LINE
8
BLACK
6
CONTINUOUS
10
234.999
20
-99.4589
11
235.003
21
-99.464
0
LINE
8
BLACK
6
CONTINUOUS
10
235.003
20
-99.464
11
235.008
21
-99.4682
0
LINE
8
BLACK
6
CONTINUOUS
10
235.008
20
-99.4682
11
235.012
21
-99.474
0
LINE
8
BLACK
6
CONTINUOUS
10
235.012
20
-99.474
11
235.016
21
-99.4791
0
LINE
8
BLACK
6
CONTINUOUS
10
235.016
20
-99.4791
11
235.018
21
-99.4854
0
LINE
8
BLACK
6
CONTINUOUS
10
235.018
20
-99.4854
11
235.022
21
-99.4912
0
LINE
8
BLACK
6
CONTINUOUS
10
235.022
20
-99.4912
11
235.023
21
-99.4977
0
LINE
8
BLACK
6
CONTINUOUS
10
235.023
20
-99.4977
11
235.025
21
-99.504
0
LINE
8
BLACK
6
CONTINUOUS
10
235.025
20
-99.504
11
235.025
21
-99.5106
0
LINE
8
BLACK
6
CONTINUOUS
10
235.025
20
-99.5106
11
235.025
21
-99.5106
0
LINE
8
BLACK
6
CONTINUOUS
10
235.025
20
-99.5106
11
235.025
21
-118.492
0
LINE
8
BLACK
6
CONTINUOUS
10
235.025
20
-118.492
11
239.732
21
-118.492
0
LINE
8
BLACK
6
CONTINUOUS
10
239.732
20
-118.492
11
239.732
21
-118.492
0
LINE
8
BLACK
6
CONTINUOUS
10
239.732
20
-118.492
11
239.738
21
-118.492
0
LINE
8
BLACK
6
CONTINUOUS
10
239.738
20
-118.492
11
239.745
21
-118.494
0
LINE
8
BLACK
6
CONTINUOUS
10
239.745
20
-118.494
11
239.751
21
-118.496
0
LINE
8
BLACK
6
CONTINUOUS
10
239.751
20
-118.496
11
239.757
21
-118.499
0
LINE
8
BLACK
6
CONTINUOUS
10
239.757
20
-118.499
11
239.763
21
-118.501
0
LINE
8
BLACK
6
CONTINUOUS
10
239.763
20
-118.501
11
239.768
21
-118.506
0
LINE
8
BLACK
6
CONTINUOUS
10
239.768
20
-118.506
11
239.774
21
-118.509
0
LINE
8
BLACK
6
CONTINUOUS
10
239.774
20
-118.509
11
239.778
21
-118.514
0
LINE
8
BLACK
6
CONTINUOUS
10
239.778
20
-118.514
11
239.784
21
-118.518
0
LINE
8
BLACK
6
CONTINUOUS
10
239.784
20
-118.518
11
239.787
21
-118.524
0
LINE
8
BLACK
6
CONTINUOUS
10
239.787
20
-118.524
11
239.791
21
-118.529
0
LINE
8
BLACK
6
CONTINUOUS
10
239.791
20
-118.529
11
239.793
21
-118.535
0
LINE
8
BLACK
6
CONTINUOUS
10
239.793
20
-118.535
11
239.797
21
-118.541
0
LINE
8
BLACK
6
CONTINUOUS
10
239.797
20
-118.541
11
239.798
21
-118.548
0
LINE
8
BLACK
6
CONTINUOUS
10
239.798
20
-118.548
11
239.8
21
-118.554
0
LINE
8
BLACK
6
CONTINUOUS
10
239.8
20
-118.554
11
239.8
21
-118.561
0
LINE
8
BLACK
6
CONTINUOUS
10
239.8
20
-118.561
11
239.8
21
-118.561
0
LINE
8
BLACK
6
CONTINUOUS
10
239.8
20
-118.561
11
239.8
21
-137.624
0
LINE
8
BLACK
6
CONTINUOUS
10
239.8
20
-137.624
11
239.8
21
-137.624
0
LINE
8
BLACK
6
CONTINUOUS
10
239.8
20
-137.624
11
239.8
21
-137.63
0
LINE
8
BLACK
6
CONTINUOUS
10
239.8
20
-137.63
11
239.798
21
-137.637
0
LINE
8
BLACK
6
CONTINUOUS
10
239.798
20
-137.637
11
239.797
21
-137.643
0
LINE
8
BLACK
6
CONTINUOUS
10
239.797
20
-137.643
11
239.793
21
-137.649
0
LINE
8
BLACK
6
CONTINUOUS
10
239.793
20
-137.649
11
239.791
21
-137.655
0
LINE
8
BLACK
6
CONTINUOUS
10
239.791
20
-137.655
11
239.787
21
-137.66
0
LINE
8
BLACK
6
CONTINUOUS
10
239.787
20
-137.66
11
239.784
21
-137.666
0
LINE
8
BLACK
6
CONTINUOUS
10
239.784
20
-137.666
11
239.778
21
-137.67
0
LINE
8
BLACK
6
CONTINUOUS
10
239.778
20
-137.67
11
239.774
21
-137.676
0
LINE
8
BLACK
6
CONTINUOUS
10
239.774
20
-137.676
11
239.768
21
-137.679
0
LINE
8
BLACK
6
CONTINUOUS
10
239.768
20
-137.679
11
239.763
21
-137.683
0
LINE
8
BLACK
6
CONTINUOUS
10
239.763
20
-137.683
11
239.757
21
-137.685
0
LINE
8
BLACK
6
CONTINUOUS
10
239.757
20
-137.685
11
239.751
21
-137.689
0
LINE
8
BLACK
6
CONTINUOUS
10
239.751
20
-137.689
11
239.745
21
-137.69
0
LINE
8
BLACK
6
CONTINUOUS
10
239.745
20
-137.69
11
239.738
21
-137.692
0
LINE
8
BLACK
6
CONTINUOUS
10
239.738
20
-137.692
11
239.732
21
-137.692
0
LINE
8
BLACK
6
CONTINUOUS
10
239.732
20
-137.692
11
239.732
21
-137.692
0
LINE
8
BLACK
6
CONTINUOUS
10
239.732
20
-137.692
11
125.419
21
-137.692
0
LINE
8
BLACK
6
CONTINUOUS
10
125.419
20
-137.692
11
125.419
21
-137.692
0
LINE
8
BLACK
6
CONTINUOUS
10
125.419
20
-137.692
11
125.412
21
-137.692
0
LINE
8
BLACK
6
CONTINUOUS
10
125.412
20
-137.692
11
125.406
21
-137.69
0
LINE
8
BLACK
6
CONTINUOUS
10
125.406
20
-137.69
11
125.399
21
-137.689
0
LINE
8
BLACK
6
CONTINUOUS
10
125.399
20
-137.689
11
125.393
21
-137.685
0
LINE
8
BLACK
6
CONTINUOUS
10
125.393
20
-137.685
11
125.387
21
-137.683
0
LINE
8
BLACK
6
CONTINUOUS
10
125.387
20
-137.683
11
125.382
21
-137.679
0
LINE
8
BLACK
6
CONTINUOUS
10
125.382
20
-137.679
11
125.376
21
-137.676
0
LINE
8
BLACK
6
CONTINUOUS
10
125.376
20
-137.676
11
125.372
21
-137.67
0
LINE
8
BLACK
6
CONTINUOUS
10
125.372
20
-137.67
11
125.367
21
-137.666
0
LINE
8
BLACK
6
CONTINUOUS
10
125.367
20
-137.666
11
125.364
21
-137.66
0
LINE
8
BLACK
6
CONTINUOUS
10
125.364
20
-137.66
11
125.359
21
-137.655
0
LINE
8
BLACK
6
CONTINUOUS
10
125.359
20
-137.655
11
125.357
21
-137.649
0
LINE
8
BLACK
6
CONTINUOUS
10
125.357
20
-137.649
11
125.354
21
-137.643
0
LINE
8
BLACK
6
CONTINUOUS
10
125.354
20
-137.643
11
125.352
21
-137.637
0
LINE
8
BLACK
6
CONTINUOUS
10
125.352
20
-137.637
11
125.35
21
-137.63
0
LINE
8
BLACK
6
CONTINUOUS
10
125.35
20
-137.63
11
125.35
21
-137.604
0
LINE
8
BLACK
6
CONTINUOUS
10
125.35
20
-137.604
11
125.35
21
-118.642
0
LINE
8
BLACK
6
CONTINUOUS
10
125.35
20
-118.642
11
120.643
21
-118.642
0
LINE
8
BLACK
6
CONTINUOUS
10
120.643
20
-118.642
11
120.643
21
-118.642
0
LINE
8
BLACK
6
CONTINUOUS
10
120.643
20
-118.642
11
120.637
21
-118.642
0
LINE
8
BLACK
6
CONTINUOUS
10
120.637
20
-118.642
11
120.631
21
-118.64
0
LINE
8
BLACK
6
CONTINUOUS
10
120.631
20
-118.64
11
120.624
21
-118.639
0
LINE
8
BLACK
6
CONTINUOUS
10
120.624
20
-118.639
11
120.618
21
-118.635
0
LINE
8
BLACK
6
CONTINUOUS
10
120.618
20
-118.635
11
120.612
21
-118.633
0
LINE
8
BLACK
6
CONTINUOUS
10
120.612
20
-118.633
11
120.607
21
-118.629
0
LINE
8
BLACK
6
CONTINUOUS
10
120.607
20
-118.629
11
120.601
21
-118.626
0
LINE
8
BLACK
6
CONTINUOUS
10
120.601
20
-118.626
11
120.597
21
-118.62
0
LINE
8
BLACK
6
CONTINUOUS
10
120.597
20
-118.62
11
120.592
21
-118.616
0
LINE
8
BLACK
6
CONTINUOUS
10
120.592
20
-118.616
11
120.588
21
-118.61
0
LINE
8
BLACK
6
CONTINUOUS
10
120.588
20
-118.61
11
120.584
21
-118.605
0
LINE
8
BLACK
6
CONTINUOUS
10
120.584
20
-118.605
11
120.582
21
-118.599
0
LINE
8
BLACK
6
CONTINUOUS
10
120.582
20
-118.599
11
120.578
21
-118.593
0
LINE
8
BLACK
6
CONTINUOUS
10
120.578
20
-118.593
11
120.577
21
-118.587
0
LINE
8
BLACK
6
CONTINUOUS
10
120.577
20
-118.587
11
120.575
21
-118.58
0
LINE
8
BLACK
6
CONTINUOUS
10
120.575
20
-118.58
11
120.575
21
-118.554
0
LINE
8
BLACK
6
CONTINUOUS
10
120.575
20
-118.554
11
120.575
21
-99.5922
0
LINE
8
BLACK
6
CONTINUOUS
10
120.575
20
-99.5922
11
115.868
21
-99.5922
0
LINE
8
BLACK
6
CONTINUOUS
10
115.868
20
-99.5922
11
115.868
21
-99.5922
0
LINE
8
BLACK
6
CONTINUOUS
10
115.868
20
-99.5922
11
115.862
21
-99.5922
0
LINE
8
BLACK
6
CONTINUOUS
10
115.862
20
-99.5922
11
115.855
21
-99.5899
0
LINE
8
BLACK
6
CONTINUOUS
10
115.855
20
-99.5899
11
115.849
21
-99.5888
0
LINE
8
BLACK
6
CONTINUOUS
10
115.849
20
-99.5888
11
115.843
21
-99.5854
0
LINE
8
BLACK
6
CONTINUOUS
10
115.843
20
-99.5854
11
115.837
21
-99.5832
0
LINE
8
BLACK
6
CONTINUOUS
10
115.837
20
-99.5832
11
115.832
21
-99.5789
0
LINE
8
BLACK
6
CONTINUOUS
10
115.832
20
-99.5789
11
115.826
21
-99.5755
0
LINE
8
BLACK
6
CONTINUOUS
10
115.826
20
-99.5755
11
115.822
21
-99.5704
0
LINE
8
BLACK
6
CONTINUOUS
10
115.822
20
-99.5704
11
115.816
21
-99.5662
0
LINE
8
BLACK
6
CONTINUOUS
10
115.816
20
-99.5662
11
115.813
21
-99.5604
0
LINE
8
BLACK
6
CONTINUOUS
10
115.813
20
-99.5604
11
115.809
21
-99.5553
0
LINE
8
BLACK
6
CONTINUOUS
10
115.809
20
-99.5553
11
115.807
21
-99.549
0
LINE
8
BLACK
6
CONTINUOUS
10
115.807
20
-99.549
11
115.803
21
-99.5432
0
LINE
8
BLACK
6
CONTINUOUS
10
115.803
20
-99.5432
11
115.802
21
-99.5367
0
LINE
8
BLACK
6
CONTINUOUS
10
115.802
20
-99.5367
11
115.8
21
-99.5304
0
LINE
8
BLACK
6
CONTINUOUS
10
115.8
20
-99.5304
11
115.8
21
-99.504
0
LINE
8
BLACK
6
CONTINUOUS
10
115.8
20
-99.504
11
115.8
21
-81.9646
0
LINE
8
BLACK
6
CONTINUOUS
10
115.8
20
-81.9646
11
111.093
21
-81.9646
0
LINE
8
BLACK
6
CONTINUOUS
10
111.093
20
-81.9646
11
111.093
21
-81.9646
0
LINE
8
BLACK
6
CONTINUOUS
10
111.093
20
-81.9646
11
111.086
21
-81.9646
0
LINE
8
BLACK
6
CONTINUOUS
10
111.086
20
-81.9646
11
111.08
21
-81.9623
0
LINE
8
BLACK
6
CONTINUOUS
10
111.08
20
-81.9623
11
111.074
21
-81.9612
0
LINE
8
BLACK
6
CONTINUOUS
10
111.074
20
-81.9612
11
111.068
21
-81.9578
0
LINE
8
BLACK
6
CONTINUOUS
10
111.068
20
-81.9578
11
111.062
21
-81.9556
0
LINE
8
BLACK
6
CONTINUOUS
10
111.062
20
-81.9556
11
111.056
21
-81.9513
0
LINE
8
BLACK
6
CONTINUOUS
10
111.056
20
-81.9513
11
111.051
21
-81.9479
0
LINE
8
BLACK
6
CONTINUOUS
10
111.051
20
-81.9479
11
111.046
21
-81.9428
0
LINE
8
BLACK
6
CONTINUOUS
10
111.046
20
-81.9428
11
111.041
21
-81.9386
0
LINE
8
BLACK
6
CONTINUOUS
10
111.041
20
-81.9386
11
111.038
21
-81.9328
0
LINE
8
BLACK
6
CONTINUOUS
10
111.038
20
-81.9328
11
111.034
21
-81.9277
0
LINE
8
BLACK
6
CONTINUOUS
10
111.034
20
-81.9277
11
111.031
21
-81.9214
0
LINE
8
BLACK
6
CONTINUOUS
10
111.031
20
-81.9214
11
111.028
21
-81.9156
0
LINE
8
BLACK
6
CONTINUOUS
10
111.028
20
-81.9156
11
111.027
21
-81.9091
0
LINE
8
BLACK
6
CONTINUOUS
10
111.027
20
-81.9091
11
111.025
21
-81.9028
0
LINE
8
BLACK
6
CONTINUOUS
10
111.025
20
-81.9028
11
111.025
21
-81.8764
0
LINE
8
BLACK
6
CONTINUOUS
10
111.025
20
-81.8764
11
111.025
21
-81.629
0
LINE
8
BLACK
6
CONTINUOUS
10
111.025
20
-81.629
11
111.025
21
-81.629
0
LINE
8
BLACK
6
CONTINUOUS
10
111.025
20
-81.629
11
111.025
21
-61.4106
0
LINE
8
BLACK
6
CONTINUOUS
10
111.025
20
-61.4106
11
111.025
21
-61.3796
0
LINE
8
BLACK
6
CONTINUOUS
10
111.025
20
-61.3796
11
111.025
21
-61.3796
0
LINE
8
BLACK
6
CONTINUOUS
10
115.881
20
-81.8146
11
115.881
21
-81.8146
0
LINE
8
BLACK
6
CONTINUOUS
10
115.881
20
-81.8146
11
115.888
21
-81.8146
0
LINE
8
BLACK
6
CONTINUOUS
10
115.888
20
-81.8146
11
115.894
21
-81.8169
0
LINE
8
BLACK
6
CONTINUOUS
10
115.894
20
-81.8169
11
115.901
21
-81.818
0
LINE
8
BLACK
6
CONTINUOUS
10
115.901
20
-81.818
11
115.907
21
-81.8214
0
LINE
8
BLACK
6
CONTINUOUS
10
115.907
20
-81.8214
11
115.913
21
-81.8236
0
LINE
8
BLACK
6
CONTINUOUS
10
115.913
20
-81.8236
11
115.918
21
-81.8279
0
LINE
8
BLACK
6
CONTINUOUS
10
115.918
20
-81.8279
11
115.924
21
-81.8313
0
LINE
8
BLACK
6
CONTINUOUS
10
115.924
20
-81.8313
11
115.928
21
-81.8364
0
LINE
8
BLACK
6
CONTINUOUS
10
115.928
20
-81.8364
11
115.933
21
-81.8406
0
LINE
8
BLACK
6
CONTINUOUS
10
115.933
20
-81.8406
11
115.936
21
-81.8464
0
LINE
8
BLACK
6
CONTINUOUS
10
115.936
20
-81.8464
11
115.941
21
-81.8515
0
LINE
8
BLACK
6
CONTINUOUS
10
115.941
20
-81.8515
11
115.943
21
-81.8578
0
LINE
8
BLACK
6
CONTINUOUS
10
115.943
20
-81.8578
11
115.946
21
-81.8636
0
LINE
8
BLACK
6
CONTINUOUS
10
115.946
20
-81.8636
11
115.948
21
-81.8701
0
LINE
8
BLACK
6
CONTINUOUS
10
115.948
20
-81.8701
11
115.95
21
-81.8764
0
LINE
8
BLACK
6
CONTINUOUS
10
115.95
20
-81.8764
11
115.95
21
-81.883
0
LINE
8
BLACK
6
CONTINUOUS
10
115.95
20
-81.883
11
115.95
21
-81.883
0
LINE
8
BLACK
6
CONTINUOUS
10
115.95
20
-81.883
11
115.95
21
-99.4422
0
LINE
8
BLACK
6
CONTINUOUS
10
115.95
20
-99.4422
11
120.657
21
-99.4422
0
LINE
8
BLACK
6
CONTINUOUS
10
120.657
20
-99.4422
11
120.657
21
-99.4422
0
LINE
8
BLACK
6
CONTINUOUS
10
120.657
20
-99.4422
11
120.663
21
-99.4422
0
LINE
8
BLACK
6
CONTINUOUS
10
120.663
20
-99.4422
11
120.669
21
-99.4445
0
LINE
8
BLACK
6
CONTINUOUS
10
120.669
20
-99.4445
11
120.676
21
-99.4456
0
LINE
8
BLACK
6
CONTINUOUS
10
120.676
20
-99.4456
11
120.682
21
-99.449
0
LINE
8
BLACK
6
CONTINUOUS
10
120.682
20
-99.449
11
120.688
21
-99.4512
0
LINE
8
BLACK
6
CONTINUOUS
10
120.688
20
-99.4512
11
120.693
21
-99.4555
0
LINE
8
BLACK
6
CONTINUOUS
10
120.693
20
-99.4555
11
120.699
21
-99.4589
0
LINE
8
BLACK
6
CONTINUOUS
10
120.699
20
-99.4589
11
120.703
21
-99.464
0
LINE
8
BLACK
6
CONTINUOUS
10
120.703
20
-99.464
11
120.708
21
-99.4682
0
LINE
8
BLACK
6
CONTINUOUS
10
120.708
20
-99.4682
11
120.712
21
-99.474
0
LINE
8
BLACK
6
CONTINUOUS
10
120.712
20
-99.474
11
120.716
21
-99.4791
0
LINE
8
BLACK
6
CONTINUOUS
10
120.716
20
-99.4791
11
120.718
21
-99.4854
0
LINE
8
BLACK
6
CONTINUOUS
10
120.718
20
-99.4854
11
120.722
21
-99.4912
0
LINE
8
BLACK
6
CONTINUOUS
10
120.722
20
-99.4912
11
120.723
21
-99.4977
0
LINE
8
BLACK
6
CONTINUOUS
10
120.723
20
-99.4977
11
120.725
21
-99.504
0
LINE
8
BLACK
6
CONTINUOUS
10
120.725
20
-99.504
11
120.725
21
-99.5106
0
LINE
8
BLACK
6
CONTINUOUS
10
120.725
20
-99.5106
11
120.725
21
-99.5106
0
LINE
8
BLACK
6
CONTINUOUS
10
120.725
20
-99.5106
11
120.725
21
-118.492
0
LINE
8
BLACK
6
CONTINUOUS
10
120.725
20
-118.492
11
125.432
21
-118.492
0
LINE
8
BLACK
6
CONTINUOUS
10
125.432
20
-118.492
11
125.432
21
-118.492
0
LINE
8
BLACK
6
CONTINUOUS
10
125.432
20
-118.492
11
125.438
21
-118.492
0
LINE
8
BLACK
6
CONTINUOUS
10
125.438
20
-118.492
11
125.445
21
-118.494
0
LINE
8
BLACK
6
CONTINUOUS
10
125.445
20
-118.494
11
125.451
21
-118.496
0
LINE
8
BLACK
6
CONTINUOUS
10
125.451
20
-118.496
11
125.457
21
-118.499
0
LINE
8
BLACK
6
CONTINUOUS
10
125.457
20
-118.499
11
125.463
21
-118.501
0
LINE
8
BLACK
6
CONTINUOUS
10
125.463
20
-118.501
11
125.468
21
-118.506
0
LINE
8
BLACK
6
CONTINUOUS
10
125.468
20
-118.506
11
125.474
21
-118.509
0
LINE
8
BLACK
6
CONTINUOUS
10
125.474
20
-118.509
11
125.478
21
-118.514
0
LINE
8
BLACK
6
CONTINUOUS
10
125.478
20
-118.514
11
125.484
21
-118.518
0
LINE
8
BLACK
6
CONTINUOUS
10
125.484
20
-118.518
11
125.487
21
-118.524
0
LINE
8
BLACK
6
CONTINUOUS
10
125.487
20
-118.524
11
125.491
21
-118.529
0
LINE
8
BLACK
6
CONTINUOUS
10
125.491
20
-118.529
11
125.493
21
-118.535
0
LINE
8
BLACK
6
CONTINUOUS
10
125.493
20
-118.535
11
125.497
21
-118.541
0
LINE
8
BLACK
6
CONTINUOUS
10
125.497
20
-118.541
11
125.498
21
-118.548
0
LINE
8
BLACK
6
CONTINUOUS
10
125.498
20
-118.548
11
125.5
21
-118.554
0
LINE
8
BLACK
6
CONTINUOUS
10
125.5
20
-118.554
11
125.5
21
-118.561
0
LINE
8
BLACK
6
CONTINUOUS
10
125.5
20
-118.561
11
125.5
21
-118.561
0
LINE
8
BLACK
6
CONTINUOUS
10
125.5
20
-118.561
11
125.5
21
-137.542
0
LINE
8
BLACK
6
CONTINUOUS
10
125.5
20
-137.542
11
239.65
21
-137.542
0
LINE
8
BLACK
6
CONTINUOUS
10
239.65
20
-137.542
11
239.65
21
-118.642
0
LINE
8
BLACK
6
CONTINUOUS
10
239.65
20
-118.642
11
234.943
21
-118.642
0
LINE
8
BLACK
6
CONTINUOUS
10
234.943
20
-118.642
11
234.943
21
-118.642
0
LINE
8
BLACK
6
CONTINUOUS
10
234.943
20
-118.642
11
234.937
21
-118.642
0
LINE
8
BLACK
6
CONTINUOUS
10
234.937
20
-118.642
11
234.931
21
-118.64
0
LINE
8
BLACK
6
CONTINUOUS
10
234.931
20
-118.64
11
234.924
21
-118.639
0
LINE
8
BLACK
6
CONTINUOUS
10
234.924
20
-118.639
11
234.918
21
-118.635
0
LINE
8
BLACK
6
CONTINUOUS
10
234.918
20
-118.635
11
234.912
21
-118.633
0
LINE
8
BLACK
6
CONTINUOUS
10
234.912
20
-118.633
11
234.907
21
-118.629
0
LINE
8
BLACK
6
CONTINUOUS
10
234.907
20
-118.629
11
234.901
21
-118.626
0
LINE
8
BLACK
6
CONTINUOUS
10
234.901
20
-118.626
11
234.897
21
-118.62
0
LINE
8
BLACK
6
CONTINUOUS
10
234.897
20
-118.62
11
234.892
21
-118.616
0
LINE
8
BLACK
6
CONTINUOUS
10
234.892
20
-118.616
11
234.888
21
-118.61
0
LINE
8
BLACK
6
CONTINUOUS
10
234.888
20
-118.61
11
234.884
21
-118.605
0
LINE
8
BLACK
6
CONTINUOUS
10
234.884
20
-118.605
11
234.882
21
-118.599
0
LINE
8
BLACK
6
CONTINUOUS
10
234.882
20
-118.599
11
234.878
21
-118.593
0
LINE
8
BLACK
6
CONTINUOUS
10
234.878
20
-118.593
11
234.877
21
-118.587
0
LINE
8
BLACK
6
CONTINUOUS
10
234.877
20
-118.587
11
234.875
21
-118.58
0
LINE
8
BLACK
6
CONTINUOUS
10
234.875
20
-118.58
11
234.875
21
-118.574
0
LINE
8
BLACK
6
CONTINUOUS
10
234.875
20
-118.574
11
234.875
21
-118.574
0
LINE
8
BLACK
6
CONTINUOUS
10
234.875
20
-118.574
11
234.875
21
-99.5922
0
LINE
8
BLACK
6
CONTINUOUS
10
234.875
20
-99.5922
11
230.168
21
-99.5922
0
LINE
8
BLACK
6
CONTINUOUS
10
230.168
20
-99.5922
11
230.168
21
-99.5922
0
LINE
8
BLACK
6
CONTINUOUS
10
230.168
20
-99.5922
11
230.162
21
-99.5922
0
LINE
8
BLACK
6
CONTINUOUS
10
230.162
20
-99.5922
11
230.155
21
-99.5899
0
LINE
8
BLACK
6
CONTINUOUS
10
230.155
20
-99.5899
11
230.149
21
-99.5888
0
LINE
8
BLACK
6
CONTINUOUS
10
230.149
20
-99.5888
11
230.143
21
-99.5854
0
LINE
8
BLACK
6
CONTINUOUS
10
230.143
20
-99.5854
11
230.137
21
-99.5832
0
LINE
8
BLACK
6
CONTINUOUS
10
230.137
20
-99.5832
11
230.132
21
-99.5789
0
LINE
8
BLACK
6
CONTINUOUS
10
230.132
20
-99.5789
11
230.126
21
-99.5755
0
LINE
8
BLACK
6
CONTINUOUS
10
230.126
20
-99.5755
11
230.122
21
-99.5704
0
LINE
8
BLACK
6
CONTINUOUS
10
230.122
20
-99.5704
11
230.116
21
-99.5662
0
LINE
8
BLACK
6
CONTINUOUS
10
230.116
20
-99.5662
11
230.113
21
-99.5604
0
LINE
8
BLACK
6
CONTINUOUS
10
230.113
20
-99.5604
11
230.109
21
-99.5553
0
LINE
8
BLACK
6
CONTINUOUS
10
230.109
20
-99.5553
11
230.107
21
-99.549
0
LINE
8
BLACK
6
CONTINUOUS
10
230.107
20
-99.549
11
230.103
21
-99.5432
0
LINE
8
BLACK
6
CONTINUOUS
10
230.103
20
-99.5432
11
230.102
21
-99.5367
0
LINE
8
BLACK
6
CONTINUOUS
10
230.102
20
-99.5367
11
230.1
21
-99.5304
0
LINE
8
BLACK
6
CONTINUOUS
10
230.1
20
-99.5304
11
230.1
21
-99.5238
0
LINE
8
BLACK
6
CONTINUOUS
10
230.1
20
-99.5238
11
230.1
21
-99.5238
0
LINE
8
BLACK
6
CONTINUOUS
10
230.1
20
-99.5238
11
230.1
21
-80.5422
0
LINE
8
BLACK
6
CONTINUOUS
10
230.1
20
-80.5422
11
225.444
21
-80.5422
0
LINE
8
BLACK
6
CONTINUOUS
10
225.444
20
-80.5422
11
225.444
21
-80.5422
0
LINE
8
BLACK
6
CONTINUOUS
10
225.444
20
-80.5422
11
225.437
21
-80.5422
0
LINE
8
BLACK
6
CONTINUOUS
10
225.437
20
-80.5422
11
225.431
21
-80.5399
0
LINE
8
BLACK
6
CONTINUOUS
10
225.431
20
-80.5399
11
225.424
21
-80.5388
0
LINE
8
BLACK
6
CONTINUOUS
10
225.424
20
-80.5388
11
225.419
21
-80.5354
0
LINE
8
BLACK
6
CONTINUOUS
10
225.419
20
-80.5354
11
225.412
21
-80.5332
0
LINE
8
BLACK
6
CONTINUOUS
10
225.412
20
-80.5332
11
225.407
21
-80.5289
0
LINE
8
BLACK
6
CONTINUOUS
10
225.407
20
-80.5289
11
225.401
21
-80.5255
0
LINE
8
BLACK
6
CONTINUOUS
10
225.401
20
-80.5255
11
225.397
21
-80.5204
0
LINE
8
BLACK
6
CONTINUOUS
10
225.397
20
-80.5204
11
225.392
21
-80.5162
0
LINE
8
BLACK
6
CONTINUOUS
10
225.392
20
-80.5162
11
225.389
21
-80.5104
0
LINE
8
BLACK
6
CONTINUOUS
10
225.389
20
-80.5104
11
225.384
21
-80.5053
0
LINE
8
BLACK
6
CONTINUOUS
10
225.384
20
-80.5053
11
225.382
21
-80.499
0
LINE
8
BLACK
6
CONTINUOUS
10
225.382
20
-80.499
11
225.379
21
-80.4932
0
LINE
8
BLACK
6
CONTINUOUS
10
225.379
20
-80.4932
11
225.378
21
-80.4867
0
LINE
8
BLACK
6
CONTINUOUS
10
225.378
20
-80.4867
11
225.375
21
-80.4804
0
LINE
8
BLACK
6
CONTINUOUS
10
225.375
20
-80.4804
11
225.375
21
-80.4738
0
LINE
8
BLACK
6
CONTINUOUS
10
225.375
20
-80.4738
11
225.375
21
-80.4738
0
LINE
8
BLACK
6
CONTINUOUS
10
225.375
20
-80.4738
11
225.375
21
-61.4922
0
LINE
8
BLACK
6
CONTINUOUS
10
225.375
20
-61.4922
11
111.175
21
-61.4414
0
LINE
8
BLACK
6
CONTINUOUS
10
111.175
20
-61.4414
11
111.175
21
-81.8146
0
LINE
8
BLACK
6
CONTINUOUS
10
111.175
20
-81.8146
11
115.881
21
-81.8146
  0
ENDSEC
  0
EOF
