  0
SECTION
  2
HEADER
  9
$ACADVER
  1
AC1009
  9
$EXTMIN
 10
0.0
 20
0.0
 30
0.0
  9
$EXTMAX
 10
1000.0
 20
1000.0
 30
0.0
  9
$FILLMODE
 70
 0
  9
$SPLFRAME
 70
 1
  0
ENDSEC
  0
SECTION
  2
TABLES
  0
TABLE
  2
LAYER
 70
1
  0
LAYER
  2
0
 70
     0
 62
     7
  6
CONTINUOUS
  0
ENDTAB
  0
ENDSEC
  0
SECTION
  2
ENTITIES
  0
LINE
  8
0
 62
     0
 10
0.0950846
 20
76.2801
 30
0.0
 11
128.683
 21
76.2801
 31
0.0
  0
LINE
  8
0
 62
     0
 10
128.683
 20
76.2801
 30
0.0
 11
128.683
 21
0.0799264
 31
0.0
  0
LINE
  8
0
 62
     0
 10
128.683
 20
0.0799264
 30
0.0
 11
0.0950846
 21
0.0799264
 31
0.0
  0
LINE
  8
0
 62
     0
 10
0.0950846
 20
0.0799264
 30
0.0
 11
0.0950846
 21
76.2801
 31
0.0
  0
LINE
  8
0
 62
     0
 10
2.61965
 20
16.6054
 30
0.0
 11
16.6192
 21
16.6054
 31
0.0
  0
LINE
  8
0
 62
     0
 10
16.6192
 20
16.6054
 30
0.0
 11
16.6192
 21
2.60587
 31
0.0
  0
LINE
  8
0
 62
     0
 10
16.6192
 20
2.60587
 30
0.0
 11
2.61965
 21
2.60587
 31
0.0
  0
LINE
  8
0
 62
     0
 10
2.61965
 20
2.60587
 30
0.0
 11
2.61965
 21
16.6054
 31
0.0
  0
LINE
  8
0
 62
     0
 10
21.6697
 20
16.6054
 30
0.0
 11
35.669
 21
16.6054
 31
0.0
  0
LINE
  8
0
 62
     0
 10
35.669
 20
16.6054
 30
0.0
 11
35.669
 21
2.60587
 31
0.0
  0
LINE
  8
0
 62
     0
 10
35.669
 20
2.60587
 30
0.0
 11
21.6697
 21
2.60587
 31
0.0
  0
LINE
  8
0
 62
     0
 10
21.6697
 20
2.60587
 30
0.0
 11
21.6697
 21
16.6054
 31
0.0
  0
LINE
  8
0
 62
     0
 10
40.7197
 20
16.6054
 30
0.0
 11
54.719
 21
16.6054
 31
0.0
  0
LINE
  8
0
 62
     0
 10
54.719
 20
16.6054
 30
0.0
 11
54.719
 21
2.60587
 31
0.0
  0
LINE
  8
0
 62
     0
 10
54.719
 20
2.60587
 30
0.0
 11
40.7197
 21
2.60587
 31
0.0
  0
LINE
  8
0
 62
     0
 10
40.7197
 20
2.60587
 30
0.0
 11
40.7197
 21
16.6054
 31
0.0
  0
LINE
  8
0
 62
     0
 10
59.7697
 20
16.6054
 30
0.0
 11
73.769
 21
16.6054
 31
0.0
  0
LINE
  8
0
 62
     0
 10
73.769
 20
16.6054
 30
0.0
 11
73.769
 21
2.60587
 31
0.0
  0
LINE
  8
0
 62
     0
 10
73.769
 20
2.60587
 30
0.0
 11
59.7697
 21
2.60587
 31
0.0
  0
LINE
  8
0
 62
     0
 10
59.7697
 20
2.60587
 30
0.0
 11
59.7697
 21
16.6054
 31
0.0
  0
LINE
  8
0
 62
     0
 10
78.8197
 20
16.6054
 30
0.0
 11
92.819
 21
16.6054
 31
0.0
  0
LINE
  8
0
 62
     0
 10
92.819
 20
16.6054
 30
0.0
 11
92.819
 21
2.60587
 31
0.0
  0
LINE
  8
0
 62
     0
 10
92.819
 20
2.60587
 30
0.0
 11
78.8197
 21
2.60587
 31
0.0
  0
LINE
  8
0
 62
     0
 10
78.8197
 20
2.60587
 30
0.0
 11
78.8197
 21
16.6054
 31
0.0
  0
LINE
  8
0
 62
     0
 10
97.8683
 20
16.6054
 30
0.0
 11
111.869
 21
16.6054
 31
0.0
  0
LINE
  8
0
 62
     0
 10
111.869
 20
16.6054
 30
0.0
 11
111.869
 21
2.60587
 31
0.0
  0
LINE
  8
0
 62
     0
 10
111.869
 20
2.60587
 30
0.0
 11
97.8683
 21
2.60587
 31
0.0
  0
LINE
  8
0
 62
     0
 10
97.8683
 20
2.60587
 30
0.0
 11
97.8683
 21
16.6054
 31
0.0
  0
LINE
  8
0
 62
     0
 10
7.38216
 20
35.6553
 30
0.0
 11
21.3817
 21
35.6553
 31
0.0
  0
LINE
  8
0
 62
     0
 10
21.3817
 20
35.6553
 30
0.0
 11
21.3817
 21
21.6559
 31
0.0
  0
LINE
  8
0
 62
     0
 10
21.3817
 20
21.6559
 30
0.0
 11
7.38216
 21
21.6559
 31
0.0
  0
LINE
  8
0
 62
     0
 10
7.38216
 20
21.6559
 30
0.0
 11
7.38216
 21
35.6553
 31
0.0
  0
LINE
  8
0
 62
     0
 10
26.4322
 20
35.6553
 30
0.0
 11
40.4315
 21
35.6553
 31
0.0
  0
LINE
  8
0
 62
     0
 10
40.4315
 20
35.6553
 30
0.0
 11
40.4315
 21
21.6559
 31
0.0
  0
LINE
  8
0
 62
     0
 10
40.4315
 20
21.6559
 30
0.0
 11
26.4322
 21
21.6559
 31
0.0
  0
LINE
  8
0
 62
     0
 10
26.4322
 20
21.6559
 30
0.0
 11
26.4322
 21
35.6553
 31
0.0
  0
LINE
  8
0
 62
     0
 10
45.4822
 20
35.6553
 30
0.0
 11
59.4815
 21
35.6553
 31
0.0
  0
LINE
  8
0
 62
     0
 10
59.4815
 20
35.6553
 30
0.0
 11
59.4815
 21
21.6559
 31
0.0
  0
LINE
  8
0
 62
     0
 10
59.4815
 20
21.6559
 30
0.0
 11
45.4822
 21
21.6559
 31
0.0
  0
LINE
  8
0
 62
     0
 10
45.4822
 20
21.6559
 30
0.0
 11
45.4822
 21
35.6553
 31
0.0
  0
LINE
  8
0
 62
     0
 10
64.5322
 20
35.6553
 30
0.0
 11
78.5315
 21
35.6553
 31
0.0
  0
LINE
  8
0
 62
     0
 10
78.5315
 20
35.6553
 30
0.0
 11
78.5315
 21
21.6559
 31
0.0
  0
LINE
  8
0
 62
     0
 10
78.5315
 20
21.6559
 30
0.0
 11
64.5322
 21
21.6559
 31
0.0
  0
LINE
  8
0
 62
     0
 10
64.5322
 20
21.6559
 30
0.0
 11
64.5322
 21
35.6553
 31
0.0
  0
LINE
  8
0
 62
     0
 10
83.5822
 20
35.6553
 30
0.0
 11
97.5815
 21
35.6553
 31
0.0
  0
LINE
  8
0
 62
     0
 10
97.5815
 20
35.6553
 30
0.0
 11
97.5815
 21
21.6559
 31
0.0
  0
LINE
  8
0
 62
     0
 10
97.5815
 20
21.6559
 30
0.0
 11
83.5822
 21
21.6559
 31
0.0
  0
LINE
  8
0
 62
     0
 10
83.5822
 20
21.6559
 30
0.0
 11
83.5822
 21
35.6553
 31
0.0
  0
LINE
  8
0
 62
     0
 10
102.632
 20
35.6553
 30
0.0
 11
116.632
 21
35.6553
 31
0.0
  0
LINE
  8
0
 62
     0
 10
116.632
 20
35.6553
 30
0.0
 11
116.632
 21
21.6559
 31
0.0
  0
LINE
  8
0
 62
     0
 10
116.632
 20
21.6559
 30
0.0
 11
102.632
 21
21.6559
 31
0.0
  0
LINE
  8
0
 62
     0
 10
102.632
 20
21.6559
 30
0.0
 11
102.632
 21
35.6553
 31
0.0
  0
LINE
  8
0
 62
     0
 10
12.1447
 20
54.7053
 30
0.0
 11
26.1441
 21
54.7053
 31
0.0
  0
LINE
  8
0
 62
     0
 10
26.1441
 20
54.7053
 30
0.0
 11
26.1441
 21
40.706
 31
0.0
  0
LINE
  8
0
 62
     0
 10
26.1441
 20
40.706
 30
0.0
 11
12.1447
 21
40.706
 31
0.0
  0
LINE
  8
0
 62
     0
 10
12.1447
 20
40.706
 30
0.0
 11
12.1447
 21
54.7053
 31
0.0
  0
LINE
  8
0
 62
     0
 10
31.1947
 20
54.7053
 30
0.0
 11
45.194
 21
54.7053
 31
0.0
  0
LINE
  8
0
 62
     0
 10
45.194
 20
54.7053
 30
0.0
 11
45.194
 21
40.706
 31
0.0
  0
LINE
  8
0
 62
     0
 10
45.194
 20
40.706
 30
0.0
 11
31.1947
 21
40.706
 31
0.0
  0
LINE
  8
0
 62
     0
 10
31.1947
 20
40.706
 30
0.0
 11
31.1947
 21
54.7053
 31
0.0
  0
LINE
  8
0
 62
     0
 10
50.2447
 20
54.7053
 30
0.0
 11
64.244
 21
54.7053
 31
0.0
  0
LINE
  8
0
 62
     0
 10
64.244
 20
54.7053
 30
0.0
 11
64.244
 21
40.706
 31
0.0
  0
LINE
  8
0
 62
     0
 10
64.244
 20
40.706
 30
0.0
 11
50.2447
 21
40.706
 31
0.0
  0
LINE
  8
0
 62
     0
 10
50.2447
 20
40.706
 30
0.0
 11
50.2447
 21
54.7053
 31
0.0
  0
LINE
  8
0
 62
     0
 10
69.2947
 20
54.7053
 30
0.0
 11
83.294
 21
54.7053
 31
0.0
  0
LINE
  8
0
 62
     0
 10
83.294
 20
54.7053
 30
0.0
 11
83.294
 21
40.706
 31
0.0
  0
LINE
  8
0
 62
     0
 10
83.294
 20
40.706
 30
0.0
 11
69.2947
 21
40.706
 31
0.0
  0
LINE
  8
0
 62
     0
 10
69.2947
 20
40.706
 30
0.0
 11
69.2947
 21
54.7053
 31
0.0
  0
LINE
  8
0
 62
     0
 10
88.3447
 20
54.7053
 30
0.0
 11
102.344
 21
54.7053
 31
0.0
  0
LINE
  8
0
 62
     0
 10
102.344
 20
54.7053
 30
0.0
 11
102.344
 21
40.706
 31
0.0
  0
LINE
  8
0
 62
     0
 10
102.344
 20
40.706
 30
0.0
 11
88.3447
 21
40.706
 31
0.0
  0
LINE
  8
0
 62
     0
 10
88.3447
 20
40.706
 30
0.0
 11
88.3447
 21
54.7053
 31
0.0
  0
LINE
  8
0
 62
     0
 10
107.395
 20
54.7053
 30
0.0
 11
121.394
 21
54.7053
 31
0.0
  0
LINE
  8
0
 62
     0
 10
121.394
 20
54.7053
 30
0.0
 11
121.394
 21
40.706
 31
0.0
  0
LINE
  8
0
 62
     0
 10
121.394
 20
40.706
 30
0.0
 11
107.395
 21
40.706
 31
0.0
  0
LINE
  8
0
 62
     0
 10
107.395
 20
40.706
 30
0.0
 11
107.395
 21
54.7053
 31
0.0
  0
LINE
  8
0
 62
     0
 10
16.9072
 20
73.7553
 30
0.0
 11
30.9066
 21
73.7553
 31
0.0
  0
LINE
  8
0
 62
     0
 10
30.9066
 20
73.7553
 30
0.0
 11
30.9066
 21
59.756
 31
0.0
  0
LINE
  8
0
 62
     0
 10
30.9066
 20
59.756
 30
0.0
 11
16.9072
 21
59.756
 31
0.0
  0
LINE
  8
0
 62
     0
 10
16.9072
 20
59.756
 30
0.0
 11
16.9072
 21
73.7553
 31
0.0
  0
LINE
  8
0
 62
     0
 10
35.9572
 20
73.7553
 30
0.0
 11
49.9565
 21
73.7553
 31
0.0
  0
LINE
  8
0
 62
     0
 10
49.9565
 20
73.7553
 30
0.0
 11
49.9565
 21
59.756
 31
0.0
  0
LINE
  8
0
 62
     0
 10
49.9565
 20
59.756
 30
0.0
 11
35.9572
 21
59.756
 31
0.0
  0
LINE
  8
0
 62
     0
 10
35.9572
 20
59.756
 30
0.0
 11
35.9572
 21
73.7553
 31
0.0
  0
LINE
  8
0
 62
     0
 10
55.0072
 20
73.7553
 30
0.0
 11
69.0065
 21
73.7553
 31
0.0
  0
LINE
  8
0
 62
     0
 10
69.0065
 20
73.7553
 30
0.0
 11
69.0065
 21
59.756
 31
0.0
  0
LINE
  8
0
 62
     0
 10
69.0065
 20
59.756
 30
0.0
 11
55.0072
 21
59.756
 31
0.0
  0
LINE
  8
0
 62
     0
 10
55.0072
 20
59.756
 30
0.0
 11
55.0072
 21
73.7553
 31
0.0
  0
LINE
  8
0
 62
     0
 10
74.0572
 20
73.7553
 30
0.0
 11
88.0565
 21
73.7553
 31
0.0
  0
LINE
  8
0
 62
     0
 10
88.0565
 20
73.7553
 30
0.0
 11
88.0565
 21
59.756
 31
0.0
  0
LINE
  8
0
 62
     0
 10
88.0565
 20
59.756
 30
0.0
 11
74.0572
 21
59.756
 31
0.0
  0
LINE
  8
0
 62
     0
 10
74.0572
 20
59.756
 30
0.0
 11
74.0572
 21
73.7553
 31
0.0
  0
LINE
  8
0
 62
     0
 10
93.1072
 20
73.7553
 30
0.0
 11
107.107
 21
73.7553
 31
0.0
  0
LINE
  8
0
 62
     0
 10
107.107
 20
73.7553
 30
0.0
 11
107.107
 21
59.756
 31
0.0
  0
LINE
  8
0
 62
     0
 10
107.107
 20
59.756
 30
0.0
 11
93.1072
 21
59.756
 31
0.0
  0
LINE
  8
0
 62
     0
 10
93.1072
 20
59.756
 30
0.0
 11
93.1072
 21
73.7553
 31
0.0
  0
LINE
  8
0
 62
     0
 10
112.157
 20
73.7553
 30
0.0
 11
126.157
 21
73.7553
 31
0.0
  0
LINE
  8
0
 62
     0
 10
126.157
 20
73.7553
 30
0.0
 11
126.157
 21
59.756
 31
0.0
  0
LINE
  8
0
 62
     0
 10
126.157
 20
59.756
 30
0.0
 11
112.157
 21
59.756
 31
0.0
  0
LINE
  8
0
 62
     0
 10
112.157
 20
59.756
 30
0.0
 11
112.157
 21
73.7553
 31
0.0
  0
ENDSEC
  0
EOF
