  0
SECTION
  2
HEADER
  9
$ACADVER
  1
AC1024
  9
$ACADMAINTVER
 70
     6
  9
$DWGCODEPAGE
  3
ANSI_932
  9
$INSBASE
 10
0.0
 20
0.0
 30
0.0
  9
$EXTMIN
 10
1.000000000000000E+20
 20
1.000000000000000E+20
 30
1.000000000000000E+20
  9
$EXTMAX
 10
-1.000000000000000E+20
 20
-1.000000000000000E+20
 30
-1.000000000000000E+20
  9
$LIMMIN
 10
0.0
 20
0.0
  9
$LIMMAX
 10
12.0
 20
9.0
  9
$ORTHOMODE
 70
     0
  9
$REGENMODE
 70
     1
  9
$FILLMODE
 70
     1
  9
$QTEXTMODE
 70
     0
  9
$MIRRTEXT
 70
     1
  9
$LTSCALE
 40
1.0
  9
$ATTMODE
 70
     1
  9
$TEXTSIZE
 40
0.2
  9
$TRACEWID
 40
0.05
  9
$TEXTSTYLE
  7
Standard
  9
$CLAYER
  8
0
  9
$CELTYPE
  6
ByLayer
  9
$CECOLOR
 62
   256
  9
$CELTSCALE
 40
1.0
  9
$DISPSILH
 70
     0
  9
$DIMSCALE
 40
1.0
  9
$DIMASZ
 40
0.18
  9
$DIMEXO
 40
0.0625
  9
$DIMDLI
 40
0.38
  9
$DIMRND
 40
0.0
  9
$DIMDLE
 40
0.0
  9
$DIMEXE
 40
0.18
  9
$DIMTP
 40
0.0
  9
$DIMTM
 40
0.0
  9
$DIMTXT
 40
0.18
  9
$DIMCEN
 40
0.09
  9
$DIMTSZ
 40
0.0
  9
$DIMTOL
 70
     0
  9
$DIMLIM
 70
     0
  9
$DIMTIH
 70
     1
  9
$DIMTOH
 70
     1
  9
$DIMSE1
 70
     0
  9
$DIMSE2
 70
     0
  9
$DIMTAD
 70
     0
  9
$DIMZIN
 70
     0
  9
$DIMBLK
  1

  9
$DIMASO
 70
     1
  9
$DIMSHO
 70
     1
  9
$DIMPOST
  1

  9
$DIMAPOST
  1

  9
$DIMALT
 70
     0
  9
$DIMALTD
 70
     2
  9
$DIMALTF
 40
25.4
  9
$DIMLFAC
 40
1.0
  9
$DIMTOFL
 70
     0
  9
$DIMTVP
 40
0.0
  9
$DIMTIX
 70
     0
  9
$DIMSOXD
 70
     0
  9
$DIMSAH
 70
     0
  9
$DIMBLK1
  1

  9
$DIMBLK2
  1

  9
$DIMSTYLE
  2
Standard
  9
$DIMCLRD
 70
     0
  9
$DIMCLRE
 70
     0
  9
$DIMCLRT
 70
     0
  9
$DIMTFAC
 40
1.0
  9
$DIMGAP
 40
0.09
  9
$DIMJUST
 70
     0
  9
$DIMSD1
 70
     0
  9
$DIMSD2
 70
     0
  9
$DIMTOLJ
 70
     1
  9
$DIMTZIN
 70
     0
  9
$DIMALTZ
 70
     0
  9
$DIMALTTZ
 70
     0
  9
$DIMUPT
 70
     0
  9
$DIMDEC
 70
     4
  9
$DIMTDEC
 70
     4
  9
$DIMALTU
 70
     2
  9
$DIMALTTD
 70
     2
  9
$DIMTXSTY
  7
Standard
  9
$DIMAUNIT
 70
     0
  9
$DIMADEC
 70
     0
  9
$DIMALTRND
 40
0.0
  9
$DIMAZIN
 70
     0
  9
$DIMDSEP
 70
    46
  9
$DIMATFIT
 70
     3
  9
$DIMFRAC
 70
     0
  9
$DIMLDRBLK
  1

  9
$DIMLUNIT
 70
     2
  9
$DIMLWD
 70
    -2
  9
$DIMLWE
 70
    -2
  9
$DIMTMOVE
 70
     0
  9
$DIMFXL
 40
1.0
  9
$DIMFXLON
 70
     0
  9
$DIMJOGANG
 40
0.7853981633974483
  9
$DIMTFILL
 70
     0
  9
$DIMTFILLCLR
 70
     0
  9
$DIMARCSYM
 70
     0
  9
$DIMLTYPE
  6

  9
$DIMLTEX1
  6

  9
$DIMLTEX2
  6

  9
$DIMTXTDIRECTION
 70
     0
  9
$LUNITS
 70
     2
  9
$LUPREC
 70
     4
  9
$SKETCHINC
 40
0.1
  9
$FILLETRAD
 40
0.5
  9
$AUNITS
 70
     0
  9
$AUPREC
 70
     0
  9
$MENU
  1
.
  9
$ELEVATION
 40
0.0
  9
$PELEVATION
 40
0.0
  9
$THICKNESS
 40
0.0
  9
$LIMCHECK
 70
     0
  9
$CHAMFERA
 40
0.5
  9
$CHAMFERB
 40
0.5
  9
$CHAMFERC
 40
1.0
  9
$CHAMFERD
 40
0.0
  9
$SKPOLY
 70
     0
  9
$TDCREATE
 40
2458632.944116192
  9
$TDUCREATE
 40
2458632.569116192
  9
$TDUPDATE
 40
2458632.944116377
  9
$TDUUPDATE
 40
2458632.569116377
  9
$TDINDWG
 40
0.0000000116
  9
$TDUSRTIMER
 40
0.0000000116
  9
$USRTIMER
 70
     1
  9
$ANGBASE
 50
0.0
  9
$ANGDIR
 70
     0
  9
$PDMODE
 70
     0
  9
$PDSIZE
 40
0.0
  9
$PLINEWID
 40
0.0
  9
$SPLFRAME
 70
     0
  9
$SPLINETYPE
 70
     6
  9
$SPLINESEGS
 70
     8
  9
$HANDSEED
  5
2CA
  9
$SURFTAB1
 70
     6
  9
$SURFTAB2
 70
     6
  9
$SURFTYPE
 70
     6
  9
$SURFU
 70
     6
  9
$SURFV
 70
     6
  9
$UCSBASE
  2

  9
$UCSNAME
  2

  9
$UCSORG
 10
0.0
 20
0.0
 30
0.0
  9
$UCSXDIR
 10
1.0
 20
0.0
 30
0.0
  9
$UCSYDIR
 10
0.0
 20
1.0
 30
0.0
  9
$UCSORTHOREF
  2

  9
$UCSORTHOVIEW
 70
     0
  9
$UCSORGTOP
 10
0.0
 20
0.0
 30
0.0
  9
$UCSORGBOTTOM
 10
0.0
 20
0.0
 30
0.0
  9
$UCSORGLEFT
 10
0.0
 20
0.0
 30
0.0
  9
$UCSORGRIGHT
 10
0.0
 20
0.0
 30
0.0
  9
$UCSORGFRONT
 10
0.0
 20
0.0
 30
0.0
  9
$UCSORGBACK
 10
0.0
 20
0.0
 30
0.0
  9
$PUCSBASE
  2

  9
$PUCSNAME
  2

  9
$PUCSORG
 10
0.0
 20
0.0
 30
0.0
  9
$PUCSXDIR
 10
1.0
 20
0.0
 30
0.0
  9
$PUCSYDIR
 10
0.0
 20
1.0
 30
0.0
  9
$PUCSORTHOREF
  2

  9
$PUCSORTHOVIEW
 70
     0
  9
$PUCSORGTOP
 10
0.0
 20
0.0
 30
0.0
  9
$PUCSORGBOTTOM
 10
0.0
 20
0.0
 30
0.0
  9
$PUCSORGLEFT
 10
0.0
 20
0.0
 30
0.0
  9
$PUCSORGRIGHT
 10
0.0
 20
0.0
 30
0.0
  9
$PUCSORGFRONT
 10
0.0
 20
0.0
 30
0.0
  9
$PUCSORGBACK
 10
0.0
 20
0.0
 30
0.0
  9
$USERI1
 70
     0
  9
$USERI2
 70
     0
  9
$USERI3
 70
     0
  9
$USERI4
 70
     0
  9
$USERI5
 70
     0
  9
$USERR1
 40
0.0
  9
$USERR2
 40
0.0
  9
$USERR3
 40
0.0
  9
$USERR4
 40
0.0
  9
$USERR5
 40
0.0
  9
$WORLDVIEW
 70
     1
  9
$SHADEDGE
 70
     3
  9
$SHADEDIF
 70
    70
  9
$TILEMODE
 70
     1
  9
$MAXACTVP
 70
    64
  9
$PINSBASE
 10
0.0
 20
0.0
 30
0.0
  9
$PLIMCHECK
 70
     0
  9
$PEXTMIN
 10
1.000000000000000E+20
 20
1.000000000000000E+20
 30
1.000000000000000E+20
  9
$PEXTMAX
 10
-1.000000000000000E+20
 20
-1.000000000000000E+20
 30
-1.000000000000000E+20
  9
$PLIMMIN
 10
0.0
 20
0.0
  9
$PLIMMAX
 10
12.0
 20
9.0
  9
$UNITMODE
 70
     0
  9
$VISRETAIN
 70
     1
  9
$PLINEGEN
 70
     0
  9
$PSLTSCALE
 70
     1
  9
$TREEDEPTH
 70
  3020
  9
$CMLSTYLE
  2
Standard
  9
$CMLJUST
 70
     0
  9
$CMLSCALE
 40
1.0
  9
$PROXYGRAPHICS
 70
     1
  9
$MEASUREMENT
 70
     0
  9
$CELWEIGHT
370
    -1
  9
$ENDCAPS
280
     0
  9
$JOINSTYLE
280
     0
  9
$LWDISPLAY
290
     1
  9
$INSUNITS
 70
     1
  9
$HYPERLINKBASE
  1

  9
$STYLESHEET
  1

  9
$XEDIT
290
     1
  9
$CEPSNTYPE
380
     0
  9
$PSTYLEMODE
290
     1
  9
$FINGERPRINTGUID
  2
{4DDFFD3A-5F53-4561-99F5-24B449E3B3C0}
  9
$VERSIONGUID
  2
{FAEB1C32-E019-11D5-929B-00C0DF256EC4}
  9
$EXTNAMES
290
     1
  9
$PSVPSCALE
 40
0.0
  9
$OLESTARTUP
290
     0
  9
$SORTENTS
280
   127
  9
$INDEXCTL
280
     0
  9
$HIDETEXT
280
     1
  9
$XCLIPFRAME
280
     2
  9
$HALOGAP
280
     0
  9
$OBSCOLOR
 70
   257
  9
$OBSLTYPE
280
     0
  9
$INTERSECTIONDISPLAY
280
     0
  9
$INTERSECTIONCOLOR
 70
   257
  9
$DIMASSOC
280
     2
  9
$PROJECTNAME
  1

  9
$CAMERADISPLAY
290
     0
  9
$LENSLENGTH
 40
50.0
  9
$CAMERAHEIGHT
 40
0.0
  9
$STEPSPERSEC
 40
2.0
  9
$STEPSIZE
 40
6.0
  9
$3DDWFPREC
 40
2.0
  9
$PSOLWIDTH
 40
0.25
  9
$PSOLHEIGHT
 40
4.0
  9
$LOFTANG1
 40
1.570796326794897
  9
$LOFTANG2
 40
1.570796326794897
  9
$LOFTMAG1
 40
0.0
  9
$LOFTMAG2
 40
0.0
  9
$LOFTPARAM
 70
     7
  9
$LOFTNORMALS
280
     1
  9
$LATITUDE
 40
37.795
  9
$LONGITUDE
 40
-122.394
  9
$NORTHDIRECTION
 40
0.0
  9
$TIMEZONE
 70
 -8000
  9
$LIGHTGLYPHDISPLAY
280
     1
  9
$TILEMODELIGHTSYNCH
280
     1
  9
$CMATERIAL
347
3C
  9
$SOLIDHIST
280
     1
  9
$SHOWHIST
280
     1
  9
$DWFFRAME
280
     2
  9
$DGNFRAME
280
     2
  9
$REALWORLDSCALE
290
     1
  9
$INTERFERECOLOR
 62
   256
  9
$CSHADOW
280
     0
  9
$SHADOWPLANELOCATION
 40
0.0
  0
ENDSEC
  0
SECTION
  2
CLASSES
  0
CLASS
  1
ACDBDICTIONARYWDFLT
  2
AcDbDictionaryWithDefault
  3
ObjectDBX Classes
 90
        0
 91
        4
280
     0
281
     0
  0
CLASS
  1
VISUALSTYLE
  2
AcDbVisualStyle
  3
ObjectDBX Classes
 90
     4095
 91
        4
280
     0
281
     0
  0
CLASS
  1
MATERIAL
  2
AcDbMaterial
  3
ObjectDBX Classes
 90
     1153
 91
        4
280
     0
281
     0
  0
CLASS
  1
SUN
  2
AcDbSun
  3
SCENEOE
 90
     1024
 91
        4
280
     0
281
     0
  0
ENDSEC
  0
SECTION
  2
TABLES
  0
TABLE
  2
VPORT
  5
8
330
0
100
AcDbSymbolTable
 70
     1
  0
VPORT
  5
29
330
8
100
AcDbSymbolTableRecord
100
AcDbViewportTableRecord
  2
*Active
 70
     0
 10
0.0
 20
0.0
 11
1.0
 21
1.0
 12
0.0
 22
0.0
 13
0.0
 23
0.0
 14
0.5
 24
0.5
 15
0.5
 25
0.5
 16
0.0
 26
0.0
 36
1.0
 17
105.833333306875
 27
105.833333306875
 37
0.0
 40
211.66666661375
 41
1.0
 42
50.0
 43
0.0
 44
0.0
 50
0.0
 51
0.0
 71
     0
 72
   100
 73
     1
 74
     3
 75
     0
 76
     0
 77
     0
 78
     0
281
     0
 65
     1
110
0.0
120
0.0
130
0.0
111
1.0
121
0.0
131
0.0
112
0.0
122
1.0
132
0.0
 79
     0
146
0.0
 60
     3
 61
     5
292
     1
282
     1
141
0.0
142
0.0
 63
   250
361
3F
  0
ENDTAB
  0
TABLE
  2
LTYPE
  5
5
330
0
100
AcDbSymbolTable
 70
     1
  0
LTYPE
  5
14
330
5
100
AcDbSymbolTableRecord
100
AcDbLinetypeTableRecord
  2
ByBlock
 70
     0
  3

 72
    65
 73
     0
 40
0.0
  0
LTYPE
  5
15
330
5
100
AcDbSymbolTableRecord
100
AcDbLinetypeTableRecord
  2
ByLayer
 70
     0
  3

 72
    65
 73
     0
 40
0.0
  0
LTYPE
  5
16
330
5
100
AcDbSymbolTableRecord
100
AcDbLinetypeTableRecord
  2
Continuous
 70
     0
  3
Solid line
 72
    65
 73
     0
 40
0.0
  0
ENDTAB
  0
TABLE
  2
LAYER
  5
2
330
0
100
AcDbSymbolTable
 70
     2
  0
LAYER
  5
10
330
2
100
AcDbSymbolTableRecord
100
AcDbLayerTableRecord
  2
0
 70
     0
 62
     7
  6
Continuous
370
    -3
390
F
347
3E
  0
LAYER
  5
40
330
2
100
AcDbSymbolTableRecord
100
AcDbLayerTableRecord
  2
_U+30EC_U+30A4_U+30E4_U+30FC 1
 70
     0
 62
     7
  6
Continuous
370
    -3
390
F
347
3E
  0
ENDTAB
  0
TABLE
  2
STYLE
  5
3
330
0
100
AcDbSymbolTable
 70
     1
  0
STYLE
  5
11
330
3
100
AcDbSymbolTableRecord
100
AcDbTextStyleTableRecord
  2
Standard
 70
     0
 40
0.0
 41
1.0
 50
0.0
 71
     0
 42
0.2
  3
txt
  4

  0
ENDTAB
  0
TABLE
  2
VIEW
  5
6
330
0
100
AcDbSymbolTable
 70
     0
  0
ENDTAB
  0
TABLE
  2
UCS
  5
7
330
0
100
AcDbSymbolTable
 70
     0
  0
ENDTAB
  0
TABLE
  2
APPID
  5
9
330
0
100
AcDbSymbolTable
 70
     1
  0
APPID
  5
12
330
9
100
AcDbSymbolTableRecord
100
AcDbRegAppTableRecord
  2
ACAD
 70
     0
  0
ENDTAB
  0
TABLE
  2
DIMSTYLE
  5
A
330
0
100
AcDbSymbolTable
 70
     1
100
AcDbDimStyleTable
  0
DIMSTYLE
105
27
330
A
100
AcDbSymbolTableRecord
100
AcDbDimStyleTableRecord
  2
Standard
 70
     0
178
     0
340
11
  0
ENDTAB
  0
TABLE
  2
BLOCK_RECORD
  5
1
330
0
100
AcDbSymbolTable
 70
     3
  0
BLOCK_RECORD
  5
1F
330
1
100
AcDbSymbolTableRecord
100
AcDbBlockTableRecord
  2
*Model_Space
340
22
 70
     0
280
     1
281
     0
  0
BLOCK_RECORD
  5
1B
330
1
100
AcDbSymbolTableRecord
100
AcDbBlockTableRecord
  2
*Paper_Space
340
1E
 70
     0
280
     1
281
     0
  0
BLOCK_RECORD
  5
23
330
1
100
AcDbSymbolTableRecord
100
AcDbBlockTableRecord
  2
*Paper_Space0
340
26
 70
     0
280
     1
281
     0
  0
BLOCK_RECORD
  5
41
330
1
100
AcDbSymbolTableRecord
100
AcDbBlockTableRecord
  2
block 2
340
0
102
{BLKREFS
331
42
102
}
 70
     0
280
     1
281
     0
  0
BLOCK_RECORD
  5
45
330
1
100
AcDbSymbolTableRecord
100
AcDbBlockTableRecord
  2
block 3
340
0
102
{BLKREFS
331
46
102
}
 70
     0
280
     1
281
     0
  0
ENDTAB
  0
ENDSEC
  0
SECTION
  2
BLOCKS
  0
BLOCK
  5
20
330
1F
100
AcDbEntity
  8
0
100
AcDbBlockBegin
  2
*Model_Space
 70
     0
 10
0.0
 20
0.0
 30
0.0
  3
*Model_Space
  1

  0
ENDBLK
  5
21
330
1F
100
AcDbEntity
  8
0
100
AcDbBlockEnd
  0
BLOCK
  5
1C
330
1B
100
AcDbEntity
 67
     1
  8
0
100
AcDbBlockBegin
  2
*Paper_Space
 70
     0
 10
0.0
 20
0.0
 30
0.0
  3
*Paper_Space
  1

  0
ENDBLK
  5
1D
330
1B
100
AcDbEntity
 67
     1
  8
0
100
AcDbBlockEnd
  0
BLOCK
  5
24
330
23
100
AcDbEntity
  8
0
100
AcDbBlockBegin
  2
*Paper_Space0
 70
     0
 10
0.0
 20
0.0
 30
0.0
  3
*Paper_Space0
  1

  0
ENDBLK
  5
25
330
23
100
AcDbEntity
  8
0
100
AcDbBlockEnd
  0
BLOCK
  5
43
330
41
100
AcDbEntity
  8
0
100
AcDbBlockBegin
  2
block 2
 70
     0
 10
0.0
 20
0.0
 30
0.0
  3
block 2
  1

  0
INSERT
  5
46
330
41
100
AcDbEntity
  8
_U+30EC_U+30A4_U+30E4_U+30FC 1
100
AcDbBlockReference
  2
block 3
 10
0.0
 20
0.0
 30
0.0
  0
ENDBLK
  5
44
330
41
100
AcDbEntity
  8
0
100
AcDbBlockEnd
  0
BLOCK
  5
47
330
45
100
AcDbEntity
  8
0
100
AcDbBlockBegin
  2
block 3
 70
     0
 10
0.0
 20
0.0
 30
0.0
  3
block 3
  1

  0
SPLINE
  5
49
330
45
100
AcDbEntity
  8
_U+30EC_U+30A4_U+30E4_U+30FC 1
 62
     7
420
 16777215
370
    20
100
AcDbSpline
210
0.0
220
0.0
230
1.0
 70
    11
 71
     3
 72
    20
 73
    16
 74
     0
 42
0.0000000001
 43
0.0000000001
 12
1.0
 22
0.0
 32
0.0
 13
1.0
 23
0.0
 33
0.0
 40
0.0
 40
0.0
 40
0.0
 40
0.0
 40
1.0
 40
1.0
 40
1.0
 40
2.0
 40
2.0
 40
2.0
 40
3.0
 40
3.0
 40
3.0
 40
4.0
 40
4.0
 40
4.0
 40
5.0
 40
5.0
 40
5.0
 40
5.0
 10
138.2984086220755
 20
25.23717675551001
 30
0.0
 10
138.2984086220755
 20
24.68472339668002
 30
0.0
 10
137.8507399956141
 20
24.23669949474667
 30
0.0
 10
137.2979313613122
 20
24.23669949474667
 30
0.0
 10
136.7454887684056
 20
24.23669949474667
 30
0.0
 10
136.2974541005489
 20
24.68472339668002
 30
0.0
 10
136.2974541005489
 20
25.23717675551001
 30
0.0
 10
136.2974541005489
 20
25.78963011433999
 30
0.0
 10
136.7454887684056
 20
26.23624906327076
 30
0.0
 10
137.2979313613122
 20
26.23624906327076
 30
0.0
 10
137.8507399956141
 20
26.23624906327076
 30
0.0
 10
138.2984086220755
 20
25.78963011433999
 30
0.0
 10
138.2984086220755
 20
25.23717675551001
 30
0.0
 10
138.2984086220755
 20
25.23717675551001
 30
0.0
 10
138.2984086220755
 20
25.23717675551001
 30
0.0
 10
138.2984086220755
 20
25.23717675551001
 30
0.0
  0
POLYLINE
  5
4A
330
45
100
AcDbEntity
  8
_U+30EC_U+30A4_U+30E4_U+30FC 1
 62
     7
420
 16777215
370
    20
100
AcDb2dPolyline
 66
     1
 10
0.0
 20
0.0
 30
0.0
  0
VERTEX
  5
4B
330
4A
100
AcDbEntity
  8
_U+30EC_U+30A4_U+30E4_U+30FC 1
 62
     7
420
 16777215
370
    20
100
AcDbVertex
100
AcDb2dVertex
 10
138.2984086220755
 20
25.23717675551001
 30
0.0
  0
VERTEX
  5
2B8
330
4A
100
AcDbEntity
  8
0
100
AcDbVertex
100
AcDb2dVertex
 10
138.2984086220755
 20
25.23717675551001
 30
0.0
  0
SEQEND
  5
4C
330
4A
100
AcDbEntity
  8
_U+30EC_U+30A4_U+30E4_U+30FC 1
 62
     7
420
 16777215
370
    20
  0
SPLINE
  5
4D
330
45
100
AcDbEntity
  8
_U+30EC_U+30A4_U+30E4_U+30FC 1
 62
     7
420
 16777215
370
    20
100
AcDbSpline
210
0.0
220
0.0
230
1.0
 70
    11
 71
     3
 72
    20
 73
    16
 74
     0
 42
0.0000000001
 43
0.0000000001
 12
1.0
 22
0.0
 32
0.0
 13
1.0
 23
0.0
 33
0.0
 40
0.0
 40
0.0
 40
0.0
 40
0.0
 40
1.0
 40
1.0
 40
1.0
 40
2.0
 40
2.0
 40
2.0
 40
3.0
 40
3.0
 40
3.0
 40
4.0
 40
4.0
 40
4.0
 40
5.0
 40
5.0
 40
5.0
 40
5.0
 10
81.14841940228641
 20
25.23717675551001
 30
0.0
 10
81.14841940228641
 20
24.68472339668002
 30
0.0
 10
80.7007400099016
 20
24.23669949474667
 30
0.0
 10
80.14794214152307
 20
24.23669949474667
 30
0.0
 10
79.5954887826931
 20
24.23669949474667
 30
0.0
 10
79.14746488075974
 20
24.68472339668002
 30
0.0
 10
79.14746488075974
 20
25.23717675551001
 30
0.0
 10
79.14746488075974
 20
25.78963011433999
 30
0.0
 10
79.5954887826931
 20
26.23624906327076
 30
0.0
 10
80.14794214152307
 20
26.23624906327076
 30
0.0
 10
80.7007400099016
 20
26.23624906327076
 30
0.0
 10
81.14841940228641
 20
25.78963011433999
 30
0.0
 10
81.14841940228641
 20
25.23717675551001
 30
0.0
 10
81.14841940228641
 20
25.23717675551001
 30
0.0
 10
81.14841940228641
 20
25.23717675551001
 30
0.0
 10
81.14841940228641
 20
25.23717675551001
 30
0.0
  0
POLYLINE
  5
4E
330
45
100
AcDbEntity
  8
_U+30EC_U+30A4_U+30E4_U+30FC 1
 62
     7
420
 16777215
370
    20
100
AcDb2dPolyline
 66
     1
 10
0.0
 20
0.0
 30
0.0
  0
VERTEX
  5
4F
330
4E
100
AcDbEntity
  8
_U+30EC_U+30A4_U+30E4_U+30FC 1
 62
     7
420
 16777215
370
    20
100
AcDbVertex
100
AcDb2dVertex
 10
81.14841940228641
 20
25.23717675551001
 30
0.0
  0
VERTEX
  5
2B9
330
4E
100
AcDbEntity
  8
0
100
AcDbVertex
100
AcDb2dVertex
 10
81.14841940228641
 20
25.23717675551001
 30
0.0
  0
SEQEND
  5
50
330
4E
100
AcDbEntity
  8
_U+30EC_U+30A4_U+30E4_U+30FC 1
 62
     7
420
 16777215
370
    20
  0
SPLINE
  5
51
330
45
100
AcDbEntity
  8
_U+30EC_U+30A4_U+30E4_U+30FC 1
 62
     7
420
 16777215
370
    20
100
AcDbSpline
210
0.0
220
0.0
230
1.0
 70
    11
 71
     3
 72
    20
 73
    16
 74
     0
 42
0.0000000001
 43
0.0000000001
 12
1.0
 22
0.0
 32
0.0
 13
1.0
 23
0.0
 33
0.0
 40
0.0
 40
0.0
 40
0.0
 40
0.0
 40
1.0
 40
1.0
 40
1.0
 40
2.0
 40
2.0
 40
2.0
 40
3.0
 40
3.0
 40
3.0
 40
4.0
 40
4.0
 40
4.0
 40
5.0
 40
5.0
 40
5.0
 40
5.0
 10
76.37358165527048
 20
81.32073128487833
 30
0.0
 10
76.37358165527048
 20
80.76793341649983
 30
0.0
 10
75.92589149696227
 20
80.320254024115
 30
0.0
 10
75.37310439450715
 20
80.320254024115
 30
0.0
 10
74.82064026975377
 20
80.320254024115
 30
0.0
 10
74.37261636782043
 20
80.76793341649983
 30
0.0
 10
74.37261636782043
 20
81.32073128487833
 30
0.0
 10
74.37261636782043
 20
81.87176354182066
 30
0.0
 10
74.82064026975377
 20
82.3197982096774
 30
0.0
 10
75.37310439450715
 20
82.3197982096774
 30
0.0
 10
75.92589149696227
 20
82.3197982096774
 30
0.0
 10
76.37358165527048
 20
81.87176354182066
 30
0.0
 10
76.37358165527048
 20
81.32073128487833
 30
0.0
 10
76.37358165527048
 20
81.32073128487833
 30
0.0
 10
76.37358165527048
 20
81.32073128487833
 30
0.0
 10
76.37358165527048
 20
81.32073128487833
 30
0.0
  0
POLYLINE
  5
52
330
45
100
AcDbEntity
  8
_U+30EC_U+30A4_U+30E4_U+30FC 1
 62
     7
420
 16777215
370
    20
100
AcDb2dPolyline
 66
     1
 10
0.0
 20
0.0
 30
0.0
  0
VERTEX
  5
53
330
52
100
AcDbEntity
  8
_U+30EC_U+30A4_U+30E4_U+30FC 1
 62
     7
420
 16777215
370
    20
100
AcDbVertex
100
AcDb2dVertex
 10
76.37358165527048
 20
81.32073128487833
 30
0.0
  0
VERTEX
  5
2BA
330
52
100
AcDbEntity
  8
0
100
AcDbVertex
100
AcDb2dVertex
 10
76.37358165527048
 20
81.32073128487833
 30
0.0
  0
SEQEND
  5
54
330
52
100
AcDbEntity
  8
_U+30EC_U+30A4_U+30E4_U+30FC 1
 62
     7
420
 16777215
370
    20
  0
SPLINE
  5
55
330
45
100
AcDbEntity
  8
_U+30EC_U+30A4_U+30E4_U+30FC 1
 62
     7
420
 16777215
370
    20
100
AcDbSpline
210
0.0
220
0.0
230
1.0
 70
    11
 71
     3
 72
    20
 73
    16
 74
     0
 42
0.0000000001
 43
0.0000000001
 12
1.0
 22
0.0
 32
0.0
 13
1.0
 23
0.0
 33
0.0
 40
0.0
 40
0.0
 40
0.0
 40
0.0
 40
1.0
 40
1.0
 40
1.0
 40
2.0
 40
2.0
 40
2.0
 40
3.0
 40
3.0
 40
3.0
 40
4.0
 40
4.0
 40
4.0
 40
5.0
 40
5.0
 40
5.0
 40
5.0
 10
133.5221497731719
 20
81.32073128487833
 30
0.0
 10
133.5221497731719
 20
80.76793341649983
 30
0.0
 10
133.0759022485982
 20
80.320254024115
 30
0.0
 10
132.5230936142963
 20
80.320254024115
 30
0.0
 10
131.9706510213897
 20
80.320254024115
 30
0.0
 10
131.5226163535329
 20
80.76793341649983
 30
0.0
 10
131.5226163535329
 20
81.32073128487833
 30
0.0
 10
131.5226163535329
 20
81.87176354182066
 30
0.0
 10
131.9706510213897
 20
82.3197982096774
 30
0.0
 10
132.5230936142963
 20
82.3197982096774
 30
0.0
 10
133.0759022485982
 20
82.3197982096774
 30
0.0
 10
133.5221497731719
 20
81.87176354182066
 30
0.0
 10
133.5221497731719
 20
81.32073128487833
 30
0.0
 10
133.5221497731719
 20
81.32073128487833
 30
0.0
 10
133.5221497731719
 20
81.32073128487833
 30
0.0
 10
133.5221497731719
 20
81.32073128487833
 30
0.0
  0
POLYLINE
  5
56
330
45
100
AcDbEntity
  8
_U+30EC_U+30A4_U+30E4_U+30FC 1
 62
     7
420
 16777215
370
    20
100
AcDb2dPolyline
 66
     1
 10
0.0
 20
0.0
 30
0.0
  0
VERTEX
  5
57
330
56
100
AcDbEntity
  8
_U+30EC_U+30A4_U+30E4_U+30FC 1
 62
     7
420
 16777215
370
    20
100
AcDbVertex
100
AcDb2dVertex
 10
133.5221497731719
 20
81.32073128487833
 30
0.0
  0
VERTEX
  5
2BB
330
56
100
AcDbEntity
  8
0
100
AcDbVertex
100
AcDb2dVertex
 10
133.5221497731719
 20
81.32073128487833
 30
0.0
  0
SEQEND
  5
58
330
56
100
AcDbEntity
  8
_U+30EC_U+30A4_U+30E4_U+30FC 1
 62
     7
420
 16777215
370
    20
  0
SPLINE
  5
59
330
45
100
AcDbEntity
  8
_U+30EC_U+30A4_U+30E4_U+30FC 1
 62
     7
420
 16777215
370
    20
100
AcDbSpline
210
0.0
220
0.0
230
1.0
 70
    11
 71
     3
 72
    20
 73
    16
 74
     0
 42
0.0000000001
 43
0.0000000001
 12
1.0
 22
0.0
 32
0.0
 13
1.0
 23
0.0
 33
0.0
 40
0.0
 40
0.0
 40
0.0
 40
0.0
 40
1.0
 40
1.0
 40
1.0
 40
2.0
 40
2.0
 40
2.0
 40
3.0
 40
3.0
 40
3.0
 40
4.0
 40
4.0
 40
4.0
 40
5.0
 40
5.0
 40
5.0
 40
5.0
 10
56.0186440857607
 20
98.28687914847534
 30
0.0
 10
56.0186440857607
 20
97.73442578964536
 30
0.0
 10
55.57062018382734
 20
97.28781222367628
 30
0.0
 10
55.01816682499736
 20
97.28781222367628
 30
0.0
 10
54.46571346616737
 20
97.28781222367628
 30
0.0
 10
54.01768956423403
 20
97.73442578964536
 30
0.0
 10
54.01768956423403
 20
98.28687914847534
 30
0.0
 10
54.01768956423403
 20
98.83967701685386
 30
0.0
 10
54.46571346616737
 20
99.28735640923867
 30
0.0
 10
55.01816682499736
 20
99.28735640923867
 30
0.0
 10
55.57062018382734
 20
99.28735640923867
 30
0.0
 10
56.0186440857607
 20
98.83967701685386
 30
0.0
 10
56.0186440857607
 20
98.28687914847534
 30
0.0
 10
56.0186440857607
 20
98.28687914847534
 30
0.0
 10
56.0186440857607
 20
98.28687914847534
 30
0.0
 10
56.0186440857607
 20
98.28687914847534
 30
0.0
  0
POLYLINE
  5
5A
330
45
100
AcDbEntity
  8
_U+30EC_U+30A4_U+30E4_U+30FC 1
 62
     7
420
 16777215
370
    20
100
AcDb2dPolyline
 66
     1
 10
0.0
 20
0.0
 30
0.0
  0
VERTEX
  5
5B
330
5A
100
AcDbEntity
  8
_U+30EC_U+30A4_U+30E4_U+30FC 1
 62
     7
420
 16777215
370
    20
100
AcDbVertex
100
AcDb2dVertex
 10
56.0186440857607
 20
98.28687914847534
 30
0.0
  0
VERTEX
  5
2BC
330
5A
100
AcDbEntity
  8
0
100
AcDbVertex
100
AcDb2dVertex
 10
56.0186440857607
 20
98.28687914847534
 30
0.0
  0
SEQEND
  5
5C
330
5A
100
AcDbEntity
  8
_U+30EC_U+30A4_U+30E4_U+30FC 1
 62
     7
420
 16777215
370
    20
  0
SPLINE
  5
5D
330
45
100
AcDbEntity
  8
_U+30EC_U+30A4_U+30E4_U+30FC 1
 62
     7
420
 16777215
370
    20
100
AcDbSpline
210
0.0
220
0.0
230
1.0
 70
    11
 71
     3
 72
    20
 73
    16
 74
     0
 42
0.0000000001
 43
0.0000000001
 12
1.0
 22
0.0
 32
0.0
 13
1.0
 23
0.0
 33
0.0
 40
0.0
 40
0.0
 40
0.0
 40
0.0
 40
1.0
 40
1.0
 40
1.0
 40
2.0
 40
2.0
 40
2.0
 40
3.0
 40
3.0
 40
3.0
 40
4.0
 40
4.0
 40
4.0
 40
5.0
 40
5.0
 40
5.0
 40
5.0
 10
172.7909199388647
 20
98.28687914847534
 30
0.0
 10
172.7909199388647
 20
97.73442578964536
 30
0.0
 10
172.342885271008
 20
97.28781222367628
 30
0.0
 10
171.7918422481423
 20
97.28781222367628
 30
0.0
 10
171.2390336138404
 20
97.28781222367628
 30
0.0
 10
170.7913865192257
 20
97.73442578964536
 30
0.0
 10
170.7913865192257
 20
98.28687914847534
 30
0.0
 10
170.7913865192257
 20
98.83967701685386
 30
0.0
 10
171.2390336138404
 20
99.28735640923867
 30
0.0
 10
171.7918422481423
 20
99.28735640923867
 30
0.0
 10
172.342885271008
 20
99.28735640923867
 30
0.0
 10
172.7909199388647
 20
98.83967701685386
 30
0.0
 10
172.7909199388647
 20
98.28687914847534
 30
0.0
 10
172.7909199388647
 20
98.28687914847534
 30
0.0
 10
172.7909199388647
 20
98.28687914847534
 30
0.0
 10
172.7909199388647
 20
98.28687914847534
 30
0.0
  0
POLYLINE
  5
5E
330
45
100
AcDbEntity
  8
_U+30EC_U+30A4_U+30E4_U+30FC 1
 62
     7
420
 16777215
370
    20
100
AcDb2dPolyline
 66
     1
 10
0.0
 20
0.0
 30
0.0
  0
VERTEX
  5
5F
330
5E
100
AcDbEntity
  8
_U+30EC_U+30A4_U+30E4_U+30FC 1
 62
     7
420
 16777215
370
    20
100
AcDbVertex
100
AcDb2dVertex
 10
172.7909199388647
 20
98.28687914847534
 30
0.0
  0
VERTEX
  5
2BD
330
5E
100
AcDbEntity
  8
0
100
AcDbVertex
100
AcDb2dVertex
 10
172.7909199388647
 20
98.28687914847534
 30
0.0
  0
SEQEND
  5
60
330
5E
100
AcDbEntity
  8
_U+30EC_U+30A4_U+30E4_U+30FC 1
 62
     7
420
 16777215
370
    20
  0
SPLINE
  5
61
330
45
100
AcDbEntity
  8
_U+30EC_U+30A4_U+30E4_U+30FC 1
 62
     7
420
 16777215
370
    20
100
AcDbSpline
210
0.0
220
0.0
230
1.0
 70
    11
 71
     3
 72
    20
 73
    16
 74
     0
 42
0.0000000001
 43
0.0000000001
 12
1.0
 22
0.0
 32
0.0
 13
1.0
 23
0.0
 33
0.0
 40
0.0
 40
0.0
 40
0.0
 40
0.0
 40
1.0
 40
1.0
 40
1.0
 40
2.0
 40
2.0
 40
2.0
 40
3.0
 40
3.0
 40
3.0
 40
4.0
 40
4.0
 40
4.0
 40
5.0
 40
5.0
 40
5.0
 40
5.0
 10
158.6177109851598
 20
19.34472850123225
 30
0.0
 10
158.6177109851598
 20
18.79193601581543
 30
0.0
 10
158.169676317303
 20
18.34425124046891
 30
0.0
 10
157.6186548262841
 20
18.34425124046891
 30
0.0
 10
157.0661907015307
 20
18.34425124046891
 30
0.0
 10
156.618156033674
 20
18.79193601581543
 30
0.0
 10
156.618156033674
 20
19.34472850123225
 30
0.0
 10
156.618156033674
 20
19.89577690705966
 30
0.0
 10
157.0661907015307
 20
20.34380080899301
 30
0.0
 10
157.6186548262841
 20
20.34380080899301
 30
0.0
 10
158.169676317303
 20
20.34380080899301
 30
0.0
 10
158.6177109851598
 20
19.89577690705966
 30
0.0
 10
158.6177109851598
 20
19.34472850123225
 30
0.0
 10
158.6177109851598
 20
19.34472850123225
 30
0.0
 10
158.6177109851598
 20
19.34472850123225
 30
0.0
 10
158.6177109851598
 20
19.34472850123225
 30
0.0
  0
POLYLINE
  5
62
330
45
100
AcDbEntity
  8
_U+30EC_U+30A4_U+30E4_U+30FC 1
 62
     7
420
 16777215
370
    20
100
AcDb2dPolyline
 66
     1
 10
0.0
 20
0.0
 30
0.0
  0
VERTEX
  5
63
330
62
100
AcDbEntity
  8
_U+30EC_U+30A4_U+30E4_U+30FC 1
 62
     7
420
 16777215
370
    20
100
AcDbVertex
100
AcDb2dVertex
 10
158.6177109851598
 20
19.34472850123225
 30
0.0
  0
VERTEX
  5
2BE
330
62
100
AcDbEntity
  8
0
100
AcDbVertex
100
AcDb2dVertex
 10
158.6177109851598
 20
19.34472850123225
 30
0.0
  0
SEQEND
  5
64
330
62
100
AcDbEntity
  8
_U+30EC_U+30A4_U+30E4_U+30FC 1
 62
     7
420
 16777215
370
    20
  0
SPLINE
  5
65
330
45
100
AcDbEntity
  8
_U+30EC_U+30A4_U+30E4_U+30FC 1
 62
     7
420
 16777215
370
    20
100
AcDbSpline
210
0.0
220
0.0
230
1.0
 70
    11
 71
     3
 72
    20
 73
    16
 74
     0
 42
0.0000000001
 43
0.0000000001
 12
1.0
 22
0.0
 32
0.0
 13
1.0
 23
0.0
 33
0.0
 40
0.0
 40
0.0
 40
0.0
 40
0.0
 40
1.0
 40
1.0
 40
1.0
 40
2.0
 40
2.0
 40
2.0
 40
3.0
 40
3.0
 40
3.0
 40
4.0
 40
4.0
 40
4.0
 40
5.0
 40
5.0
 40
5.0
 40
5.0
 10
41.62637012288741
 20
19.34472850123225
 30
0.0
 10
41.62637012288741
 20
18.79193601581543
 30
0.0
 10
41.17870149642597
 20
18.34425124046891
 30
0.0
 10
40.62589824508577
 20
18.34425124046891
 30
0.0
 10
40.07344488625579
 20
18.34425124046891
 30
0.0
 10
39.62542098432243
 20
18.79193601581543
 30
0.0
 10
39.62542098432243
 20
19.34472850123225
 30
0.0
 10
39.62542098432243
 20
19.89577690705966
 30
0.0
 10
40.07344488625579
 20
20.34380080899301
 30
0.0
 10
40.62589824508577
 20
20.34380080899301
 30
0.0
 10
41.17870149642597
 20
20.34380080899301
 30
0.0
 10
41.62637012288741
 20
19.89577690705966
 30
0.0
 10
41.62637012288741
 20
19.34472850123225
 30
0.0
 10
41.62637012288741
 20
19.34472850123225
 30
0.0
 10
41.62637012288741
 20
19.34472850123225
 30
0.0
 10
41.62637012288741
 20
19.34472850123225
 30
0.0
  0
POLYLINE
  5
66
330
45
100
AcDbEntity
  8
_U+30EC_U+30A4_U+30E4_U+30FC 1
 62
     7
420
 16777215
370
    20
100
AcDb2dPolyline
 66
     1
 10
0.0
 20
0.0
 30
0.0
  0
VERTEX
  5
67
330
66
100
AcDbEntity
  8
_U+30EC_U+30A4_U+30E4_U+30FC 1
 62
     7
420
 16777215
370
    20
100
AcDbVertex
100
AcDb2dVertex
 10
41.62637012288741
 20
19.34472850123225
 30
0.0
  0
VERTEX
  5
2BF
330
66
100
AcDbEntity
  8
0
100
AcDbVertex
100
AcDb2dVertex
 10
41.62637012288741
 20
19.34472850123225
 30
0.0
  0
SEQEND
  5
68
330
66
100
AcDbEntity
  8
_U+30EC_U+30A4_U+30E4_U+30FC 1
 62
     7
420
 16777215
370
    20
  0
POLYLINE
  5
69
330
45
100
AcDbEntity
  8
_U+30EC_U+30A4_U+30E4_U+30FC 1
 62
     7
420
 16777215
370
    20
100
AcDb2dPolyline
 66
     1
 10
0.0
 20
0.0
 30
0.0
  0
VERTEX
  5
6A
330
69
100
AcDbEntity
  8
_U+30EC_U+30A4_U+30E4_U+30FC 1
 62
     7
420
 16777215
370
    20
100
AcDbVertex
100
AcDb2dVertex
 10
86.7515872950371
 20
61.98815809838661
 30
0.0
  0
VERTEX
  5
6B
330
69
100
AcDbEntity
  8
_U+30EC_U+30A4_U+30E4_U+30FC 1
 62
     7
420
 16777215
370
    20
100
AcDbVertex
100
AcDb2dVertex
 10
72.7523018337203
 20
61.98815809838661
 30
0.0
  0
SEQEND
  5
6C
330
69
100
AcDbEntity
  8
_U+30EC_U+30A4_U+30E4_U+30FC 1
 62
     7
420
 16777215
370
    20
  0
POLYLINE
  5
6D
330
45
100
AcDbEntity
  8
_U+30EC_U+30A4_U+30E4_U+30FC 1
 62
     7
420
 16777215
370
    20
100
AcDb2dPolyline
 66
     1
 10
0.0
 20
0.0
 30
0.0
  0
VERTEX
  5
6E
330
6D
100
AcDbEntity
  8
_U+30EC_U+30A4_U+30E4_U+30FC 1
 62
     7
420
 16777215
370
    20
100
AcDbVertex
100
AcDb2dVertex
 10
72.7523018337203
 20
75.98602245781575
 30
0.0
  0
VERTEX
  5
6F
330
6D
100
AcDbEntity
  8
_U+30EC_U+30A4_U+30E4_U+30FC 1
 62
     7
420
 16777215
370
    20
100
AcDbVertex
100
AcDb2dVertex
 10
86.7515872950371
 20
75.98602245781575
 30
0.0
  0
SEQEND
  5
70
330
6D
100
AcDbEntity
  8
_U+30EC_U+30A4_U+30E4_U+30FC 1
 62
     7
420
 16777215
370
    20
  0
POLYLINE
  5
71
330
45
100
AcDbEntity
  8
_U+30EC_U+30A4_U+30E4_U+30FC 1
 62
     7
420
 16777215
370
    20
100
AcDb2dPolyline
 66
     1
 10
0.0
 20
0.0
 30
0.0
  0
VERTEX
  5
72
330
71
100
AcDbEntity
  8
_U+30EC_U+30A4_U+30E4_U+30FC 1
 62
     7
420
 16777215
370
    20
100
AcDbVertex
100
AcDb2dVertex
 10
105.8015872902746
 20
61.98815809838661
 30
0.0
  0
VERTEX
  5
73
330
71
100
AcDbEntity
  8
_U+30EC_U+30A4_U+30E4_U+30FC 1
 62
     7
420
 16777215
370
    20
100
AcDbVertex
100
AcDb2dVertex
 10
91.8023018289578
 20
61.98815809838661
 30
0.0
  0
SEQEND
  5
74
330
71
100
AcDbEntity
  8
_U+30EC_U+30A4_U+30E4_U+30FC 1
 62
     7
420
 16777215
370
    20
  0
POLYLINE
  5
75
330
45
100
AcDbEntity
  8
_U+30EC_U+30A4_U+30E4_U+30FC 1
 62
     7
420
 16777215
370
    20
100
AcDb2dPolyline
 66
     1
 10
0.0
 20
0.0
 30
0.0
  0
VERTEX
  5
76
330
75
100
AcDbEntity
  8
_U+30EC_U+30A4_U+30E4_U+30FC 1
 62
     7
420
 16777215
370
    20
100
AcDbVertex
100
AcDb2dVertex
 10
72.7523018337203
 20
61.98815809838661
 30
0.0
  0
VERTEX
  5
77
330
75
100
AcDbEntity
  8
_U+30EC_U+30A4_U+30E4_U+30FC 1
 62
     7
420
 16777215
370
    20
100
AcDbVertex
100
AcDb2dVertex
 10
72.7523018337203
 20
75.98602245781575
 30
0.0
  0
SEQEND
  5
78
330
75
100
AcDbEntity
  8
_U+30EC_U+30A4_U+30E4_U+30FC 1
 62
     7
420
 16777215
370
    20
  0
POLYLINE
  5
79
330
45
100
AcDbEntity
  8
_U+30EC_U+30A4_U+30E4_U+30FC 1
 62
     7
420
 16777215
370
    20
100
AcDb2dPolyline
 66
     1
 10
0.0
 20
0.0
 30
0.0
  0
VERTEX
  5
7A
330
79
100
AcDbEntity
  8
_U+30EC_U+30A4_U+30E4_U+30FC 1
 62
     7
420
 16777215
370
    20
100
AcDbVertex
100
AcDb2dVertex
 10
53.70231260440618
 20
61.98815809838661
 30
0.0
  0
VERTEX
  5
7B
330
79
100
AcDbEntity
  8
_U+30EC_U+30A4_U+30E4_U+30FC 1
 62
     7
420
 16777215
370
    20
100
AcDbVertex
100
AcDb2dVertex
 10
53.70231260440618
 20
75.98602245781575
 30
0.0
  0
SEQEND
  5
7C
330
79
100
AcDbEntity
  8
_U+30EC_U+30A4_U+30E4_U+30FC 1
 62
     7
420
 16777215
370
    20
  0
POLYLINE
  5
7D
330
45
100
AcDbEntity
  8
_U+30EC_U+30A4_U+30E4_U+30FC 1
 62
     7
420
 16777215
370
    20
100
AcDb2dPolyline
 66
     1
 10
0.0
 20
0.0
 30
0.0
  0
VERTEX
  5
7E
330
7D
100
AcDbEntity
  8
_U+30EC_U+30A4_U+30E4_U+30FC 1
 62
     7
420
 16777215
370
    20
100
AcDbVertex
100
AcDb2dVertex
 10
86.7515872950371
 20
75.98602245781575
 30
0.0
  0
VERTEX
  5
7F
330
7D
100
AcDbEntity
  8
_U+30EC_U+30A4_U+30E4_U+30FC 1
 62
     7
420
 16777215
370
    20
100
AcDbVertex
100
AcDb2dVertex
 10
86.7515872950371
 20
61.98815809838661
 30
0.0
  0
SEQEND
  5
80
330
7D
100
AcDbEntity
  8
_U+30EC_U+30A4_U+30E4_U+30FC 1
 62
     7
420
 16777215
370
    20
  0
POLYLINE
  5
81
330
45
100
AcDbEntity
  8
_U+30EC_U+30A4_U+30E4_U+30FC 1
 62
     7
420
 16777215
370
    20
100
AcDb2dPolyline
 66
     1
 10
0.0
 20
0.0
 30
0.0
  0
VERTEX
  5
82
330
81
100
AcDbEntity
  8
_U+30EC_U+30A4_U+30E4_U+30FC 1
 62
     7
420
 16777215
370
    20
100
AcDbVertex
100
AcDb2dVertex
 10
110.8523018241953
 20
75.98602245781575
 30
0.0
  0
VERTEX
  5
83
330
81
100
AcDbEntity
  8
_U+30EC_U+30A4_U+30E4_U+30FC 1
 62
     7
420
 16777215
370
    20
100
AcDbVertex
100
AcDb2dVertex
 10
124.8515765195887
 20
75.98602245781575
 30
0.0
  0
SEQEND
  5
84
330
81
100
AcDbEntity
  8
_U+30EC_U+30A4_U+30E4_U+30FC 1
 62
     7
420
 16777215
370
    20
  0
POLYLINE
  5
85
330
45
100
AcDbEntity
  8
_U+30EC_U+30A4_U+30E4_U+30FC 1
 62
     7
420
 16777215
370
    20
100
AcDb2dPolyline
 66
     1
 10
0.0
 20
0.0
 30
0.0
  0
VERTEX
  5
86
330
85
100
AcDbEntity
  8
_U+30EC_U+30A4_U+30E4_U+30FC 1
 62
     7
420
 16777215
370
    20
100
AcDbVertex
100
AcDb2dVertex
 10
91.8023018289578
 20
61.98815809838661
 30
0.0
  0
VERTEX
  5
87
330
85
100
AcDbEntity
  8
_U+30EC_U+30A4_U+30E4_U+30FC 1
 62
     7
420
 16777215
370
    20
100
AcDbVertex
100
AcDb2dVertex
 10
91.8023018289578
 20
75.98602245781575
 30
0.0
  0
SEQEND
  5
88
330
85
100
AcDbEntity
  8
_U+30EC_U+30A4_U+30E4_U+30FC 1
 62
     7
420
 16777215
370
    20
  0
POLYLINE
  5
89
330
45
100
AcDbEntity
  8
_U+30EC_U+30A4_U+30E4_U+30FC 1
 62
     7
420
 16777215
370
    20
100
AcDb2dPolyline
 66
     1
 10
0.0
 20
0.0
 30
0.0
  0
VERTEX
  5
8A
330
89
100
AcDbEntity
  8
_U+30EC_U+30A4_U+30E4_U+30FC 1
 62
     7
420
 16777215
370
    20
100
AcDbVertex
100
AcDb2dVertex
 10
105.8015872902746
 20
75.98602245781575
 30
0.0
  0
VERTEX
  5
8B
330
89
100
AcDbEntity
  8
_U+30EC_U+30A4_U+30E4_U+30FC 1
 62
     7
420
 16777215
370
    20
100
AcDbVertex
100
AcDb2dVertex
 10
105.8015872902746
 20
61.98815809838661
 30
0.0
  0
SEQEND
  5
8C
330
89
100
AcDbEntity
  8
_U+30EC_U+30A4_U+30E4_U+30FC 1
 62
     7
420
 16777215
370
    20
  0
POLYLINE
  5
8D
330
45
100
AcDbEntity
  8
_U+30EC_U+30A4_U+30E4_U+30FC 1
 62
     7
420
 16777215
370
    20
100
AcDb2dPolyline
 66
     1
 10
0.0
 20
0.0
 30
0.0
  0
VERTEX
  5
8E
330
8D
100
AcDbEntity
  8
_U+30EC_U+30A4_U+30E4_U+30FC 1
 62
     7
420
 16777215
370
    20
100
AcDbVertex
100
AcDb2dVertex
 10
91.8023018289578
 20
75.98602245781575
 30
0.0
  0
VERTEX
  5
8F
330
8D
100
AcDbEntity
  8
_U+30EC_U+30A4_U+30E4_U+30FC 1
 62
     7
420
 16777215
370
    20
100
AcDbVertex
100
AcDb2dVertex
 10
105.8015872902746
 20
75.98602245781575
 30
0.0
  0
SEQEND
  5
90
330
8D
100
AcDbEntity
  8
_U+30EC_U+30A4_U+30E4_U+30FC 1
 62
     7
420
 16777215
370
    20
  0
POLYLINE
  5
91
330
45
100
AcDbEntity
  8
_U+30EC_U+30A4_U+30E4_U+30FC 1
 62
     7
420
 16777215
370
    20
100
AcDb2dPolyline
 66
     1
 10
0.0
 20
0.0
 30
0.0
  0
VERTEX
  5
92
330
91
100
AcDbEntity
  8
_U+30EC_U+30A4_U+30E4_U+30FC 1
 62
     7
420
 16777215
370
    20
100
AcDbVertex
100
AcDb2dVertex
 10
67.7015872997996
 20
61.98815809838661
 30
0.0
  0
VERTEX
  5
93
330
91
100
AcDbEntity
  8
_U+30EC_U+30A4_U+30E4_U+30FC 1
 62
     7
420
 16777215
370
    20
100
AcDbVertex
100
AcDb2dVertex
 10
53.70231260440618
 20
61.98815809838661
 30
0.0
  0
SEQEND
  5
94
330
91
100
AcDbEntity
  8
_U+30EC_U+30A4_U+30E4_U+30FC 1
 62
     7
420
 16777215
370
    20
  0
POLYLINE
  5
95
330
45
100
AcDbEntity
  8
_U+30EC_U+30A4_U+30E4_U+30FC 1
 62
     7
420
 16777215
370
    20
100
AcDb2dPolyline
 66
     1
 10
0.0
 20
0.0
 30
0.0
  0
VERTEX
  5
96
330
95
100
AcDbEntity
  8
_U+30EC_U+30A4_U+30E4_U+30FC 1
 62
     7
420
 16777215
370
    20
100
AcDbVertex
100
AcDb2dVertex
 10
158.1890980431011
 20
56.93602246257824
 30
0.0
  0
VERTEX
  5
97
330
95
100
AcDbEntity
  8
_U+30EC_U+30A4_U+30E4_U+30FC 1
 62
     7
420
 16777215
370
    20
100
AcDbVertex
100
AcDb2dVertex
 10
158.1890980431011
 20
42.93814733722571
 30
0.0
  0
SEQEND
  5
98
330
95
100
AcDbEntity
  8
_U+30EC_U+30A4_U+30E4_U+30FC 1
 62
     7
420
 16777215
370
    20
  0
POLYLINE
  5
99
330
45
100
AcDbEntity
  8
_U+30EC_U+30A4_U+30E4_U+30FC 1
 62
     7
420
 16777215
370
    20
100
AcDb2dPolyline
 66
     1
 10
0.0
 20
0.0
 30
0.0
  0
VERTEX
  5
9A
330
99
100
AcDbEntity
  8
_U+30EC_U+30A4_U+30E4_U+30FC 1
 62
     7
420
 16777215
370
    20
100
AcDbVertex
100
AcDb2dVertex
 10
106.0898018253859
 20
56.93602246257824
 30
0.0
  0
VERTEX
  5
9B
330
99
100
AcDbEntity
  8
_U+30EC_U+30A4_U+30E4_U+30FC 1
 62
     7
420
 16777215
370
    20
100
AcDbVertex
100
AcDb2dVertex
 10
120.0890980526261
 20
56.93602246257824
 30
0.0
  0
SEQEND
  5
9C
330
99
100
AcDbEntity
  8
_U+30EC_U+30A4_U+30E4_U+30FC 1
 62
     7
420
 16777215
370
    20
  0
POLYLINE
  5
9D
330
45
100
AcDbEntity
  8
_U+30EC_U+30A4_U+30E4_U+30FC 1
 62
     7
420
 16777215
370
    20
100
AcDb2dPolyline
 66
     1
 10
0.0
 20
0.0
 30
0.0
  0
VERTEX
  5
9E
330
9D
100
AcDbEntity
  8
_U+30EC_U+30A4_U+30E4_U+30FC 1
 62
     7
420
 16777215
370
    20
100
AcDbVertex
100
AcDb2dVertex
 10
87.03980183014842
 20
42.93814733722571
 30
0.0
  0
VERTEX
  5
9F
330
9D
100
AcDbEntity
  8
_U+30EC_U+30A4_U+30E4_U+30FC 1
 62
     7
420
 16777215
370
    20
100
AcDbVertex
100
AcDb2dVertex
 10
87.03980183014842
 20
56.93602246257824
 30
0.0
  0
SEQEND
  5
A0
330
9D
100
AcDbEntity
  8
_U+30EC_U+30A4_U+30E4_U+30FC 1
 62
     7
420
 16777215
370
    20
  0
POLYLINE
  5
A1
330
45
100
AcDbEntity
  8
_U+30EC_U+30A4_U+30E4_U+30FC 1
 62
     7
420
 16777215
370
    20
100
AcDb2dPolyline
 66
     1
 10
0.0
 20
0.0
 30
0.0
  0
VERTEX
  5
A2
330
A1
100
AcDbEntity
  8
_U+30EC_U+30A4_U+30E4_U+30FC 1
 62
     7
420
 16777215
370
    20
100
AcDbVertex
100
AcDb2dVertex
 10
67.7015872997996
 20
75.98602245781575
 30
0.0
  0
VERTEX
  5
A3
330
A1
100
AcDbEntity
  8
_U+30EC_U+30A4_U+30E4_U+30FC 1
 62
     7
420
 16777215
370
    20
100
AcDbVertex
100
AcDb2dVertex
 10
67.7015872997996
 20
61.98815809838661
 30
0.0
  0
SEQEND
  5
A4
330
A1
100
AcDbEntity
  8
_U+30EC_U+30A4_U+30E4_U+30FC 1
 62
     7
420
 16777215
370
    20
  0
POLYLINE
  5
A5
330
45
100
AcDbEntity
  8
_U+30EC_U+30A4_U+30E4_U+30FC 1
 62
     7
420
 16777215
370
    20
100
AcDb2dPolyline
 66
     1
 10
0.0
 20
0.0
 30
0.0
  0
VERTEX
  5
A6
330
A5
100
AcDbEntity
  8
_U+30EC_U+30A4_U+30E4_U+30FC 1
 62
     7
420
 16777215
370
    20
100
AcDbVertex
100
AcDb2dVertex
 10
120.0890980526261
 20
42.93814733722571
 30
0.0
  0
VERTEX
  5
A7
330
A5
100
AcDbEntity
  8
_U+30EC_U+30A4_U+30E4_U+30FC 1
 62
     7
420
 16777215
370
    20
100
AcDbVertex
100
AcDb2dVertex
 10
106.0898018253859
 20
42.93814733722571
 30
0.0
  0
SEQEND
  5
A8
330
A5
100
AcDbEntity
  8
_U+30EC_U+30A4_U+30E4_U+30FC 1
 62
     7
420
 16777215
370
    20
  0
POLYLINE
  5
A9
330
45
100
AcDbEntity
  8
_U+30EC_U+30A4_U+30E4_U+30FC 1
 62
     7
420
 16777215
370
    20
100
AcDb2dPolyline
 66
     1
 10
0.0
 20
0.0
 30
0.0
  0
VERTEX
  5
AA
330
A9
100
AcDbEntity
  8
_U+30EC_U+30A4_U+30E4_U+30FC 1
 62
     7
420
 16777215
370
    20
100
AcDbVertex
100
AcDb2dVertex
 10
139.1390765160168
 20
42.93814733722571
 30
0.0
  0
VERTEX
  5
AB
330
A9
100
AcDbEntity
  8
_U+30EC_U+30A4_U+30E4_U+30FC 1
 62
     7
420
 16777215
370
    20
100
AcDbVertex
100
AcDb2dVertex
 10
125.1398125865468
 20
42.93814733722571
 30
0.0
  0
SEQEND
  5
AC
330
A9
100
AcDbEntity
  8
_U+30EC_U+30A4_U+30E4_U+30FC 1
 62
     7
420
 16777215
370
    20
  0
POLYLINE
  5
AD
330
45
100
AcDbEntity
  8
_U+30EC_U+30A4_U+30E4_U+30FC 1
 62
     7
420
 16777215
370
    20
100
AcDb2dPolyline
 66
     1
 10
0.0
 20
0.0
 30
0.0
  0
VERTEX
  5
AE
330
AD
100
AcDbEntity
  8
_U+30EC_U+30A4_U+30E4_U+30FC 1
 62
     7
420
 16777215
370
    20
100
AcDbVertex
100
AcDb2dVertex
 10
101.0390872914652
 20
42.93814733722571
 30
0.0
  0
VERTEX
  5
AF
330
AD
100
AcDbEntity
  8
_U+30EC_U+30A4_U+30E4_U+30FC 1
 62
     7
420
 16777215
370
    20
100
AcDbVertex
100
AcDb2dVertex
 10
87.03980183014842
 20
42.93814733722571
 30
0.0
  0
SEQEND
  5
B0
330
AD
100
AcDbEntity
  8
_U+30EC_U+30A4_U+30E4_U+30FC 1
 62
     7
420
 16777215
370
    20
  0
POLYLINE
  5
B1
330
45
100
AcDbEntity
  8
_U+30EC_U+30A4_U+30E4_U+30FC 1
 62
     7
420
 16777215
370
    20
100
AcDb2dPolyline
 66
     1
 10
0.0
 20
0.0
 30
0.0
  0
VERTEX
  5
B2
330
B1
100
AcDbEntity
  8
_U+30EC_U+30A4_U+30E4_U+30FC 1
 62
     7
420
 16777215
370
    20
100
AcDbVertex
100
AcDb2dVertex
 10
125.1398125865468
 20
56.93602246257824
 30
0.0
  0
VERTEX
  5
B3
330
B1
100
AcDbEntity
  8
_U+30EC_U+30A4_U+30E4_U+30FC 1
 62
     7
420
 16777215
370
    20
100
AcDbVertex
100
AcDb2dVertex
 10
139.1390765160168
 20
56.93602246257824
 30
0.0
  0
SEQEND
  5
B4
330
B1
100
AcDbEntity
  8
_U+30EC_U+30A4_U+30E4_U+30FC 1
 62
     7
420
 16777215
370
    20
  0
POLYLINE
  5
B5
330
45
100
AcDbEntity
  8
_U+30EC_U+30A4_U+30E4_U+30FC 1
 62
     7
420
 16777215
370
    20
100
AcDb2dPolyline
 66
     1
 10
0.0
 20
0.0
 30
0.0
  0
VERTEX
  5
B6
330
B5
100
AcDbEntity
  8
_U+30EC_U+30A4_U+30E4_U+30FC 1
 62
     7
420
 16777215
370
    20
100
AcDbVertex
100
AcDb2dVertex
 10
53.70231260440618
 20
75.98602245781575
 30
0.0
  0
VERTEX
  5
B7
330
B5
100
AcDbEntity
  8
_U+30EC_U+30A4_U+30E4_U+30FC 1
 62
     7
420
 16777215
370
    20
100
AcDbVertex
100
AcDb2dVertex
 10
67.7015872997996
 20
75.98602245781575
 30
0.0
  0
SEQEND
  5
B8
330
B5
100
AcDbEntity
  8
_U+30EC_U+30A4_U+30E4_U+30FC 1
 62
     7
420
 16777215
370
    20
  0
POLYLINE
  5
B9
330
45
100
AcDbEntity
  8
_U+30EC_U+30A4_U+30E4_U+30FC 1
 62
     7
420
 16777215
370
    20
100
AcDb2dPolyline
 66
     1
 10
0.0
 20
0.0
 30
0.0
  0
VERTEX
  5
BA
330
B9
100
AcDbEntity
  8
_U+30EC_U+30A4_U+30E4_U+30FC 1
 62
     7
420
 16777215
370
    20
100
AcDbVertex
100
AcDb2dVertex
 10
144.1898233477077
 20
56.93602246257824
 30
0.0
  0
VERTEX
  5
BB
330
B9
100
AcDbEntity
  8
_U+30EC_U+30A4_U+30E4_U+30FC 1
 62
     7
420
 16777215
370
    20
100
AcDbVertex
100
AcDb2dVertex
 10
158.1890980431011
 20
56.93602246257824
 30
0.0
  0
SEQEND
  5
BC
330
B9
100
AcDbEntity
  8
_U+30EC_U+30A4_U+30E4_U+30FC 1
 62
     7
420
 16777215
370
    20
  0
POLYLINE
  5
BD
330
45
100
AcDbEntity
  8
_U+30EC_U+30A4_U+30E4_U+30FC 1
 62
     7
420
 16777215
370
    20
100
AcDb2dPolyline
 66
     1
 10
0.0
 20
0.0
 30
0.0
  0
VERTEX
  5
BE
330
BD
100
AcDbEntity
  8
_U+30EC_U+30A4_U+30E4_U+30FC 1
 62
     7
420
 16777215
370
    20
100
AcDbVertex
100
AcDb2dVertex
 10
101.0390872914652
 20
56.93602246257824
 30
0.0
  0
VERTEX
  5
BF
330
BD
100
AcDbEntity
  8
_U+30EC_U+30A4_U+30E4_U+30FC 1
 62
     7
420
 16777215
370
    20
100
AcDbVertex
100
AcDb2dVertex
 10
101.0390872914652
 20
42.93814733722571
 30
0.0
  0
SEQEND
  5
C0
330
BD
100
AcDbEntity
  8
_U+30EC_U+30A4_U+30E4_U+30FC 1
 62
     7
420
 16777215
370
    20
  0
POLYLINE
  5
C1
330
45
100
AcDbEntity
  8
_U+30EC_U+30A4_U+30E4_U+30FC 1
 62
     7
420
 16777215
370
    20
100
AcDb2dPolyline
 66
     1
 10
0.0
 20
0.0
 30
0.0
  0
VERTEX
  5
C2
330
C1
100
AcDbEntity
  8
_U+30EC_U+30A4_U+30E4_U+30FC 1
 62
     7
420
 16777215
370
    20
100
AcDbVertex
100
AcDb2dVertex
 10
106.0898018253859
 20
42.93814733722571
 30
0.0
  0
VERTEX
  5
C3
330
C1
100
AcDbEntity
  8
_U+30EC_U+30A4_U+30E4_U+30FC 1
 62
     7
420
 16777215
370
    20
100
AcDbVertex
100
AcDb2dVertex
 10
106.0898018253859
 20
56.93602246257824
 30
0.0
  0
SEQEND
  5
C4
330
C1
100
AcDbEntity
  8
_U+30EC_U+30A4_U+30E4_U+30FC 1
 62
     7
420
 16777215
370
    20
  0
POLYLINE
  5
C5
330
45
100
AcDbEntity
  8
_U+30EC_U+30A4_U+30E4_U+30FC 1
 62
     7
420
 16777215
370
    20
100
AcDb2dPolyline
 66
     1
 10
0.0
 20
0.0
 30
0.0
  0
VERTEX
  5
C6
330
C5
100
AcDbEntity
  8
_U+30EC_U+30A4_U+30E4_U+30FC 1
 62
     7
420
 16777215
370
    20
100
AcDbVertex
100
AcDb2dVertex
 10
87.03980183014842
 20
56.93602246257824
 30
0.0
  0
VERTEX
  5
C7
330
C5
100
AcDbEntity
  8
_U+30EC_U+30A4_U+30E4_U+30FC 1
 62
     7
420
 16777215
370
    20
100
AcDbVertex
100
AcDb2dVertex
 10
101.0390872914652
 20
56.93602246257824
 30
0.0
  0
SEQEND
  5
C8
330
C5
100
AcDbEntity
  8
_U+30EC_U+30A4_U+30E4_U+30FC 1
 62
     7
420
 16777215
370
    20
  0
POLYLINE
  5
C9
330
45
100
AcDbEntity
  8
_U+30EC_U+30A4_U+30E4_U+30FC 1
 62
     7
420
 16777215
370
    20
100
AcDb2dPolyline
 66
     1
 10
0.0
 20
0.0
 30
0.0
  0
VERTEX
  5
CA
330
C9
100
AcDbEntity
  8
_U+30EC_U+30A4_U+30E4_U+30FC 1
 62
     7
420
 16777215
370
    20
100
AcDbVertex
100
AcDb2dVertex
 10
81.98908729622772
 20
56.93602246257824
 30
0.0
  0
VERTEX
  5
CB
330
C9
100
AcDbEntity
  8
_U+30EC_U+30A4_U+30E4_U+30FC 1
 62
     7
420
 16777215
370
    20
100
AcDbVertex
100
AcDb2dVertex
 10
81.98908729622772
 20
42.93814733722571
 30
0.0
  0
SEQEND
  5
CC
330
C9
100
AcDbEntity
  8
_U+30EC_U+30A4_U+30E4_U+30FC 1
 62
     7
420
 16777215
370
    20
  0
POLYLINE
  5
CD
330
45
100
AcDbEntity
  8
_U+30EC_U+30A4_U+30E4_U+30FC 1
 62
     7
420
 16777215
370
    20
100
AcDb2dPolyline
 66
     1
 10
0.0
 20
0.0
 30
0.0
  0
VERTEX
  5
CE
330
CD
100
AcDbEntity
  8
_U+30EC_U+30A4_U+30E4_U+30FC 1
 62
     7
420
 16777215
370
    20
100
AcDbVertex
100
AcDb2dVertex
 10
81.98908729622772
 20
42.93814733722571
 30
0.0
  0
VERTEX
  5
CF
330
CD
100
AcDbEntity
  8
_U+30EC_U+30A4_U+30E4_U+30FC 1
 62
     7
420
 16777215
370
    20
100
AcDbVertex
100
AcDb2dVertex
 10
67.98980183491092
 20
42.93814733722571
 30
0.0
  0
SEQEND
  5
D0
330
CD
100
AcDbEntity
  8
_U+30EC_U+30A4_U+30E4_U+30FC 1
 62
     7
420
 16777215
370
    20
  0
POLYLINE
  5
D1
330
45
100
AcDbEntity
  8
_U+30EC_U+30A4_U+30E4_U+30FC 1
 62
     7
420
 16777215
370
    20
100
AcDb2dPolyline
 66
     1
 10
0.0
 20
0.0
 30
0.0
  0
VERTEX
  5
D2
330
D1
100
AcDbEntity
  8
_U+30EC_U+30A4_U+30E4_U+30FC 1
 62
     7
420
 16777215
370
    20
100
AcDbVertex
100
AcDb2dVertex
 10
48.93981260559681
 20
42.93814733722571
 30
0.0
  0
VERTEX
  5
D3
330
D1
100
AcDbEntity
  8
_U+30EC_U+30A4_U+30E4_U+30FC 1
 62
     7
420
 16777215
370
    20
100
AcDbVertex
100
AcDb2dVertex
 10
48.93981260559681
 20
56.93602246257824
 30
0.0
  0
SEQEND
  5
D4
330
D1
100
AcDbEntity
  8
_U+30EC_U+30A4_U+30E4_U+30FC 1
 62
     7
420
 16777215
370
    20
  0
POLYLINE
  5
D5
330
45
100
AcDbEntity
  8
_U+30EC_U+30A4_U+30E4_U+30FC 1
 62
     7
420
 16777215
370
    20
100
AcDb2dPolyline
 66
     1
 10
0.0
 20
0.0
 30
0.0
  0
VERTEX
  5
D6
330
D5
100
AcDbEntity
  8
_U+30EC_U+30A4_U+30E4_U+30FC 1
 62
     7
420
 16777215
370
    20
100
AcDbVertex
100
AcDb2dVertex
 10
120.0890980526261
 20
56.93602246257824
 30
0.0
  0
VERTEX
  5
D7
330
D5
100
AcDbEntity
  8
_U+30EC_U+30A4_U+30E4_U+30FC 1
 62
     7
420
 16777215
370
    20
100
AcDbVertex
100
AcDb2dVertex
 10
120.0890980526261
 20
42.93814733722571
 30
0.0
  0
SEQEND
  5
D8
330
D5
100
AcDbEntity
  8
_U+30EC_U+30A4_U+30E4_U+30FC 1
 62
     7
420
 16777215
370
    20
  0
POLYLINE
  5
D9
330
45
100
AcDbEntity
  8
_U+30EC_U+30A4_U+30E4_U+30FC 1
 62
     7
420
 16777215
370
    20
100
AcDb2dPolyline
 66
     1
 10
0.0
 20
0.0
 30
0.0
  0
VERTEX
  5
DA
330
D9
100
AcDbEntity
  8
_U+30EC_U+30A4_U+30E4_U+30FC 1
 62
     7
420
 16777215
370
    20
100
AcDbVertex
100
AcDb2dVertex
 10
144.1898233477077
 20
42.93814733722571
 30
0.0
  0
VERTEX
  5
DB
330
D9
100
AcDbEntity
  8
_U+30EC_U+30A4_U+30E4_U+30FC 1
 62
     7
420
 16777215
370
    20
100
AcDbVertex
100
AcDb2dVertex
 10
144.1898233477077
 20
56.93602246257824
 30
0.0
  0
SEQEND
  5
DC
330
D9
100
AcDbEntity
  8
_U+30EC_U+30A4_U+30E4_U+30FC 1
 62
     7
420
 16777215
370
    20
  0
POLYLINE
  5
DD
330
45
100
AcDbEntity
  8
_U+30EC_U+30A4_U+30E4_U+30FC 1
 62
     7
420
 16777215
370
    20
100
AcDb2dPolyline
 66
     1
 10
0.0
 20
0.0
 30
0.0
  0
VERTEX
  5
DE
330
DD
100
AcDbEntity
  8
_U+30EC_U+30A4_U+30E4_U+30FC 1
 62
     7
420
 16777215
370
    20
100
AcDbVertex
100
AcDb2dVertex
 10
139.1390765160168
 20
56.93602246257824
 30
0.0
  0
VERTEX
  5
DF
330
DD
100
AcDbEntity
  8
_U+30EC_U+30A4_U+30E4_U+30FC 1
 62
     7
420
 16777215
370
    20
100
AcDbVertex
100
AcDb2dVertex
 10
139.1390765160168
 20
42.93814733722571
 30
0.0
  0
SEQEND
  5
E0
330
DD
100
AcDbEntity
  8
_U+30EC_U+30A4_U+30E4_U+30FC 1
 62
     7
420
 16777215
370
    20
  0
POLYLINE
  5
E1
330
45
100
AcDbEntity
  8
_U+30EC_U+30A4_U+30E4_U+30FC 1
 62
     7
420
 16777215
370
    20
100
AcDb2dPolyline
 66
     1
 10
0.0
 20
0.0
 30
0.0
  0
VERTEX
  5
E2
330
E1
100
AcDbEntity
  8
_U+30EC_U+30A4_U+30E4_U+30FC 1
 62
     7
420
 16777215
370
    20
100
AcDbVertex
100
AcDb2dVertex
 10
125.1398125865468
 20
42.93814733722571
 30
0.0
  0
VERTEX
  5
E3
330
E1
100
AcDbEntity
  8
_U+30EC_U+30A4_U+30E4_U+30FC 1
 62
     7
420
 16777215
370
    20
100
AcDbVertex
100
AcDb2dVertex
 10
125.1398125865468
 20
56.93602246257824
 30
0.0
  0
SEQEND
  5
E4
330
E1
100
AcDbEntity
  8
_U+30EC_U+30A4_U+30E4_U+30FC 1
 62
     7
420
 16777215
370
    20
  0
POLYLINE
  5
E5
330
45
100
AcDbEntity
  8
_U+30EC_U+30A4_U+30E4_U+30FC 1
 62
     7
420
 16777215
370
    20
100
AcDb2dPolyline
 66
     1
 10
0.0
 20
0.0
 30
0.0
  0
VERTEX
  5
E6
330
E5
100
AcDbEntity
  8
_U+30EC_U+30A4_U+30E4_U+30FC 1
 62
     7
420
 16777215
370
    20
100
AcDbVertex
100
AcDb2dVertex
 10
158.1890980431011
 20
42.93814733722571
 30
0.0
  0
VERTEX
  5
E7
330
E5
100
AcDbEntity
  8
_U+30EC_U+30A4_U+30E4_U+30FC 1
 62
     7
420
 16777215
370
    20
100
AcDbVertex
100
AcDb2dVertex
 10
144.1898233477077
 20
42.93814733722571
 30
0.0
  0
SEQEND
  5
E8
330
E5
100
AcDbEntity
  8
_U+30EC_U+30A4_U+30E4_U+30FC 1
 62
     7
420
 16777215
370
    20
  0
POLYLINE
  5
E9
330
45
100
AcDbEntity
  8
_U+30EC_U+30A4_U+30E4_U+30FC 1
 62
     7
420
 16777215
370
    20
100
AcDb2dPolyline
 66
     1
 10
0.0
 20
0.0
 30
0.0
  0
VERTEX
  5
EA
330
E9
100
AcDbEntity
  8
_U+30EC_U+30A4_U+30E4_U+30FC 1
 62
     7
420
 16777215
370
    20
100
AcDbVertex
100
AcDb2dVertex
 10
67.98980183491092
 20
42.93814733722571
 30
0.0
  0
VERTEX
  5
EB
330
E9
100
AcDbEntity
  8
_U+30EC_U+30A4_U+30E4_U+30FC 1
 62
     7
420
 16777215
370
    20
100
AcDbVertex
100
AcDb2dVertex
 10
67.98980183491092
 20
56.93602246257824
 30
0.0
  0
SEQEND
  5
EC
330
E9
100
AcDbEntity
  8
_U+30EC_U+30A4_U+30E4_U+30FC 1
 62
     7
420
 16777215
370
    20
  0
POLYLINE
  5
ED
330
45
100
AcDbEntity
  8
_U+30EC_U+30A4_U+30E4_U+30FC 1
 62
     7
420
 16777215
370
    20
100
AcDb2dPolyline
 66
     1
 10
0.0
 20
0.0
 30
0.0
  0
VERTEX
  5
EE
330
ED
100
AcDbEntity
  8
_U+30EC_U+30A4_U+30E4_U+30FC 1
 62
     7
420
 16777215
370
    20
100
AcDbVertex
100
AcDb2dVertex
 10
67.98980183491092
 20
56.93602246257824
 30
0.0
  0
VERTEX
  5
EF
330
ED
100
AcDbEntity
  8
_U+30EC_U+30A4_U+30E4_U+30FC 1
 62
     7
420
 16777215
370
    20
100
AcDbVertex
100
AcDb2dVertex
 10
81.98908729622772
 20
56.93602246257824
 30
0.0
  0
SEQEND
  5
F0
330
ED
100
AcDbEntity
  8
_U+30EC_U+30A4_U+30E4_U+30FC 1
 62
     7
420
 16777215
370
    20
  0
POLYLINE
  5
F1
330
45
100
AcDbEntity
  8
_U+30EC_U+30A4_U+30E4_U+30FC 1
 62
     7
420
 16777215
370
    20
100
AcDb2dPolyline
 66
     1
 10
0.0
 20
0.0
 30
0.0
  0
VERTEX
  5
F2
330
F1
100
AcDbEntity
  8
_U+30EC_U+30A4_U+30E4_U+30FC 1
 62
     7
420
 16777215
370
    20
100
AcDbVertex
100
AcDb2dVertex
 10
139.424481145123
 20
37.88884313926929
 30
0.0
  0
VERTEX
  5
F3
330
F1
100
AcDbEntity
  8
_U+30EC_U+30A4_U+30E4_U+30FC 1
 62
     7
420
 16777215
370
    20
100
AcDbVertex
100
AcDb2dVertex
 10
153.4265980442918
 20
37.88884313926929
 30
0.0
  0
SEQEND
  5
F4
330
F1
100
AcDbEntity
  8
_U+30EC_U+30A4_U+30E4_U+30FC 1
 62
     7
420
 16777215
370
    20
  0
POLYLINE
  5
F5
330
45
100
AcDbEntity
  8
_U+30EC_U+30A4_U+30E4_U+30FC 1
 62
     7
420
 16777215
370
    20
100
AcDb2dPolyline
 66
     1
 10
0.0
 20
0.0
 30
0.0
  0
VERTEX
  5
F6
330
F5
100
AcDbEntity
  8
_U+30EC_U+30A4_U+30E4_U+30FC 1
 62
     7
420
 16777215
370
    20
100
AcDbVertex
100
AcDb2dVertex
 10
120.377301821814
 20
37.88884313926929
 30
0.0
  0
VERTEX
  5
F7
330
F5
100
AcDbEntity
  8
_U+30EC_U+30A4_U+30E4_U+30FC 1
 62
     7
420
 16777215
370
    20
100
AcDbVertex
100
AcDb2dVertex
 10
134.3765765172075
 20
37.88884313926929
 30
0.0
  0
SEQEND
  5
F8
330
F5
100
AcDbEntity
  8
_U+30EC_U+30A4_U+30E4_U+30FC 1
 62
     7
420
 16777215
370
    20
  0
POLYLINE
  5
F9
330
45
100
AcDbEntity
  8
_U+30EC_U+30A4_U+30E4_U+30FC 1
 62
     7
420
 16777215
370
    20
100
AcDb2dPolyline
 66
     1
 10
0.0
 20
0.0
 30
0.0
  0
VERTEX
  5
FA
330
F9
100
AcDbEntity
  8
_U+30EC_U+30A4_U+30E4_U+30FC 1
 62
     7
420
 16777215
370
    20
100
AcDbVertex
100
AcDb2dVertex
 10
115.3265980538167
 20
37.88884313926929
 30
0.0
  0
VERTEX
  5
FB
330
F9
100
AcDbEntity
  8
_U+30EC_U+30A4_U+30E4_U+30FC 1
 62
     7
420
 16777215
370
    20
100
AcDbVertex
100
AcDb2dVertex
 10
115.3265980538167
 20
23.88815272494991
 30
0.0
  0
SEQEND
  5
FC
330
F9
100
AcDbEntity
  8
_U+30EC_U+30A4_U+30E4_U+30FC 1
 62
     7
420
 16777215
370
    20
  0
POLYLINE
  5
FD
330
45
100
AcDbEntity
  8
_U+30EC_U+30A4_U+30E4_U+30FC 1
 62
     7
420
 16777215
370
    20
100
AcDb2dPolyline
 66
     1
 10
0.0
 20
0.0
 30
0.0
  0
VERTEX
  5
FE
330
FD
100
AcDbEntity
  8
_U+30EC_U+30A4_U+30E4_U+30FC 1
 62
     7
420
 16777215
370
    20
100
AcDbVertex
100
AcDb2dVertex
 10
82.27730183133905
 20
23.88815272494991
 30
0.0
  0
VERTEX
  5
FF
330
FD
100
AcDbEntity
  8
_U+30EC_U+30A4_U+30E4_U+30FC 1
 62
     7
420
 16777215
370
    20
100
AcDbVertex
100
AcDb2dVertex
 10
82.27730183133905
 20
37.88884313926929
 30
0.0
  0
SEQEND
  5
100
330
FD
100
AcDbEntity
  8
_U+30EC_U+30A4_U+30E4_U+30FC 1
 62
     7
420
 16777215
370
    20
  0
POLYLINE
  5
101
330
45
100
AcDbEntity
  8
_U+30EC_U+30A4_U+30E4_U+30FC 1
 62
     7
420
 16777215
370
    20
100
AcDb2dPolyline
 66
     1
 10
0.0
 20
0.0
 30
0.0
  0
VERTEX
  5
102
330
101
100
AcDbEntity
  8
_U+30EC_U+30A4_U+30E4_U+30FC 1
 62
     7
420
 16777215
370
    20
100
AcDbVertex
100
AcDb2dVertex
 10
62.93908730099022
 20
42.93814733722571
 30
0.0
  0
VERTEX
  5
103
330
101
100
AcDbEntity
  8
_U+30EC_U+30A4_U+30E4_U+30FC 1
 62
     7
420
 16777215
370
    20
100
AcDbVertex
100
AcDb2dVertex
 10
48.93981260559681
 20
42.93814733722571
 30
0.0
  0
SEQEND
  5
104
330
101
100
AcDbEntity
  8
_U+30EC_U+30A4_U+30E4_U+30FC 1
 62
     7
420
 16777215
370
    20
  0
POLYLINE
  5
105
330
45
100
AcDbEntity
  8
_U+30EC_U+30A4_U+30E4_U+30FC 1
 62
     7
420
 16777215
370
    20
100
AcDb2dPolyline
 66
     1
 10
0.0
 20
0.0
 30
0.0
  0
VERTEX
  5
106
330
105
100
AcDbEntity
  8
_U+30EC_U+30A4_U+30E4_U+30FC 1
 62
     7
420
 16777215
370
    20
100
AcDbVertex
100
AcDb2dVertex
 10
62.93908730099022
 20
56.93602246257824
 30
0.0
  0
VERTEX
  5
107
330
105
100
AcDbEntity
  8
_U+30EC_U+30A4_U+30E4_U+30FC 1
 62
     7
420
 16777215
370
    20
100
AcDbVertex
100
AcDb2dVertex
 10
62.93908730099022
 20
42.93814733722571
 30
0.0
  0
SEQEND
  5
108
330
105
100
AcDbEntity
  8
_U+30EC_U+30A4_U+30E4_U+30FC 1
 62
     7
420
 16777215
370
    20
  0
POLYLINE
  5
109
330
45
100
AcDbEntity
  8
_U+30EC_U+30A4_U+30E4_U+30FC 1
 62
     7
420
 16777215
370
    20
100
AcDb2dPolyline
 66
     1
 10
0.0
 20
0.0
 30
0.0
  0
VERTEX
  5
10A
330
109
100
AcDbEntity
  8
_U+30EC_U+30A4_U+30E4_U+30FC 1
 62
     7
420
 16777215
370
    20
100
AcDbVertex
100
AcDb2dVertex
 10
134.3765765172075
 20
23.88815272494991
 30
0.0
  0
VERTEX
  5
10B
330
109
100
AcDbEntity
  8
_U+30EC_U+30A4_U+30E4_U+30FC 1
 62
     7
420
 16777215
370
    20
100
AcDbVertex
100
AcDb2dVertex
 10
120.377301821814
 20
23.88815272494991
 30
0.0
  0
SEQEND
  5
10C
330
109
100
AcDbEntity
  8
_U+30EC_U+30A4_U+30E4_U+30FC 1
 62
     7
420
 16777215
370
    20
  0
POLYLINE
  5
10D
330
45
100
AcDbEntity
  8
_U+30EC_U+30A4_U+30E4_U+30FC 1
 62
     7
420
 16777215
370
    20
100
AcDb2dPolyline
 66
     1
 10
0.0
 20
0.0
 30
0.0
  0
VERTEX
  5
10E
330
10D
100
AcDbEntity
  8
_U+30EC_U+30A4_U+30E4_U+30FC 1
 62
     7
420
 16777215
370
    20
100
AcDbVertex
100
AcDb2dVertex
 10
115.3265980538167
 20
23.88815272494991
 30
0.0
  0
VERTEX
  5
10F
330
10D
100
AcDbEntity
  8
_U+30EC_U+30A4_U+30E4_U+30FC 1
 62
     7
420
 16777215
370
    20
100
AcDbVertex
100
AcDb2dVertex
 10
101.3273018265765
 20
23.88815272494991
 30
0.0
  0
SEQEND
  5
110
330
10D
100
AcDbEntity
  8
_U+30EC_U+30A4_U+30E4_U+30FC 1
 62
     7
420
 16777215
370
    20
  0
POLYLINE
  5
111
330
45
100
AcDbEntity
  8
_U+30EC_U+30A4_U+30E4_U+30FC 1
 62
     7
420
 16777215
370
    20
100
AcDb2dPolyline
 66
     1
 10
0.0
 20
0.0
 30
0.0
  0
VERTEX
  5
112
330
111
100
AcDbEntity
  8
_U+30EC_U+30A4_U+30E4_U+30FC 1
 62
     7
420
 16777215
370
    20
100
AcDbVertex
100
AcDb2dVertex
 10
77.22658729741835
 20
37.88884313926929
 30
0.0
  0
VERTEX
  5
113
330
111
100
AcDbEntity
  8
_U+30EC_U+30A4_U+30E4_U+30FC 1
 62
     7
420
 16777215
370
    20
100
AcDbVertex
100
AcDb2dVertex
 10
77.22658729741835
 20
23.88815272494991
 30
0.0
  0
SEQEND
  5
114
330
111
100
AcDbEntity
  8
_U+30EC_U+30A4_U+30E4_U+30FC 1
 62
     7
420
 16777215
370
    20
  0
POLYLINE
  5
115
330
45
100
AcDbEntity
  8
_U+30EC_U+30A4_U+30E4_U+30FC 1
 62
     7
420
 16777215
370
    20
100
AcDb2dPolyline
 66
     1
 10
0.0
 20
0.0
 30
0.0
  0
VERTEX
  5
116
330
115
100
AcDbEntity
  8
_U+30EC_U+30A4_U+30E4_U+30FC 1
 62
     7
420
 16777215
370
    20
100
AcDbVertex
100
AcDb2dVertex
 10
48.93981260559681
 20
56.93602246257824
 30
0.0
  0
VERTEX
  5
117
330
115
100
AcDbEntity
  8
_U+30EC_U+30A4_U+30E4_U+30FC 1
 62
     7
420
 16777215
370
    20
100
AcDbVertex
100
AcDb2dVertex
 10
62.93908730099022
 20
56.93602246257824
 30
0.0
  0
SEQEND
  5
118
330
115
100
AcDbEntity
  8
_U+30EC_U+30A4_U+30E4_U+30FC 1
 62
     7
420
 16777215
370
    20
  0
POLYLINE
  5
119
330
45
100
AcDbEntity
  8
_U+30EC_U+30A4_U+30E4_U+30FC 1
 62
     7
420
 16777215
370
    20
100
AcDb2dPolyline
 66
     1
 10
0.0
 20
0.0
 30
0.0
  0
VERTEX
  5
11A
330
119
100
AcDbEntity
  8
_U+30EC_U+30A4_U+30E4_U+30FC 1
 62
     7
420
 16777215
370
    20
100
AcDbVertex
100
AcDb2dVertex
 10
139.424481145123
 20
23.88815272494991
 30
0.0
  0
VERTEX
  5
11B
330
119
100
AcDbEntity
  8
_U+30EC_U+30A4_U+30E4_U+30FC 1
 62
     7
420
 16777215
370
    20
100
AcDbVertex
100
AcDb2dVertex
 10
139.424481145123
 20
37.88884313926929
 30
0.0
  0
SEQEND
  5
11C
330
119
100
AcDbEntity
  8
_U+30EC_U+30A4_U+30E4_U+30FC 1
 62
     7
420
 16777215
370
    20
  0
POLYLINE
  5
11D
330
45
100
AcDbEntity
  8
_U+30EC_U+30A4_U+30E4_U+30FC 1
 62
     7
420
 16777215
370
    20
100
AcDb2dPolyline
 66
     1
 10
0.0
 20
0.0
 30
0.0
  0
VERTEX
  5
11E
330
11D
100
AcDbEntity
  8
_U+30EC_U+30A4_U+30E4_U+30FC 1
 62
     7
420
 16777215
370
    20
100
AcDbVertex
100
AcDb2dVertex
 10
101.3273018265765
 20
23.88815272494991
 30
0.0
  0
VERTEX
  5
11F
330
11D
100
AcDbEntity
  8
_U+30EC_U+30A4_U+30E4_U+30FC 1
 62
     7
420
 16777215
370
    20
100
AcDbVertex
100
AcDb2dVertex
 10
101.3273018265765
 20
37.88884313926929
 30
0.0
  0
SEQEND
  5
120
330
11D
100
AcDbEntity
  8
_U+30EC_U+30A4_U+30E4_U+30FC 1
 62
     7
420
 16777215
370
    20
  0
POLYLINE
  5
121
330
45
100
AcDbEntity
  8
_U+30EC_U+30A4_U+30E4_U+30FC 1
 62
     7
420
 16777215
370
    20
100
AcDb2dPolyline
 66
     1
 10
0.0
 20
0.0
 30
0.0
  0
VERTEX
  5
122
330
121
100
AcDbEntity
  8
_U+30EC_U+30A4_U+30E4_U+30FC 1
 62
     7
420
 16777215
370
    20
100
AcDbVertex
100
AcDb2dVertex
 10
96.27658729265585
 20
37.88884313926929
 30
0.0
  0
VERTEX
  5
123
330
121
100
AcDbEntity
  8
_U+30EC_U+30A4_U+30E4_U+30FC 1
 62
     7
420
 16777215
370
    20
100
AcDbVertex
100
AcDb2dVertex
 10
96.27658729265585
 20
23.88815272494991
 30
0.0
  0
SEQEND
  5
124
330
121
100
AcDbEntity
  8
_U+30EC_U+30A4_U+30E4_U+30FC 1
 62
     7
420
 16777215
370
    20
  0
POLYLINE
  5
125
330
45
100
AcDbEntity
  8
_U+30EC_U+30A4_U+30E4_U+30FC 1
 62
     7
420
 16777215
370
    20
100
AcDb2dPolyline
 66
     1
 10
0.0
 20
0.0
 30
0.0
  0
VERTEX
  5
126
330
125
100
AcDbEntity
  8
_U+30EC_U+30A4_U+30E4_U+30FC 1
 62
     7
420
 16777215
370
    20
100
AcDbVertex
100
AcDb2dVertex
 10
77.22658729741835
 20
23.88815272494991
 30
0.0
  0
VERTEX
  5
127
330
125
100
AcDbEntity
  8
_U+30EC_U+30A4_U+30E4_U+30FC 1
 62
     7
420
 16777215
370
    20
100
AcDbVertex
100
AcDb2dVertex
 10
63.22731260202494
 20
23.88815272494991
 30
0.0
  0
SEQEND
  5
128
330
125
100
AcDbEntity
  8
_U+30EC_U+30A4_U+30E4_U+30FC 1
 62
     7
420
 16777215
370
    20
  0
POLYLINE
  5
129
330
45
100
AcDbEntity
  8
_U+30EC_U+30A4_U+30E4_U+30FC 1
 62
     7
420
 16777215
370
    20
100
AcDb2dPolyline
 66
     1
 10
0.0
 20
0.0
 30
0.0
  0
VERTEX
  5
12A
330
129
100
AcDbEntity
  8
_U+30EC_U+30A4_U+30E4_U+30FC 1
 62
     7
420
 16777215
370
    20
100
AcDbVertex
100
AcDb2dVertex
 10
63.22731260202494
 20
37.88884313926929
 30
0.0
  0
VERTEX
  5
12B
330
129
100
AcDbEntity
  8
_U+30EC_U+30A4_U+30E4_U+30FC 1
 62
     7
420
 16777215
370
    20
100
AcDbVertex
100
AcDb2dVertex
 10
77.22658729741835
 20
37.88884313926929
 30
0.0
  0
SEQEND
  5
12C
330
129
100
AcDbEntity
  8
_U+30EC_U+30A4_U+30E4_U+30FC 1
 62
     7
420
 16777215
370
    20
  0
POLYLINE
  5
12D
330
45
100
AcDbEntity
  8
_U+30EC_U+30A4_U+30E4_U+30FC 1
 62
     7
420
 16777215
370
    20
100
AcDb2dPolyline
 66
     1
 10
0.0
 20
0.0
 30
0.0
  0
VERTEX
  5
12E
330
12D
100
AcDbEntity
  8
_U+30EC_U+30A4_U+30E4_U+30FC 1
 62
     7
420
 16777215
370
    20
100
AcDbVertex
100
AcDb2dVertex
 10
63.22731260202494
 20
23.88815272494991
 30
0.0
  0
VERTEX
  5
12F
330
12D
100
AcDbEntity
  8
_U+30EC_U+30A4_U+30E4_U+30FC 1
 62
     7
420
 16777215
370
    20
100
AcDbVertex
100
AcDb2dVertex
 10
63.22731260202494
 20
37.88884313926929
 30
0.0
  0
SEQEND
  5
130
330
12D
100
AcDbEntity
  8
_U+30EC_U+30A4_U+30E4_U+30FC 1
 62
     7
420
 16777215
370
    20
  0
POLYLINE
  5
131
330
45
100
AcDbEntity
  8
_U+30EC_U+30A4_U+30E4_U+30FC 1
 62
     7
420
 16777215
370
    20
100
AcDb2dPolyline
 66
     1
 10
0.0
 20
0.0
 30
0.0
  0
VERTEX
  5
132
330
131
100
AcDbEntity
  8
_U+30EC_U+30A4_U+30E4_U+30FC 1
 62
     7
420
 16777215
370
    20
100
AcDbVertex
100
AcDb2dVertex
 10
134.3765765172075
 20
37.88884313926929
 30
0.0
  0
VERTEX
  5
133
330
131
100
AcDbEntity
  8
_U+30EC_U+30A4_U+30E4_U+30FC 1
 62
     7
420
 16777215
370
    20
100
AcDbVertex
100
AcDb2dVertex
 10
134.3765765172075
 20
23.88815272494991
 30
0.0
  0
SEQEND
  5
134
330
131
100
AcDbEntity
  8
_U+30EC_U+30A4_U+30E4_U+30FC 1
 62
     7
420
 16777215
370
    20
  0
POLYLINE
  5
135
330
45
100
AcDbEntity
  8
_U+30EC_U+30A4_U+30E4_U+30FC 1
 62
     7
420
 16777215
370
    20
100
AcDb2dPolyline
 66
     1
 10
0.0
 20
0.0
 30
0.0
  0
VERTEX
  5
136
330
135
100
AcDbEntity
  8
_U+30EC_U+30A4_U+30E4_U+30FC 1
 62
     7
420
 16777215
370
    20
100
AcDbVertex
100
AcDb2dVertex
 10
96.27658729265585
 20
23.88815272494991
 30
0.0
  0
VERTEX
  5
137
330
135
100
AcDbEntity
  8
_U+30EC_U+30A4_U+30E4_U+30FC 1
 62
     7
420
 16777215
370
    20
100
AcDbVertex
100
AcDb2dVertex
 10
82.27730183133905
 20
23.88815272494991
 30
0.0
  0
SEQEND
  5
138
330
135
100
AcDbEntity
  8
_U+30EC_U+30A4_U+30E4_U+30FC 1
 62
     7
420
 16777215
370
    20
  0
POLYLINE
  5
139
330
45
100
AcDbEntity
  8
_U+30EC_U+30A4_U+30E4_U+30FC 1
 62
     7
420
 16777215
370
    20
100
AcDb2dPolyline
 66
     1
 10
0.0
 20
0.0
 30
0.0
  0
VERTEX
  5
13A
330
139
100
AcDbEntity
  8
_U+30EC_U+30A4_U+30E4_U+30FC 1
 62
     7
420
 16777215
370
    20
100
AcDbVertex
100
AcDb2dVertex
 10
101.3273018265765
 20
37.88884313926929
 30
0.0
  0
VERTEX
  5
13B
330
139
100
AcDbEntity
  8
_U+30EC_U+30A4_U+30E4_U+30FC 1
 62
     7
420
 16777215
370
    20
100
AcDbVertex
100
AcDb2dVertex
 10
115.3265980538167
 20
37.88884313926929
 30
0.0
  0
SEQEND
  5
13C
330
139
100
AcDbEntity
  8
_U+30EC_U+30A4_U+30E4_U+30FC 1
 62
     7
420
 16777215
370
    20
  0
POLYLINE
  5
13D
330
45
100
AcDbEntity
  8
_U+30EC_U+30A4_U+30E4_U+30FC 1
 62
     7
420
 16777215
370
    20
100
AcDb2dPolyline
 66
     1
 10
0.0
 20
0.0
 30
0.0
  0
VERTEX
  5
13E
330
13D
100
AcDbEntity
  8
_U+30EC_U+30A4_U+30E4_U+30FC 1
 62
     7
420
 16777215
370
    20
100
AcDbVertex
100
AcDb2dVertex
 10
153.4265980442918
 20
23.88815272494991
 30
0.0
  0
VERTEX
  5
13F
330
13D
100
AcDbEntity
  8
_U+30EC_U+30A4_U+30E4_U+30FC 1
 62
     7
420
 16777215
370
    20
100
AcDbVertex
100
AcDb2dVertex
 10
139.424481145123
 20
23.88815272494991
 30
0.0
  0
SEQEND
  5
140
330
13D
100
AcDbEntity
  8
_U+30EC_U+30A4_U+30E4_U+30FC 1
 62
     7
420
 16777215
370
    20
  0
POLYLINE
  5
141
330
45
100
AcDbEntity
  8
_U+30EC_U+30A4_U+30E4_U+30FC 1
 62
     7
420
 16777215
370
    20
100
AcDb2dPolyline
 66
     1
 10
0.0
 20
0.0
 30
0.0
  0
VERTEX
  5
142
330
141
100
AcDbEntity
  8
_U+30EC_U+30A4_U+30E4_U+30FC 1
 62
     7
420
 16777215
370
    20
100
AcDbVertex
100
AcDb2dVertex
 10
82.27730183133905
 20
37.88884313926929
 30
0.0
  0
VERTEX
  5
143
330
141
100
AcDbEntity
  8
_U+30EC_U+30A4_U+30E4_U+30FC 1
 62
     7
420
 16777215
370
    20
100
AcDbVertex
100
AcDb2dVertex
 10
96.27658729265585
 20
37.88884313926929
 30
0.0
  0
SEQEND
  5
144
330
141
100
AcDbEntity
  8
_U+30EC_U+30A4_U+30E4_U+30FC 1
 62
     7
420
 16777215
370
    20
  0
POLYLINE
  5
145
330
45
100
AcDbEntity
  8
_U+30EC_U+30A4_U+30E4_U+30FC 1
 62
     7
420
 16777215
370
    20
100
AcDb2dPolyline
 66
     1
 10
0.0
 20
0.0
 30
0.0
  0
VERTEX
  5
146
330
145
100
AcDbEntity
  8
_U+30EC_U+30A4_U+30E4_U+30FC 1
 62
     7
420
 16777215
370
    20
100
AcDbVertex
100
AcDb2dVertex
 10
153.4265980442918
 20
37.88884313926929
 30
0.0
  0
VERTEX
  5
147
330
145
100
AcDbEntity
  8
_U+30EC_U+30A4_U+30E4_U+30FC 1
 62
     7
420
 16777215
370
    20
100
AcDbVertex
100
AcDb2dVertex
 10
153.4265980442918
 20
23.88815272494991
 30
0.0
  0
SEQEND
  5
148
330
145
100
AcDbEntity
  8
_U+30EC_U+30A4_U+30E4_U+30FC 1
 62
     7
420
 16777215
370
    20
  0
POLYLINE
  5
149
330
45
100
AcDbEntity
  8
_U+30EC_U+30A4_U+30E4_U+30FC 1
 62
     7
420
 16777215
370
    20
100
AcDb2dPolyline
 66
     1
 10
0.0
 20
0.0
 30
0.0
  0
VERTEX
  5
14A
330
149
100
AcDbEntity
  8
_U+30EC_U+30A4_U+30E4_U+30FC 1
 62
     7
420
 16777215
370
    20
100
AcDbVertex
100
AcDb2dVertex
 10
120.377301821814
 20
23.88815272494991
 30
0.0
  0
VERTEX
  5
14B
330
149
100
AcDbEntity
  8
_U+30EC_U+30A4_U+30E4_U+30FC 1
 62
     7
420
 16777215
370
    20
100
AcDbVertex
100
AcDb2dVertex
 10
120.377301821814
 20
37.88884313926929
 30
0.0
  0
SEQEND
  5
14C
330
149
100
AcDbEntity
  8
_U+30EC_U+30A4_U+30E4_U+30FC 1
 62
     7
420
 16777215
370
    20
  0
POLYLINE
  5
14D
330
45
100
AcDbEntity
  8
_U+30EC_U+30A4_U+30E4_U+30FC 1
 62
     7
420
 16777215
370
    20
100
AcDb2dPolyline
 66
     1
 10
0.0
 20
0.0
 30
0.0
  0
VERTEX
  5
14E
330
14D
100
AcDbEntity
  8
_U+30EC_U+30A4_U+30E4_U+30FC 1
 62
     7
420
 16777215
370
    20
100
AcDbVertex
100
AcDb2dVertex
 10
153.7148233453265
 20
95.03602245305325
 30
0.0
  0
VERTEX
  5
14F
330
14D
100
AcDbEntity
  8
_U+30EC_U+30A4_U+30E4_U+30FC 1
 62
     7
420
 16777215
370
    20
100
AcDbVertex
100
AcDb2dVertex
 10
167.7140980407199
 20
95.03602245305325
 30
0.0
  0
SEQEND
  5
150
330
14D
100
AcDbEntity
  8
_U+30EC_U+30A4_U+30E4_U+30FC 1
 62
     7
420
 16777215
370
    20
  0
POLYLINE
  5
151
330
45
100
AcDbEntity
  8
_U+30EC_U+30A4_U+30E4_U+30FC 1
 62
     7
420
 16777215
370
    20
100
AcDb2dPolyline
 66
     1
 10
0.0
 20
0.0
 30
0.0
  0
VERTEX
  5
152
330
151
100
AcDbEntity
  8
_U+30EC_U+30A4_U+30E4_U+30FC 1
 62
     7
420
 16777215
370
    20
100
AcDbVertex
100
AcDb2dVertex
 10
134.664823350089
 20
95.03602245305325
 30
0.0
  0
VERTEX
  5
153
330
151
100
AcDbEntity
  8
_U+30EC_U+30A4_U+30E4_U+30FC 1
 62
     7
420
 16777215
370
    20
100
AcDbVertex
100
AcDb2dVertex
 10
148.6640765136356
 20
95.03602245305325
 30
0.0
  0
SEQEND
  5
154
330
151
100
AcDbEntity
  8
_U+30EC_U+30A4_U+30E4_U+30FC 1
 62
     7
420
 16777215
370
    20
  0
POLYLINE
  5
155
330
45
100
AcDbEntity
  8
_U+30EC_U+30A4_U+30E4_U+30FC 1
 62
     7
420
 16777215
370
    20
100
AcDb2dPolyline
 66
     1
 10
0.0
 20
0.0
 30
0.0
  0
VERTEX
  5
156
330
155
100
AcDbEntity
  8
_U+30EC_U+30A4_U+30E4_U+30FC 1
 62
     7
420
 16777215
370
    20
100
AcDbVertex
100
AcDb2dVertex
 10
167.7140980407199
 20
95.03602245305325
 30
0.0
  0
VERTEX
  5
157
330
155
100
AcDbEntity
  8
_U+30EC_U+30A4_U+30E4_U+30FC 1
 62
     7
420
 16777215
370
    20
100
AcDbVertex
100
AcDb2dVertex
 10
167.7140980407199
 20
81.0381580936241
 30
0.0
  0
SEQEND
  5
158
330
155
100
AcDbEntity
  8
_U+30EC_U+30A4_U+30E4_U+30FC 1
 62
     7
420
 16777215
370
    20
  0
POLYLINE
  5
159
330
45
100
AcDbEntity
  8
_U+30EC_U+30A4_U+30E4_U+30FC 1
 62
     7
420
 16777215
370
    20
100
AcDb2dPolyline
 66
     1
 10
0.0
 20
0.0
 30
0.0
  0
VERTEX
  5
15A
330
159
100
AcDbEntity
  8
_U+30EC_U+30A4_U+30E4_U+30FC 1
 62
     7
420
 16777215
370
    20
100
AcDbVertex
100
AcDb2dVertex
 10
115.6148018230047
 20
95.03602245305325
 30
0.0
  0
VERTEX
  5
15B
330
159
100
AcDbEntity
  8
_U+30EC_U+30A4_U+30E4_U+30FC 1
 62
     7
420
 16777215
370
    20
100
AcDbVertex
100
AcDb2dVertex
 10
129.6140765183981
 20
95.03602245305325
 30
0.0
  0
SEQEND
  5
15C
330
159
100
AcDbEntity
  8
_U+30EC_U+30A4_U+30E4_U+30FC 1
 62
     7
420
 16777215
370
    20
  0
POLYLINE
  5
15D
330
45
100
AcDbEntity
  8
_U+30EC_U+30A4_U+30E4_U+30FC 1
 62
     7
420
 16777215
370
    20
100
AcDb2dPolyline
 66
     1
 10
0.0
 20
0.0
 30
0.0
  0
VERTEX
  5
15E
330
15D
100
AcDbEntity
  8
_U+30EC_U+30A4_U+30E4_U+30FC 1
 62
     7
420
 16777215
370
    20
100
AcDbVertex
100
AcDb2dVertex
 10
148.6640765136356
 20
81.0381580936241
 30
0.0
  0
VERTEX
  5
15F
330
15D
100
AcDbEntity
  8
_U+30EC_U+30A4_U+30E4_U+30FC 1
 62
     7
420
 16777215
370
    20
100
AcDbVertex
100
AcDb2dVertex
 10
134.664823350089
 20
81.0381580936241
 30
0.0
  0
SEQEND
  5
160
330
15D
100
AcDbEntity
  8
_U+30EC_U+30A4_U+30E4_U+30FC 1
 62
     7
420
 16777215
370
    20
  0
POLYLINE
  5
161
330
45
100
AcDbEntity
  8
_U+30EC_U+30A4_U+30E4_U+30FC 1
 62
     7
420
 16777215
370
    20
100
AcDb2dPolyline
 66
     1
 10
0.0
 20
0.0
 30
0.0
  0
VERTEX
  5
162
330
161
100
AcDbEntity
  8
_U+30EC_U+30A4_U+30E4_U+30FC 1
 62
     7
420
 16777215
370
    20
100
AcDbVertex
100
AcDb2dVertex
 10
148.6640765136356
 20
95.03602245305325
 30
0.0
  0
VERTEX
  5
163
330
161
100
AcDbEntity
  8
_U+30EC_U+30A4_U+30E4_U+30FC 1
 62
     7
420
 16777215
370
    20
100
AcDbVertex
100
AcDb2dVertex
 10
148.6640765136356
 20
81.0381580936241
 30
0.0
  0
SEQEND
  5
164
330
161
100
AcDbEntity
  8
_U+30EC_U+30A4_U+30E4_U+30FC 1
 62
     7
420
 16777215
370
    20
  0
POLYLINE
  5
165
330
45
100
AcDbEntity
  8
_U+30EC_U+30A4_U+30E4_U+30FC 1
 62
     7
420
 16777215
370
    20
100
AcDb2dPolyline
 66
     1
 10
0.0
 20
0.0
 30
0.0
  0
VERTEX
  5
166
330
165
100
AcDbEntity
  8
_U+30EC_U+30A4_U+30E4_U+30FC 1
 62
     7
420
 16777215
370
    20
100
AcDbVertex
100
AcDb2dVertex
 10
115.6148018230047
 20
81.0381580936241
 30
0.0
  0
VERTEX
  5
167
330
165
100
AcDbEntity
  8
_U+30EC_U+30A4_U+30E4_U+30FC 1
 62
     7
420
 16777215
370
    20
100
AcDbVertex
100
AcDb2dVertex
 10
115.6148018230047
 20
95.03602245305325
 30
0.0
  0
SEQEND
  5
168
330
165
100
AcDbEntity
  8
_U+30EC_U+30A4_U+30E4_U+30FC 1
 62
     7
420
 16777215
370
    20
  0
POLYLINE
  5
169
330
45
100
AcDbEntity
  8
_U+30EC_U+30A4_U+30E4_U+30FC 1
 62
     7
420
 16777215
370
    20
100
AcDb2dPolyline
 66
     1
 10
0.0
 20
0.0
 30
0.0
  0
VERTEX
  5
16A
330
169
100
AcDbEntity
  8
_U+30EC_U+30A4_U+30E4_U+30FC 1
 62
     7
420
 16777215
370
    20
100
AcDbVertex
100
AcDb2dVertex
 10
129.6140765183981
 20
95.03602245305325
 30
0.0
  0
VERTEX
  5
16B
330
169
100
AcDbEntity
  8
_U+30EC_U+30A4_U+30E4_U+30FC 1
 62
     7
420
 16777215
370
    20
100
AcDbVertex
100
AcDb2dVertex
 10
129.6140765183981
 20
81.0381580936241
 30
0.0
  0
SEQEND
  5
16C
330
169
100
AcDbEntity
  8
_U+30EC_U+30A4_U+30E4_U+30FC 1
 62
     7
420
 16777215
370
    20
  0
POLYLINE
  5
16D
330
45
100
AcDbEntity
  8
_U+30EC_U+30A4_U+30E4_U+30FC 1
 62
     7
420
 16777215
370
    20
100
AcDb2dPolyline
 66
     1
 10
0.0
 20
0.0
 30
0.0
  0
VERTEX
  5
16E
330
16D
100
AcDbEntity
  8
_U+30EC_U+30A4_U+30E4_U+30FC 1
 62
     7
420
 16777215
370
    20
100
AcDbVertex
100
AcDb2dVertex
 10
153.7148233453265
 20
81.0381580936241
 30
0.0
  0
VERTEX
  5
16F
330
16D
100
AcDbEntity
  8
_U+30EC_U+30A4_U+30E4_U+30FC 1
 62
     7
420
 16777215
370
    20
100
AcDbVertex
100
AcDb2dVertex
 10
153.7148233453265
 20
95.03602245305325
 30
0.0
  0
SEQEND
  5
170
330
16D
100
AcDbEntity
  8
_U+30EC_U+30A4_U+30E4_U+30FC 1
 62
     7
420
 16777215
370
    20
  0
POLYLINE
  5
171
330
45
100
AcDbEntity
  8
_U+30EC_U+30A4_U+30E4_U+30FC 1
 62
     7
420
 16777215
370
    20
100
AcDb2dPolyline
 66
     1
 10
0.0
 20
0.0
 30
0.0
  0
VERTEX
  5
172
330
171
100
AcDbEntity
  8
_U+30EC_U+30A4_U+30E4_U+30FC 1
 62
     7
420
 16777215
370
    20
100
AcDbVertex
100
AcDb2dVertex
 10
167.7140980407199
 20
81.0381580936241
 30
0.0
  0
VERTEX
  5
173
330
171
100
AcDbEntity
  8
_U+30EC_U+30A4_U+30E4_U+30FC 1
 62
     7
420
 16777215
370
    20
100
AcDbVertex
100
AcDb2dVertex
 10
153.7148233453265
 20
81.0381580936241
 30
0.0
  0
SEQEND
  5
174
330
171
100
AcDbEntity
  8
_U+30EC_U+30A4_U+30E4_U+30FC 1
 62
     7
420
 16777215
370
    20
  0
POLYLINE
  5
175
330
45
100
AcDbEntity
  8
_U+30EC_U+30A4_U+30E4_U+30FC 1
 62
     7
420
 16777215
370
    20
100
AcDb2dPolyline
 66
     1
 10
0.0
 20
0.0
 30
0.0
  0
VERTEX
  5
176
330
175
100
AcDbEntity
  8
_U+30EC_U+30A4_U+30E4_U+30FC 1
 62
     7
420
 16777215
370
    20
100
AcDbVertex
100
AcDb2dVertex
 10
134.664823350089
 20
81.0381580936241
 30
0.0
  0
VERTEX
  5
177
330
175
100
AcDbEntity
  8
_U+30EC_U+30A4_U+30E4_U+30FC 1
 62
     7
420
 16777215
370
    20
100
AcDbVertex
100
AcDb2dVertex
 10
134.664823350089
 20
95.03602245305325
 30
0.0
  0
SEQEND
  5
178
330
175
100
AcDbEntity
  8
_U+30EC_U+30A4_U+30E4_U+30FC 1
 62
     7
420
 16777215
370
    20
  0
POLYLINE
  5
179
330
45
100
AcDbEntity
  8
_U+30EC_U+30A4_U+30E4_U+30FC 1
 62
     7
420
 16777215
370
    20
100
AcDb2dPolyline
 66
     1
 10
0.0
 20
0.0
 30
0.0
  0
VERTEX
  5
17A
330
179
100
AcDbEntity
  8
_U+30EC_U+30A4_U+30E4_U+30FC 1
 62
     7
420
 16777215
370
    20
100
AcDbVertex
100
AcDb2dVertex
 10
129.6140765183981
 20
81.0381580936241
 30
0.0
  0
VERTEX
  5
17B
330
179
100
AcDbEntity
  8
_U+30EC_U+30A4_U+30E4_U+30FC 1
 62
     7
420
 16777215
370
    20
100
AcDbVertex
100
AcDb2dVertex
 10
115.6148018230047
 20
81.0381580936241
 30
0.0
  0
SEQEND
  5
17C
330
179
100
AcDbEntity
  8
_U+30EC_U+30A4_U+30E4_U+30FC 1
 62
     7
420
 16777215
370
    20
  0
POLYLINE
  5
17D
330
45
100
AcDbEntity
  8
_U+30EC_U+30A4_U+30E4_U+30FC 1
 62
     7
420
 16777215
370
    20
100
AcDb2dPolyline
 66
     1
 10
0.0
 20
0.0
 30
0.0
  0
VERTEX
  5
17E
330
17D
100
AcDbEntity
  8
_U+30EC_U+30A4_U+30E4_U+30FC 1
 62
     7
420
 16777215
370
    20
100
AcDbVertex
100
AcDb2dVertex
 10
44.17731260678743
 20
23.88815272494991
 30
0.0
  0
VERTEX
  5
17F
330
17D
100
AcDbEntity
  8
_U+30EC_U+30A4_U+30E4_U+30FC 1
 62
     7
420
 16777215
370
    20
100
AcDbVertex
100
AcDb2dVertex
 10
44.17731260678743
 20
37.88884313926929
 30
0.0
  0
SEQEND
  5
180
330
17D
100
AcDbEntity
  8
_U+30EC_U+30A4_U+30E4_U+30FC 1
 62
     7
420
 16777215
370
    20
  0
POLYLINE
  5
181
330
45
100
AcDbEntity
  8
_U+30EC_U+30A4_U+30E4_U+30FC 1
 62
     7
420
 16777215
370
    20
100
AcDb2dPolyline
 66
     1
 10
0.0
 20
0.0
 30
0.0
  0
VERTEX
  5
182
330
181
100
AcDbEntity
  8
_U+30EC_U+30A4_U+30E4_U+30FC 1
 62
     7
420
 16777215
370
    20
100
AcDbVertex
100
AcDb2dVertex
 10
58.17658730218084
 20
23.88815272494991
 30
0.0
  0
VERTEX
  5
183
330
181
100
AcDbEntity
  8
_U+30EC_U+30A4_U+30E4_U+30FC 1
 62
     7
420
 16777215
370
    20
100
AcDbVertex
100
AcDb2dVertex
 10
44.17731260678743
 20
23.88815272494991
 30
0.0
  0
SEQEND
  5
184
330
181
100
AcDbEntity
  8
_U+30EC_U+30A4_U+30E4_U+30FC 1
 62
     7
420
 16777215
370
    20
  0
POLYLINE
  5
185
330
45
100
AcDbEntity
  8
_U+30EC_U+30A4_U+30E4_U+30FC 1
 62
     7
420
 16777215
370
    20
100
AcDb2dPolyline
 66
     1
 10
0.0
 20
0.0
 30
0.0
  0
VERTEX
  5
186
330
185
100
AcDbEntity
  8
_U+30EC_U+30A4_U+30E4_U+30FC 1
 62
     7
420
 16777215
370
    20
100
AcDbVertex
100
AcDb2dVertex
 10
58.17658730218084
 20
37.88884313926929
 30
0.0
  0
VERTEX
  5
187
330
185
100
AcDbEntity
  8
_U+30EC_U+30A4_U+30E4_U+30FC 1
 62
     7
420
 16777215
370
    20
100
AcDbVertex
100
AcDb2dVertex
 10
58.17658730218084
 20
23.88815272494991
 30
0.0
  0
SEQEND
  5
188
330
185
100
AcDbEntity
  8
_U+30EC_U+30A4_U+30E4_U+30FC 1
 62
     7
420
 16777215
370
    20
  0
POLYLINE
  5
189
330
45
100
AcDbEntity
  8
_U+30EC_U+30A4_U+30E4_U+30FC 1
 62
     7
420
 16777215
370
    20
100
AcDb2dPolyline
 66
     1
 10
0.0
 20
0.0
 30
0.0
  0
VERTEX
  5
18A
330
189
100
AcDbEntity
  8
_U+30EC_U+30A4_U+30E4_U+30FC 1
 62
     7
420
 16777215
370
    20
100
AcDbVertex
100
AcDb2dVertex
 10
44.17731260678743
 20
37.88884313926929
 30
0.0
  0
VERTEX
  5
18B
330
189
100
AcDbEntity
  8
_U+30EC_U+30A4_U+30E4_U+30FC 1
 62
     7
420
 16777215
370
    20
100
AcDbVertex
100
AcDb2dVertex
 10
58.17658730218084
 20
37.88884313926929
 30
0.0
  0
SEQEND
  5
18C
330
189
100
AcDbEntity
  8
_U+30EC_U+30A4_U+30E4_U+30FC 1
 62
     7
420
 16777215
370
    20
  0
POLYLINE
  5
18D
330
45
100
AcDbEntity
  8
_U+30EC_U+30A4_U+30E4_U+30FC 1
 62
     7
420
 16777215
370
    20
100
AcDb2dPolyline
 66
     1
 10
0.0
 20
0.0
 30
0.0
  0
VERTEX
  5
18E
330
18D
100
AcDbEntity
  8
_U+30EC_U+30A4_U+30E4_U+30FC 1
 62
     7
420
 16777215
370
    20
100
AcDbVertex
100
AcDb2dVertex
 10
96.56480182776717
 20
81.0381580936241
 30
0.0
  0
VERTEX
  5
18F
330
18D
100
AcDbEntity
  8
_U+30EC_U+30A4_U+30E4_U+30FC 1
 62
     7
420
 16777215
370
    20
100
AcDbVertex
100
AcDb2dVertex
 10
96.56480182776717
 20
95.03602245305325
 30
0.0
  0
SEQEND
  5
190
330
18D
100
AcDbEntity
  8
_U+30EC_U+30A4_U+30E4_U+30FC 1
 62
     7
420
 16777215
370
    20
  0
POLYLINE
  5
191
330
45
100
AcDbEntity
  8
_U+30EC_U+30A4_U+30E4_U+30FC 1
 62
     7
420
 16777215
370
    20
100
AcDb2dPolyline
 66
     1
 10
0.0
 20
0.0
 30
0.0
  0
VERTEX
  5
192
330
191
100
AcDbEntity
  8
_U+30EC_U+30A4_U+30E4_U+30FC 1
 62
     7
420
 16777215
370
    20
100
AcDbVertex
100
AcDb2dVertex
 10
129.9023125853562
 20
75.98602245781575
 30
0.0
  0
VERTEX
  5
193
330
191
100
AcDbEntity
  8
_U+30EC_U+30A4_U+30E4_U+30FC 1
 62
     7
420
 16777215
370
    20
100
AcDbVertex
100
AcDb2dVertex
 10
143.9015765148262
 20
75.98602245781575
 30
0.0
  0
SEQEND
  5
194
330
191
100
AcDbEntity
  8
_U+30EC_U+30A4_U+30E4_U+30FC 1
 62
     7
420
 16777215
370
    20
  0
POLYLINE
  5
195
330
45
100
AcDbEntity
  8
_U+30EC_U+30A4_U+30E4_U+30FC 1
 62
     7
420
 16777215
370
    20
100
AcDb2dPolyline
 66
     1
 10
0.0
 20
0.0
 30
0.0
  0
VERTEX
  5
196
330
195
100
AcDbEntity
  8
_U+30EC_U+30A4_U+30E4_U+30FC 1
 62
     7
420
 16777215
370
    20
100
AcDbVertex
100
AcDb2dVertex
 10
91.51408729384647
 20
95.03602245305325
 30
0.0
  0
VERTEX
  5
197
330
195
100
AcDbEntity
  8
_U+30EC_U+30A4_U+30E4_U+30FC 1
 62
     7
420
 16777215
370
    20
100
AcDbVertex
100
AcDb2dVertex
 10
91.51408729384647
 20
81.0381580936241
 30
0.0
  0
SEQEND
  5
198
330
195
100
AcDbEntity
  8
_U+30EC_U+30A4_U+30E4_U+30FC 1
 62
     7
420
 16777215
370
    20
  0
POLYLINE
  5
199
330
45
100
AcDbEntity
  8
_U+30EC_U+30A4_U+30E4_U+30FC 1
 62
     7
420
 16777215
370
    20
100
AcDb2dPolyline
 66
     1
 10
0.0
 20
0.0
 30
0.0
  0
VERTEX
  5
19A
330
199
100
AcDbEntity
  8
_U+30EC_U+30A4_U+30E4_U+30FC 1
 62
     7
420
 16777215
370
    20
100
AcDbVertex
100
AcDb2dVertex
 10
110.5640980550074
 20
81.0381580936241
 30
0.0
  0
VERTEX
  5
19B
330
199
100
AcDbEntity
  8
_U+30EC_U+30A4_U+30E4_U+30FC 1
 62
     7
420
 16777215
370
    20
100
AcDbVertex
100
AcDb2dVertex
 10
96.56480182776717
 20
81.0381580936241
 30
0.0
  0
SEQEND
  5
19C
330
199
100
AcDbEntity
  8
_U+30EC_U+30A4_U+30E4_U+30FC 1
 62
     7
420
 16777215
370
    20
  0
POLYLINE
  5
19D
330
45
100
AcDbEntity
  8
_U+30EC_U+30A4_U+30E4_U+30FC 1
 62
     7
420
 16777215
370
    20
100
AcDb2dPolyline
 66
     1
 10
0.0
 20
0.0
 30
0.0
  0
VERTEX
  5
19E
330
19D
100
AcDbEntity
  8
_U+30EC_U+30A4_U+30E4_U+30FC 1
 62
     7
420
 16777215
370
    20
100
AcDbVertex
100
AcDb2dVertex
 10
110.5640980550074
 20
95.03602245305325
 30
0.0
  0
VERTEX
  5
19F
330
19D
100
AcDbEntity
  8
_U+30EC_U+30A4_U+30E4_U+30FC 1
 62
     7
420
 16777215
370
    20
100
AcDbVertex
100
AcDb2dVertex
 10
110.5640980550074
 20
81.0381580936241
 30
0.0
  0
SEQEND
  5
1A0
330
19D
100
AcDbEntity
  8
_U+30EC_U+30A4_U+30E4_U+30FC 1
 62
     7
420
 16777215
370
    20
  0
POLYLINE
  5
1A1
330
45
100
AcDbEntity
  8
_U+30EC_U+30A4_U+30E4_U+30FC 1
 62
     7
420
 16777215
370
    20
100
AcDb2dPolyline
 66
     1
 10
0.0
 20
0.0
 30
0.0
  0
VERTEX
  5
1A2
330
1A1
100
AcDbEntity
  8
_U+30EC_U+30A4_U+30E4_U+30FC 1
 62
     7
420
 16777215
370
    20
100
AcDbVertex
100
AcDb2dVertex
 10
96.56480182776717
 20
95.03602245305325
 30
0.0
  0
VERTEX
  5
1A3
330
1A1
100
AcDbEntity
  8
_U+30EC_U+30A4_U+30E4_U+30FC 1
 62
     7
420
 16777215
370
    20
100
AcDbVertex
100
AcDb2dVertex
 10
110.5640980550074
 20
95.03602245305325
 30
0.0
  0
SEQEND
  5
1A4
330
1A1
100
AcDbEntity
  8
_U+30EC_U+30A4_U+30E4_U+30FC 1
 62
     7
420
 16777215
370
    20
  0
POLYLINE
  5
1A5
330
45
100
AcDbEntity
  8
_U+30EC_U+30A4_U+30E4_U+30FC 1
 62
     7
420
 16777215
370
    20
100
AcDb2dPolyline
 66
     1
 10
0.0
 20
0.0
 30
0.0
  0
VERTEX
  5
1A6
330
1A5
100
AcDbEntity
  8
_U+30EC_U+30A4_U+30E4_U+30FC 1
 62
     7
420
 16777215
370
    20
100
AcDbVertex
100
AcDb2dVertex
 10
77.51480183252967
 20
81.0381580936241
 30
0.0
  0
VERTEX
  5
1A7
330
1A5
100
AcDbEntity
  8
_U+30EC_U+30A4_U+30E4_U+30FC 1
 62
     7
420
 16777215
370
    20
100
AcDbVertex
100
AcDb2dVertex
 10
77.51480183252967
 20
95.03602245305325
 30
0.0
  0
SEQEND
  5
1A8
330
1A5
100
AcDbEntity
  8
_U+30EC_U+30A4_U+30E4_U+30FC 1
 62
     7
420
 16777215
370
    20
  0
POLYLINE
  5
1A9
330
45
100
AcDbEntity
  8
_U+30EC_U+30A4_U+30E4_U+30FC 1
 62
     7
420
 16777215
370
    20
100
AcDb2dPolyline
 66
     1
 10
0.0
 20
0.0
 30
0.0
  0
VERTEX
  5
1AA
330
1A9
100
AcDbEntity
  8
_U+30EC_U+30A4_U+30E4_U+30FC 1
 62
     7
420
 16777215
370
    20
100
AcDbVertex
100
AcDb2dVertex
 10
77.51480183252967
 20
95.03602245305325
 30
0.0
  0
VERTEX
  5
1AB
330
1A9
100
AcDbEntity
  8
_U+30EC_U+30A4_U+30E4_U+30FC 1
 62
     7
420
 16777215
370
    20
100
AcDbVertex
100
AcDb2dVertex
 10
91.51408729384647
 20
95.03602245305325
 30
0.0
  0
SEQEND
  5
1AC
330
1A9
100
AcDbEntity
  8
_U+30EC_U+30A4_U+30E4_U+30FC 1
 62
     7
420
 16777215
370
    20
  0
POLYLINE
  5
1AD
330
45
100
AcDbEntity
  8
_U+30EC_U+30A4_U+30E4_U+30FC 1
 62
     7
420
 16777215
370
    20
100
AcDb2dPolyline
 66
     1
 10
0.0
 20
0.0
 30
0.0
  0
VERTEX
  5
1AE
330
1AD
100
AcDbEntity
  8
_U+30EC_U+30A4_U+30E4_U+30FC 1
 62
     7
420
 16777215
370
    20
100
AcDbVertex
100
AcDb2dVertex
 10
72.46408729860897
 20
81.0381580936241
 30
0.0
  0
VERTEX
  5
1AF
330
1AD
100
AcDbEntity
  8
_U+30EC_U+30A4_U+30E4_U+30FC 1
 62
     7
420
 16777215
370
    20
100
AcDbVertex
100
AcDb2dVertex
 10
58.46481260321556
 20
81.0381580936241
 30
0.0
  0
SEQEND
  5
1B0
330
1AD
100
AcDbEntity
  8
_U+30EC_U+30A4_U+30E4_U+30FC 1
 62
     7
420
 16777215
370
    20
  0
POLYLINE
  5
1B1
330
45
100
AcDbEntity
  8
_U+30EC_U+30A4_U+30E4_U+30FC 1
 62
     7
420
 16777215
370
    20
100
AcDb2dPolyline
 66
     1
 10
0.0
 20
0.0
 30
0.0
  0
VERTEX
  5
1B2
330
1B1
100
AcDbEntity
  8
_U+30EC_U+30A4_U+30E4_U+30FC 1
 62
     7
420
 16777215
370
    20
100
AcDbVertex
100
AcDb2dVertex
 10
148.9523233465171
 20
61.98815809838661
 30
0.0
  0
VERTEX
  5
1B3
330
1B1
100
AcDbEntity
  8
_U+30EC_U+30A4_U+30E4_U+30FC 1
 62
     7
420
 16777215
370
    20
100
AcDbVertex
100
AcDb2dVertex
 10
148.9523233465171
 20
75.98602245781575
 30
0.0
  0
SEQEND
  5
1B4
330
1B1
100
AcDbEntity
  8
_U+30EC_U+30A4_U+30E4_U+30FC 1
 62
     7
420
 16777215
370
    20
  0
POLYLINE
  5
1B5
330
45
100
AcDbEntity
  8
_U+30EC_U+30A4_U+30E4_U+30FC 1
 62
     7
420
 16777215
370
    20
100
AcDb2dPolyline
 66
     1
 10
0.0
 20
0.0
 30
0.0
  0
VERTEX
  5
1B6
330
1B5
100
AcDbEntity
  8
_U+30EC_U+30A4_U+30E4_U+30FC 1
 62
     7
420
 16777215
370
    20
100
AcDbVertex
100
AcDb2dVertex
 10
148.9523233465171
 20
75.98602245781575
 30
0.0
  0
VERTEX
  5
1B7
330
1B5
100
AcDbEntity
  8
_U+30EC_U+30A4_U+30E4_U+30FC 1
 62
     7
420
 16777215
370
    20
100
AcDbVertex
100
AcDb2dVertex
 10
162.9515980419105
 20
75.98602245781575
 30
0.0
  0
SEQEND
  5
1B8
330
1B5
100
AcDbEntity
  8
_U+30EC_U+30A4_U+30E4_U+30FC 1
 62
     7
420
 16777215
370
    20
  0
POLYLINE
  5
1B9
330
45
100
AcDbEntity
  8
_U+30EC_U+30A4_U+30E4_U+30FC 1
 62
     7
420
 16777215
370
    20
100
AcDb2dPolyline
 66
     1
 10
0.0
 20
0.0
 30
0.0
  0
VERTEX
  5
1BA
330
1B9
100
AcDbEntity
  8
_U+30EC_U+30A4_U+30E4_U+30FC 1
 62
     7
420
 16777215
370
    20
100
AcDbVertex
100
AcDb2dVertex
 10
129.9023125853562
 20
61.98815809838661
 30
0.0
  0
VERTEX
  5
1BB
330
1B9
100
AcDbEntity
  8
_U+30EC_U+30A4_U+30E4_U+30FC 1
 62
     7
420
 16777215
370
    20
100
AcDbVertex
100
AcDb2dVertex
 10
129.9023125853562
 20
75.98602245781575
 30
0.0
  0
SEQEND
  5
1BC
330
1B9
100
AcDbEntity
  8
_U+30EC_U+30A4_U+30E4_U+30FC 1
 62
     7
420
 16777215
370
    20
  0
POLYLINE
  5
1BD
330
45
100
AcDbEntity
  8
_U+30EC_U+30A4_U+30E4_U+30FC 1
 62
     7
420
 16777215
370
    20
100
AcDb2dPolyline
 66
     1
 10
0.0
 20
0.0
 30
0.0
  0
VERTEX
  5
1BE
330
1BD
100
AcDbEntity
  8
_U+30EC_U+30A4_U+30E4_U+30FC 1
 62
     7
420
 16777215
370
    20
100
AcDbVertex
100
AcDb2dVertex
 10
143.9015765148262
 20
61.98815809838661
 30
0.0
  0
VERTEX
  5
1BF
330
1BD
100
AcDbEntity
  8
_U+30EC_U+30A4_U+30E4_U+30FC 1
 62
     7
420
 16777215
370
    20
100
AcDbVertex
100
AcDb2dVertex
 10
129.9023125853562
 20
61.98815809838661
 30
0.0
  0
SEQEND
  5
1C0
330
1BD
100
AcDbEntity
  8
_U+30EC_U+30A4_U+30E4_U+30FC 1
 62
     7
420
 16777215
370
    20
  0
POLYLINE
  5
1C1
330
45
100
AcDbEntity
  8
_U+30EC_U+30A4_U+30E4_U+30FC 1
 62
     7
420
 16777215
370
    20
100
AcDb2dPolyline
 66
     1
 10
0.0
 20
0.0
 30
0.0
  0
VERTEX
  5
1C2
330
1C1
100
AcDbEntity
  8
_U+30EC_U+30A4_U+30E4_U+30FC 1
 62
     7
420
 16777215
370
    20
100
AcDbVertex
100
AcDb2dVertex
 10
110.8523018241953
 20
61.98815809838661
 30
0.0
  0
VERTEX
  5
1C3
330
1C1
100
AcDbEntity
  8
_U+30EC_U+30A4_U+30E4_U+30FC 1
 62
     7
420
 16777215
370
    20
100
AcDbVertex
100
AcDb2dVertex
 10
110.8523018241953
 20
75.98602245781575
 30
0.0
  0
SEQEND
  5
1C4
330
1C1
100
AcDbEntity
  8
_U+30EC_U+30A4_U+30E4_U+30FC 1
 62
     7
420
 16777215
370
    20
  0
POLYLINE
  5
1C5
330
45
100
AcDbEntity
  8
_U+30EC_U+30A4_U+30E4_U+30FC 1
 62
     7
420
 16777215
370
    20
100
AcDb2dPolyline
 66
     1
 10
0.0
 20
0.0
 30
0.0
  0
VERTEX
  5
1C6
330
1C5
100
AcDbEntity
  8
_U+30EC_U+30A4_U+30E4_U+30FC 1
 62
     7
420
 16777215
370
    20
100
AcDbVertex
100
AcDb2dVertex
 10
124.8515765195887
 20
75.98602245781575
 30
0.0
  0
VERTEX
  5
1C7
330
1C5
100
AcDbEntity
  8
_U+30EC_U+30A4_U+30E4_U+30FC 1
 62
     7
420
 16777215
370
    20
100
AcDbVertex
100
AcDb2dVertex
 10
124.8515765195887
 20
61.98815809838661
 30
0.0
  0
SEQEND
  5
1C8
330
1C5
100
AcDbEntity
  8
_U+30EC_U+30A4_U+30E4_U+30FC 1
 62
     7
420
 16777215
370
    20
  0
POLYLINE
  5
1C9
330
45
100
AcDbEntity
  8
_U+30EC_U+30A4_U+30E4_U+30FC 1
 62
     7
420
 16777215
370
    20
100
AcDb2dPolyline
 66
     1
 10
0.0
 20
0.0
 30
0.0
  0
VERTEX
  5
1CA
330
1C9
100
AcDbEntity
  8
_U+30EC_U+30A4_U+30E4_U+30FC 1
 62
     7
420
 16777215
370
    20
100
AcDbVertex
100
AcDb2dVertex
 10
124.8515765195887
 20
61.98815809838661
 30
0.0
  0
VERTEX
  5
1CB
330
1C9
100
AcDbEntity
  8
_U+30EC_U+30A4_U+30E4_U+30FC 1
 62
     7
420
 16777215
370
    20
100
AcDbVertex
100
AcDb2dVertex
 10
110.8523018241953
 20
61.98815809838661
 30
0.0
  0
SEQEND
  5
1CC
330
1C9
100
AcDbEntity
  8
_U+30EC_U+30A4_U+30E4_U+30FC 1
 62
     7
420
 16777215
370
    20
  0
POLYLINE
  5
1CD
330
45
100
AcDbEntity
  8
_U+30EC_U+30A4_U+30E4_U+30FC 1
 62
     7
420
 16777215
370
    20
100
AcDb2dPolyline
 66
     1
 10
0.0
 20
0.0
 30
0.0
  0
VERTEX
  5
1CE
330
1CD
100
AcDbEntity
  8
_U+30EC_U+30A4_U+30E4_U+30FC 1
 62
     7
420
 16777215
370
    20
100
AcDbVertex
100
AcDb2dVertex
 10
91.51408729384647
 20
81.0381580936241
 30
0.0
  0
VERTEX
  5
1CF
330
1CD
100
AcDbEntity
  8
_U+30EC_U+30A4_U+30E4_U+30FC 1
 62
     7
420
 16777215
370
    20
100
AcDbVertex
100
AcDb2dVertex
 10
77.51480183252967
 20
81.0381580936241
 30
0.0
  0
SEQEND
  5
1D0
330
1CD
100
AcDbEntity
  8
_U+30EC_U+30A4_U+30E4_U+30FC 1
 62
     7
420
 16777215
370
    20
  0
POLYLINE
  5
1D1
330
45
100
AcDbEntity
  8
_U+30EC_U+30A4_U+30E4_U+30FC 1
 62
     7
420
 16777215
370
    20
100
AcDb2dPolyline
 66
     1
 10
0.0
 20
0.0
 30
0.0
  0
VERTEX
  5
1D2
330
1D1
100
AcDbEntity
  8
_U+30EC_U+30A4_U+30E4_U+30FC 1
 62
     7
420
 16777215
370
    20
100
AcDbVertex
100
AcDb2dVertex
 10
162.9515980419105
 20
61.98815809838661
 30
0.0
  0
VERTEX
  5
1D3
330
1D1
100
AcDbEntity
  8
_U+30EC_U+30A4_U+30E4_U+30FC 1
 62
     7
420
 16777215
370
    20
100
AcDbVertex
100
AcDb2dVertex
 10
148.9523233465171
 20
61.98815809838661
 30
0.0
  0
SEQEND
  5
1D4
330
1D1
100
AcDbEntity
  8
_U+30EC_U+30A4_U+30E4_U+30FC 1
 62
     7
420
 16777215
370
    20
  0
POLYLINE
  5
1D5
330
45
100
AcDbEntity
  8
_U+30EC_U+30A4_U+30E4_U+30FC 1
 62
     7
420
 16777215
370
    20
100
AcDb2dPolyline
 66
     1
 10
0.0
 20
0.0
 30
0.0
  0
VERTEX
  5
1D6
330
1D5
100
AcDbEntity
  8
_U+30EC_U+30A4_U+30E4_U+30FC 1
 62
     7
420
 16777215
370
    20
100
AcDbVertex
100
AcDb2dVertex
 10
72.46408729860897
 20
95.03602245305325
 30
0.0
  0
VERTEX
  5
1D7
330
1D5
100
AcDbEntity
  8
_U+30EC_U+30A4_U+30E4_U+30FC 1
 62
     7
420
 16777215
370
    20
100
AcDbVertex
100
AcDb2dVertex
 10
72.46408729860897
 20
81.0381580936241
 30
0.0
  0
SEQEND
  5
1D8
330
1D5
100
AcDbEntity
  8
_U+30EC_U+30A4_U+30E4_U+30FC 1
 62
     7
420
 16777215
370
    20
  0
POLYLINE
  5
1D9
330
45
100
AcDbEntity
  8
_U+30EC_U+30A4_U+30E4_U+30FC 1
 62
     7
420
 16777215
370
    20
100
AcDb2dPolyline
 66
     1
 10
0.0
 20
0.0
 30
0.0
  0
VERTEX
  5
1DA
330
1D9
100
AcDbEntity
  8
_U+30EC_U+30A4_U+30E4_U+30FC 1
 62
     7
420
 16777215
370
    20
100
AcDbVertex
100
AcDb2dVertex
 10
58.46481260321556
 20
81.0381580936241
 30
0.0
  0
VERTEX
  5
1DB
330
1D9
100
AcDbEntity
  8
_U+30EC_U+30A4_U+30E4_U+30FC 1
 62
     7
420
 16777215
370
    20
100
AcDbVertex
100
AcDb2dVertex
 10
58.46481260321556
 20
95.03602245305325
 30
0.0
  0
SEQEND
  5
1DC
330
1D9
100
AcDbEntity
  8
_U+30EC_U+30A4_U+30E4_U+30FC 1
 62
     7
420
 16777215
370
    20
  0
POLYLINE
  5
1DD
330
45
100
AcDbEntity
  8
_U+30EC_U+30A4_U+30E4_U+30FC 1
 62
     7
420
 16777215
370
    20
100
AcDb2dPolyline
 66
     1
 10
0.0
 20
0.0
 30
0.0
  0
VERTEX
  5
1DE
330
1DD
100
AcDbEntity
  8
_U+30EC_U+30A4_U+30E4_U+30FC 1
 62
     7
420
 16777215
370
    20
100
AcDbVertex
100
AcDb2dVertex
 10
58.46481260321556
 20
95.03602245305325
 30
0.0
  0
VERTEX
  5
1DF
330
1DD
100
AcDbEntity
  8
_U+30EC_U+30A4_U+30E4_U+30FC 1
 62
     7
420
 16777215
370
    20
100
AcDbVertex
100
AcDb2dVertex
 10
72.46408729860897
 20
95.03602245305325
 30
0.0
  0
SEQEND
  5
1E0
330
1DD
100
AcDbEntity
  8
_U+30EC_U+30A4_U+30E4_U+30FC 1
 62
     7
420
 16777215
370
    20
  0
POLYLINE
  5
1E1
330
45
100
AcDbEntity
  8
_U+30EC_U+30A4_U+30E4_U+30FC 1
 62
     7
420
 16777215
370
    20
100
AcDb2dPolyline
 66
     1
 10
0.0
 20
0.0
 30
0.0
  0
VERTEX
  5
1E2
330
1E1
100
AcDbEntity
  8
_U+30EC_U+30A4_U+30E4_U+30FC 1
 62
     7
420
 16777215
370
    20
100
AcDbVertex
100
AcDb2dVertex
 10
162.9515980419105
 20
75.98602245781575
 30
0.0
  0
VERTEX
  5
1E3
330
1E1
100
AcDbEntity
  8
_U+30EC_U+30A4_U+30E4_U+30FC 1
 62
     7
420
 16777215
370
    20
100
AcDbVertex
100
AcDb2dVertex
 10
162.9515980419105
 20
61.98815809838661
 30
0.0
  0
SEQEND
  5
1E4
330
1E1
100
AcDbEntity
  8
_U+30EC_U+30A4_U+30E4_U+30FC 1
 62
     7
420
 16777215
370
    20
  0
POLYLINE
  5
1E5
330
45
100
AcDbEntity
  8
_U+30EC_U+30A4_U+30E4_U+30FC 1
 62
     7
420
 16777215
370
    20
100
AcDb2dPolyline
 66
     1
 10
0.0
 20
0.0
 30
0.0
  0
VERTEX
  5
1E6
330
1E5
100
AcDbEntity
  8
_U+30EC_U+30A4_U+30E4_U+30FC 1
 62
     7
420
 16777215
370
    20
100
AcDbVertex
100
AcDb2dVertex
 10
143.9015765148262
 20
75.98602245781575
 30
0.0
  0
VERTEX
  5
1E7
330
1E5
100
AcDbEntity
  8
_U+30EC_U+30A4_U+30E4_U+30FC 1
 62
     7
420
 16777215
370
    20
100
AcDbVertex
100
AcDb2dVertex
 10
143.9015765148262
 20
61.98815809838661
 30
0.0
  0
SEQEND
  5
1E8
330
1E5
100
AcDbEntity
  8
_U+30EC_U+30A4_U+30E4_U+30FC 1
 62
     7
420
 16777215
370
    20
  0
POLYLINE
  5
1E9
330
45
100
AcDbEntity
  8
_U+30EC_U+30A4_U+30E4_U+30FC 1
 62
     7
420
 16777215
370
    20
100
AcDb2dPolyline
 66
     1
 10
0.0
 20
0.0
 30
0.0
  0
VERTEX
  5
1EA
330
1E9
100
AcDbEntity
  8
_U+30EC_U+30A4_U+30E4_U+30FC 1
 62
     7
420
 16777215
370
    20
100
AcDbVertex
100
AcDb2dVertex
 10
52.32964660607856
 20
100.1541209014808
 30
0.0
  0
VERTEX
  5
1EB
330
1E9
100
AcDbEntity
  8
_U+30EC_U+30A4_U+30E4_U+30FC 1
 62
     7
420
 16777215
370
    20
100
AcDbVertex
100
AcDb2dVertex
 10
52.35998497819554
 20
82.84050286042613
 30
0.0
  0
SEQEND
  5
1EC
330
1E9
100
AcDbEntity
  8
_U+30EC_U+30A4_U+30E4_U+30FC 1
 62
     7
420
 16777215
370
    20
  0
POLYLINE
  5
1ED
330
45
100
AcDbEntity
  8
_U+30EC_U+30A4_U+30E4_U+30FC 1
 62
     7
420
 16777215
370
    20
100
AcDb2dPolyline
 66
     1
 10
0.0
 20
0.0
 30
0.0
  0
VERTEX
  5
1EE
330
1ED
100
AcDbEntity
  8
_U+30EC_U+30A4_U+30E4_U+30FC 1
 62
     7
420
 16777215
370
    20
100
AcDbVertex
100
AcDb2dVertex
 10
38.68561508483136
 20
43.62994404251067
 30
0.0
  0
VERTEX
  5
1EF
330
1ED
100
AcDbEntity
  8
_U+30EC_U+30A4_U+30E4_U+30FC 1
 62
     7
420
 16777215
370
    20
100
AcDbVertex
100
AcDb2dVertex
 10
41.38259731953581
 20
43.62149279264841
 30
0.0
  0
SEQEND
  5
1F0
330
1ED
100
AcDbEntity
  8
_U+30EC_U+30A4_U+30E4_U+30FC 1
 62
     7
420
 16777215
370
    20
  0
POLYLINE
  5
1F1
330
45
100
AcDbEntity
  8
_U+30EC_U+30A4_U+30E4_U+30FC 1
 62
     7
420
 16777215
370
    20
100
AcDb2dPolyline
 66
     1
 10
0.0
 20
0.0
 30
0.0
  0
VERTEX
  5
1F2
330
1F1
100
AcDbEntity
  8
_U+30EC_U+30A4_U+30E4_U+30FC 1
 62
     7
420
 16777215
370
    20
100
AcDbVertex
100
AcDb2dVertex
 10
43.61639723217181
 20
62.67290312385018
 30
0.0
  0
VERTEX
  5
1F3
330
1F1
100
AcDbEntity
  8
_U+30EC_U+30A4_U+30E4_U+30FC 1
 62
     7
420
 16777215
370
    20
100
AcDbVertex
100
AcDb2dVertex
 10
46.30913769306003
 20
62.67290312385018
 30
0.0
  0
SEQEND
  5
1F4
330
1F1
100
AcDbEntity
  8
_U+30EC_U+30A4_U+30E4_U+30FC 1
 62
     7
420
 16777215
370
    20
  0
POLYLINE
  5
1F5
330
45
100
AcDbEntity
  8
_U+30EC_U+30A4_U+30E4_U+30FC 1
 62
     7
420
 16777215
370
    20
100
AcDb2dPolyline
 66
     1
 10
0.0
 20
0.0
 30
0.0
  0
VERTEX
  5
1F6
330
1F5
100
AcDbEntity
  8
_U+30EC_U+30A4_U+30E4_U+30FC 1
 62
     7
420
 16777215
370
    20
100
AcDbVertex
100
AcDb2dVertex
 10
42.50020782679764
 20
61.55670295255263
 30
0.0
  0
VERTEX
  5
1F7
330
1F5
100
AcDbEntity
  8
_U+30EC_U+30A4_U+30E4_U+30FC 1
 62
     7
420
 16777215
370
    20
100
AcDbVertex
100
AcDb2dVertex
 10
42.4987867249103
 20
44.73768219802258
 30
0.0
  0
SEQEND
  5
1F8
330
1F5
100
AcDbEntity
  8
_U+30EC_U+30A4_U+30E4_U+30FC 1
 62
     7
420
 16777215
370
    20
  0
POLYLINE
  5
1F9
330
45
100
AcDbEntity
  8
_U+30EC_U+30A4_U+30E4_U+30FC 1
 62
     7
420
 16777215
370
    20
100
AcDb2dPolyline
 66
     1
 10
0.0
 20
0.0
 30
0.0
  0
VERTEX
  5
1FA
330
1F9
100
AcDbEntity
  8
_U+30EC_U+30A4_U+30E4_U+30FC 1
 62
     7
420
 16777215
370
    20
100
AcDbVertex
100
AcDb2dVertex
 10
47.43627604252326
 20
80.6081240496778
 30
0.0
  0
VERTEX
  5
1FB
330
1F9
100
AcDbEntity
  8
_U+30EC_U+30A4_U+30E4_U+30FC 1
 62
     7
420
 16777215
370
    20
100
AcDbVertex
100
AcDb2dVertex
 10
47.4253270984342
 20
63.78909252922435
 30
0.0
  0
SEQEND
  5
1FC
330
1F9
100
AcDbEntity
  8
_U+30EC_U+30A4_U+30E4_U+30FC 1
 62
     7
420
 16777215
370
    20
  0
POLYLINE
  5
1FD
330
45
100
AcDbEntity
  8
_U+30EC_U+30A4_U+30E4_U+30FC 1
 62
     7
420
 16777215
370
    20
100
AcDb2dPolyline
 66
     1
 10
0.0
 20
0.0
 30
0.0
  0
VERTEX
  5
1FE
330
1FD
100
AcDbEntity
  8
_U+30EC_U+30A4_U+30E4_U+30FC 1
 62
     7
420
 16777215
370
    20
100
AcDbVertex
100
AcDb2dVertex
 10
37.5694256794572
 20
42.51376540305989
 30
0.0
  0
VERTEX
  5
1FF
330
1FD
100
AcDbEntity
  8
_U+30EC_U+30A4_U+30E4_U+30FC 1
 62
     7
420
 16777215
370
    20
100
AcDbVertex
100
AcDb2dVertex
 10
37.5708360154218
 20
17.46089646028068
 30
0.0
  0
SEQEND
  5
200
330
1FD
100
AcDbEntity
  8
_U+30EC_U+30A4_U+30E4_U+30FC 1
 62
     7
420
 16777215
370
    20
  0
POLYLINE
  5
201
330
45
100
AcDbEntity
  8
_U+30EC_U+30A4_U+30E4_U+30FC 1
 62
     7
420
 16777215
370
    20
100
AcDb2dPolyline
 66
     1
 10
0.0
 20
0.0
 30
0.0
  0
VERTEX
  5
202
330
201
100
AcDbEntity
  8
_U+30EC_U+30A4_U+30E4_U+30FC 1
 62
     7
420
 16777215
370
    20
100
AcDbVertex
100
AcDb2dVertex
 10
48.55245468197403
 20
81.72431345505196
 30
0.0
  0
VERTEX
  5
203
330
201
100
AcDbEntity
  8
_U+30EC_U+30A4_U+30E4_U+30FC 1
 62
     7
420
 16777215
370
    20
100
AcDbVertex
100
AcDb2dVertex
 10
51.24380633874477
 20
81.72431345505196
 30
0.0
  0
SEQEND
  5
204
330
201
100
AcDbEntity
  8
_U+30EC_U+30A4_U+30E4_U+30FC 1
 62
     7
420
 16777215
370
    20
  0
POLYLINE
  5
205
330
45
100
AcDbEntity
  8
_U+30EC_U+30A4_U+30E4_U+30FC 1
 62
     7
420
 16777215
370
    20
100
AcDb2dPolyline
 66
     1
 10
0.0
 20
0.0
 30
0.0
  0
VERTEX
  5
206
330
205
100
AcDbEntity
  8
_U+30EC_U+30A4_U+30E4_U+30FC 1
 62
     7
420
 16777215
370
    20
100
AcDbVertex
100
AcDb2dVertex
 10
160.5579887624525
 20
34.78687916435034
 30
0.0
  0
VERTEX
  5
207
330
205
100
AcDbEntity
  8
_U+30EC_U+30A4_U+30E4_U+30FC 1
 62
     7
420
 16777215
370
    20
100
AcDbVertex
100
AcDb2dVertex
 10
160.5565676605648
 20
17.4651328511352
 30
0.0
  0
SEQEND
  5
208
330
205
100
AcDbEntity
  8
_U+30EC_U+30A4_U+30E4_U+30FC 1
 62
     7
420
 16777215
370
    20
  0
POLYLINE
  5
209
330
45
100
AcDbEntity
  8
_U+30EC_U+30A4_U+30E4_U+30FC 1
 62
     7
420
 16777215
370
    20
100
AcDb2dPolyline
 66
     1
 10
0.0
 20
0.0
 30
0.0
  0
VERTEX
  5
20A
330
209
100
AcDbEntity
  8
_U+30EC_U+30A4_U+30E4_U+30FC 1
 62
     7
420
 16777215
370
    20
100
AcDbVertex
100
AcDb2dVertex
 10
165.1825557507711
 20
53.83827872962872
 30
0.0
  0
VERTEX
  5
20B
330
209
100
AcDbEntity
  8
_U+30EC_U+30A4_U+30E4_U+30FC 1
 62
     7
420
 16777215
370
    20
100
AcDbVertex
100
AcDb2dVertex
 10
165.1825557507711
 20
37.01925797509867
 30
0.0
  0
SEQEND
  5
20C
330
209
100
AcDbEntity
  8
_U+30EC_U+30A4_U+30E4_U+30FC 1
 62
     7
420
 16777215
370
    20
  0
POLYLINE
  5
20D
330
45
100
AcDbEntity
  8
_U+30EC_U+30A4_U+30E4_U+30FC 1
 62
     7
420
 16777215
370
    20
100
AcDb2dPolyline
 66
     1
 10
0.0
 20
0.0
 30
0.0
  0
VERTEX
  5
20E
330
20D
100
AcDbEntity
  8
_U+30EC_U+30A4_U+30E4_U+30FC 1
 62
     7
420
 16777215
370
    20
100
AcDbVertex
100
AcDb2dVertex
 10
161.6741781678266
 20
35.9030685697245
 30
0.0
  0
VERTEX
  5
20F
330
20D
100
AcDbEntity
  8
_U+30EC_U+30A4_U+30E4_U+30FC 1
 62
     7
420
 16777215
370
    20
100
AcDbVertex
100
AcDb2dVertex
 10
164.066366345397
 20
35.9030685697245
 30
0.0
  0
SEQEND
  5
210
330
20D
100
AcDbEntity
  8
_U+30EC_U+30A4_U+30E4_U+30FC 1
 62
     7
420
 16777215
370
    20
  0
POLYLINE
  5
211
330
45
100
AcDbEntity
  8
_U+30EC_U+30A4_U+30E4_U+30FC 1
 62
     7
420
 16777215
370
    20
100
AcDb2dPolyline
 66
     1
 10
0.0
 20
0.0
 30
0.0
  0
VERTEX
  5
212
330
211
100
AcDbEntity
  8
_U+30EC_U+30A4_U+30E4_U+30FC 1
 62
     7
420
 16777215
370
    20
100
AcDbVertex
100
AcDb2dVertex
 10
169.8032470066689
 20
72.88828949078962
 30
0.0
  0
VERTEX
  5
213
330
211
100
AcDbEntity
  8
_U+30EC_U+30A4_U+30E4_U+30FC 1
 62
     7
420
 16777215
370
    20
100
AcDbVertex
100
AcDb2dVertex
 10
169.8046465767098
 20
56.06678180795614
 30
0.0
  0
SEQEND
  5
214
330
211
100
AcDbEntity
  8
_U+30EC_U+30A4_U+30E4_U+30FC 1
 62
     7
420
 16777215
370
    20
  0
POLYLINE
  5
215
330
45
100
AcDbEntity
  8
_U+30EC_U+30A4_U+30E4_U+30FC 1
 62
     7
420
 16777215
370
    20
100
AcDb2dPolyline
 66
     1
 10
0.0
 20
0.0
 30
0.0
  0
VERTEX
  5
216
330
215
100
AcDbEntity
  8
_U+30EC_U+30A4_U+30E4_U+30FC 1
 62
     7
420
 16777215
370
    20
100
AcDbVertex
100
AcDb2dVertex
 10
166.2987451561453
 20
54.95446813500288
 30
0.0
  0
VERTEX
  5
217
330
215
100
AcDbEntity
  8
_U+30EC_U+30A4_U+30E4_U+30FC 1
 62
     7
420
 16777215
370
    20
100
AcDbVertex
100
AcDb2dVertex
 10
168.6884571713356
 20
54.95059240258198
 30
0.0
  0
SEQEND
  5
218
330
215
100
AcDbEntity
  8
_U+30EC_U+30A4_U+30E4_U+30FC 1
 62
     7
420
 16777215
370
    20
  0
POLYLINE
  5
219
330
45
100
AcDbEntity
  8
_U+30EC_U+30A4_U+30E4_U+30FC 1
 62
     7
420
 16777215
370
    20
100
AcDb2dPolyline
 66
     1
 10
0.0
 20
0.0
 30
0.0
  0
VERTEX
  5
21A
330
219
100
AcDbEntity
  8
_U+30EC_U+30A4_U+30E4_U+30FC 1
 62
     7
420
 16777215
370
    20
100
AcDbVertex
100
AcDb2dVertex
 10
170.9194148801963
 20
74.00447889616377
 30
0.0
  0
VERTEX
  5
21B
330
219
100
AcDbEntity
  8
_U+30EC_U+30A4_U+30E4_U+30FC 1
 62
     7
420
 16777215
370
    20
100
AcDbVertex
100
AcDb2dVertex
 10
173.61502984263
 20
74.00164745831184
 30
0.0
  0
SEQEND
  5
21C
330
219
100
AcDbEntity
  8
_U+30EC_U+30A4_U+30E4_U+30FC 1
 62
     7
420
 16777215
370
    20
  0
POLYLINE
  5
21D
330
45
100
AcDbEntity
  8
_U+30EC_U+30A4_U+30E4_U+30FC 1
 62
     7
420
 16777215
370
    20
100
AcDb2dPolyline
 66
     1
 10
0.0
 20
0.0
 30
0.0
  0
VERTEX
  5
21E
330
21D
100
AcDbEntity
  8
_U+30EC_U+30A4_U+30E4_U+30FC 1
 62
     7
420
 16777215
370
    20
100
AcDbVertex
100
AcDb2dVertex
 10
174.734018388086
 20
100.1650590796464
 30
0.0
  0
VERTEX
  5
21F
330
21D
100
AcDbEntity
  8
_U+30EC_U+30A4_U+30E4_U+30FC 1
 62
     7
420
 16777215
370
    20
100
AcDbVertex
100
AcDb2dVertex
 10
174.7311977161574
 20
75.11783686368601
 30
0.0
  0
SEQEND
  5
220
330
21D
100
AcDbEntity
  8
_U+30EC_U+30A4_U+30E4_U+30FC 1
 62
     7
420
 16777215
370
    20
  0
POLYLINE
  5
221
330
45
100
AcDbEntity
  8
_U+30EC_U+30A4_U+30E4_U+30FC 1
 62
     7
420
 16777215
370
    20
100
AcDb2dPolyline
 66
     1
 10
0.0
 20
0.0
 30
0.0
  0
VERTEX
  5
222
330
221
100
AcDbEntity
  8
_U+30EC_U+30A4_U+30E4_U+30FC 1
 62
     7
420
 16777215
370
    20
100
AcDbVertex
100
AcDb2dVertex
 10
38.68702542079564
 20
16.34470705490652
 30
0.0
  0
VERTEX
  5
223
330
221
100
AcDbEntity
  8
_U+30EC_U+30A4_U+30E4_U+30FC 1
 62
     7
420
 16777215
370
    20
100
AcDbVertex
100
AcDb2dVertex
 10
159.4403782551906
 20
16.34894344576103
 30
0.0
  0
SEQEND
  5
224
330
221
100
AcDbEntity
  8
_U+30EC_U+30A4_U+30E4_U+30FC 1
 62
     7
420
 16777215
370
    20
  0
POLYLINE
  5
225
330
45
100
AcDbEntity
  8
_U+30EC_U+30A4_U+30E4_U+30FC 1
 62
     7
420
 16777215
370
    20
100
AcDb2dPolyline
 66
     1
 10
0.0
 20
0.0
 30
0.0
  0
VERTEX
  5
226
330
225
100
AcDbEntity
  8
_U+30EC_U+30A4_U+30E4_U+30FC 1
 62
     7
420
 16777215
370
    20
100
AcDbVertex
100
AcDb2dVertex
 10
173.6178289827118
 20
101.2816037604925
 30
0.0
  0
VERTEX
  5
227
330
225
100
AcDbEntity
  8
_U+30EC_U+30A4_U+30E4_U+30FC 1
 62
     7
420
 16777215
370
    20
100
AcDbVertex
100
AcDb2dVertex
 10
53.44583601145273
 20
101.2703103068549
 30
0.0
  0
SEQEND
  5
228
330
225
100
AcDbEntity
  8
_U+30EC_U+30A4_U+30E4_U+30FC 1
 62
     7
420
 16777215
370
    20
  0
SPLINE
  5
229
330
45
100
AcDbEntity
  8
_U+30EC_U+30A4_U+30E4_U+30FC 1
 62
     7
420
 16777215
370
    20
100
AcDbSpline
210
0.0
220
0.0
230
1.0
 70
     8
 71
     3
 72
     8
 73
     4
 74
     0
 42
0.0000000001
 43
0.0000000001
 12
1.0
 22
0.0
 32
0.0
 13
1.0
 23
0.0
 33
0.0
 40
0.0
 40
0.0
 40
0.0
 40
0.0
 40
1.0
 40
1.0
 40
1.0
 40
1.0
 10
52.32964660607856
 20
100.1541209014808
 30
0.0
 10
52.35575397030272
 20
101.2826588209849
 30
0.0
 10
53.44583601145273
 20
101.2703103068549
 30
0.0
 10
53.44583601145273
 20
101.2703103068549
 30
0.0
  0
SPLINE
  5
22A
330
45
100
AcDbEntity
  8
_U+30EC_U+30A4_U+30E4_U+30FC 1
 62
     7
420
 16777215
370
    20
100
AcDbSpline
210
0.0
220
0.0
230
1.0
 70
     8
 71
     3
 72
     8
 73
     4
 74
     0
 42
0.0000000001
 43
0.0000000001
 12
1.0
 22
0.0
 32
0.0
 13
1.0
 23
0.0
 33
0.0
 40
0.0
 40
0.0
 40
0.0
 40
0.0
 40
1.0
 40
1.0
 40
1.0
 40
1.0
 10
52.35998497819554
 20
82.84050286042613
 30
0.0
 10
52.33387761397138
 20
81.7133645109629
 30
0.0
 10
51.24380633874477
 20
81.72431345505196
 30
0.0
 10
51.24380633874477
 20
81.72431345505196
 30
0.0
  0
SPLINE
  5
22B
330
45
100
AcDbEntity
  8
_U+30EC_U+30A4_U+30E4_U+30FC 1
 62
     7
420
 16777215
370
    20
100
AcDbSpline
210
0.0
220
0.0
230
1.0
 70
     8
 71
     3
 72
     8
 73
     4
 74
     0
 42
0.0000000001
 43
0.0000000001
 12
1.0
 22
0.0
 32
0.0
 13
1.0
 23
0.0
 33
0.0
 40
0.0
 40
0.0
 40
0.0
 40
0.0
 40
1.0
 40
1.0
 40
1.0
 40
1.0
 10
47.43627604252326
 20
80.6081240496778
 30
0.0
 10
47.46238340674741
 20
81.73525163321763
 30
0.0
 10
48.55245468197403
 20
81.72431345505196
 30
0.0
 10
48.55245468197403
 20
81.72431345505196
 30
0.0
  0
SPLINE
  5
22C
330
45
100
AcDbEntity
  8
_U+30EC_U+30A4_U+30E4_U+30FC 1
 62
     7
420
 16777215
370
    20
100
AcDbSpline
210
0.0
220
0.0
230
1.0
 70
     8
 71
     3
 72
     8
 73
     4
 74
     0
 42
0.0000000001
 43
0.0000000001
 12
1.0
 22
0.0
 32
0.0
 13
1.0
 23
0.0
 33
0.0
 40
0.0
 40
0.0
 40
0.0
 40
0.0
 40
1.0
 40
1.0
 40
1.0
 40
1.0
 10
42.50020782679764
 20
61.55670295255263
 30
0.0
 10
42.52489408913413
 20
62.68383053609247
 30
0.0
 10
43.61639723217181
 20
62.67290312385018
 30
0.0
 10
43.61639723217181
 20
62.67290312385018
 30
0.0
  0
SPLINE
  5
22D
330
45
100
AcDbEntity
  8
_U+30EC_U+30A4_U+30E4_U+30FC 1
 62
     7
420
 16777215
370
    20
100
AcDbSpline
210
0.0
220
0.0
230
1.0
 70
     8
 71
     3
 72
     8
 73
     4
 74
     0
 42
0.0000000001
 43
0.0000000001
 12
1.0
 22
0.0
 32
0.0
 13
1.0
 23
0.0
 33
0.0
 40
0.0
 40
0.0
 40
0.0
 40
0.0
 40
1.0
 40
1.0
 40
1.0
 40
1.0
 10
37.5694256794572
 20
42.51376540305989
 30
0.0
 10
37.59553304368136
 20
43.64089298659972
 30
0.0
 10
38.68561508483136
 20
43.62994404251067
 30
0.0
 10
38.68561508483136
 20
43.62994404251067
 30
0.0
  0
SPLINE
  5
22E
330
45
100
AcDbEntity
  8
_U+30EC_U+30A4_U+30E4_U+30FC 1
 62
     7
420
 16777215
370
    20
100
AcDbSpline
210
0.0
220
0.0
230
1.0
 70
     8
 71
     3
 72
     8
 73
     4
 74
     0
 42
0.0000000001
 43
0.0000000001
 12
1.0
 22
0.0
 32
0.0
 13
1.0
 23
0.0
 33
0.0
 40
0.0
 40
0.0
 40
0.0
 40
0.0
 40
1.0
 40
1.0
 40
1.0
 40
1.0
 10
47.4253270984342
 20
63.78909252922435
 30
0.0
 10
47.39887522466152
 20
62.66196494568452
 30
0.0
 10
46.30913769306003
 20
62.67290312385018
 30
0.0
 10
46.30913769306003
 20
62.67290312385018
 30
0.0
  0
SPLINE
  5
22F
330
45
100
AcDbEntity
  8
_U+30EC_U+30A4_U+30E4_U+30FC 1
 62
     7
420
 16777215
370
    20
100
AcDbSpline
210
0.0
220
0.0
230
1.0
 70
     8
 71
     3
 72
     8
 73
     4
 74
     0
 42
0.0000000001
 43
0.0000000001
 12
1.0
 22
0.0
 32
0.0
 13
1.0
 23
0.0
 33
0.0
 40
0.0
 40
0.0
 40
0.0
 40
0.0
 40
1.0
 40
1.0
 40
1.0
 40
1.0
 10
42.4987867249103
 20
44.73768219802258
 30
0.0
 10
42.47267936068582
 20
43.60914427851847
 30
0.0
 10
41.38259731953581
 20
43.62149279264841
 30
0.0
 10
41.38259731953581
 20
43.62149279264841
 30
0.0
  0
SPLINE
  5
230
330
45
100
AcDbEntity
  8
_U+30EC_U+30A4_U+30E4_U+30FC 1
 62
     7
420
 16777215
370
    20
100
AcDbSpline
210
0.0
220
0.0
230
1.0
 70
     8
 71
     3
 72
     8
 73
     4
 74
     0
 42
0.0000000001
 43
0.0000000001
 12
1.0
 22
0.0
 32
0.0
 13
1.0
 23
0.0
 33
0.0
 40
0.0
 40
0.0
 40
0.0
 40
0.0
 40
1.0
 40
1.0
 40
1.0
 40
1.0
 10
38.68702542079564
 20
16.34470705490652
 30
0.0
 10
37.55989783725613
 20
16.37081441913067
 30
0.0
 10
37.5708360154218
 20
17.46089646028068
 30
0.0
 10
37.5708360154218
 20
17.46089646028068
 30
0.0
  0
SPLINE
  5
231
330
45
100
AcDbEntity
  8
_U+30EC_U+30A4_U+30E4_U+30FC 1
 62
     7
420
 16777215
370
    20
100
AcDbSpline
210
0.0
220
0.0
230
1.0
 70
     8
 71
     3
 72
     8
 73
     4
 74
     0
 42
0.0000000001
 43
0.0000000001
 12
1.0
 22
0.0
 32
0.0
 13
1.0
 23
0.0
 33
0.0
 40
0.0
 40
0.0
 40
0.0
 40
0.0
 40
1.0
 40
1.0
 40
1.0
 40
1.0
 10
173.6178289827118
 20
101.2816037604925
 30
0.0
 10
174.7449565662517
 20
101.2551411207964
 30
0.0
 10
174.734018388086
 20
100.1650590796464
 30
0.0
 10
174.734018388086
 20
100.1650590796464
 30
0.0
  0
SPLINE
  5
232
330
45
100
AcDbEntity
  8
_U+30EC_U+30A4_U+30E4_U+30FC 1
 62
     7
420
 16777215
370
    20
100
AcDbSpline
210
0.0
220
0.0
230
1.0
 70
     8
 71
     3
 72
     8
 73
     4
 74
     0
 42
0.0000000001
 43
0.0000000001
 12
1.0
 22
0.0
 32
0.0
 13
1.0
 23
0.0
 33
0.0
 40
0.0
 40
0.0
 40
0.0
 40
0.0
 40
1.0
 40
1.0
 40
1.0
 40
1.0
 10
174.7311977161574
 20
75.11783686368601
 30
0.0
 10
174.7050795860099
 20
73.99070928014616
 30
0.0
 10
173.61502984263
 20
74.00164745831184
 30
0.0
 10
173.61502984263
 20
74.00164745831184
 30
0.0
  0
SPLINE
  5
233
330
45
100
AcDbEntity
  8
_U+30EC_U+30A4_U+30E4_U+30FC 1
 62
     7
420
 16777215
370
    20
100
AcDbSpline
210
0.0
220
0.0
230
1.0
 70
     8
 71
     3
 72
     8
 73
     4
 74
     0
 42
0.0000000001
 43
0.0000000001
 12
1.0
 22
0.0
 32
0.0
 13
1.0
 23
0.0
 33
0.0
 40
0.0
 40
0.0
 40
0.0
 40
0.0
 40
1.0
 40
1.0
 40
1.0
 40
1.0
 10
169.8046465767098
 20
56.06678180795614
 30
0.0
 10
169.7785715102558
 20
54.93929894894439
 30
0.0
 10
168.6884571713356
 20
54.95059240258198
 30
0.0
 10
168.6884571713356
 20
54.95059240258198
 30
0.0
  0
SPLINE
  5
234
330
45
100
AcDbEntity
  8
_U+30EC_U+30A4_U+30E4_U+30FC 1
 62
     7
420
 16777215
370
    20
100
AcDbSpline
210
0.0
220
0.0
230
1.0
 70
     8
 71
     3
 72
     8
 73
     4
 74
     0
 42
0.0000000001
 43
0.0000000001
 12
1.0
 22
0.0
 32
0.0
 13
1.0
 23
0.0
 33
0.0
 40
0.0
 40
0.0
 40
0.0
 40
0.0
 40
1.0
 40
1.0
 40
1.0
 40
1.0
 10
165.1825557507711
 20
37.01925797509867
 30
0.0
 10
165.1564160887768
 20
35.89211962563544
 30
0.0
 10
164.066366345397
 20
35.9030685697245
 30
0.0
 10
164.066366345397
 20
35.9030685697245
 30
0.0
  0
SPLINE
  5
235
330
45
100
AcDbEntity
  8
_U+30EC_U+30A4_U+30E4_U+30FC 1
 62
     7
420
 16777215
370
    20
100
AcDbSpline
210
0.0
220
0.0
230
1.0
 70
     8
 71
     3
 72
     8
 73
     4
 74
     0
 42
0.0000000001
 43
0.0000000001
 12
1.0
 22
0.0
 32
0.0
 13
1.0
 23
0.0
 33
0.0
 40
0.0
 40
0.0
 40
0.0
 40
0.0
 40
1.0
 40
1.0
 40
1.0
 40
1.0
 10
160.5565676605648
 20
17.4651328511352
 30
0.0
 10
160.530471062264
 20
16.33623965615918
 30
0.0
 10
159.4403782551906
 20
16.34894344576103
 30
0.0
 10
159.4403782551906
 20
16.34894344576103
 30
0.0
  0
SPLINE
  5
236
330
45
100
AcDbEntity
  8
_U+30EC_U+30A4_U+30E4_U+30FC 1
 62
     7
420
 16777215
370
    20
100
AcDbSpline
210
0.0
220
0.0
230
1.0
 70
     8
 71
     3
 72
     8
 73
     4
 74
     0
 42
0.0000000001
 43
0.0000000001
 12
1.0
 22
0.0
 32
0.0
 13
1.0
 23
0.0
 33
0.0
 40
0.0
 40
0.0
 40
0.0
 40
0.0
 40
1.0
 40
1.0
 40
1.0
 40
1.0
 10
170.9194148801963
 20
74.00447889616377
 30
0.0
 10
169.7923088285033
 20
73.97837153193962
 30
0.0
 10
169.8032470066689
 20
72.88828949078962
 30
0.0
 10
169.8032470066689
 20
72.88828949078962
 30
0.0
  0
SPLINE
  5
237
330
45
100
AcDbEntity
  8
_U+30EC_U+30A4_U+30E4_U+30FC 1
 62
     7
420
 16777215
370
    20
100
AcDbSpline
210
0.0
220
0.0
230
1.0
 70
     8
 71
     3
 72
     8
 73
     4
 74
     0
 42
0.0000000001
 43
0.0000000001
 12
1.0
 22
0.0
 32
0.0
 13
1.0
 23
0.0
 33
0.0
 40
0.0
 40
0.0
 40
0.0
 40
0.0
 40
1.0
 40
1.0
 40
1.0
 40
1.0
 10
166.2987451561453
 20
54.95446813500288
 30
0.0
 10
165.1701964707178
 20
54.92837153670212
 30
0.0
 10
165.1825557507711
 20
53.83827872962872
 30
0.0
 10
165.1825557507711
 20
53.83827872962872
 30
0.0
  0
SPLINE
  5
238
330
45
100
AcDbEntity
  8
_U+30EC_U+30A4_U+30E4_U+30FC 1
 62
     7
420
 16777215
370
    20
100
AcDbSpline
210
0.0
220
0.0
230
1.0
 70
     8
 71
     3
 72
     8
 73
     4
 74
     0
 42
0.0000000001
 43
0.0000000001
 12
1.0
 22
0.0
 32
0.0
 13
1.0
 23
0.0
 33
0.0
 40
0.0
 40
0.0
 40
0.0
 40
0.0
 40
1.0
 40
1.0
 40
1.0
 40
1.0
 10
161.6741781678266
 20
35.9030685697245
 30
0.0
 10
160.5456510142459
 20
35.87696120550034
 30
0.0
 10
160.5579887624525
 20
34.78687916435034
 30
0.0
 10
160.5579887624525
 20
34.78687916435034
 30
0.0
  0
POLYLINE
  5
239
330
45
100
AcDbEntity
  8
_U+30EC_U+30A4_U+30E4_U+30FC 1
370
     0
100
AcDb2dPolyline
 66
     1
 10
0.0
 20
0.0
 30
0.0
  0
VERTEX
  5
23A
330
239
100
AcDbEntity
  8
_U+30EC_U+30A4_U+30E4_U+30FC 1
370
     0
100
AcDbVertex
100
AcDb2dVertex
 10
37.04166934888742
 20
16.13797979394474
 30
0.0
  0
VERTEX
  5
23B
330
239
100
AcDbEntity
  8
_U+30EC_U+30A4_U+30E4_U+30FC 1
370
     0
100
AcDbVertex
100
AcDb2dVertex
 10
174.9777804255142
 20
16.13797979394474
 30
0.0
  0
VERTEX
  5
23C
330
239
100
AcDbEntity
  8
_U+30EC_U+30A4_U+30E4_U+30FC 1
370
     0
100
AcDbVertex
100
AcDb2dVertex
 10
174.9777804255142
 20
101.5101966118622
 30
0.0
  0
VERTEX
  5
23D
330
239
100
AcDbEntity
  8
_U+30EC_U+30A4_U+30E4_U+30FC 1
370
     0
100
AcDbVertex
100
AcDb2dVertex
 10
37.04166934888742
 20
101.5101966118622
 30
0.0
  0
VERTEX
  5
23E
330
239
100
AcDbEntity
  8
_U+30EC_U+30A4_U+30E4_U+30FC 1
370
     0
100
AcDbVertex
100
AcDb2dVertex
 10
37.04166934888742
 20
16.13797979394474
 30
0.0
  0
SEQEND
  5
23F
330
239
100
AcDbEntity
  8
_U+30EC_U+30A4_U+30E4_U+30FC 1
370
     0
  0
ENDBLK
  5
48
330
45
100
AcDbEntity
  8
0
100
AcDbBlockEnd
  0
ENDSEC
  0
SECTION
  2
ENTITIES
  0
INSERT
  5
42
330
1F
100
AcDbEntity
  8
_U+30EC_U+30A4_U+30E4_U+30FC 1
100
AcDbBlockReference
  2
block 2
 10
0.0
 20
0.0
 30
0.0
  0
POLYLINE
  5
240
330
1F
100
AcDbEntity
  8
_U+30EC_U+30A4_U+30E4_U+30FC 1
 62
     7
420
 16777215
370
    20
100
AcDb2dPolyline
 66
     1
 10
0.0
 20
0.0
 30
0.0
  0
VERTEX
  5
241
330
240
100
AcDbEntity
  8
_U+30EC_U+30A4_U+30E4_U+30FC 1
 62
     7
420
 16777215
370
    20
100
AcDbVertex
100
AcDb2dVertex
 10
52.38468200645543
 20
196.5623177020872
 30
0.0
  0
VERTEX
  5
242
330
240
100
AcDbEntity
  8
_U+30EC_U+30A4_U+30E4_U+30FC 1
 62
     7
420
 16777215
370
    20
100
AcDbVertex
100
AcDb2dVertex
 10
52.41643071453668
 20
179.2472893250683
 30
0.0
  0
SEQEND
  5
243
330
240
100
AcDbEntity
  8
_U+30EC_U+30A4_U+30E4_U+30FC 1
 62
     7
420
 16777215
370
    20
  0
POLYLINE
  5
244
330
1F
100
AcDbEntity
  8
_U+30EC_U+30A4_U+30E4_U+30FC 1
 62
     7
420
 16777215
370
    20
100
AcDb2dPolyline
 66
     1
 10
0.0
 20
0.0
 30
0.0
  0
VERTEX
  5
245
330
244
100
AcDbEntity
  8
_U+30EC_U+30A4_U+30E4_U+30FC 1
 62
     7
420
 16777215
370
    20
100
AcDbVertex
100
AcDb2dVertex
 10
38.74065048520823
 20
140.0367412730762
 30
0.0
  0
VERTEX
  5
246
330
244
100
AcDbEntity
  8
_U+30EC_U+30A4_U+30E4_U+30FC 1
 62
     7
420
 16777215
370
    20
100
AcDbVertex
100
AcDb2dVertex
 10
41.43763271991268
 20
140.0282792572906
 30
0.0
  0
SEQEND
  5
247
330
244
100
AcDbEntity
  8
_U+30EC_U+30A4_U+30E4_U+30FC 1
 62
     7
420
 16777215
370
    20
  0
POLYLINE
  5
248
330
1F
100
AcDbEntity
  8
_U+30EC_U+30A4_U+30E4_U+30FC 1
 62
     7
420
 16777215
370
    20
100
AcDb2dPolyline
 66
     1
 10
0.0
 20
0.0
 30
0.0
  0
VERTEX
  5
249
330
248
100
AcDbEntity
  8
_U+30EC_U+30A4_U+30E4_U+30FC 1
 62
     7
420
 16777215
370
    20
100
AcDbVertex
100
AcDb2dVertex
 10
43.67143263254867
 20
159.079678822569
 30
0.0
  0
VERTEX
  5
24A
330
248
100
AcDbEntity
  8
_U+30EC_U+30A4_U+30E4_U+30FC 1
 62
     7
420
 16777215
370
    20
100
AcDbVertex
100
AcDb2dVertex
 10
46.3641730934369
 20
159.079678822569
 30
0.0
  0
SEQEND
  5
24B
330
248
100
AcDbEntity
  8
_U+30EC_U+30A4_U+30E4_U+30FC 1
 62
     7
420
 16777215
370
    20
  0
POLYLINE
  5
24C
330
1F
100
AcDbEntity
  8
_U+30EC_U+30A4_U+30E4_U+30FC 1
 62
     7
420
 16777215
370
    20
100
AcDb2dPolyline
 66
     1
 10
0.0
 20
0.0
 30
0.0
  0
VERTEX
  5
24D
330
24C
100
AcDbEntity
  8
_U+30EC_U+30A4_U+30E4_U+30FC 1
 62
     7
420
 16777215
370
    20
100
AcDbVertex
100
AcDb2dVertex
 10
42.55524322717451
 20
157.9635001831182
 30
0.0
  0
VERTEX
  5
24E
330
24C
100
AcDbEntity
  8
_U+30EC_U+30A4_U+30E4_U+30FC 1
 62
     7
420
 16777215
370
    20
100
AcDbVertex
100
AcDb2dVertex
 10
42.55382212528716
 20
141.1444686626647
 30
0.0
  0
SEQEND
  5
24F
330
24C
100
AcDbEntity
  8
_U+30EC_U+30A4_U+30E4_U+30FC 1
 62
     7
420
 16777215
370
    20
  0
POLYLINE
  5
250
330
1F
100
AcDbEntity
  8
_U+30EC_U+30A4_U+30E4_U+30FC 1
 62
     7
420
 16777215
370
    20
100
AcDb2dPolyline
 66
     1
 10
0.0
 20
0.0
 30
0.0
  0
VERTEX
  5
251
330
250
100
AcDbEntity
  8
_U+30EC_U+30A4_U+30E4_U+30FC 1
 62
     7
420
 16777215
370
    20
100
AcDbVertex
100
AcDb2dVertex
 10
47.49131144290013
 20
177.0163208502842
 30
0.0
  0
VERTEX
  5
252
330
250
100
AcDbEntity
  8
_U+30EC_U+30A4_U+30E4_U+30FC 1
 62
     7
420
 16777215
370
    20
100
AcDbVertex
100
AcDb2dVertex
 10
47.48036249881106
 20
160.1958789938665
 30
0.0
  0
SEQEND
  5
253
330
250
100
AcDbEntity
  8
_U+30EC_U+30A4_U+30E4_U+30FC 1
 62
     7
420
 16777215
370
    20
  0
POLYLINE
  5
254
330
1F
100
AcDbEntity
  8
_U+30EC_U+30A4_U+30E4_U+30FC 1
 62
     7
420
 16777215
370
    20
100
AcDb2dPolyline
 66
     1
 10
0.0
 20
0.0
 30
0.0
  0
VERTEX
  5
255
330
254
100
AcDbEntity
  8
_U+30EC_U+30A4_U+30E4_U+30FC 1
 62
     7
420
 16777215
370
    20
100
AcDbVertex
100
AcDb2dVertex
 10
37.62446107983406
 20
138.9205518677021
 30
0.0
  0
VERTEX
  5
256
330
254
100
AcDbEntity
  8
_U+30EC_U+30A4_U+30E4_U+30FC 1
 62
     7
420
 16777215
370
    20
100
AcDbVertex
100
AcDb2dVertex
 10
37.62587141579866
 20
113.8690932608871
 30
0.0
  0
SEQEND
  5
257
330
254
100
AcDbEntity
  8
_U+30EC_U+30A4_U+30E4_U+30FC 1
 62
     7
420
 16777215
370
    20
  0
POLYLINE
  5
258
330
1F
100
AcDbEntity
  8
_U+30EC_U+30A4_U+30E4_U+30FC 1
 62
     7
420
 16777215
370
    20
100
AcDb2dPolyline
 66
     1
 10
0.0
 20
0.0
 30
0.0
  0
VERTEX
  5
259
330
258
100
AcDbEntity
  8
_U+30EC_U+30A4_U+30E4_U+30FC 1
 62
     7
420
 16777215
370
    20
100
AcDbVertex
100
AcDb2dVertex
 10
48.6074900823509
 20
178.1325102556584
 30
0.0
  0
VERTEX
  5
25A
330
258
100
AcDbEntity
  8
_U+30EC_U+30A4_U+30E4_U+30FC 1
 62
     7
420
 16777215
370
    20
100
AcDbVertex
100
AcDb2dVertex
 10
51.30024130916252
 20
178.1325102556584
 30
0.0
  0
SEQEND
  5
25B
330
258
100
AcDbEntity
  8
_U+30EC_U+30A4_U+30E4_U+30FC 1
 62
     7
420
 16777215
370
    20
  0
POLYLINE
  5
25C
330
1F
100
AcDbEntity
  8
_U+30EC_U+30A4_U+30E4_U+30FC 1
 62
     7
420
 16777215
370
    20
100
AcDb2dPolyline
 66
     1
 10
0.0
 20
0.0
 30
0.0
  0
VERTEX
  5
25D
330
25C
100
AcDbEntity
  8
_U+30EC_U+30A4_U+30E4_U+30FC 1
 62
     7
420
 16777215
370
    20
100
AcDbVertex
100
AcDb2dVertex
 10
160.6130241628293
 20
131.1936548630691
 30
0.0
  0
VERTEX
  5
25E
330
25C
100
AcDbEntity
  8
_U+30EC_U+30A4_U+30E4_U+30FC 1
 62
     7
420
 16777215
370
    20
100
AcDbVertex
100
AcDb2dVertex
 10
160.6116030609417
 20
113.8719139328157
 30
0.0
  0
SEQEND
  5
25F
330
25C
100
AcDbEntity
  8
_U+30EC_U+30A4_U+30E4_U+30FC 1
 62
     7
420
 16777215
370
    20
  0
POLYLINE
  5
260
330
1F
100
AcDbEntity
  8
_U+30EC_U+30A4_U+30E4_U+30FC 1
 62
     7
420
 16777215
370
    20
100
AcDb2dPolyline
 66
     1
 10
0.0
 20
0.0
 30
0.0
  0
VERTEX
  5
261
330
260
100
AcDbEntity
  8
_U+30EC_U+30A4_U+30E4_U+30FC 1
 62
     7
420
 16777215
370
    20
100
AcDbVertex
100
AcDb2dVertex
 10
165.2379356606965
 20
150.2464755302352
 30
0.0
  0
VERTEX
  5
262
330
260
100
AcDbEntity
  8
_U+30EC_U+30A4_U+30E4_U+30FC 1
 62
     7
420
 16777215
370
    20
100
AcDbVertex
100
AcDb2dVertex
 10
165.2379356606965
 20
133.4274440097817
 30
0.0
  0
SEQEND
  5
263
330
260
100
AcDbEntity
  8
_U+30EC_U+30A4_U+30E4_U+30FC 1
 62
     7
420
 16777215
370
    20
  0
POLYLINE
  5
264
330
1F
100
AcDbEntity
  8
_U+30EC_U+30A4_U+30E4_U+30FC 1
 62
     7
420
 16777215
370
    20
100
AcDb2dPolyline
 66
     1
 10
0.0
 20
0.0
 30
0.0
  0
VERTEX
  5
265
330
264
100
AcDbEntity
  8
_U+30EC_U+30A4_U+30E4_U+30FC 1
 62
     7
420
 16777215
370
    20
100
AcDbVertex
100
AcDb2dVertex
 10
161.7291920363567
 20
132.3098442684433
 30
0.0
  0
VERTEX
  5
266
330
264
100
AcDbEntity
  8
_U+30EC_U+30A4_U+30E4_U+30FC 1
 62
     7
420
 16777215
370
    20
100
AcDbVertex
100
AcDb2dVertex
 10
164.1217462553224
 20
132.3112653703309
 30
0.0
  0
SEQEND
  5
267
330
264
100
AcDbEntity
  8
_U+30EC_U+30A4_U+30E4_U+30FC 1
 62
     7
420
 16777215
370
    20
  0
POLYLINE
  5
268
330
1F
100
AcDbEntity
  8
_U+30EC_U+30A4_U+30E4_U+30FC 1
 62
     7
420
 16777215
370
    20
100
AcDb2dPolyline
 66
     1
 10
0.0
 20
0.0
 30
0.0
  0
VERTEX
  5
269
330
268
100
AcDbEntity
  8
_U+30EC_U+30A4_U+30E4_U+30FC 1
 62
     7
420
 16777215
370
    20
100
AcDbVertex
100
AcDb2dVertex
 10
169.858260875199
 20
169.2964862913961
 30
0.0
  0
VERTEX
  5
26A
330
268
100
AcDbEntity
  8
_U+30EC_U+30A4_U+30E4_U+30FC 1
 62
     7
420
 16777215
370
    20
100
AcDbVertex
100
AcDb2dVertex
 10
169.8597035089335
 20
152.4746233330907
 30
0.0
  0
SEQEND
  5
26B
330
268
100
AcDbEntity
  8
_U+30EC_U+30A4_U+30E4_U+30FC 1
 62
     7
420
 16777215
370
    20
  0
POLYLINE
  5
26C
330
1F
100
AcDbEntity
  8
_U+30EC_U+30A4_U+30E4_U+30FC 1
 62
     7
420
 16777215
370
    20
100
AcDb2dPolyline
 66
     1
 10
0.0
 20
0.0
 30
0.0
  0
VERTEX
  5
26D
330
26C
100
AcDbEntity
  8
_U+30EC_U+30A4_U+30E4_U+30FC 1
 62
     7
420
 16777215
370
    20
100
AcDbVertex
100
AcDb2dVertex
 10
166.3541250660707
 20
151.3626757015327
 30
0.0
  0
VERTEX
  5
26E
330
26C
100
AcDbEntity
  8
_U+30EC_U+30A4_U+30E4_U+30FC 1
 62
     7
420
 16777215
370
    20
100
AcDbVertex
100
AcDb2dVertex
 10
168.7434925717125
 20
151.3584446936399
 30
0.0
  0
SEQEND
  5
26F
330
26C
100
AcDbEntity
  8
_U+30EC_U+30A4_U+30E4_U+30FC 1
 62
     7
420
 16777215
370
    20
  0
POLYLINE
  5
270
330
1F
100
AcDbEntity
  8
_U+30EC_U+30A4_U+30E4_U+30FC 1
 62
     7
420
 16777215
370
    20
100
AcDb2dPolyline
 66
     1
 10
0.0
 20
0.0
 30
0.0
  0
VERTEX
  5
271
330
270
100
AcDbEntity
  8
_U+30EC_U+30A4_U+30E4_U+30FC 1
 62
     7
420
 16777215
370
    20
100
AcDbVertex
100
AcDb2dVertex
 10
170.9744502805732
 20
170.4126756967702
 30
0.0
  0
VERTEX
  5
272
330
270
100
AcDbEntity
  8
_U+30EC_U+30A4_U+30E4_U+30FC 1
 62
     7
420
 16777215
370
    20
100
AcDbVertex
100
AcDb2dVertex
 10
173.6700437111601
 20
170.4098550248417
 30
0.0
  0
SEQEND
  5
273
330
270
100
AcDbEntity
  8
_U+30EC_U+30A4_U+30E4_U+30FC 1
 62
     7
420
 16777215
370
    20
  0
POLYLINE
  5
274
330
1F
100
AcDbEntity
  8
_U+30EC_U+30A4_U+30E4_U+30FC 1
 62
     7
420
 16777215
370
    20
100
AcDb2dPolyline
 66
     1
 10
0.0
 20
0.0
 30
0.0
  0
VERTEX
  5
275
330
274
100
AcDbEntity
  8
_U+30EC_U+30A4_U+30E4_U+30FC 1
 62
     7
420
 16777215
370
    20
100
AcDbVertex
100
AcDb2dVertex
 10
174.7890753203096
 20
196.5732666461763
 30
0.0
  0
VERTEX
  5
276
330
274
100
AcDbEntity
  8
_U+30EC_U+30A4_U+30E4_U+30FC 1
 62
     7
420
 16777215
370
    20
100
AcDbVertex
100
AcDb2dVertex
 10
174.7862115846875
 20
171.5260444302158
 30
0.0
  0
SEQEND
  5
277
330
274
100
AcDbEntity
  8
_U+30EC_U+30A4_U+30E4_U+30FC 1
 62
     7
420
 16777215
370
    20
  0
SPLINE
  5
278
330
1F
100
AcDbEntity
  8
_U+30EC_U+30A4_U+30E4_U+30FC 1
 62
     7
420
 16777215
370
    20
100
AcDbSpline
210
0.0
220
0.0
230
1.0
 70
    11
 71
     3
 72
    20
 73
    16
 74
     0
 42
0.0000000001
 43
0.0000000001
 12
1.0
 22
0.0
 32
0.0
 13
1.0
 23
0.0
 33
0.0
 40
0.0
 40
0.0
 40
0.0
 40
0.0
 40
1.0
 40
1.0
 40
1.0
 40
2.0
 40
2.0
 40
2.0
 40
3.0
 40
3.0
 40
3.0
 40
4.0
 40
4.0
 40
4.0
 40
5.0
 40
5.0
 40
5.0
 40
5.0
 10
138.2984086220755
 20
121.6425528841879
 30
0.0
 10
138.2984086220755
 20
121.0900995253579
 30
0.0
 10
137.8507399956141
 20
120.6420756234246
 30
0.0
 10
137.2979313613122
 20
120.6420756234246
 30
0.0
 10
136.7454887684056
 20
120.6420756234246
 30
0.0
 10
136.2974541005489
 20
121.0900995253579
 30
0.0
 10
136.2974541005489
 20
121.6425528841879
 30
0.0
 10
136.2974541005489
 20
122.1950062430179
 30
0.0
 10
136.7454887684056
 20
122.6416251919487
 30
0.0
 10
137.2979313613122
 20
122.6416251919487
 30
0.0
 10
137.8507399956141
 20
122.6416251919487
 30
0.0
 10
138.2984086220755
 20
122.1950062430179
 30
0.0
 10
138.2984086220755
 20
121.6425528841879
 30
0.0
 10
138.2984086220755
 20
121.6425528841879
 30
0.0
 10
138.2984086220755
 20
121.6425528841879
 30
0.0
 10
138.2984086220755
 20
121.6425528841879
 30
0.0
  0
POLYLINE
  5
279
330
1F
100
AcDbEntity
  8
_U+30EC_U+30A4_U+30E4_U+30FC 1
 62
     7
420
 16777215
370
    20
100
AcDb2dPolyline
 66
     1
 10
0.0
 20
0.0
 30
0.0
  0
VERTEX
  5
27A
330
279
100
AcDbEntity
  8
_U+30EC_U+30A4_U+30E4_U+30FC 1
 62
     7
420
 16777215
370
    20
100
AcDbVertex
100
AcDb2dVertex
 10
138.2984086220755
 20
121.6425528841879
 30
0.0
  0
VERTEX
  5
2C0
330
279
100
AcDbEntity
  8
0
100
AcDbVertex
100
AcDb2dVertex
 10
138.2984086220755
 20
121.6425528841879
 30
0.0
  0
SEQEND
  5
27B
330
279
100
AcDbEntity
  8
_U+30EC_U+30A4_U+30E4_U+30FC 1
 62
     7
420
 16777215
370
    20
  0
SPLINE
  5
27C
330
1F
100
AcDbEntity
  8
_U+30EC_U+30A4_U+30E4_U+30FC 1
 62
     7
420
 16777215
370
    20
100
AcDbSpline
210
0.0
220
0.0
230
1.0
 70
    11
 71
     3
 72
    20
 73
    16
 74
     0
 42
0.0000000001
 43
0.0000000001
 12
1.0
 22
0.0
 32
0.0
 13
1.0
 23
0.0
 33
0.0
 40
0.0
 40
0.0
 40
0.0
 40
0.0
 40
1.0
 40
1.0
 40
1.0
 40
2.0
 40
2.0
 40
2.0
 40
3.0
 40
3.0
 40
3.0
 40
4.0
 40
4.0
 40
4.0
 40
5.0
 40
5.0
 40
5.0
 40
5.0
 10
81.14841940228641
 20
121.6425528841879
 30
0.0
 10
81.14841940228641
 20
121.0900995253579
 30
0.0
 10
80.7007400099016
 20
120.6420756234246
 30
0.0
 10
80.14794214152307
 20
120.6420756234246
 30
0.0
 10
79.5954887826931
 20
120.6420756234246
 30
0.0
 10
79.14746488075974
 20
121.0900995253579
 30
0.0
 10
79.14746488075974
 20
121.6425528841879
 30
0.0
 10
79.14746488075974
 20
122.1950062430179
 30
0.0
 10
79.5954887826931
 20
122.6416251919487
 30
0.0
 10
80.14794214152307
 20
122.6416251919487
 30
0.0
 10
80.7007400099016
 20
122.6416251919487
 30
0.0
 10
81.14841940228641
 20
122.1950062430179
 30
0.0
 10
81.14841940228641
 20
121.6425528841879
 30
0.0
 10
81.14841940228641
 20
121.6425528841879
 30
0.0
 10
81.14841940228641
 20
121.6425528841879
 30
0.0
 10
81.14841940228641
 20
121.6425528841879
 30
0.0
  0
POLYLINE
  5
27D
330
1F
100
AcDbEntity
  8
_U+30EC_U+30A4_U+30E4_U+30FC 1
 62
     7
420
 16777215
370
    20
100
AcDb2dPolyline
 66
     1
 10
0.0
 20
0.0
 30
0.0
  0
VERTEX
  5
27E
330
27D
100
AcDbEntity
  8
_U+30EC_U+30A4_U+30E4_U+30FC 1
 62
     7
420
 16777215
370
    20
100
AcDbVertex
100
AcDb2dVertex
 10
81.14841940228641
 20
121.6425528841879
 30
0.0
  0
VERTEX
  5
2C1
330
27D
100
AcDbEntity
  8
0
100
AcDbVertex
100
AcDb2dVertex
 10
81.14841940228641
 20
121.6425528841879
 30
0.0
  0
SEQEND
  5
27F
330
27D
100
AcDbEntity
  8
_U+30EC_U+30A4_U+30E4_U+30FC 1
 62
     7
420
 16777215
370
    20
  0
SPLINE
  5
280
330
1F
100
AcDbEntity
  8
_U+30EC_U+30A4_U+30E4_U+30FC 1
 62
     7
420
 16777215
370
    20
100
AcDbSpline
210
0.0
220
0.0
230
1.0
 70
    11
 71
     3
 72
    20
 73
    16
 74
     0
 42
0.0000000001
 43
0.0000000001
 12
1.0
 22
0.0
 32
0.0
 13
1.0
 23
0.0
 33
0.0
 40
0.0
 40
0.0
 40
0.0
 40
0.0
 40
1.0
 40
1.0
 40
1.0
 40
2.0
 40
2.0
 40
2.0
 40
3.0
 40
3.0
 40
3.0
 40
4.0
 40
4.0
 40
4.0
 40
5.0
 40
5.0
 40
5.0
 40
5.0
 10
76.37358165527048
 20
177.7261074135562
 30
0.0
 10
76.37358165527048
 20
177.1733095451777
 30
0.0
 10
75.92589149696227
 20
176.7256301527929
 30
0.0
 10
75.37310439450715
 20
176.7256301527929
 30
0.0
 10
74.82064026975377
 20
176.7256301527929
 30
0.0
 10
74.37261636782043
 20
177.1733095451777
 30
0.0
 10
74.37261636782043
 20
177.7261074135562
 30
0.0
 10
74.37261636782043
 20
178.2771396704985
 30
0.0
 10
74.82064026975377
 20
178.7251743383553
 30
0.0
 10
75.37310439450715
 20
178.7251743383553
 30
0.0
 10
75.92589149696227
 20
178.7251743383553
 30
0.0
 10
76.37358165527048
 20
178.2771396704985
 30
0.0
 10
76.37358165527048
 20
177.7261074135562
 30
0.0
 10
76.37358165527048
 20
177.7261074135562
 30
0.0
 10
76.37358165527048
 20
177.7261074135562
 30
0.0
 10
76.37358165527048
 20
177.7261074135562
 30
0.0
  0
POLYLINE
  5
281
330
1F
100
AcDbEntity
  8
_U+30EC_U+30A4_U+30E4_U+30FC 1
 62
     7
420
 16777215
370
    20
100
AcDb2dPolyline
 66
     1
 10
0.0
 20
0.0
 30
0.0
  0
VERTEX
  5
282
330
281
100
AcDbEntity
  8
_U+30EC_U+30A4_U+30E4_U+30FC 1
 62
     7
420
 16777215
370
    20
100
AcDbVertex
100
AcDb2dVertex
 10
76.37358165527048
 20
177.7261074135562
 30
0.0
  0
VERTEX
  5
2C2
330
281
100
AcDbEntity
  8
0
100
AcDbVertex
100
AcDb2dVertex
 10
76.37358165527048
 20
177.7261074135562
 30
0.0
  0
SEQEND
  5
283
330
281
100
AcDbEntity
  8
_U+30EC_U+30A4_U+30E4_U+30FC 1
 62
     7
420
 16777215
370
    20
  0
SPLINE
  5
284
330
1F
100
AcDbEntity
  8
_U+30EC_U+30A4_U+30E4_U+30FC 1
 62
     7
420
 16777215
370
    20
100
AcDbSpline
210
0.0
220
0.0
230
1.0
 70
    11
 71
     3
 72
    20
 73
    16
 74
     0
 42
0.0000000001
 43
0.0000000001
 12
1.0
 22
0.0
 32
0.0
 13
1.0
 23
0.0
 33
0.0
 40
0.0
 40
0.0
 40
0.0
 40
0.0
 40
1.0
 40
1.0
 40
1.0
 40
2.0
 40
2.0
 40
2.0
 40
3.0
 40
3.0
 40
3.0
 40
4.0
 40
4.0
 40
4.0
 40
5.0
 40
5.0
 40
5.0
 40
5.0
 10
133.5221497731719
 20
177.7261074135562
 30
0.0
 10
133.5221497731719
 20
177.1733095451777
 30
0.0
 10
133.0759022485982
 20
176.7256301527929
 30
0.0
 10
132.5230936142963
 20
176.7256301527929
 30
0.0
 10
131.9706510213897
 20
176.7256301527929
 30
0.0
 10
131.5226163535329
 20
177.1733095451777
 30
0.0
 10
131.5226163535329
 20
177.7261074135562
 30
0.0
 10
131.5226163535329
 20
178.2771396704985
 30
0.0
 10
131.9706510213897
 20
178.7251743383553
 30
0.0
 10
132.5230936142963
 20
178.7251743383553
 30
0.0
 10
133.0759022485982
 20
178.7251743383553
 30
0.0
 10
133.5221497731719
 20
178.2771396704985
 30
0.0
 10
133.5221497731719
 20
177.7261074135562
 30
0.0
 10
133.5221497731719
 20
177.7261074135562
 30
0.0
 10
133.5221497731719
 20
177.7261074135562
 30
0.0
 10
133.5221497731719
 20
177.7261074135562
 30
0.0
  0
POLYLINE
  5
285
330
1F
100
AcDbEntity
  8
_U+30EC_U+30A4_U+30E4_U+30FC 1
 62
     7
420
 16777215
370
    20
100
AcDb2dPolyline
 66
     1
 10
0.0
 20
0.0
 30
0.0
  0
VERTEX
  5
286
330
285
100
AcDbEntity
  8
_U+30EC_U+30A4_U+30E4_U+30FC 1
 62
     7
420
 16777215
370
    20
100
AcDbVertex
100
AcDb2dVertex
 10
133.5221497731719
 20
177.7261074135562
 30
0.0
  0
VERTEX
  5
2C3
330
285
100
AcDbEntity
  8
0
100
AcDbVertex
100
AcDb2dVertex
 10
133.5221497731719
 20
177.7261074135562
 30
0.0
  0
SEQEND
  5
287
330
285
100
AcDbEntity
  8
_U+30EC_U+30A4_U+30E4_U+30FC 1
 62
     7
420
 16777215
370
    20
  0
SPLINE
  5
288
330
1F
100
AcDbEntity
  8
_U+30EC_U+30A4_U+30E4_U+30FC 1
 62
     7
420
 16777215
370
    20
100
AcDbSpline
210
0.0
220
0.0
230
1.0
 70
    11
 71
     3
 72
    20
 73
    16
 74
     0
 42
0.0000000001
 43
0.0000000001
 12
1.0
 22
0.0
 32
0.0
 13
1.0
 23
0.0
 33
0.0
 40
0.0
 40
0.0
 40
0.0
 40
0.0
 40
1.0
 40
1.0
 40
1.0
 40
2.0
 40
2.0
 40
2.0
 40
3.0
 40
3.0
 40
3.0
 40
4.0
 40
4.0
 40
4.0
 40
5.0
 40
5.0
 40
5.0
 40
5.0
 10
56.0186440857607
 20
194.6922552771532
 30
0.0
 10
56.0186440857607
 20
194.1398019183233
 30
0.0
 10
55.57062018382734
 20
193.6931883523542
 30
0.0
 10
55.01816682499736
 20
193.6931883523542
 30
0.0
 10
54.46571346616737
 20
193.6931883523542
 30
0.0
 10
54.01768956423403
 20
194.1398019183233
 30
0.0
 10
54.01768956423403
 20
194.6922552771532
 30
0.0
 10
54.01768956423403
 20
195.2450531455318
 30
0.0
 10
54.46571346616737
 20
195.6927325379166
 30
0.0
 10
55.01816682499736
 20
195.6927325379166
 30
0.0
 10
55.57062018382734
 20
195.6927325379166
 30
0.0
 10
56.0186440857607
 20
195.2450531455318
 30
0.0
 10
56.0186440857607
 20
194.6922552771532
 30
0.0
 10
56.0186440857607
 20
194.6922552771532
 30
0.0
 10
56.0186440857607
 20
194.6922552771532
 30
0.0
 10
56.0186440857607
 20
194.6922552771532
 30
0.0
  0
POLYLINE
  5
289
330
1F
100
AcDbEntity
  8
_U+30EC_U+30A4_U+30E4_U+30FC 1
 62
     7
420
 16777215
370
    20
100
AcDb2dPolyline
 66
     1
 10
0.0
 20
0.0
 30
0.0
  0
VERTEX
  5
28A
330
289
100
AcDbEntity
  8
_U+30EC_U+30A4_U+30E4_U+30FC 1
 62
     7
420
 16777215
370
    20
100
AcDbVertex
100
AcDb2dVertex
 10
56.0186440857607
 20
194.6922552771532
 30
0.0
  0
VERTEX
  5
2C4
330
289
100
AcDbEntity
  8
0
100
AcDbVertex
100
AcDb2dVertex
 10
56.0186440857607
 20
194.6922552771532
 30
0.0
  0
SEQEND
  5
28B
330
289
100
AcDbEntity
  8
_U+30EC_U+30A4_U+30E4_U+30FC 1
 62
     7
420
 16777215
370
    20
  0
SPLINE
  5
28C
330
1F
100
AcDbEntity
  8
_U+30EC_U+30A4_U+30E4_U+30FC 1
 62
     7
420
 16777215
370
    20
100
AcDbSpline
210
0.0
220
0.0
230
1.0
 70
    11
 71
     3
 72
    20
 73
    16
 74
     0
 42
0.0000000001
 43
0.0000000001
 12
1.0
 22
0.0
 32
0.0
 13
1.0
 23
0.0
 33
0.0
 40
0.0
 40
0.0
 40
0.0
 40
0.0
 40
1.0
 40
1.0
 40
1.0
 40
2.0
 40
2.0
 40
2.0
 40
3.0
 40
3.0
 40
3.0
 40
4.0
 40
4.0
 40
4.0
 40
5.0
 40
5.0
 40
5.0
 40
5.0
 10
172.7909199388647
 20
194.6922552771532
 30
0.0
 10
172.7909199388647
 20
194.1398019183233
 30
0.0
 10
172.342885271008
 20
193.6931883523542
 30
0.0
 10
171.7918422481423
 20
193.6931883523542
 30
0.0
 10
171.2390336138404
 20
193.6931883523542
 30
0.0
 10
170.7913865192257
 20
194.1398019183233
 30
0.0
 10
170.7913865192257
 20
194.6922552771532
 30
0.0
 10
170.7913865192257
 20
195.2450531455318
 30
0.0
 10
171.2390336138404
 20
195.6927325379166
 30
0.0
 10
171.7918422481423
 20
195.6927325379166
 30
0.0
 10
172.342885271008
 20
195.6927325379166
 30
0.0
 10
172.7909199388647
 20
195.2450531455318
 30
0.0
 10
172.7909199388647
 20
194.6922552771532
 30
0.0
 10
172.7909199388647
 20
194.6922552771532
 30
0.0
 10
172.7909199388647
 20
194.6922552771532
 30
0.0
 10
172.7909199388647
 20
194.6922552771532
 30
0.0
  0
POLYLINE
  5
28D
330
1F
100
AcDbEntity
  8
_U+30EC_U+30A4_U+30E4_U+30FC 1
 62
     7
420
 16777215
370
    20
100
AcDb2dPolyline
 66
     1
 10
0.0
 20
0.0
 30
0.0
  0
VERTEX
  5
28E
330
28D
100
AcDbEntity
  8
_U+30EC_U+30A4_U+30E4_U+30FC 1
 62
     7
420
 16777215
370
    20
100
AcDbVertex
100
AcDb2dVertex
 10
172.7909199388647
 20
194.6922552771532
 30
0.0
  0
VERTEX
  5
2C5
330
28D
100
AcDbEntity
  8
0
100
AcDbVertex
100
AcDb2dVertex
 10
172.7909199388647
 20
194.6922552771532
 30
0.0
  0
SEQEND
  5
28F
330
28D
100
AcDbEntity
  8
_U+30EC_U+30A4_U+30E4_U+30FC 1
 62
     7
420
 16777215
370
    20
  0
SPLINE
  5
290
330
1F
100
AcDbEntity
  8
_U+30EC_U+30A4_U+30E4_U+30FC 1
 62
     7
420
 16777215
370
    20
100
AcDbSpline
210
0.0
220
0.0
230
1.0
 70
    11
 71
     3
 72
    20
 73
    16
 74
     0
 42
0.0000000001
 43
0.0000000001
 12
1.0
 22
0.0
 32
0.0
 13
1.0
 23
0.0
 33
0.0
 40
0.0
 40
0.0
 40
0.0
 40
0.0
 40
1.0
 40
1.0
 40
1.0
 40
2.0
 40
2.0
 40
2.0
 40
3.0
 40
3.0
 40
3.0
 40
4.0
 40
4.0
 40
4.0
 40
5.0
 40
5.0
 40
5.0
 40
5.0
 10
158.6177109851598
 20
115.7501046299102
 30
0.0
 10
158.6177109851598
 20
115.1973121444933
 30
0.0
 10
158.169676317303
 20
114.7496273691471
 30
0.0
 10
157.6186548262841
 20
114.7496273691471
 30
0.0
 10
157.0661907015307
 20
114.7496273691471
 30
0.0
 10
156.618156033674
 20
115.1973121444933
 30
0.0
 10
156.618156033674
 20
115.7501046299102
 30
0.0
 10
156.618156033674
 20
116.3011530357376
 30
0.0
 10
157.0661907015307
 20
116.7491769376709
 30
0.0
 10
157.6186548262841
 20
116.7491769376709
 30
0.0
 10
158.169676317303
 20
116.7491769376709
 30
0.0
 10
158.6177109851598
 20
116.3011530357376
 30
0.0
 10
158.6177109851598
 20
115.7501046299102
 30
0.0
 10
158.6177109851598
 20
115.7501046299102
 30
0.0
 10
158.6177109851598
 20
115.7501046299102
 30
0.0
 10
158.6177109851598
 20
115.7501046299102
 30
0.0
  0
POLYLINE
  5
291
330
1F
100
AcDbEntity
  8
_U+30EC_U+30A4_U+30E4_U+30FC 1
 62
     7
420
 16777215
370
    20
100
AcDb2dPolyline
 66
     1
 10
0.0
 20
0.0
 30
0.0
  0
VERTEX
  5
292
330
291
100
AcDbEntity
  8
_U+30EC_U+30A4_U+30E4_U+30FC 1
 62
     7
420
 16777215
370
    20
100
AcDbVertex
100
AcDb2dVertex
 10
158.6177109851598
 20
115.7501046299102
 30
0.0
  0
VERTEX
  5
2C6
330
291
100
AcDbEntity
  8
0
100
AcDbVertex
100
AcDb2dVertex
 10
158.6177109851598
 20
115.7501046299102
 30
0.0
  0
SEQEND
  5
293
330
291
100
AcDbEntity
  8
_U+30EC_U+30A4_U+30E4_U+30FC 1
 62
     7
420
 16777215
370
    20
  0
SPLINE
  5
294
330
1F
100
AcDbEntity
  8
_U+30EC_U+30A4_U+30E4_U+30FC 1
 62
     7
420
 16777215
370
    20
100
AcDbSpline
210
0.0
220
0.0
230
1.0
 70
    11
 71
     3
 72
    20
 73
    16
 74
     0
 42
0.0000000001
 43
0.0000000001
 12
1.0
 22
0.0
 32
0.0
 13
1.0
 23
0.0
 33
0.0
 40
0.0
 40
0.0
 40
0.0
 40
0.0
 40
1.0
 40
1.0
 40
1.0
 40
2.0
 40
2.0
 40
2.0
 40
3.0
 40
3.0
 40
3.0
 40
4.0
 40
4.0
 40
4.0
 40
5.0
 40
5.0
 40
5.0
 40
5.0
 10
41.62637012288741
 20
115.7501046299102
 30
0.0
 10
41.62637012288741
 20
115.1973121444933
 30
0.0
 10
41.17870149642597
 20
114.7496273691471
 30
0.0
 10
40.62589824508577
 20
114.7496273691471
 30
0.0
 10
40.07344488625579
 20
114.7496273691471
 30
0.0
 10
39.62542098432243
 20
115.1973121444933
 30
0.0
 10
39.62542098432243
 20
115.7501046299102
 30
0.0
 10
39.62542098432243
 20
116.3011530357376
 30
0.0
 10
40.07344488625579
 20
116.7491769376709
 30
0.0
 10
40.62589824508577
 20
116.7491769376709
 30
0.0
 10
41.17870149642597
 20
116.7491769376709
 30
0.0
 10
41.62637012288741
 20
116.3011530357376
 30
0.0
 10
41.62637012288741
 20
115.7501046299102
 30
0.0
 10
41.62637012288741
 20
115.7501046299102
 30
0.0
 10
41.62637012288741
 20
115.7501046299102
 30
0.0
 10
41.62637012288741
 20
115.7501046299102
 30
0.0
  0
POLYLINE
  5
295
330
1F
100
AcDbEntity
  8
_U+30EC_U+30A4_U+30E4_U+30FC 1
 62
     7
420
 16777215
370
    20
100
AcDb2dPolyline
 66
     1
 10
0.0
 20
0.0
 30
0.0
  0
VERTEX
  5
296
330
295
100
AcDbEntity
  8
_U+30EC_U+30A4_U+30E4_U+30FC 1
 62
     7
420
 16777215
370
    20
100
AcDbVertex
100
AcDb2dVertex
 10
41.62637012288741
 20
115.7501046299102
 30
0.0
  0
VERTEX
  5
2C7
330
295
100
AcDbEntity
  8
0
100
AcDbVertex
100
AcDb2dVertex
 10
41.62637012288741
 20
115.7501046299102
 30
0.0
  0
SEQEND
  5
297
330
295
100
AcDbEntity
  8
_U+30EC_U+30A4_U+30E4_U+30FC 1
 62
     7
420
 16777215
370
    20
  0
POLYLINE
  5
298
330
1F
100
AcDbEntity
  8
_U+30EC_U+30A4_U+30E4_U+30FC 1
 62
     7
420
 16777215
370
    20
100
AcDb2dPolyline
 66
     1
 10
0.0
 20
0.0
 30
0.0
  0
VERTEX
  5
299
330
298
100
AcDbEntity
  8
_U+30EC_U+30A4_U+30E4_U+30FC 1
 62
     7
420
 16777215
370
    20
100
AcDbVertex
100
AcDb2dVertex
 10
38.74206082117251
 20
112.752903855513
 30
0.0
  0
VERTEX
  5
29A
330
298
100
AcDbEntity
  8
_U+30EC_U+30A4_U+30E4_U+30FC 1
 62
     7
420
 16777215
370
    20
100
AcDbVertex
100
AcDb2dVertex
 10
159.4954351874143
 20
112.7557245274415
 30
0.0
  0
SEQEND
  5
29B
330
298
100
AcDbEntity
  8
_U+30EC_U+30A4_U+30E4_U+30FC 1
 62
     7
420
 16777215
370
    20
  0
POLYLINE
  5
29C
330
1F
100
AcDbEntity
  8
_U+30EC_U+30A4_U+30E4_U+30FC 1
 62
     7
420
 16777215
370
    20
100
AcDb2dPolyline
 66
     1
 10
0.0
 20
0.0
 30
0.0
  0
VERTEX
  5
29D
330
29C
100
AcDbEntity
  8
_U+30EC_U+30A4_U+30E4_U+30FC 1
 62
     7
420
 16777215
370
    20
100
AcDbVertex
100
AcDb2dVertex
 10
173.6728643830887
 20
197.689445285627
 30
0.0
  0
VERTEX
  5
29E
330
29C
100
AcDbEntity
  8
_U+30EC_U+30A4_U+30E4_U+30FC 1
 62
     7
420
 16777215
370
    20
100
AcDbVertex
100
AcDb2dVertex
 10
53.50087141182959
 20
197.6785071074614
 30
0.0
  0
SEQEND
  5
29F
330
29C
100
AcDbEntity
  8
_U+30EC_U+30A4_U+30E4_U+30FC 1
 62
     7
420
 16777215
370
    20
  0
SPLINE
  5
2A0
330
1F
100
AcDbEntity
  8
_U+30EC_U+30A4_U+30E4_U+30FC 1
 62
     7
420
 16777215
370
    20
100
AcDbSpline
210
0.0
220
0.0
230
1.0
 70
     8
 71
     3
 72
     8
 73
     4
 74
     0
 42
0.0000000001
 43
0.0000000001
 12
1.0
 22
0.0
 32
0.0
 13
1.0
 23
0.0
 33
0.0
 40
0.0
 40
0.0
 40
0.0
 40
0.0
 40
1.0
 40
1.0
 40
1.0
 40
1.0
 10
52.38468200645543
 20
196.5623177020872
 30
0.0
 10
52.41078937067959
 20
197.689445285627
 30
0.0
 10
53.50087141182959
 20
197.6785071074614
 30
0.0
 10
53.50087141182959
 20
197.6785071074614
 30
0.0
  0
SPLINE
  5
2A1
330
1F
100
AcDbEntity
  8
_U+30EC_U+30A4_U+30E4_U+30FC 1
 62
     7
420
 16777215
370
    20
100
AcDbSpline
210
0.0
220
0.0
230
1.0
 70
     8
 71
     3
 72
     8
 73
     4
 74
     0
 42
0.0000000001
 43
0.0000000001
 12
1.0
 22
0.0
 32
0.0
 13
1.0
 23
0.0
 33
0.0
 40
0.0
 40
0.0
 40
0.0
 40
0.0
 40
1.0
 40
1.0
 40
1.0
 40
1.0
 10
52.41643071453668
 20
179.2472893250683
 30
0.0
 10
52.39032335031252
 20
178.1201617415285
 30
0.0
 10
51.30024130916252
 20
178.1325102556584
 30
0.0
 10
51.30024130916252
 20
178.1325102556584
 30
0.0
  0
SPLINE
  5
2A2
330
1F
100
AcDbEntity
  8
_U+30EC_U+30A4_U+30E4_U+30FC 1
 62
     7
420
 16777215
370
    20
100
AcDbSpline
210
0.0
220
0.0
230
1.0
 70
     8
 71
     3
 72
     8
 73
     4
 74
     0
 42
0.0000000001
 43
0.0000000001
 12
1.0
 22
0.0
 32
0.0
 13
1.0
 23
0.0
 33
0.0
 40
0.0
 40
0.0
 40
0.0
 40
0.0
 40
1.0
 40
1.0
 40
1.0
 40
1.0
 10
47.49131144290013
 20
177.0163208502842
 30
0.0
 10
47.51741880712428
 20
178.1434376679007
 30
0.0
 10
48.6074900823509
 20
178.1325102556584
 30
0.0
 10
48.6074900823509
 20
178.1325102556584
 30
0.0
  0
SPLINE
  5
2A3
330
1F
100
AcDbEntity
  8
_U+30EC_U+30A4_U+30E4_U+30FC 1
 62
     7
420
 16777215
370
    20
100
AcDbSpline
210
0.0
220
0.0
230
1.0
 70
     8
 71
     3
 72
     8
 73
     4
 74
     0
 42
0.0000000001
 43
0.0000000001
 12
1.0
 22
0.0
 32
0.0
 13
1.0
 23
0.0
 33
0.0
 40
0.0
 40
0.0
 40
0.0
 40
0.0
 40
1.0
 40
1.0
 40
1.0
 40
1.0
 10
42.55524322717451
 20
157.9635001831182
 30
0.0
 10
42.58133982547528
 20
159.0920381026223
 30
0.0
 10
43.67143263254867
 20
159.079678822569
 30
0.0
 10
43.67143263254867
 20
159.079678822569
 30
0.0
  0
SPLINE
  5
2A4
330
1F
100
AcDbEntity
  8
_U+30EC_U+30A4_U+30E4_U+30FC 1
 62
     7
420
 16777215
370
    20
100
AcDbSpline
210
0.0
220
0.0
230
1.0
 70
     8
 71
     3
 72
     8
 73
     4
 74
     0
 42
0.0000000001
 43
0.0000000001
 12
1.0
 22
0.0
 32
0.0
 13
1.0
 23
0.0
 33
0.0
 40
0.0
 40
0.0
 40
0.0
 40
0.0
 40
1.0
 40
1.0
 40
1.0
 40
1.0
 10
37.62446107983406
 20
138.9205518677021
 30
0.0
 10
37.65092371953014
 20
140.0490897872062
 30
0.0
 10
38.74065048520823
 20
140.0367412730762
 30
0.0
 10
38.74065048520823
 20
140.0367412730762
 30
0.0
  0
SPLINE
  5
2A5
330
1F
100
AcDbEntity
  8
_U+30EC_U+30A4_U+30E4_U+30FC 1
 62
     7
420
 16777215
370
    20
100
AcDbSpline
210
0.0
220
0.0
230
1.0
 70
     8
 71
     3
 72
     8
 73
     4
 74
     0
 42
0.0000000001
 43
0.0000000001
 12
1.0
 22
0.0
 32
0.0
 13
1.0
 23
0.0
 33
0.0
 40
0.0
 40
0.0
 40
0.0
 40
0.0
 40
1.0
 40
1.0
 40
1.0
 40
1.0
 10
47.48036249881106
 20
160.1958789938665
 30
0.0
 10
47.4542551345869
 20
159.0687406444033
 30
0.0
 10
46.3641730934369
 20
159.079678822569
 30
0.0
 10
46.3641730934369
 20
159.079678822569
 30
0.0
  0
SPLINE
  5
2A6
330
1F
100
AcDbEntity
  8
_U+30EC_U+30A4_U+30E4_U+30FC 1
 62
     7
420
 16777215
370
    20
100
AcDbSpline
210
0.0
220
0.0
230
1.0
 70
     8
 71
     3
 72
     8
 73
     4
 74
     0
 42
0.0000000001
 43
0.0000000001
 12
1.0
 22
0.0
 32
0.0
 13
1.0
 23
0.0
 33
0.0
 40
0.0
 40
0.0
 40
0.0
 40
0.0
 40
1.0
 40
1.0
 40
1.0
 40
1.0
 10
42.55382212528716
 20
141.1444686626647
 30
0.0
 10
42.52771476106268
 20
140.0173410791249
 30
0.0
 10
41.43763271991268
 20
140.0282792572906
 30
0.0
 10
41.43763271991268
 20
140.0282792572906
 30
0.0
  0
SPLINE
  5
2A7
330
1F
100
AcDbEntity
  8
_U+30EC_U+30A4_U+30E4_U+30FC 1
 62
     7
420
 16777215
370
    20
100
AcDbSpline
210
0.0
220
0.0
230
1.0
 70
     8
 71
     3
 72
     8
 73
     4
 74
     0
 42
0.0000000001
 43
0.0000000001
 12
1.0
 22
0.0
 32
0.0
 13
1.0
 23
0.0
 33
0.0
 40
0.0
 40
0.0
 40
0.0
 40
0.0
 40
1.0
 40
1.0
 40
1.0
 40
1.0
 10
38.74206082117251
 20
112.752903855513
 30
0.0
 10
37.614933237633
 20
112.7790112197371
 30
0.0
 10
37.62587141579866
 20
113.8690932608871
 30
0.0
 10
37.62587141579866
 20
113.8690932608871
 30
0.0
  0
SPLINE
  5
2A8
330
1F
100
AcDbEntity
  8
_U+30EC_U+30A4_U+30E4_U+30FC 1
 62
     7
420
 16777215
370
    20
100
AcDbSpline
210
0.0
220
0.0
230
1.0
 70
     8
 71
     3
 72
     8
 73
     4
 74
     0
 42
0.0000000001
 43
0.0000000001
 12
1.0
 22
0.0
 32
0.0
 13
1.0
 23
0.0
 33
0.0
 40
0.0
 40
0.0
 40
0.0
 40
0.0
 40
1.0
 40
1.0
 40
1.0
 40
1.0
 10
173.6728643830887
 20
197.689445285627
 30
0.0
 10
174.7999704347817
 20
197.6633486873263
 30
0.0
 10
174.7890753203096
 20
196.5732666461763
 30
0.0
 10
174.7890753203096
 20
196.5732666461763
 30
0.0
  0
SPLINE
  5
2A9
330
1F
100
AcDbEntity
  8
_U+30EC_U+30A4_U+30E4_U+30FC 1
 62
     7
420
 16777215
370
    20
100
AcDbSpline
210
0.0
220
0.0
230
1.0
 70
     8
 71
     3
 72
     8
 73
     4
 74
     0
 42
0.0000000001
 43
0.0000000001
 12
1.0
 22
0.0
 32
0.0
 13
1.0
 23
0.0
 33
0.0
 40
0.0
 40
0.0
 40
0.0
 40
0.0
 40
1.0
 40
1.0
 40
1.0
 40
1.0
 10
174.7862115846875
 20
171.5260444302158
 30
0.0
 10
174.7601365182335
 20
170.3974957447883
 30
0.0
 10
173.6700437111601
 20
170.4098550248417
 30
0.0
 10
173.6700437111601
 20
170.4098550248417
 30
0.0
  0
SPLINE
  5
2AA
330
1F
100
AcDbEntity
  8
_U+30EC_U+30A4_U+30E4_U+30FC 1
 62
     7
420
 16777215
370
    20
100
AcDbSpline
210
0.0
220
0.0
230
1.0
 70
     8
 71
     3
 72
     8
 73
     4
 74
     0
 42
0.0000000001
 43
0.0000000001
 12
1.0
 22
0.0
 32
0.0
 13
1.0
 23
0.0
 33
0.0
 40
0.0
 40
0.0
 40
0.0
 40
0.0
 40
1.0
 40
1.0
 40
1.0
 40
1.0
 10
169.8597035089335
 20
152.4746233330907
 30
0.0
 10
169.8335853787859
 20
151.34609617951
 30
0.0
 10
168.7434925717125
 20
151.3584446936399
 30
0.0
 10
168.7434925717125
 20
151.3584446936399
 30
0.0
  0
SPLINE
  5
2AB
330
1F
100
AcDbEntity
  8
_U+30EC_U+30A4_U+30E4_U+30FC 1
 62
     7
420
 16777215
370
    20
100
AcDbSpline
210
0.0
220
0.0
230
1.0
 70
     8
 71
     3
 72
     8
 73
     4
 74
     0
 42
0.0000000001
 43
0.0000000001
 12
1.0
 22
0.0
 32
0.0
 13
1.0
 23
0.0
 33
0.0
 40
0.0
 40
0.0
 40
0.0
 40
0.0
 40
1.0
 40
1.0
 40
1.0
 40
1.0
 10
165.2379356606965
 20
133.4274440097817
 30
0.0
 10
165.2114730210005
 20
132.298916856201
 30
0.0
 10
164.1217462553224
 20
132.3112653703309
 30
0.0
 10
164.1217462553224
 20
132.3112653703309
 30
0.0
  0
SPLINE
  5
2AC
330
1F
100
AcDbEntity
  8
_U+30EC_U+30A4_U+30E4_U+30FC 1
 62
     7
420
 16777215
370
    20
100
AcDbSpline
210
0.0
220
0.0
230
1.0
 70
     8
 71
     3
 72
     8
 73
     4
 74
     0
 42
0.0000000001
 43
0.0000000001
 12
1.0
 22
0.0
 32
0.0
 13
1.0
 23
0.0
 33
0.0
 40
0.0
 40
0.0
 40
0.0
 40
0.0
 40
1.0
 40
1.0
 40
1.0
 40
1.0
 10
160.6116030609417
 20
113.8719139328157
 30
0.0
 10
160.5855064626409
 20
112.7444364567656
 30
0.0
 10
159.4954351874143
 20
112.7557245274415
 30
0.0
 10
159.4954351874143
 20
112.7557245274415
 30
0.0
  0
SPLINE
  5
2AD
330
1F
100
AcDbEntity
  8
_U+30EC_U+30A4_U+30E4_U+30FC 1
 62
     7
420
 16777215
370
    20
100
AcDbSpline
210
0.0
220
0.0
230
1.0
 70
     8
 71
     3
 72
     8
 73
     4
 74
     0
 42
0.0000000001
 43
0.0000000001
 12
1.0
 22
0.0
 32
0.0
 13
1.0
 23
0.0
 33
0.0
 40
0.0
 40
0.0
 40
0.0
 40
0.0
 40
1.0
 40
1.0
 40
1.0
 40
1.0
 10
170.9744502805732
 20
170.4126756967702
 30
0.0
 10
169.8473226970333
 20
170.3865683325461
 30
0.0
 10
169.858260875199
 20
169.2964862913961
 30
0.0
 10
169.858260875199
 20
169.2964862913961
 30
0.0
  0
SPLINE
  5
2AE
330
1F
100
AcDbEntity
  8
_U+30EC_U+30A4_U+30E4_U+30FC 1
 62
     7
420
 16777215
370
    20
100
AcDbSpline
210
0.0
220
0.0
230
1.0
 70
     8
 71
     3
 72
     8
 73
     4
 74
     0
 42
0.0000000001
 43
0.0000000001
 12
1.0
 22
0.0
 32
0.0
 13
1.0
 23
0.0
 33
0.0
 40
0.0
 40
0.0
 40
0.0
 40
0.0
 40
1.0
 40
1.0
 40
1.0
 40
1.0
 10
166.3541250660707
 20
151.3626757015327
 30
0.0
 10
165.2252318710947
 20
151.3365683373086
 30
0.0
 10
165.2379356606965
 20
150.2464755302352
 30
0.0
 10
165.2379356606965
 20
150.2464755302352
 30
0.0
  0
SPLINE
  5
2AF
330
1F
100
AcDbEntity
  8
_U+30EC_U+30A4_U+30E4_U+30FC 1
 62
     7
420
 16777215
370
    20
100
AcDbSpline
210
0.0
220
0.0
230
1.0
 70
     8
 71
     3
 72
     8
 73
     4
 74
     0
 42
0.0000000001
 43
0.0000000001
 12
1.0
 22
0.0
 32
0.0
 13
1.0
 23
0.0
 33
0.0
 40
0.0
 40
0.0
 40
0.0
 40
0.0
 40
1.0
 40
1.0
 40
1.0
 40
1.0
 10
161.7291920363567
 20
132.3098442684433
 30
0.0
 10
160.600664882776
 20
132.2837476701425
 30
0.0
 10
160.6130241628293
 20
131.1936548630691
 30
0.0
 10
160.6130241628293
 20
131.1936548630691
 30
0.0
  0
POLYLINE
  5
2B0
330
1F
100
AcDbEntity
  8
_U+30EC_U+30A4_U+30E4_U+30FC 1
370
     0
100
AcDb2dPolyline
 66
     1
 10
0.0
 20
0.0
 30
0.0
  0
VERTEX
  5
2B1
330
2B0
100
AcDbEntity
  8
_U+30EC_U+30A4_U+30E4_U+30FC 1
370
     0
100
AcDbVertex
100
AcDb2dVertex
 10
37.39445250953838
 20
112.5433559226226
 30
0.0
  0
VERTEX
  5
2B2
330
2B0
100
AcDbEntity
  8
_U+30EC_U+30A4_U+30E4_U+30FC 1
370
     0
100
AcDbVertex
100
AcDb2dVertex
 10
174.9777804255142
 20
112.5433559226226
 30
0.0
  0
VERTEX
  5
2B3
330
2B0
100
AcDbEntity
  8
_U+30EC_U+30A4_U+30E4_U+30FC 1
370
     0
100
AcDbVertex
100
AcDb2dVertex
 10
174.9777804255142
 20
197.9155727405401
 30
0.0
  0
VERTEX
  5
2B4
330
2B0
100
AcDbEntity
  8
_U+30EC_U+30A4_U+30E4_U+30FC 1
370
     0
100
AcDbVertex
100
AcDb2dVertex
 10
37.39445250953838
 20
197.9155727405401
 30
0.0
  0
VERTEX
  5
2B5
330
2B0
100
AcDbEntity
  8
_U+30EC_U+30A4_U+30E4_U+30FC 1
370
     0
100
AcDbVertex
100
AcDb2dVertex
 10
37.39445250953838
 20
112.5433559226226
 30
0.0
  0
SEQEND
  5
2B6
330
2B0
100
AcDbEntity
  8
_U+30EC_U+30A4_U+30E4_U+30FC 1
370
     0
  0
SPLINE
  5
2B7
330
1F
100
AcDbEntity
  8
_U+30EC_U+30A4_U+30E4_U+30FC 1
 62
   250
420
  2234388
370
    20
100
AcDbSpline
210
0.0
220
0.0
230
1.0
 70
    11
 71
     3
 72
    17
 73
    13
 74
     0
 42
0.0000000001
 43
0.0000000001
 12
1.0
 22
0.0
 32
0.0
 13
1.0
 23
0.0
 33
0.0
 40
0.0
 40
0.0
 40
0.0
 40
0.0
 40
1.0
 40
1.0
 40
1.0
 40
2.0
 40
2.0
 40
2.0
 40
3.0
 40
3.0
 40
3.0
 40
4.0
 40
4.0
 40
4.0
 40
4.0
 10
62.14778583668346
 20
122.6626666360004
 30
0.0
 10
62.14778583668346
 20
122.1103818863395
 30
0.0
 10
61.70007058659524
 20
121.6626666362513
 30
0.0
 10
61.14778583693369
 20
121.6626666362513
 30
0.0
 10
60.5955010872715
 20
121.6626666362513
 30
0.0
 10
60.14778583718328
 20
122.1103818863395
 30
0.0
 10
60.14778583718328
 20
122.6626666360004
 30
0.0
 10
60.14778583718328
 20
123.2149513856626
 30
0.0
 10
60.5955010872715
 20
123.6626666357508
 30
0.0
 10
61.14778583693369
 20
123.6626666357508
 30
0.0
 10
61.70007058659524
 20
123.6626666357508
 30
0.0
 10
62.14778583668346
 20
123.2149513856626
 30
0.0
 10
62.14778583668346
 20
122.6626666360004
 30
0.0
  0
ENDSEC
  0
SECTION
  2
OBJECTS
  0
DICTIONARY
  5
C
330
0
100
AcDbDictionary
281
     1
  3
ACAD_GROUP
350
D
  3
ACAD_LAYOUT
350
1A
  3
ACAD_MATERIAL
350
3B
  3
ACAD_MLEADERSTYLE
350
2C9
  3
ACAD_MLINESTYLE
350
17
  3
ACAD_PLOTSETTINGS
350
19
  3
ACAD_PLOTSTYLENAME
350
E
  3
ACAD_TABLESTYLE
350
2C8
  3
ACAD_VISUALSTYLE
350
2A
  0
SUN
  5
3F
330
29
100
AcDbSun
 90
        1
290
     0
 63
     7
421
 16777215
 40
1.0
291
     1
 91
  2455826
 92
 54000000
292
     0
 70
     2
 71
   256
280
     1
  0
DICTIONARY
  5
D
102
{ACAD_REACTORS
330
C
102
}
330
C
100
AcDbDictionary
281
     1
  0
DICTIONARY
  5
1A
102
{ACAD_REACTORS
330
C
102
}
330
C
100
AcDbDictionary
281
     1
  3
Layout1
350
1E
  3
Layout2
350
26
  3
Model
350
22
  0
DICTIONARY
  5
3B
102
{ACAD_REACTORS
330
C
102
}
330
C
100
AcDbDictionary
281
     1
  3
ByBlock
350
3D
  3
ByLayer
350
3C
  3
Global
350
3E
  0
DICTIONARY
  5
2C9
102
{ACAD_REACTORS
330
C
102
}
330
C
100
AcDbDictionary
281
     1
  0
DICTIONARY
  5
17
102
{ACAD_REACTORS
330
C
102
}
330
C
100
AcDbDictionary
281
     1
  3
Standard
350
18
  0
DICTIONARY
  5
19
102
{ACAD_REACTORS
330
C
102
}
330
C
100
AcDbDictionary
281
     1
  0
ACDBDICTIONARYWDFLT
  5
E
102
{ACAD_REACTORS
330
C
102
}
330
C
100
AcDbDictionary
281
     1
  3
Normal
350
F
100
AcDbDictionaryWithDefault
340
F
  0
DICTIONARY
  5
2C8
102
{ACAD_REACTORS
330
C
102
}
330
C
100
AcDbDictionary
281
     1
  0
DICTIONARY
  5
2A
102
{ACAD_REACTORS
330
C
102
}
330
C
100
AcDbDictionary
281
     1
  3
2dWireframe
350
2F
  3
3D Hidden
350
31
  3
3dWireframe
350
30
  3
Basic
350
32
  3
Brighten
350
36
  3
ColorChange
350
3A
  3
Conceptual
350
34
  3
Dim
350
35
  3
Facepattern
350
39
  3
Flat
350
2B
  3
FlatWithEdges
350
2C
  3
Gouraud
350
2D
  3
GouraudWithEdges
350
2E
  3
Linepattern
350
38
  3
Realistic
350
33
  3
Thicken
350
37
  0
LAYOUT
  5
1E
102
{ACAD_REACTORS
330
1A
102
}
330
1A
100
AcDbPlotSettings
  1

  2
none_device
  4

  6

 40
0.0
 41
0.0
 42
0.0
 43
0.0
 44
0.0
 45
0.0
 46
0.0
 47
0.0
 48
0.0
 49
0.0
140
0.0
141
0.0
142
1.0
143
1.0
 70
   688
 72
     0
 73
     0
 74
     5
  7

 75
    16
 76
     0
 77
     2
 78
   300
147
1.0
148
0.0
149
0.0
100
AcDbLayout
  1
Layout1
 70
     1
 71
     1
 10
0.0
 20
0.0
 11
12.0
 21
9.0
 12
0.0
 22
0.0
 32
0.0
 14
1.000000000000000E+20
 24
1.000000000000000E+20
 34
1.000000000000000E+20
 15
-1.000000000000000E+20
 25
-1.000000000000000E+20
 35
-1.000000000000000E+20
146
0.0
 13
0.0
 23
0.0
 33
0.0
 16
1.0
 26
0.0
 36
0.0
 17
0.0
 27
1.0
 37
0.0
 76
     0
330
1B
  0
LAYOUT
  5
26
102
{ACAD_REACTORS
330
1A
102
}
330
1A
100
AcDbPlotSettings
  1

  2
none_device
  4

  6

 40
0.0
 41
0.0
 42
0.0
 43
0.0
 44
0.0
 45
0.0
 46
0.0
 47
0.0
 48
0.0
 49
0.0
140
0.0
141
0.0
142
1.0
143
1.0
 70
   688
 72
     0
 73
     0
 74
     5
  7

 75
    16
 76
     0
 77
     2
 78
   300
147
1.0
148
0.0
149
0.0
100
AcDbLayout
  1
Layout2
 70
     1
 71
     2
 10
0.0
 20
0.0
 11
0.0
 21
0.0
 12
0.0
 22
0.0
 32
0.0
 14
0.0
 24
0.0
 34
0.0
 15
0.0
 25
0.0
 35
0.0
146
0.0
 13
0.0
 23
0.0
 33
0.0
 16
1.0
 26
0.0
 36
0.0
 17
0.0
 27
1.0
 37
0.0
 76
     0
330
23
  0
LAYOUT
  5
22
102
{ACAD_REACTORS
330
1A
102
}
330
1A
100
AcDbPlotSettings
  1

  2
none_device
  4

  6

 40
0.0
 41
0.0
 42
0.0
 43
0.0
 44
0.0
 45
0.0
 46
0.0
 47
0.0
 48
0.0
 49
0.0
140
0.0
141
0.0
142
1.0
143
1.0
 70
  1712
 72
     0
 73
     0
 74
     0
  7

 75
     0
 76
     0
 77
     2
 78
   300
147
1.0
148
0.0
149
0.0
100
AcDbLayout
  1
Model
 70
     1
 71
     0
 10
0.0
 20
0.0
 11
12.0
 21
9.0
 12
0.0
 22
0.0
 32
0.0
 14
1.000000000000000E+20
 24
1.000000000000000E+20
 34
1.000000000000000E+20
 15
-1.000000000000000E+20
 25
-1.000000000000000E+20
 35
-1.000000000000000E+20
146
0.0
 13
0.0
 23
0.0
 33
0.0
 16
1.0
 26
0.0
 36
0.0
 17
0.0
 27
1.0
 37
0.0
 76
     0
330
1F
331
29
  0
MATERIAL
  5
3D
102
{ACAD_REACTORS
330
3B
102
}
330
3B
100
AcDbMaterial
  1
ByBlock
 72
     1
 94
      127
  0
MATERIAL
  5
3C
102
{ACAD_REACTORS
330
3B
102
}
330
3B
100
AcDbMaterial
  1
ByLayer
 72
     1
 94
      127
  0
MATERIAL
  5
3E
102
{ACAD_REACTORS
330
3B
102
}
330
3B
100
AcDbMaterial
  1
Global
 72
     1
 94
      127
  0
MLINESTYLE
  5
18
102
{ACAD_REACTORS
330
17
102
}
330
17
100
AcDbMlineStyle
  2
Standard
 70
     0
  3

 62
   256
 51
90.0
 52
90.0
 71
     2
 49
0.5
 62
   256
  6
BYLAYER
 49
-0.5
 62
   256
  6
BYLAYER
  0
ACDBPLACEHOLDER
  5
F
102
{ACAD_REACTORS
330
E
102
}
330
E
  0
VISUALSTYLE
  5
2F
102
{ACAD_REACTORS
330
2A
102
}
330
2A
100
AcDbVisualStyle
  2
2dWireframe
 70
     4
177
     2
291
     0
 71
     0
176
     1
 72
     2
176
     1
 73
     0
176
     1
 90
        0
176
     1
 40
-0.6
176
     1
 41
-30.0
176
     1
 62
     5
 63
     7
421
 16777215
176
     1
 74
     1
176
     1
 91
        4
176
     1
 64
     7
176
     1
 65
   257
176
     1
 75
     1
176
     1
175
     1
176
     1
 42
1.0
176
     1
 92
        0
176
     1
 66
   257
176
     1
 43
1.0
176
     1
 76
     1
176
     1
 77
     6
176
     1
 78
     2
176
     1
 67
     7
176
     1
 79
     5
176
     1
170
     0
176
     1
171
     0
176
     1
290
     0
176
     1
 93
        1
176
     1
 44
0.0
176
     1
173
     0
176
     1
  0
VISUALSTYLE
  5
31
102
{ACAD_REACTORS
330
2A
102
}
330
2A
100
AcDbVisualStyle
  2
3D Hidden
 70
     6
177
     2
291
     0
 71
     1
176
     1
 72
     2
176
     1
 73
     2
176
     1
 90
        0
176
     1
 40
-0.6
176
     1
 41
-30.0
176
     1
 62
     5
 63
     7
421
 16777215
176
     1
 74
     2
176
     1
 91
        2
176
     1
 64
     7
176
     1
 65
   257
176
     1
 75
     2
176
     1
175
     1
176
     1
 42
40.0
176
     1
 92
        0
176
     1
 66
   257
176
     1
 43
1.0
176
     1
 76
     1
176
     1
 77
     6
176
     1
 78
     2
176
     1
 67
     7
176
     1
 79
     3
176
     1
170
     0
176
     1
171
     0
176
     1
290
     0
176
     1
 93
        1
176
     1
 44
0.0
176
     1
173
     0
176
     1
  0
VISUALSTYLE
  5
30
102
{ACAD_REACTORS
330
2A
102
}
330
2A
100
AcDbVisualStyle
  2
3dWireframe
 70
     5
177
     2
291
     0
 71
     0
176
     1
 72
     2
176
     1
 73
     0
176
     1
 90
        0
176
     1
 40
-0.6
176
     1
 41
-30.0
176
     1
 62
     5
 63
     7
421
 16777215
176
     1
 74
     1
176
     1
 91
        4
176
     1
 64
     7
176
     1
 65
   257
176
     1
 75
     1
176
     1
175
     1
176
     1
 42
1.0
176
     1
 92
        0
176
     1
 66
   257
176
     1
 43
1.0
176
     1
 76
     1
176
     1
 77
     6
176
     1
 78
     2
176
     1
 67
     7
176
     1
 79
     5
176
     1
170
     0
176
     1
171
     0
176
     1
290
     0
176
     1
 93
        1
176
     1
 44
0.0
176
     1
173
     0
176
     1
  0
VISUALSTYLE
  5
32
102
{ACAD_REACTORS
330
2A
102
}
330
2A
100
AcDbVisualStyle
  2
Basic
 70
     7
177
     2
291
     1
 71
     1
176
     1
 72
     0
176
     1
 73
     1
176
     1
 90
        0
176
     1
 40
-0.6
176
     1
 41
-30.0
176
     1
 62
     5
 63
     7
421
 16777215
176
     1
 74
     0
176
     1
 91
        4
176
     1
 64
     7
176
     1
 65
   257
176
     1
 75
     1
176
     1
175
     1
176
     1
 42
1.0
176
     1
 92
        8
176
     1
 66
     7
176
     1
 43
1.0
176
     1
 76
     1
176
     1
 77
     6
176
     1
 78
     2
176
     1
 67
     7
176
     1
 79
     5
176
     1
170
     0
176
     1
171
     0
176
     1
290
     0
176
     1
 93
        1
176
     1
 44
0.0
176
     1
173
     0
176
     1
  0
VISUALSTYLE
  5
36
102
{ACAD_REACTORS
330
2A
102
}
330
2A
100
AcDbVisualStyle
  2
Brighten
 70
    12
177
     2
291
     1
 71
     2
176
     1
 72
     2
176
     1
 73
     0
176
     1
 90
        0
176
     1
 40
-0.6
176
     1
 41
-30.0
176
     1
 62
     5
 63
     7
421
 16777215
176
     1
 74
     1
176
     1
 91
        4
176
     1
 64
     7
176
     1
 65
   257
176
     1
 75
     1
176
     1
175
     1
176
     1
 42
1.0
176
     1
 92
        8
176
     1
 66
     7
176
     1
 43
1.0
176
     1
 76
     1
176
     1
 77
     6
176
     1
 78
     2
176
     1
 67
     7
176
     1
 79
     5
176
     1
170
     0
176
     1
171
     0
176
     1
290
     0
176
     1
 93
        1
176
     1
 44
50.0
176
     1
173
     0
176
     1
  0
VISUALSTYLE
  5
3A
102
{ACAD_REACTORS
330
2A
102
}
330
2A
100
AcDbVisualStyle
  2
ColorChange
 70
    16
177
     2
291
     1
 71
     2
176
     1
 72
     2
176
     1
 73
     3
176
     1
 90
        0
176
     1
 40
-0.6
176
     1
 41
-30.0
176
     1
 62
     5
 63
     8
421
  8421504
176
     1
 74
     1
176
     1
 91
        4
176
     1
 64
     7
176
     1
 65
   257
176
     1
 75
     1
176
     1
175
     1
176
     1
 42
1.0
176
     1
 92
        8
176
     1
 66
     8
424
  8421504
176
     1
 43
1.0
176
     1
 76
     1
176
     1
 77
     6
176
     1
 78
     2
176
     1
 67
     7
176
     1
 79
     5
176
     1
170
     0
176
     1
171
     0
176
     1
290
     0
176
     1
 93
        1
176
     1
 44
0.0
176
     1
173
     0
176
     1
  0
VISUALSTYLE
  5
34
102
{ACAD_REACTORS
330
2A
102
}
330
2A
100
AcDbVisualStyle
  2
Conceptual
 70
     9
177
     2
291
     0
 71
     3
176
     1
 72
     2
176
     1
 73
     0
176
     1
 90
        0
176
     1
 40
-0.6
176
     1
 41
-30.0
176
     1
 62
     5
 63
     7
421
 16777215
176
     1
 74
     2
176
     1
 91
        2
176
     1
 64
     7
176
     1
 65
   257
176
     1
 75
     1
176
     1
175
     1
176
     1
 42
40.0
176
     1
 92
        8
176
     1
 66
     7
176
     1
 43
1.0
176
     1
 76
     1
176
     1
 77
     6
176
     1
 78
     2
176
     1
 67
     7
176
     1
 79
     3
176
     1
170
     0
176
     1
171
     0
176
     1
290
     0
176
     1
 93
        1
176
     1
 44
0.0
176
     1
173
     0
176
     1
  0
VISUALSTYLE
  5
35
102
{ACAD_REACTORS
330
2A
102
}
330
2A
100
AcDbVisualStyle
  2
Dim
 70
    11
177
     2
291
     1
 71
     2
176
     1
 72
     2
176
     1
 73
     0
176
     1
 90
        0
176
     1
 40
-0.6
176
     1
 41
-30.0
176
     1
 62
     5
 63
     7
421
 16777215
176
     1
 74
     1
176
     1
 91
        4
176
     1
 64
     7
176
     1
 65
   257
176
     1
 75
     1
176
     1
175
     1
176
     1
 42
1.0
176
     1
 92
        8
176
     1
 66
     7
176
     1
 43
1.0
176
     1
 76
     1
176
     1
 77
     6
176
     1
 78
     2
176
     1
 67
     7
176
     1
 79
     5
176
     1
170
     0
176
     1
171
     0
176
     1
290
     0
176
     1
 93
        1
176
     1
 44
-50.0
176
     1
173
     0
176
     1
  0
VISUALSTYLE
  5
39
102
{ACAD_REACTORS
330
2A
102
}
330
2A
100
AcDbVisualStyle
  2
Facepattern
 70
    15
177
     2
291
     1
 71
     2
176
     1
 72
     2
176
     1
 73
     0
176
     1
 90
        0
176
     1
 40
-0.6
176
     1
 41
-30.0
176
     1
 62
     5
 63
     7
421
 16777215
176
     1
 74
     1
176
     1
 91
        4
176
     1
 64
     7
176
     1
 65
   257
176
     1
 75
     1
176
     1
175
     1
176
     1
 42
1.0
176
     1
 92
        8
176
     1
 66
     7
176
     1
 43
1.0
176
     1
 76
     1
176
     1
 77
     6
176
     1
 78
     2
176
     1
 67
     7
176
     1
 79
     5
176
     1
170
     0
176
     1
171
     0
176
     1
290
     0
176
     1
 93
        1
176
     1
 44
0.0
176
     1
173
     0
176
     1
  0
VISUALSTYLE
  5
2B
102
{ACAD_REACTORS
330
2A
102
}
330
2A
100
AcDbVisualStyle
  2
Flat
 70
     0
177
     2
291
     1
 71
     2
176
     1
 72
     1
176
     1
 73
     1
176
     1
 90
        2
176
     1
 40
-0.6
176
     1
 41
30.0
176
     1
 62
     5
 63
     7
421
 16777215
176
     1
 74
     0
176
     1
 91
        4
176
     1
 64
     7
176
     1
 65
   257
176
     1
 75
     1
176
     1
175
     1
176
     1
 42
1.0
176
     1
 92
        8
176
     1
 66
     7
176
     1
 43
1.0
176
     1
 76
     1
176
     1
 77
     6
176
     1
 78
     2
176
     1
 67
     7
176
     1
 79
     5
176
     1
170
     0
176
     1
171
     0
176
     1
290
     0
176
     1
 93
       13
176
     1
 44
0.0
176
     1
173
     0
176
     1
  0
VISUALSTYLE
  5
2C
102
{ACAD_REACTORS
330
2A
102
}
330
2A
100
AcDbVisualStyle
  2
FlatWithEdges
 70
     1
177
     2
291
     1
 71
     2
176
     1
 72
     1
176
     1
 73
     1
176
     1
 90
        2
176
     1
 40
-0.6
176
     1
 41
30.0
176
     1
 62
     5
 63
     7
421
 16777215
176
     1
 74
     1
176
     1
 91
        4
176
     1
 64
     7
176
     1
 65
   257
176
     1
 75
     1
176
     1
175
     1
176
     1
 42
1.0
176
     1
 92
        0
176
     1
 66
   257
176
     1
 43
1.0
176
     1
 76
     1
176
     1
 77
     6
176
     1
 78
     2
176
     1
 67
     7
176
     1
 79
     5
176
     1
170
     0
176
     1
171
     0
176
     1
290
     0
176
     1
 93
       13
176
     1
 44
0.0
176
     1
173
     0
176
     1
  0
VISUALSTYLE
  5
2D
102
{ACAD_REACTORS
330
2A
102
}
330
2A
100
AcDbVisualStyle
  2
Gouraud
 70
     2
177
     2
291
     1
 71
     2
176
     1
 72
     2
176
     1
 73
     1
176
     1
 90
        2
176
     1
 40
-0.6
176
     1
 41
30.0
176
     1
 62
     5
 63
     7
421
 16777215
176
     1
 74
     0
176
     1
 91
        4
176
     1
 64
     7
176
     1
 65
   257
176
     1
 75
     1
176
     1
175
     1
176
     1
 42
1.0
176
     1
 92
        0
176
     1
 66
     7
176
     1
 43
1.0
176
     1
 76
     1
176
     1
 77
     6
176
     1
 78
     2
176
     1
 67
     7
176
     1
 79
     5
176
     1
170
     0
176
     1
171
     0
176
     1
290
     0
176
     1
 93
       13
176
     1
 44
0.0
176
     1
173
     0
176
     1
  0
VISUALSTYLE
  5
2E
102
{ACAD_REACTORS
330
2A
102
}
330
2A
100
AcDbVisualStyle
  2
GouraudWithEdges
 70
     3
177
     2
291
     1
 71
     2
176
     1
 72
     2
176
     1
 73
     1
176
     1
 90
        2
176
     1
 40
-0.6
176
     1
 41
30.0
176
     1
 62
     5
 63
     7
421
 16777215
176
     1
 74
     1
176
     1
 91
        4
176
     1
 64
     7
176
     1
 65
   257
176
     1
 75
     1
176
     1
175
     1
176
     1
 42
1.0
176
     1
 92
        0
176
     1
 66
   257
176
     1
 43
1.0
176
     1
 76
     1
176
     1
 77
     6
176
     1
 78
     2
176
     1
 67
     7
176
     1
 79
     5
176
     1
170
     0
176
     1
171
     0
176
     1
290
     0
176
     1
 93
       13
176
     1
 44
0.0
176
     1
173
     0
176
     1
  0
VISUALSTYLE
  5
38
102
{ACAD_REACTORS
330
2A
102
}
330
2A
100
AcDbVisualStyle
  2
Linepattern
 70
    14
177
     2
291
     1
 71
     2
176
     1
 72
     2
176
     1
 73
     0
176
     1
 90
        0
176
     1
 40
-0.6
176
     1
 41
-30.0
176
     1
 62
     5
 63
     7
421
 16777215
176
     1
 74
     1
176
     1
 91
        4
176
     1
 64
     7
176
     1
 65
   257
176
     1
 75
     7
176
     1
175
     7
176
     1
 42
1.0
176
     1
 92
        8
176
     1
 66
     7
176
     1
 43
1.0
176
     1
 76
     1
176
     1
 77
     6
176
     1
 78
     2
176
     1
 67
     7
176
     1
 79
     5
176
     1
170
     0
176
     1
171
     0
176
     1
290
     0
176
     1
 93
        1
176
     1
 44
0.0
176
     1
173
     0
176
     1
  0
VISUALSTYLE
  5
33
102
{ACAD_REACTORS
330
2A
102
}
330
2A
100
AcDbVisualStyle
  2
Realistic
 70
     8
177
     2
291
     0
 71
     2
176
     1
 72
     2
176
     1
 73
     0
176
     1
 90
        0
176
     1
 40
-0.6
176
     1
 41
-30.0
176
     1
 62
     5
 63
     7
421
 16777215
176
     1
 74
     1
176
     1
 91
        0
176
     1
 64
     7
176
     1
 65
   257
176
     1
 75
     1
176
     1
175
     1
176
     1
 42
1.0
176
     1
 92
        8
176
     1
 66
     8
424
  7895160
176
     1
 43
1.0
176
     1
 76
     1
176
     1
 77
     6
176
     1
 78
     2
176
     1
 67
     7
176
     1
 79
     5
176
     1
170
     0
176
     1
171
     0
176
     1
290
     0
176
     1
 93
       13
176
     1
 44
0.0
176
     1
173
     0
176
     1
  0
VISUALSTYLE
  5
37
102
{ACAD_REACTORS
330
2A
102
}
330
2A
100
AcDbVisualStyle
  2
Thicken
 70
    13
177
     2
291
     1
 71
     2
176
     1
 72
     2
176
     1
 73
     0
176
     1
 90
        0
176
     1
 40
-0.6
176
     1
 41
-30.0
176
     1
 62
     5
 63
     7
421
 16777215
176
     1
 74
     1
176
     1
 91
        4
176
     1
 64
     7
176
     1
 65
   257
176
     1
 75
     1
176
     1
175
     1
176
     1
 42
1.0
176
     1
 92
       12
176
     1
 66
     7
176
     1
 43
1.0
176
     1
 76
     1
176
     1
 77
     6
176
     1
 78
     2
176
     1
 67
     7
176
     1
 79
     5
176
     1
170
     0
176
     1
171
     0
176
     1
290
     0
176
     1
 93
        1
176
     1
 44
0.0
176
     1
173
     0
176
     1
  0
ENDSEC
  0
EOF
