G04 #@! TF.GenerationSoftware,KiCad,Pcbnew,(5.0.2)-1*
G04 #@! TF.CreationDate,2019-03-11T22:50:35+09:00*
G04 #@! TF.ProjectId,sockets-split,736f636b-6574-4732-9d73-706c69742e6b,1*
G04 #@! TF.SameCoordinates,Original*
G04 #@! TF.FileFunction,Legend,Top*
G04 #@! TF.FilePolarity,Positive*
%FSLAX46Y46*%
G04 Gerber Fmt 4.6, Leading zero omitted, Abs format (unit mm)*
G04 Created by KiCad (PCBNEW (5.0.2)-1) date 2019/03/11 22:50:35*
%MOMM*%
%LPD*%
G01*
G04 APERTURE LIST*
%ADD10C,0.300000*%
%ADD11C,0.200000*%
%ADD12C,0.100000*%
%ADD13C,0.150000*%
%ADD14C,0.400000*%
%ADD15C,0.500000*%
%ADD16C,1.000000*%
%ADD17C,3.500000*%
%ADD18C,3.000000*%
%ADD19C,0.800000*%
%ADD20C,0.010000*%
%ADD21C,0.125000*%
G04 APERTURE END LIST*
D10*
X149164499Y-46030594D02*
X148307357Y-46031272D01*
X148735928Y-46030933D02*
X148734742Y-44530934D01*
X148592054Y-44745332D01*
X148449310Y-44888302D01*
X148306510Y-44959844D01*
X149734855Y-44673000D02*
X149806227Y-44601515D01*
X149949028Y-44529974D01*
X150306170Y-44529691D01*
X150449084Y-44601007D01*
X150520569Y-44672379D01*
X150592110Y-44815180D01*
X150592223Y-44958037D01*
X150520964Y-45172379D01*
X149664499Y-46030199D01*
X150593070Y-46029465D01*
X151449535Y-45171645D02*
X151306622Y-45100329D01*
X151235137Y-45028957D01*
X151163595Y-44886156D01*
X151163539Y-44814728D01*
X151234854Y-44671814D01*
X151306226Y-44600329D01*
X151449027Y-44528788D01*
X151734741Y-44528562D01*
X151877655Y-44599878D01*
X151949140Y-44671250D01*
X152020681Y-44814050D01*
X152020738Y-44885479D01*
X151949422Y-45028392D01*
X151878050Y-45099877D01*
X151735249Y-45171419D01*
X151449535Y-45171645D01*
X151306735Y-45243186D01*
X151235363Y-45314671D01*
X151164047Y-45457585D01*
X151164273Y-45743299D01*
X151235814Y-45886100D01*
X151307299Y-45957472D01*
X151450213Y-46028787D01*
X151735927Y-46028562D01*
X151878728Y-45957020D01*
X151950100Y-45885535D01*
X152021415Y-45742621D01*
X152021189Y-45456907D01*
X151949648Y-45314107D01*
X151878163Y-45242735D01*
X151735249Y-45171419D01*
X152664385Y-45884970D02*
X152735870Y-45956342D01*
X152664498Y-46027827D01*
X152593013Y-45956455D01*
X152664385Y-45884970D01*
X152664498Y-46027827D01*
X154091883Y-44526699D02*
X153377598Y-44527263D01*
X153306734Y-45241605D01*
X153378106Y-45170120D01*
X153520907Y-45098579D01*
X153878049Y-45098296D01*
X154020963Y-45169612D01*
X154092448Y-45240984D01*
X154163989Y-45383785D01*
X154164272Y-45740927D01*
X154092956Y-45883841D01*
X154021584Y-45955326D01*
X153878783Y-46026868D01*
X153521641Y-46027150D01*
X153378727Y-45955834D01*
X153307242Y-45884462D01*
X154734853Y-44669048D02*
X154806225Y-44597563D01*
X154949026Y-44526021D01*
X155306169Y-44525739D01*
X155449082Y-44597054D01*
X155520567Y-44668426D01*
X155592109Y-44811227D01*
X155592222Y-44954084D01*
X155520963Y-45168426D01*
X154664498Y-46026246D01*
X155593069Y-46025512D01*
X156877992Y-45024496D02*
X156878783Y-46024496D01*
X156520398Y-44453350D02*
X156164102Y-45525061D01*
X157092673Y-45524327D01*
X158807353Y-46022971D02*
X158806563Y-45022972D01*
X158806676Y-45165829D02*
X158878048Y-45094344D01*
X159020849Y-45022802D01*
X159235134Y-45022633D01*
X159378048Y-45093949D01*
X159449589Y-45236749D01*
X159450210Y-46022463D01*
X159449589Y-45236749D02*
X159520905Y-45093836D01*
X159663705Y-45022294D01*
X159877991Y-45022125D01*
X160020905Y-45093440D01*
X160092446Y-45236241D01*
X160093067Y-46021955D01*
X160807353Y-46021390D02*
X160806562Y-45021391D01*
X160806675Y-45164248D02*
X160878047Y-45092763D01*
X161020848Y-45021221D01*
X161235134Y-45021052D01*
X161378047Y-45092368D01*
X161449589Y-45235168D01*
X161450210Y-46020882D01*
X161449589Y-45235168D02*
X161520904Y-45092255D01*
X161663705Y-45020713D01*
X161877990Y-45020544D01*
X162020904Y-45091859D01*
X162092446Y-45234660D01*
X162093067Y-46020374D01*
X90975050Y-47498023D02*
X219499050Y-47396423D01*
X91033600Y-121564400D02*
X90974586Y-46911603D01*
X219557600Y-121462800D02*
X219498586Y-46810003D01*
X219499050Y-47396423D02*
X218373010Y-47983734D01*
X219499050Y-47396423D02*
X218372083Y-46810893D01*
X90975050Y-47498023D02*
X92102017Y-48083553D01*
X90975050Y-47498023D02*
X92101090Y-46910712D01*
X78883828Y-83783902D02*
X78883828Y-84783902D01*
X77383828Y-84141045D01*
X78883828Y-85998188D02*
X78883828Y-85712474D01*
X78812400Y-85569617D01*
X78740971Y-85498188D01*
X78526685Y-85355331D01*
X78240971Y-85283902D01*
X77669542Y-85283902D01*
X77526685Y-85355331D01*
X77455257Y-85426759D01*
X77383828Y-85569617D01*
X77383828Y-85855331D01*
X77455257Y-85998188D01*
X77526685Y-86069617D01*
X77669542Y-86141045D01*
X78026685Y-86141045D01*
X78169542Y-86069617D01*
X78240971Y-85998188D01*
X78312400Y-85855331D01*
X78312400Y-85569617D01*
X78240971Y-85426759D01*
X78169542Y-85355331D01*
X78026685Y-85283902D01*
X77526685Y-86783902D02*
X77455257Y-86855331D01*
X77383828Y-86783902D01*
X77455257Y-86712474D01*
X77526685Y-86783902D01*
X77383828Y-86783902D01*
X78883828Y-87355331D02*
X78883828Y-88283902D01*
X78312400Y-87783902D01*
X78312400Y-87998188D01*
X78240971Y-88141045D01*
X78169542Y-88212474D01*
X78026685Y-88283902D01*
X77669542Y-88283902D01*
X77526685Y-88212474D01*
X77455257Y-88141045D01*
X77383828Y-87998188D01*
X77383828Y-87569617D01*
X77455257Y-87426759D01*
X77526685Y-87355331D01*
X78883828Y-89212474D02*
X78883828Y-89355331D01*
X78812400Y-89498188D01*
X78740971Y-89569617D01*
X78598114Y-89641045D01*
X78312400Y-89712474D01*
X77955257Y-89712474D01*
X77669542Y-89641045D01*
X77526685Y-89569617D01*
X77455257Y-89498188D01*
X77383828Y-89355331D01*
X77383828Y-89212474D01*
X77455257Y-89069617D01*
X77526685Y-88998188D01*
X77669542Y-88926759D01*
X77955257Y-88855331D01*
X78312400Y-88855331D01*
X78598114Y-88926759D01*
X78740971Y-88998188D01*
X78812400Y-89069617D01*
X78883828Y-89212474D01*
X78383828Y-90998188D02*
X77383828Y-90998188D01*
X78955257Y-90641045D02*
X77883828Y-90283902D01*
X77883828Y-91212474D01*
X77383828Y-92926759D02*
X78383828Y-92926759D01*
X78240971Y-92926759D02*
X78312400Y-92998188D01*
X78383828Y-93141045D01*
X78383828Y-93355331D01*
X78312400Y-93498188D01*
X78169542Y-93569617D01*
X77383828Y-93569617D01*
X78169542Y-93569617D02*
X78312400Y-93641045D01*
X78383828Y-93783902D01*
X78383828Y-93998188D01*
X78312400Y-94141045D01*
X78169542Y-94212474D01*
X77383828Y-94212474D01*
X77383828Y-94926759D02*
X78383828Y-94926759D01*
X78240971Y-94926759D02*
X78312400Y-94998188D01*
X78383828Y-95141045D01*
X78383828Y-95355331D01*
X78312400Y-95498188D01*
X78169542Y-95569617D01*
X77383828Y-95569617D01*
X78169542Y-95569617D02*
X78312400Y-95641045D01*
X78383828Y-95783902D01*
X78383828Y-95998188D01*
X78312400Y-96141045D01*
X78169542Y-96212474D01*
X77383828Y-96212474D01*
X80162400Y-51917600D02*
X80162400Y-128221635D01*
X106629200Y-51917600D02*
X79575979Y-51917600D01*
X106629200Y-128221635D02*
X79575979Y-128221635D01*
X80162400Y-128221635D02*
X79575979Y-127095131D01*
X80162400Y-128221635D02*
X80748821Y-127095131D01*
X80162400Y-51917600D02*
X79575979Y-53044104D01*
X80162400Y-51917600D02*
X80748821Y-53044104D01*
X188335600Y-88918171D02*
X188335600Y-87918171D01*
X188335600Y-88061028D02*
X188407028Y-87989600D01*
X188549885Y-87918171D01*
X188764171Y-87918171D01*
X188907028Y-87989600D01*
X188978457Y-88132457D01*
X188978457Y-88918171D01*
X188978457Y-88132457D02*
X189049885Y-87989600D01*
X189192742Y-87918171D01*
X189407028Y-87918171D01*
X189549885Y-87989600D01*
X189621314Y-88132457D01*
X189621314Y-88918171D01*
X190192742Y-88918171D02*
X190978457Y-87918171D01*
X190192742Y-87918171D02*
X190978457Y-88918171D01*
X188413485Y-91254971D02*
X188413485Y-90254971D01*
X188413485Y-90540685D02*
X188484914Y-90397828D01*
X188556342Y-90326400D01*
X188699200Y-90254971D01*
X188842057Y-90254971D01*
X189913485Y-91183542D02*
X189770628Y-91254971D01*
X189484914Y-91254971D01*
X189342057Y-91183542D01*
X189270628Y-91040685D01*
X189270628Y-90469257D01*
X189342057Y-90326400D01*
X189484914Y-90254971D01*
X189770628Y-90254971D01*
X189913485Y-90326400D01*
X189984914Y-90469257D01*
X189984914Y-90612114D01*
X189270628Y-90754971D01*
X190484914Y-90254971D02*
X190842057Y-91254971D01*
X191199200Y-90254971D01*
X192556342Y-91254971D02*
X191699200Y-91254971D01*
X192127771Y-91254971D02*
X192127771Y-89754971D01*
X191984914Y-89969257D01*
X191842057Y-90112114D01*
X191699200Y-90183542D01*
X137139238Y-90923809D02*
X137615428Y-91161904D01*
X138567809Y-91161904D01*
X139044000Y-90923809D01*
X139282095Y-90447619D01*
X139282095Y-90209523D01*
X139044000Y-89733333D01*
X138567809Y-89495238D01*
X137853523Y-89495238D01*
X137377333Y-89257142D01*
X137139238Y-88780952D01*
X137139238Y-88542857D01*
X137377333Y-88066666D01*
X137853523Y-87828571D01*
X138567809Y-87828571D01*
X139044000Y-88066666D01*
X142139238Y-91161904D02*
X141663047Y-90923809D01*
X141424952Y-90685714D01*
X141186857Y-90209523D01*
X141186857Y-88780952D01*
X141424952Y-88304761D01*
X141663047Y-88066666D01*
X142139238Y-87828571D01*
X142853523Y-87828571D01*
X143329714Y-88066666D01*
X143567809Y-88304761D01*
X143805904Y-88780952D01*
X143805904Y-90209523D01*
X143567809Y-90685714D01*
X143329714Y-90923809D01*
X142853523Y-91161904D01*
X142139238Y-91161904D01*
X148091619Y-90923809D02*
X147615428Y-91161904D01*
X146663047Y-91161904D01*
X146186857Y-90923809D01*
X145948761Y-90685714D01*
X145710666Y-90209523D01*
X145710666Y-88780952D01*
X145948761Y-88304761D01*
X146186857Y-88066666D01*
X146663047Y-87828571D01*
X147615428Y-87828571D01*
X148091619Y-88066666D01*
X150234476Y-91161904D02*
X150234476Y-86161904D01*
X150710666Y-89257142D02*
X152139238Y-91161904D01*
X152139238Y-87828571D02*
X150234476Y-89733333D01*
X156186857Y-90923809D02*
X155710666Y-91161904D01*
X154758285Y-91161904D01*
X154282095Y-90923809D01*
X154044000Y-90447619D01*
X154044000Y-88542857D01*
X154282095Y-88066666D01*
X154758285Y-87828571D01*
X155710666Y-87828571D01*
X156186857Y-88066666D01*
X156424952Y-88542857D01*
X156424952Y-89019047D01*
X154044000Y-89495238D01*
X157853523Y-87828571D02*
X159758285Y-87828571D01*
X158567809Y-86161904D02*
X158567809Y-90447619D01*
X158805904Y-90923809D01*
X159282095Y-91161904D01*
X159758285Y-91161904D01*
X161186857Y-90923809D02*
X161663047Y-91161904D01*
X162615428Y-91161904D01*
X163091619Y-90923809D01*
X163329714Y-90447619D01*
X163329714Y-90209523D01*
X163091619Y-89733333D01*
X162615428Y-89495238D01*
X161901142Y-89495238D01*
X161424952Y-89257142D01*
X161186857Y-88780952D01*
X161186857Y-88542857D01*
X161424952Y-88066666D01*
X161901142Y-87828571D01*
X162615428Y-87828571D01*
X163091619Y-88066666D01*
X165472571Y-89257142D02*
X169282095Y-89257142D01*
X171424952Y-90923809D02*
X171901142Y-91161904D01*
X172853523Y-91161904D01*
X173329714Y-90923809D01*
X173567809Y-90447619D01*
X173567809Y-90209523D01*
X173329714Y-89733333D01*
X172853523Y-89495238D01*
X172139238Y-89495238D01*
X171663047Y-89257142D01*
X171424952Y-88780952D01*
X171424952Y-88542857D01*
X171663047Y-88066666D01*
X172139238Y-87828571D01*
X172853523Y-87828571D01*
X173329714Y-88066666D01*
X175710666Y-87828571D02*
X175710666Y-92828571D01*
X175710666Y-88066666D02*
X176186857Y-87828571D01*
X177139238Y-87828571D01*
X177615428Y-88066666D01*
X177853523Y-88304761D01*
X178091619Y-88780952D01*
X178091619Y-90209523D01*
X177853523Y-90685714D01*
X177615428Y-90923809D01*
X177139238Y-91161904D01*
X176186857Y-91161904D01*
X175710666Y-90923809D01*
X180948761Y-91161904D02*
X180472571Y-90923809D01*
X180234476Y-90447619D01*
X180234476Y-86161904D01*
X182853523Y-91161904D02*
X182853523Y-87828571D01*
X182853523Y-86161904D02*
X182615428Y-86400000D01*
X182853523Y-86638095D01*
X183091619Y-86400000D01*
X182853523Y-86161904D01*
X182853523Y-86638095D01*
X184520190Y-87828571D02*
X186424952Y-87828571D01*
X185234476Y-86161904D02*
X185234476Y-90447619D01*
X185472571Y-90923809D01*
X185948761Y-91161904D01*
X186424952Y-91161904D01*
D11*
X210058000Y-108458000D02*
G75*
G02X209397600Y-109118400I-660400J0D01*
G01*
X214884000Y-89408000D02*
G75*
G02X214223600Y-90068400I-660400J0D01*
G01*
X219557600Y-70358000D02*
G75*
G02X218897200Y-71018400I-660400J0D01*
G01*
X218897200Y-51968400D02*
G75*
G02X219557600Y-52628800I0J-660400D01*
G01*
X105359200Y-52628800D02*
G75*
G02X106019600Y-51968400I660400J0D01*
G01*
X100584000Y-71628000D02*
G75*
G02X101244400Y-70967600I660400J0D01*
G01*
X91033600Y-109778800D02*
G75*
G02X91694000Y-109118400I660400J0D01*
G01*
X95808800Y-90678000D02*
G75*
G02X96469200Y-90017600I660400J0D01*
G01*
X205333600Y-127508000D02*
G75*
G02X204673200Y-128168400I-660400J0D01*
G01*
X91694000Y-128117600D02*
G75*
G02X91033600Y-127457200I0J660400D01*
G01*
X91033600Y-109728000D02*
X91033600Y-127406400D01*
X95808800Y-109067600D02*
X91694000Y-109118400D01*
X95808800Y-90627200D02*
X95808800Y-109067600D01*
X100584000Y-90017600D02*
X96418400Y-90017600D01*
X100584000Y-71628000D02*
X100584000Y-90017600D01*
X105359200Y-70967600D02*
X101244400Y-70967600D01*
X105359200Y-52628800D02*
X105359200Y-70967600D01*
X218897200Y-51968400D02*
X106019600Y-51968400D01*
X219557600Y-70408800D02*
X219557600Y-52628800D01*
X214884000Y-71018400D02*
X218897200Y-71018400D01*
X214884000Y-89408000D02*
X214884000Y-71018400D01*
X210058000Y-90068400D02*
X214274400Y-90068400D01*
X210058000Y-108458000D02*
X210058000Y-90068400D01*
X205384400Y-109118400D02*
X209397600Y-109118400D01*
X205333600Y-127508000D02*
X205384400Y-109118400D01*
X91694000Y-128117600D02*
X204673200Y-128168400D01*
D12*
X111296533Y-110622590D02*
X111463200Y-111122590D01*
X111629866Y-110622590D01*
X112082247Y-111074971D02*
X112058438Y-111098780D01*
X111987009Y-111122590D01*
X111939390Y-111122590D01*
X111867961Y-111098780D01*
X111820342Y-111051161D01*
X111796533Y-111003542D01*
X111772723Y-110908304D01*
X111772723Y-110836876D01*
X111796533Y-110741638D01*
X111820342Y-110694019D01*
X111867961Y-110646400D01*
X111939390Y-110622590D01*
X111987009Y-110622590D01*
X112058438Y-110646400D01*
X112082247Y-110670209D01*
X112582247Y-111074971D02*
X112558438Y-111098780D01*
X112487009Y-111122590D01*
X112439390Y-111122590D01*
X112367961Y-111098780D01*
X112320342Y-111051161D01*
X112296533Y-111003542D01*
X112272723Y-110908304D01*
X112272723Y-110836876D01*
X112296533Y-110741638D01*
X112320342Y-110694019D01*
X112367961Y-110646400D01*
X112439390Y-110622590D01*
X112487009Y-110622590D01*
X112558438Y-110646400D01*
X112582247Y-110670209D01*
X109101771Y-111122590D02*
X108863676Y-111122590D01*
X108863676Y-110622590D01*
X109268438Y-110860685D02*
X109435104Y-110860685D01*
X109506533Y-111122590D02*
X109268438Y-111122590D01*
X109268438Y-110622590D01*
X109506533Y-110622590D01*
X109720819Y-111122590D02*
X109720819Y-110622590D01*
X109839866Y-110622590D01*
X109911295Y-110646400D01*
X109958914Y-110694019D01*
X109982723Y-110741638D01*
X110006533Y-110836876D01*
X110006533Y-110908304D01*
X109982723Y-111003542D01*
X109958914Y-111051161D01*
X109911295Y-111098780D01*
X109839866Y-111122590D01*
X109720819Y-111122590D01*
X106502247Y-110646400D02*
X106454628Y-110622590D01*
X106383200Y-110622590D01*
X106311771Y-110646400D01*
X106264152Y-110694019D01*
X106240342Y-110741638D01*
X106216533Y-110836876D01*
X106216533Y-110908304D01*
X106240342Y-111003542D01*
X106264152Y-111051161D01*
X106311771Y-111098780D01*
X106383200Y-111122590D01*
X106430819Y-111122590D01*
X106502247Y-111098780D01*
X106526057Y-111074971D01*
X106526057Y-110908304D01*
X106430819Y-110908304D01*
X106740342Y-111122590D02*
X106740342Y-110622590D01*
X107026057Y-111122590D01*
X107026057Y-110622590D01*
X107264152Y-111122590D02*
X107264152Y-110622590D01*
X107383200Y-110622590D01*
X107454628Y-110646400D01*
X107502247Y-110694019D01*
X107526057Y-110741638D01*
X107549866Y-110836876D01*
X107549866Y-110908304D01*
X107526057Y-111003542D01*
X107502247Y-111051161D01*
X107454628Y-111098780D01*
X107383200Y-111122590D01*
X107264152Y-111122590D01*
D13*
G04 #@! TO.C,*
X214452200Y-75369420D02*
X212674200Y-75369420D01*
X214452200Y-73083420D02*
X214452200Y-75369420D01*
X212674200Y-73083420D02*
X214452200Y-73083420D01*
X212674200Y-75369420D02*
X212674200Y-73083420D01*
D14*
G04 #@! TO.C,SW18*
X177146500Y-95668000D02*
X177146500Y-96368000D01*
X177146500Y-93168000D02*
X178546500Y-93168000D01*
D15*
X187246500Y-98268000D02*
X184546500Y-98268000D01*
D16*
X184562818Y-98046529D02*
G75*
G03X182346500Y-96168000I-2151318J-291471D01*
G01*
D13*
X176946500Y-93318000D02*
X176946500Y-92968000D01*
X187446501Y-94868000D02*
G75*
G03X185346500Y-92967999I-2000001J-100000D01*
G01*
X184162818Y-98446529D02*
G75*
G03X181946500Y-96568000I-2151318J-291471D01*
G01*
X176946500Y-92968000D02*
X185346500Y-92967999D01*
X181946500Y-96568000D02*
X176946500Y-96568000D01*
X187446500Y-98468000D02*
X184166500Y-98468000D01*
X187446500Y-94868000D02*
X187446500Y-95868000D01*
X187446500Y-98468000D02*
X187446500Y-98108000D01*
X187246500Y-98108000D02*
X187446500Y-98108000D01*
X187216500Y-95868000D02*
X187216500Y-98108000D01*
X187446500Y-95868000D02*
X187246500Y-95868000D01*
X177146500Y-93318000D02*
X176946500Y-93318000D01*
X177166500Y-95568000D02*
X177166500Y-93318000D01*
X176946500Y-95568000D02*
X177146500Y-95568000D01*
X176946500Y-96568000D02*
X176946500Y-95568000D01*
D17*
X178946500Y-94768000D02*
X185646500Y-94768000D01*
D16*
X177646500Y-93568000D02*
X177646500Y-96068000D01*
D15*
X177246500Y-96268000D02*
X178646500Y-96268000D01*
D18*
X185716500Y-94468000D02*
X185716500Y-96708000D01*
D19*
X186846500Y-97968000D02*
X186846500Y-96168000D01*
D10*
X187346499Y-95768000D02*
X187346500Y-94868001D01*
D14*
G04 #@! TO.C,SW25*
X191434000Y-114718000D02*
X191434000Y-115418000D01*
X191434000Y-112218000D02*
X192834000Y-112218000D01*
D15*
X201534000Y-117318000D02*
X198834000Y-117318000D01*
D16*
X198850318Y-117096529D02*
G75*
G03X196634000Y-115218000I-2151318J-291471D01*
G01*
D13*
X191234000Y-112368000D02*
X191234000Y-112018000D01*
X201734001Y-113918000D02*
G75*
G03X199634000Y-112017999I-2000001J-100000D01*
G01*
X198450318Y-117496529D02*
G75*
G03X196234000Y-115618000I-2151318J-291471D01*
G01*
X191234000Y-112018000D02*
X199634000Y-112017999D01*
X196234000Y-115618000D02*
X191234000Y-115618000D01*
X201734000Y-117518000D02*
X198454000Y-117518000D01*
X201734000Y-113918000D02*
X201734000Y-114918000D01*
X201734000Y-117518000D02*
X201734000Y-117158000D01*
X201534000Y-117158000D02*
X201734000Y-117158000D01*
X201504000Y-114918000D02*
X201504000Y-117158000D01*
X201734000Y-114918000D02*
X201534000Y-114918000D01*
X191434000Y-112368000D02*
X191234000Y-112368000D01*
X191454000Y-114618000D02*
X191454000Y-112368000D01*
X191234000Y-114618000D02*
X191434000Y-114618000D01*
X191234000Y-115618000D02*
X191234000Y-114618000D01*
D17*
X193234000Y-113818000D02*
X199934000Y-113818000D01*
D16*
X191934000Y-112618000D02*
X191934000Y-115118000D01*
D15*
X191534000Y-115318000D02*
X192934000Y-115318000D01*
D18*
X200004000Y-113518000D02*
X200004000Y-115758000D01*
D19*
X201134000Y-117018000D02*
X201134000Y-115218000D01*
D10*
X201633999Y-114818000D02*
X201634000Y-113918001D01*
D13*
G04 #@! TO.C,D1*
X117254000Y-67298000D02*
X117254000Y-65798000D01*
X111854000Y-67298000D02*
X117254000Y-67298000D01*
X111854000Y-65798000D02*
X111854000Y-67298000D01*
X117254000Y-65798000D02*
X111854000Y-65798000D01*
X114054000Y-66048000D02*
X114054000Y-67048000D01*
X115054000Y-67048000D02*
X114154000Y-66548000D01*
X115054000Y-66048000D02*
X115054000Y-67048000D01*
X114154000Y-66548000D02*
X115054000Y-66048000D01*
G04 #@! TO.C,D2*
X133204000Y-66548000D02*
X134104000Y-66048000D01*
X134104000Y-66048000D02*
X134104000Y-67048000D01*
X134104000Y-67048000D02*
X133204000Y-66548000D01*
X133104000Y-66048000D02*
X133104000Y-67048000D01*
X136304000Y-65798000D02*
X130904000Y-65798000D01*
X130904000Y-65798000D02*
X130904000Y-67298000D01*
X130904000Y-67298000D02*
X136304000Y-67298000D01*
X136304000Y-67298000D02*
X136304000Y-65798000D01*
G04 #@! TO.C,D3*
X152558800Y-66497200D02*
X153458800Y-65997200D01*
X153458800Y-65997200D02*
X153458800Y-66997200D01*
X153458800Y-66997200D02*
X152558800Y-66497200D01*
X152458800Y-65997200D02*
X152458800Y-66997200D01*
X155658800Y-65747200D02*
X150258800Y-65747200D01*
X150258800Y-65747200D02*
X150258800Y-67247200D01*
X150258800Y-67247200D02*
X155658800Y-67247200D01*
X155658800Y-67247200D02*
X155658800Y-65747200D01*
G04 #@! TO.C,D4*
X174404000Y-67298000D02*
X174404000Y-65798000D01*
X169004000Y-67298000D02*
X174404000Y-67298000D01*
X169004000Y-65798000D02*
X169004000Y-67298000D01*
X174404000Y-65798000D02*
X169004000Y-65798000D01*
X171204000Y-66048000D02*
X171204000Y-67048000D01*
X172204000Y-67048000D02*
X171304000Y-66548000D01*
X172204000Y-66048000D02*
X172204000Y-67048000D01*
X171304000Y-66548000D02*
X172204000Y-66048000D01*
G04 #@! TO.C,D5*
X193911200Y-65672400D02*
X193911200Y-64172400D01*
X188511200Y-65672400D02*
X193911200Y-65672400D01*
X188511200Y-64172400D02*
X188511200Y-65672400D01*
X193911200Y-64172400D02*
X188511200Y-64172400D01*
X190711200Y-64422400D02*
X190711200Y-65422400D01*
X191711200Y-65422400D02*
X190811200Y-64922400D01*
X191711200Y-64422400D02*
X191711200Y-65422400D01*
X190811200Y-64922400D02*
X191711200Y-64422400D01*
G04 #@! TO.C,D6*
X190760400Y-66903600D02*
X191660400Y-66403600D01*
X191660400Y-66403600D02*
X191660400Y-67403600D01*
X191660400Y-67403600D02*
X190760400Y-66903600D01*
X190660400Y-66403600D02*
X190660400Y-67403600D01*
X193860400Y-66153600D02*
X188460400Y-66153600D01*
X188460400Y-66153600D02*
X188460400Y-67653600D01*
X188460400Y-67653600D02*
X193860400Y-67653600D01*
X193860400Y-67653600D02*
X193860400Y-66153600D01*
G04 #@! TO.C,D7*
X112174000Y-86348000D02*
X112174000Y-84848000D01*
X106774000Y-86348000D02*
X112174000Y-86348000D01*
X106774000Y-84848000D02*
X106774000Y-86348000D01*
X112174000Y-84848000D02*
X106774000Y-84848000D01*
X108974000Y-85098000D02*
X108974000Y-86098000D01*
X109974000Y-86098000D02*
X109074000Y-85598000D01*
X109974000Y-85098000D02*
X109974000Y-86098000D01*
X109074000Y-85598000D02*
X109974000Y-85098000D01*
G04 #@! TO.C,D8*
X128124000Y-85598000D02*
X129024000Y-85098000D01*
X129024000Y-85098000D02*
X129024000Y-86098000D01*
X129024000Y-86098000D02*
X128124000Y-85598000D01*
X128024000Y-85098000D02*
X128024000Y-86098000D01*
X131224000Y-84848000D02*
X125824000Y-84848000D01*
X125824000Y-84848000D02*
X125824000Y-86348000D01*
X125824000Y-86348000D02*
X131224000Y-86348000D01*
X131224000Y-86348000D02*
X131224000Y-84848000D01*
G04 #@! TO.C,D9*
X147174000Y-85598000D02*
X148074000Y-85098000D01*
X148074000Y-85098000D02*
X148074000Y-86098000D01*
X148074000Y-86098000D02*
X147174000Y-85598000D01*
X147074000Y-85098000D02*
X147074000Y-86098000D01*
X150274000Y-84848000D02*
X144874000Y-84848000D01*
X144874000Y-84848000D02*
X144874000Y-86348000D01*
X144874000Y-86348000D02*
X150274000Y-86348000D01*
X150274000Y-86348000D02*
X150274000Y-84848000D01*
G04 #@! TO.C,D10*
X169324000Y-86348000D02*
X169324000Y-84848000D01*
X163924000Y-86348000D02*
X169324000Y-86348000D01*
X163924000Y-84848000D02*
X163924000Y-86348000D01*
X169324000Y-84848000D02*
X163924000Y-84848000D01*
X166124000Y-85098000D02*
X166124000Y-86098000D01*
X167124000Y-86098000D02*
X166224000Y-85598000D01*
X167124000Y-85098000D02*
X167124000Y-86098000D01*
X166224000Y-85598000D02*
X167124000Y-85098000D01*
G04 #@! TO.C,D11*
X188374000Y-86348000D02*
X188374000Y-84848000D01*
X182974000Y-86348000D02*
X188374000Y-86348000D01*
X182974000Y-84848000D02*
X182974000Y-86348000D01*
X188374000Y-84848000D02*
X182974000Y-84848000D01*
X185174000Y-85098000D02*
X185174000Y-86098000D01*
X186174000Y-86098000D02*
X185274000Y-85598000D01*
X186174000Y-85098000D02*
X186174000Y-86098000D01*
X185274000Y-85598000D02*
X186174000Y-85098000D01*
G04 #@! TO.C,D12*
X204324000Y-85598000D02*
X205224000Y-85098000D01*
X205224000Y-85098000D02*
X205224000Y-86098000D01*
X205224000Y-86098000D02*
X204324000Y-85598000D01*
X204224000Y-85098000D02*
X204224000Y-86098000D01*
X207424000Y-84848000D02*
X202024000Y-84848000D01*
X202024000Y-84848000D02*
X202024000Y-86348000D01*
X202024000Y-86348000D02*
X207424000Y-86348000D01*
X207424000Y-86348000D02*
X207424000Y-84848000D01*
G04 #@! TO.C,D13*
X100387200Y-109778800D02*
X101287200Y-109278800D01*
X101287200Y-109278800D02*
X101287200Y-110278800D01*
X101287200Y-110278800D02*
X100387200Y-109778800D01*
X100287200Y-109278800D02*
X100287200Y-110278800D01*
X103487200Y-109028800D02*
X98087200Y-109028800D01*
X98087200Y-109028800D02*
X98087200Y-110528800D01*
X98087200Y-110528800D02*
X103487200Y-110528800D01*
X103487200Y-110528800D02*
X103487200Y-109028800D01*
G04 #@! TO.C,D14*
X122080000Y-110528800D02*
X122080000Y-109028800D01*
X116680000Y-110528800D02*
X122080000Y-110528800D01*
X116680000Y-109028800D02*
X116680000Y-110528800D01*
X122080000Y-109028800D02*
X116680000Y-109028800D01*
X118880000Y-109278800D02*
X118880000Y-110278800D01*
X119880000Y-110278800D02*
X118980000Y-109778800D01*
X119880000Y-109278800D02*
X119880000Y-110278800D01*
X118980000Y-109778800D02*
X119880000Y-109278800D01*
G04 #@! TO.C,D15*
X143364000Y-104648000D02*
X144264000Y-104148000D01*
X144264000Y-104148000D02*
X144264000Y-105148000D01*
X144264000Y-105148000D02*
X143364000Y-104648000D01*
X143264000Y-104148000D02*
X143264000Y-105148000D01*
X146464000Y-103898000D02*
X141064000Y-103898000D01*
X141064000Y-103898000D02*
X141064000Y-105398000D01*
X141064000Y-105398000D02*
X146464000Y-105398000D01*
X146464000Y-105398000D02*
X146464000Y-103898000D01*
G04 #@! TO.C,D16*
X165514000Y-105398000D02*
X165514000Y-103898000D01*
X160114000Y-105398000D02*
X165514000Y-105398000D01*
X160114000Y-103898000D02*
X160114000Y-105398000D01*
X165514000Y-103898000D02*
X160114000Y-103898000D01*
X162314000Y-104148000D02*
X162314000Y-105148000D01*
X163314000Y-105148000D02*
X162414000Y-104648000D01*
X163314000Y-104148000D02*
X163314000Y-105148000D01*
X162414000Y-104648000D02*
X163314000Y-104148000D01*
G04 #@! TO.C,D17*
X181464000Y-104648000D02*
X182364000Y-104148000D01*
X182364000Y-104148000D02*
X182364000Y-105148000D01*
X182364000Y-105148000D02*
X181464000Y-104648000D01*
X181364000Y-104148000D02*
X181364000Y-105148000D01*
X184564000Y-103898000D02*
X179164000Y-103898000D01*
X179164000Y-103898000D02*
X179164000Y-105398000D01*
X179164000Y-105398000D02*
X184564000Y-105398000D01*
X184564000Y-105398000D02*
X184564000Y-103898000D01*
G04 #@! TO.C,D18*
X203614000Y-105398000D02*
X203614000Y-103898000D01*
X198214000Y-105398000D02*
X203614000Y-105398000D01*
X198214000Y-103898000D02*
X198214000Y-105398000D01*
X203614000Y-103898000D02*
X198214000Y-103898000D01*
X200414000Y-104148000D02*
X200414000Y-105148000D01*
X201414000Y-105148000D02*
X200514000Y-104648000D01*
X201414000Y-104148000D02*
X201414000Y-105148000D01*
X200514000Y-104648000D02*
X201414000Y-104148000D01*
G04 #@! TO.C,D19*
X100184000Y-123698000D02*
X101084000Y-123198000D01*
X101084000Y-123198000D02*
X101084000Y-124198000D01*
X101084000Y-124198000D02*
X100184000Y-123698000D01*
X100084000Y-123198000D02*
X100084000Y-124198000D01*
X103284000Y-122948000D02*
X97884000Y-122948000D01*
X97884000Y-122948000D02*
X97884000Y-124448000D01*
X97884000Y-124448000D02*
X103284000Y-124448000D01*
X103284000Y-124448000D02*
X103284000Y-122948000D01*
G04 #@! TO.C,D20*
X122334000Y-124448000D02*
X122334000Y-122948000D01*
X116934000Y-124448000D02*
X122334000Y-124448000D01*
X116934000Y-122948000D02*
X116934000Y-124448000D01*
X122334000Y-122948000D02*
X116934000Y-122948000D01*
X119134000Y-123198000D02*
X119134000Y-124198000D01*
X120134000Y-124198000D02*
X119234000Y-123698000D01*
X120134000Y-123198000D02*
X120134000Y-124198000D01*
X119234000Y-123698000D02*
X120134000Y-123198000D01*
G04 #@! TO.C,D21*
X138284000Y-123698000D02*
X139184000Y-123198000D01*
X139184000Y-123198000D02*
X139184000Y-124198000D01*
X139184000Y-124198000D02*
X138284000Y-123698000D01*
X138184000Y-123198000D02*
X138184000Y-124198000D01*
X141384000Y-122948000D02*
X135984000Y-122948000D01*
X135984000Y-122948000D02*
X135984000Y-124448000D01*
X135984000Y-124448000D02*
X141384000Y-124448000D01*
X141384000Y-124448000D02*
X141384000Y-122948000D01*
G04 #@! TO.C,D22*
X160434000Y-124448000D02*
X160434000Y-122948000D01*
X155034000Y-124448000D02*
X160434000Y-124448000D01*
X155034000Y-122948000D02*
X155034000Y-124448000D01*
X160434000Y-122948000D02*
X155034000Y-122948000D01*
X157234000Y-123198000D02*
X157234000Y-124198000D01*
X158234000Y-124198000D02*
X157334000Y-123698000D01*
X158234000Y-123198000D02*
X158234000Y-124198000D01*
X157334000Y-123698000D02*
X158234000Y-123198000D01*
G04 #@! TO.C,D23*
X176384000Y-123698000D02*
X177284000Y-123198000D01*
X177284000Y-123198000D02*
X177284000Y-124198000D01*
X177284000Y-124198000D02*
X176384000Y-123698000D01*
X176284000Y-123198000D02*
X176284000Y-124198000D01*
X179484000Y-122948000D02*
X174084000Y-122948000D01*
X174084000Y-122948000D02*
X174084000Y-124448000D01*
X174084000Y-124448000D02*
X179484000Y-124448000D01*
X179484000Y-124448000D02*
X179484000Y-122948000D01*
G04 #@! TO.C,D24*
X198534000Y-124448000D02*
X198534000Y-122948000D01*
X193134000Y-124448000D02*
X198534000Y-124448000D01*
X193134000Y-122948000D02*
X193134000Y-124448000D01*
X198534000Y-122948000D02*
X193134000Y-122948000D01*
X195334000Y-123198000D02*
X195334000Y-124198000D01*
X196334000Y-124198000D02*
X195434000Y-123698000D01*
X196334000Y-123198000D02*
X196334000Y-124198000D01*
X195434000Y-123698000D02*
X196334000Y-123198000D01*
G04 #@! TO.C,J2*
X214634000Y-66364201D02*
X214634000Y-72364201D01*
X214634000Y-72364201D02*
X202634000Y-72364201D01*
X202634000Y-72364201D02*
X202634000Y-66364201D01*
X202634000Y-66364201D02*
X214634000Y-66364201D01*
G04 #@! TO.C,P1*
X200339200Y-66259200D02*
X198339200Y-66259200D01*
X200339200Y-68259200D02*
X200339200Y-66259200D01*
X198339200Y-68259200D02*
X200339200Y-68259200D01*
X198339200Y-66259200D02*
X198339200Y-68259200D01*
G04 #@! TO.C,P2*
X214696800Y-64532000D02*
X214696800Y-66532000D01*
X214696800Y-66532000D02*
X216696800Y-66532000D01*
X216696800Y-66532000D02*
X216696800Y-64532000D01*
X216696800Y-64532000D02*
X214696800Y-64532000D01*
G04 #@! TO.C,R1*
X195348860Y-71663560D02*
X198351140Y-71663560D01*
X195348860Y-69662040D02*
X195348860Y-71663560D01*
X198351140Y-69662040D02*
X195348860Y-69662040D01*
X198351140Y-71663560D02*
X198351140Y-69662040D01*
G04 #@! TO.C,R2*
X191188340Y-71663560D02*
X191188340Y-69662040D01*
X191188340Y-69662040D02*
X188186060Y-69662040D01*
X188186060Y-69662040D02*
X188186060Y-71663560D01*
X188186060Y-71663560D02*
X191188340Y-71663560D01*
G04 #@! TO.C,SW1*
X112393471Y-119715648D02*
X107893471Y-119715648D01*
X107893471Y-119715648D02*
X107893471Y-126215648D01*
X107893471Y-126215648D02*
X112393471Y-126215648D01*
X112393471Y-126215648D02*
X112393471Y-119715648D01*
D14*
G04 #@! TO.C,SW2*
X110471500Y-57568000D02*
X110471500Y-58268000D01*
X110471500Y-55068000D02*
X111871500Y-55068000D01*
D15*
X120571500Y-60168000D02*
X117871500Y-60168000D01*
D16*
X117887818Y-59946529D02*
G75*
G03X115671500Y-58068000I-2151318J-291471D01*
G01*
D13*
X110271500Y-55218000D02*
X110271500Y-54868000D01*
X120771501Y-56768000D02*
G75*
G03X118671500Y-54867999I-2000001J-100000D01*
G01*
X117487818Y-60346529D02*
G75*
G03X115271500Y-58468000I-2151318J-291471D01*
G01*
X110271500Y-54868000D02*
X118671500Y-54867999D01*
X115271500Y-58468000D02*
X110271500Y-58468000D01*
X120771500Y-60368000D02*
X117491500Y-60368000D01*
X120771500Y-56768000D02*
X120771500Y-57768000D01*
X120771500Y-60368000D02*
X120771500Y-60008000D01*
X120571500Y-60008000D02*
X120771500Y-60008000D01*
X120541500Y-57768000D02*
X120541500Y-60008000D01*
X120771500Y-57768000D02*
X120571500Y-57768000D01*
X110471500Y-55218000D02*
X110271500Y-55218000D01*
X110491500Y-57468000D02*
X110491500Y-55218000D01*
X110271500Y-57468000D02*
X110471500Y-57468000D01*
X110271500Y-58468000D02*
X110271500Y-57468000D01*
D17*
X112271500Y-56668000D02*
X118971500Y-56668000D01*
D16*
X110971500Y-55468000D02*
X110971500Y-57968000D01*
D15*
X110571500Y-58168000D02*
X111971500Y-58168000D01*
D18*
X119041500Y-56368000D02*
X119041500Y-58608000D01*
D19*
X120171500Y-59868000D02*
X120171500Y-58068000D01*
D10*
X120671499Y-57668000D02*
X120671500Y-56768001D01*
G04 #@! TO.C,SW3*
X139721499Y-57668000D02*
X139721500Y-56768001D01*
D19*
X139221500Y-59868000D02*
X139221500Y-58068000D01*
D18*
X138091500Y-56368000D02*
X138091500Y-58608000D01*
D15*
X129621500Y-58168000D02*
X131021500Y-58168000D01*
D16*
X130021500Y-55468000D02*
X130021500Y-57968000D01*
D17*
X131321500Y-56668000D02*
X138021500Y-56668000D01*
D13*
X129321500Y-58468000D02*
X129321500Y-57468000D01*
X129321500Y-57468000D02*
X129521500Y-57468000D01*
X129541500Y-57468000D02*
X129541500Y-55218000D01*
X129521500Y-55218000D02*
X129321500Y-55218000D01*
X139821500Y-57768000D02*
X139621500Y-57768000D01*
X139591500Y-57768000D02*
X139591500Y-60008000D01*
X139621500Y-60008000D02*
X139821500Y-60008000D01*
X139821500Y-60368000D02*
X139821500Y-60008000D01*
X139821500Y-56768000D02*
X139821500Y-57768000D01*
X139821500Y-60368000D02*
X136541500Y-60368000D01*
X134321500Y-58468000D02*
X129321500Y-58468000D01*
X129321500Y-54868000D02*
X137721500Y-54867999D01*
X136537818Y-60346529D02*
G75*
G03X134321500Y-58468000I-2151318J-291471D01*
G01*
X139821501Y-56768000D02*
G75*
G03X137721500Y-54867999I-2000001J-100000D01*
G01*
X129321500Y-55218000D02*
X129321500Y-54868000D01*
D16*
X136937818Y-59946529D02*
G75*
G03X134721500Y-58068000I-2151318J-291471D01*
G01*
D15*
X139621500Y-60168000D02*
X136921500Y-60168000D01*
D14*
X129521500Y-55068000D02*
X130921500Y-55068000D01*
X129521500Y-57568000D02*
X129521500Y-58268000D01*
G04 #@! TO.C,SW4*
X148571500Y-57568000D02*
X148571500Y-58268000D01*
X148571500Y-55068000D02*
X149971500Y-55068000D01*
D15*
X158671500Y-60168000D02*
X155971500Y-60168000D01*
D16*
X155987818Y-59946529D02*
G75*
G03X153771500Y-58068000I-2151318J-291471D01*
G01*
D13*
X148371500Y-55218000D02*
X148371500Y-54868000D01*
X158871501Y-56768000D02*
G75*
G03X156771500Y-54867999I-2000001J-100000D01*
G01*
X155587818Y-60346529D02*
G75*
G03X153371500Y-58468000I-2151318J-291471D01*
G01*
X148371500Y-54868000D02*
X156771500Y-54867999D01*
X153371500Y-58468000D02*
X148371500Y-58468000D01*
X158871500Y-60368000D02*
X155591500Y-60368000D01*
X158871500Y-56768000D02*
X158871500Y-57768000D01*
X158871500Y-60368000D02*
X158871500Y-60008000D01*
X158671500Y-60008000D02*
X158871500Y-60008000D01*
X158641500Y-57768000D02*
X158641500Y-60008000D01*
X158871500Y-57768000D02*
X158671500Y-57768000D01*
X148571500Y-55218000D02*
X148371500Y-55218000D01*
X148591500Y-57468000D02*
X148591500Y-55218000D01*
X148371500Y-57468000D02*
X148571500Y-57468000D01*
X148371500Y-58468000D02*
X148371500Y-57468000D01*
D17*
X150371500Y-56668000D02*
X157071500Y-56668000D01*
D16*
X149071500Y-55468000D02*
X149071500Y-57968000D01*
D15*
X148671500Y-58168000D02*
X150071500Y-58168000D01*
D18*
X157141500Y-56368000D02*
X157141500Y-58608000D01*
D19*
X158271500Y-59868000D02*
X158271500Y-58068000D01*
D10*
X158771499Y-57668000D02*
X158771500Y-56768001D01*
G04 #@! TO.C,SW5*
X177821499Y-57668000D02*
X177821500Y-56768001D01*
D19*
X177321500Y-59868000D02*
X177321500Y-58068000D01*
D18*
X176191500Y-56368000D02*
X176191500Y-58608000D01*
D15*
X167721500Y-58168000D02*
X169121500Y-58168000D01*
D16*
X168121500Y-55468000D02*
X168121500Y-57968000D01*
D17*
X169421500Y-56668000D02*
X176121500Y-56668000D01*
D13*
X167421500Y-58468000D02*
X167421500Y-57468000D01*
X167421500Y-57468000D02*
X167621500Y-57468000D01*
X167641500Y-57468000D02*
X167641500Y-55218000D01*
X167621500Y-55218000D02*
X167421500Y-55218000D01*
X177921500Y-57768000D02*
X177721500Y-57768000D01*
X177691500Y-57768000D02*
X177691500Y-60008000D01*
X177721500Y-60008000D02*
X177921500Y-60008000D01*
X177921500Y-60368000D02*
X177921500Y-60008000D01*
X177921500Y-56768000D02*
X177921500Y-57768000D01*
X177921500Y-60368000D02*
X174641500Y-60368000D01*
X172421500Y-58468000D02*
X167421500Y-58468000D01*
X167421500Y-54868000D02*
X175821500Y-54867999D01*
X174637818Y-60346529D02*
G75*
G03X172421500Y-58468000I-2151318J-291471D01*
G01*
X177921501Y-56768000D02*
G75*
G03X175821500Y-54867999I-2000001J-100000D01*
G01*
X167421500Y-55218000D02*
X167421500Y-54868000D01*
D16*
X175037818Y-59946529D02*
G75*
G03X172821500Y-58068000I-2151318J-291471D01*
G01*
D15*
X177721500Y-60168000D02*
X175021500Y-60168000D01*
D14*
X167621500Y-55068000D02*
X169021500Y-55068000D01*
X167621500Y-57568000D02*
X167621500Y-58268000D01*
D10*
G04 #@! TO.C,SW6*
X196871499Y-57668000D02*
X196871500Y-56768001D01*
D19*
X196371500Y-59868000D02*
X196371500Y-58068000D01*
D18*
X195241500Y-56368000D02*
X195241500Y-58608000D01*
D15*
X186771500Y-58168000D02*
X188171500Y-58168000D01*
D16*
X187171500Y-55468000D02*
X187171500Y-57968000D01*
D17*
X188471500Y-56668000D02*
X195171500Y-56668000D01*
D13*
X186471500Y-58468000D02*
X186471500Y-57468000D01*
X186471500Y-57468000D02*
X186671500Y-57468000D01*
X186691500Y-57468000D02*
X186691500Y-55218000D01*
X186671500Y-55218000D02*
X186471500Y-55218000D01*
X196971500Y-57768000D02*
X196771500Y-57768000D01*
X196741500Y-57768000D02*
X196741500Y-60008000D01*
X196771500Y-60008000D02*
X196971500Y-60008000D01*
X196971500Y-60368000D02*
X196971500Y-60008000D01*
X196971500Y-56768000D02*
X196971500Y-57768000D01*
X196971500Y-60368000D02*
X193691500Y-60368000D01*
X191471500Y-58468000D02*
X186471500Y-58468000D01*
X186471500Y-54868000D02*
X194871500Y-54867999D01*
X193687818Y-60346529D02*
G75*
G03X191471500Y-58468000I-2151318J-291471D01*
G01*
X196971501Y-56768000D02*
G75*
G03X194871500Y-54867999I-2000001J-100000D01*
G01*
X186471500Y-55218000D02*
X186471500Y-54868000D01*
D16*
X194087818Y-59946529D02*
G75*
G03X191871500Y-58068000I-2151318J-291471D01*
G01*
D15*
X196771500Y-60168000D02*
X194071500Y-60168000D01*
D14*
X186671500Y-55068000D02*
X188071500Y-55068000D01*
X186671500Y-57568000D02*
X186671500Y-58268000D01*
D10*
G04 #@! TO.C,SW7*
X215813499Y-57668000D02*
X215813500Y-56768001D01*
D19*
X215313500Y-59868000D02*
X215313500Y-58068000D01*
D18*
X214183500Y-56368000D02*
X214183500Y-58608000D01*
D15*
X205713500Y-58168000D02*
X207113500Y-58168000D01*
D16*
X206113500Y-55468000D02*
X206113500Y-57968000D01*
D17*
X207413500Y-56668000D02*
X214113500Y-56668000D01*
D13*
X205413500Y-58468000D02*
X205413500Y-57468000D01*
X205413500Y-57468000D02*
X205613500Y-57468000D01*
X205633500Y-57468000D02*
X205633500Y-55218000D01*
X205613500Y-55218000D02*
X205413500Y-55218000D01*
X215913500Y-57768000D02*
X215713500Y-57768000D01*
X215683500Y-57768000D02*
X215683500Y-60008000D01*
X215713500Y-60008000D02*
X215913500Y-60008000D01*
X215913500Y-60368000D02*
X215913500Y-60008000D01*
X215913500Y-56768000D02*
X215913500Y-57768000D01*
X215913500Y-60368000D02*
X212633500Y-60368000D01*
X210413500Y-58468000D02*
X205413500Y-58468000D01*
X205413500Y-54868000D02*
X213813500Y-54867999D01*
X212629818Y-60346529D02*
G75*
G03X210413500Y-58468000I-2151318J-291471D01*
G01*
X215913501Y-56768000D02*
G75*
G03X213813500Y-54867999I-2000001J-100000D01*
G01*
X205413500Y-55218000D02*
X205413500Y-54868000D01*
D16*
X213029818Y-59946529D02*
G75*
G03X210813500Y-58068000I-2151318J-291471D01*
G01*
D15*
X215713500Y-60168000D02*
X213013500Y-60168000D01*
D14*
X205613500Y-55068000D02*
X207013500Y-55068000D01*
X205613500Y-57568000D02*
X205613500Y-58268000D01*
G04 #@! TO.C,SW8*
X105709000Y-76618000D02*
X105709000Y-77318000D01*
X105709000Y-74118000D02*
X107109000Y-74118000D01*
D15*
X115809000Y-79218000D02*
X113109000Y-79218000D01*
D16*
X113125318Y-78996529D02*
G75*
G03X110909000Y-77118000I-2151318J-291471D01*
G01*
D13*
X105509000Y-74268000D02*
X105509000Y-73918000D01*
X116009001Y-75818000D02*
G75*
G03X113909000Y-73917999I-2000001J-100000D01*
G01*
X112725318Y-79396529D02*
G75*
G03X110509000Y-77518000I-2151318J-291471D01*
G01*
X105509000Y-73918000D02*
X113909000Y-73917999D01*
X110509000Y-77518000D02*
X105509000Y-77518000D01*
X116009000Y-79418000D02*
X112729000Y-79418000D01*
X116009000Y-75818000D02*
X116009000Y-76818000D01*
X116009000Y-79418000D02*
X116009000Y-79058000D01*
X115809000Y-79058000D02*
X116009000Y-79058000D01*
X115779000Y-76818000D02*
X115779000Y-79058000D01*
X116009000Y-76818000D02*
X115809000Y-76818000D01*
X105709000Y-74268000D02*
X105509000Y-74268000D01*
X105729000Y-76518000D02*
X105729000Y-74268000D01*
X105509000Y-76518000D02*
X105709000Y-76518000D01*
X105509000Y-77518000D02*
X105509000Y-76518000D01*
D17*
X107509000Y-75718000D02*
X114209000Y-75718000D01*
D16*
X106209000Y-74518000D02*
X106209000Y-77018000D01*
D15*
X105809000Y-77218000D02*
X107209000Y-77218000D01*
D18*
X114279000Y-75418000D02*
X114279000Y-77658000D01*
D19*
X115409000Y-78918000D02*
X115409000Y-77118000D01*
D10*
X115908999Y-76718000D02*
X115909000Y-75818001D01*
D14*
G04 #@! TO.C,SW9*
X124759000Y-76618000D02*
X124759000Y-77318000D01*
X124759000Y-74118000D02*
X126159000Y-74118000D01*
D15*
X134859000Y-79218000D02*
X132159000Y-79218000D01*
D16*
X132175318Y-78996529D02*
G75*
G03X129959000Y-77118000I-2151318J-291471D01*
G01*
D13*
X124559000Y-74268000D02*
X124559000Y-73918000D01*
X135059001Y-75818000D02*
G75*
G03X132959000Y-73917999I-2000001J-100000D01*
G01*
X131775318Y-79396529D02*
G75*
G03X129559000Y-77518000I-2151318J-291471D01*
G01*
X124559000Y-73918000D02*
X132959000Y-73917999D01*
X129559000Y-77518000D02*
X124559000Y-77518000D01*
X135059000Y-79418000D02*
X131779000Y-79418000D01*
X135059000Y-75818000D02*
X135059000Y-76818000D01*
X135059000Y-79418000D02*
X135059000Y-79058000D01*
X134859000Y-79058000D02*
X135059000Y-79058000D01*
X134829000Y-76818000D02*
X134829000Y-79058000D01*
X135059000Y-76818000D02*
X134859000Y-76818000D01*
X124759000Y-74268000D02*
X124559000Y-74268000D01*
X124779000Y-76518000D02*
X124779000Y-74268000D01*
X124559000Y-76518000D02*
X124759000Y-76518000D01*
X124559000Y-77518000D02*
X124559000Y-76518000D01*
D17*
X126559000Y-75718000D02*
X133259000Y-75718000D01*
D16*
X125259000Y-74518000D02*
X125259000Y-77018000D01*
D15*
X124859000Y-77218000D02*
X126259000Y-77218000D01*
D18*
X133329000Y-75418000D02*
X133329000Y-77658000D01*
D19*
X134459000Y-78918000D02*
X134459000Y-77118000D01*
D10*
X134958999Y-76718000D02*
X134959000Y-75818001D01*
G04 #@! TO.C,SW10*
X154008999Y-76718000D02*
X154009000Y-75818001D01*
D19*
X153509000Y-78918000D02*
X153509000Y-77118000D01*
D18*
X152379000Y-75418000D02*
X152379000Y-77658000D01*
D15*
X143909000Y-77218000D02*
X145309000Y-77218000D01*
D16*
X144309000Y-74518000D02*
X144309000Y-77018000D01*
D17*
X145609000Y-75718000D02*
X152309000Y-75718000D01*
D13*
X143609000Y-77518000D02*
X143609000Y-76518000D01*
X143609000Y-76518000D02*
X143809000Y-76518000D01*
X143829000Y-76518000D02*
X143829000Y-74268000D01*
X143809000Y-74268000D02*
X143609000Y-74268000D01*
X154109000Y-76818000D02*
X153909000Y-76818000D01*
X153879000Y-76818000D02*
X153879000Y-79058000D01*
X153909000Y-79058000D02*
X154109000Y-79058000D01*
X154109000Y-79418000D02*
X154109000Y-79058000D01*
X154109000Y-75818000D02*
X154109000Y-76818000D01*
X154109000Y-79418000D02*
X150829000Y-79418000D01*
X148609000Y-77518000D02*
X143609000Y-77518000D01*
X143609000Y-73918000D02*
X152009000Y-73917999D01*
X150825318Y-79396529D02*
G75*
G03X148609000Y-77518000I-2151318J-291471D01*
G01*
X154109001Y-75818000D02*
G75*
G03X152009000Y-73917999I-2000001J-100000D01*
G01*
X143609000Y-74268000D02*
X143609000Y-73918000D01*
D16*
X151225318Y-78996529D02*
G75*
G03X149009000Y-77118000I-2151318J-291471D01*
G01*
D15*
X153909000Y-79218000D02*
X151209000Y-79218000D01*
D14*
X143809000Y-74118000D02*
X145209000Y-74118000D01*
X143809000Y-76618000D02*
X143809000Y-77318000D01*
G04 #@! TO.C,SW11*
X162859000Y-76618000D02*
X162859000Y-77318000D01*
X162859000Y-74118000D02*
X164259000Y-74118000D01*
D15*
X172959000Y-79218000D02*
X170259000Y-79218000D01*
D16*
X170275318Y-78996529D02*
G75*
G03X168059000Y-77118000I-2151318J-291471D01*
G01*
D13*
X162659000Y-74268000D02*
X162659000Y-73918000D01*
X173159001Y-75818000D02*
G75*
G03X171059000Y-73917999I-2000001J-100000D01*
G01*
X169875318Y-79396529D02*
G75*
G03X167659000Y-77518000I-2151318J-291471D01*
G01*
X162659000Y-73918000D02*
X171059000Y-73917999D01*
X167659000Y-77518000D02*
X162659000Y-77518000D01*
X173159000Y-79418000D02*
X169879000Y-79418000D01*
X173159000Y-75818000D02*
X173159000Y-76818000D01*
X173159000Y-79418000D02*
X173159000Y-79058000D01*
X172959000Y-79058000D02*
X173159000Y-79058000D01*
X172929000Y-76818000D02*
X172929000Y-79058000D01*
X173159000Y-76818000D02*
X172959000Y-76818000D01*
X162859000Y-74268000D02*
X162659000Y-74268000D01*
X162879000Y-76518000D02*
X162879000Y-74268000D01*
X162659000Y-76518000D02*
X162859000Y-76518000D01*
X162659000Y-77518000D02*
X162659000Y-76518000D01*
D17*
X164659000Y-75718000D02*
X171359000Y-75718000D01*
D16*
X163359000Y-74518000D02*
X163359000Y-77018000D01*
D15*
X162959000Y-77218000D02*
X164359000Y-77218000D01*
D18*
X171429000Y-75418000D02*
X171429000Y-77658000D01*
D19*
X172559000Y-78918000D02*
X172559000Y-77118000D01*
D10*
X173058999Y-76718000D02*
X173059000Y-75818001D01*
G04 #@! TO.C,SW12*
X192108999Y-76718000D02*
X192109000Y-75818001D01*
D19*
X191609000Y-78918000D02*
X191609000Y-77118000D01*
D18*
X190479000Y-75418000D02*
X190479000Y-77658000D01*
D15*
X182009000Y-77218000D02*
X183409000Y-77218000D01*
D16*
X182409000Y-74518000D02*
X182409000Y-77018000D01*
D17*
X183709000Y-75718000D02*
X190409000Y-75718000D01*
D13*
X181709000Y-77518000D02*
X181709000Y-76518000D01*
X181709000Y-76518000D02*
X181909000Y-76518000D01*
X181929000Y-76518000D02*
X181929000Y-74268000D01*
X181909000Y-74268000D02*
X181709000Y-74268000D01*
X192209000Y-76818000D02*
X192009000Y-76818000D01*
X191979000Y-76818000D02*
X191979000Y-79058000D01*
X192009000Y-79058000D02*
X192209000Y-79058000D01*
X192209000Y-79418000D02*
X192209000Y-79058000D01*
X192209000Y-75818000D02*
X192209000Y-76818000D01*
X192209000Y-79418000D02*
X188929000Y-79418000D01*
X186709000Y-77518000D02*
X181709000Y-77518000D01*
X181709000Y-73918000D02*
X190109000Y-73917999D01*
X188925318Y-79396529D02*
G75*
G03X186709000Y-77518000I-2151318J-291471D01*
G01*
X192209001Y-75818000D02*
G75*
G03X190109000Y-73917999I-2000001J-100000D01*
G01*
X181709000Y-74268000D02*
X181709000Y-73918000D01*
D16*
X189325318Y-78996529D02*
G75*
G03X187109000Y-77118000I-2151318J-291471D01*
G01*
D15*
X192009000Y-79218000D02*
X189309000Y-79218000D01*
D14*
X181909000Y-74118000D02*
X183309000Y-74118000D01*
X181909000Y-76618000D02*
X181909000Y-77318000D01*
G04 #@! TO.C,SW13*
X200959000Y-76618000D02*
X200959000Y-77318000D01*
X200959000Y-74118000D02*
X202359000Y-74118000D01*
D15*
X211059000Y-79218000D02*
X208359000Y-79218000D01*
D16*
X208375318Y-78996529D02*
G75*
G03X206159000Y-77118000I-2151318J-291471D01*
G01*
D13*
X200759000Y-74268000D02*
X200759000Y-73918000D01*
X211259001Y-75818000D02*
G75*
G03X209159000Y-73917999I-2000001J-100000D01*
G01*
X207975318Y-79396529D02*
G75*
G03X205759000Y-77518000I-2151318J-291471D01*
G01*
X200759000Y-73918000D02*
X209159000Y-73917999D01*
X205759000Y-77518000D02*
X200759000Y-77518000D01*
X211259000Y-79418000D02*
X207979000Y-79418000D01*
X211259000Y-75818000D02*
X211259000Y-76818000D01*
X211259000Y-79418000D02*
X211259000Y-79058000D01*
X211059000Y-79058000D02*
X211259000Y-79058000D01*
X211029000Y-76818000D02*
X211029000Y-79058000D01*
X211259000Y-76818000D02*
X211059000Y-76818000D01*
X200959000Y-74268000D02*
X200759000Y-74268000D01*
X200979000Y-76518000D02*
X200979000Y-74268000D01*
X200759000Y-76518000D02*
X200959000Y-76518000D01*
X200759000Y-77518000D02*
X200759000Y-76518000D01*
D17*
X202759000Y-75718000D02*
X209459000Y-75718000D01*
D16*
X201459000Y-74518000D02*
X201459000Y-77018000D01*
D15*
X201059000Y-77218000D02*
X202459000Y-77218000D01*
D18*
X209529000Y-75418000D02*
X209529000Y-77658000D01*
D19*
X210659000Y-78918000D02*
X210659000Y-77118000D01*
D10*
X211158999Y-76718000D02*
X211159000Y-75818001D01*
D14*
G04 #@! TO.C,SW14*
X100946500Y-95668000D02*
X100946500Y-96368000D01*
X100946500Y-93168000D02*
X102346500Y-93168000D01*
D15*
X111046500Y-98268000D02*
X108346500Y-98268000D01*
D16*
X108362818Y-98046529D02*
G75*
G03X106146500Y-96168000I-2151318J-291471D01*
G01*
D13*
X100746500Y-93318000D02*
X100746500Y-92968000D01*
X111246501Y-94868000D02*
G75*
G03X109146500Y-92967999I-2000001J-100000D01*
G01*
X107962818Y-98446529D02*
G75*
G03X105746500Y-96568000I-2151318J-291471D01*
G01*
X100746500Y-92968000D02*
X109146500Y-92967999D01*
X105746500Y-96568000D02*
X100746500Y-96568000D01*
X111246500Y-98468000D02*
X107966500Y-98468000D01*
X111246500Y-94868000D02*
X111246500Y-95868000D01*
X111246500Y-98468000D02*
X111246500Y-98108000D01*
X111046500Y-98108000D02*
X111246500Y-98108000D01*
X111016500Y-95868000D02*
X111016500Y-98108000D01*
X111246500Y-95868000D02*
X111046500Y-95868000D01*
X100946500Y-93318000D02*
X100746500Y-93318000D01*
X100966500Y-95568000D02*
X100966500Y-93318000D01*
X100746500Y-95568000D02*
X100946500Y-95568000D01*
X100746500Y-96568000D02*
X100746500Y-95568000D01*
D17*
X102746500Y-94768000D02*
X109446500Y-94768000D01*
D16*
X101446500Y-93568000D02*
X101446500Y-96068000D01*
D15*
X101046500Y-96268000D02*
X102446500Y-96268000D01*
D18*
X109516500Y-94468000D02*
X109516500Y-96708000D01*
D19*
X110646500Y-97968000D02*
X110646500Y-96168000D01*
D10*
X111146499Y-95768000D02*
X111146500Y-94868001D01*
G04 #@! TO.C,SW15*
X130196499Y-95768000D02*
X130196500Y-94868001D01*
D19*
X129696500Y-97968000D02*
X129696500Y-96168000D01*
D18*
X128566500Y-94468000D02*
X128566500Y-96708000D01*
D15*
X120096500Y-96268000D02*
X121496500Y-96268000D01*
D16*
X120496500Y-93568000D02*
X120496500Y-96068000D01*
D17*
X121796500Y-94768000D02*
X128496500Y-94768000D01*
D13*
X119796500Y-96568000D02*
X119796500Y-95568000D01*
X119796500Y-95568000D02*
X119996500Y-95568000D01*
X120016500Y-95568000D02*
X120016500Y-93318000D01*
X119996500Y-93318000D02*
X119796500Y-93318000D01*
X130296500Y-95868000D02*
X130096500Y-95868000D01*
X130066500Y-95868000D02*
X130066500Y-98108000D01*
X130096500Y-98108000D02*
X130296500Y-98108000D01*
X130296500Y-98468000D02*
X130296500Y-98108000D01*
X130296500Y-94868000D02*
X130296500Y-95868000D01*
X130296500Y-98468000D02*
X127016500Y-98468000D01*
X124796500Y-96568000D02*
X119796500Y-96568000D01*
X119796500Y-92968000D02*
X128196500Y-92967999D01*
X127012818Y-98446529D02*
G75*
G03X124796500Y-96568000I-2151318J-291471D01*
G01*
X130296501Y-94868000D02*
G75*
G03X128196500Y-92967999I-2000001J-100000D01*
G01*
X119796500Y-93318000D02*
X119796500Y-92968000D01*
D16*
X127412818Y-98046529D02*
G75*
G03X125196500Y-96168000I-2151318J-291471D01*
G01*
D15*
X130096500Y-98268000D02*
X127396500Y-98268000D01*
D14*
X119996500Y-93168000D02*
X121396500Y-93168000D01*
X119996500Y-95668000D02*
X119996500Y-96368000D01*
D10*
G04 #@! TO.C,SW16*
X149246499Y-95768000D02*
X149246500Y-94868001D01*
D19*
X148746500Y-97968000D02*
X148746500Y-96168000D01*
D18*
X147616500Y-94468000D02*
X147616500Y-96708000D01*
D15*
X139146500Y-96268000D02*
X140546500Y-96268000D01*
D16*
X139546500Y-93568000D02*
X139546500Y-96068000D01*
D17*
X140846500Y-94768000D02*
X147546500Y-94768000D01*
D13*
X138846500Y-96568000D02*
X138846500Y-95568000D01*
X138846500Y-95568000D02*
X139046500Y-95568000D01*
X139066500Y-95568000D02*
X139066500Y-93318000D01*
X139046500Y-93318000D02*
X138846500Y-93318000D01*
X149346500Y-95868000D02*
X149146500Y-95868000D01*
X149116500Y-95868000D02*
X149116500Y-98108000D01*
X149146500Y-98108000D02*
X149346500Y-98108000D01*
X149346500Y-98468000D02*
X149346500Y-98108000D01*
X149346500Y-94868000D02*
X149346500Y-95868000D01*
X149346500Y-98468000D02*
X146066500Y-98468000D01*
X143846500Y-96568000D02*
X138846500Y-96568000D01*
X138846500Y-92968000D02*
X147246500Y-92967999D01*
X146062818Y-98446529D02*
G75*
G03X143846500Y-96568000I-2151318J-291471D01*
G01*
X149346501Y-94868000D02*
G75*
G03X147246500Y-92967999I-2000001J-100000D01*
G01*
X138846500Y-93318000D02*
X138846500Y-92968000D01*
D16*
X146462818Y-98046529D02*
G75*
G03X144246500Y-96168000I-2151318J-291471D01*
G01*
D15*
X149146500Y-98268000D02*
X146446500Y-98268000D01*
D14*
X139046500Y-93168000D02*
X140446500Y-93168000D01*
X139046500Y-95668000D02*
X139046500Y-96368000D01*
G04 #@! TO.C,SW17*
X158096500Y-95668000D02*
X158096500Y-96368000D01*
X158096500Y-93168000D02*
X159496500Y-93168000D01*
D15*
X168196500Y-98268000D02*
X165496500Y-98268000D01*
D16*
X165512818Y-98046529D02*
G75*
G03X163296500Y-96168000I-2151318J-291471D01*
G01*
D13*
X157896500Y-93318000D02*
X157896500Y-92968000D01*
X168396501Y-94868000D02*
G75*
G03X166296500Y-92967999I-2000001J-100000D01*
G01*
X165112818Y-98446529D02*
G75*
G03X162896500Y-96568000I-2151318J-291471D01*
G01*
X157896500Y-92968000D02*
X166296500Y-92967999D01*
X162896500Y-96568000D02*
X157896500Y-96568000D01*
X168396500Y-98468000D02*
X165116500Y-98468000D01*
X168396500Y-94868000D02*
X168396500Y-95868000D01*
X168396500Y-98468000D02*
X168396500Y-98108000D01*
X168196500Y-98108000D02*
X168396500Y-98108000D01*
X168166500Y-95868000D02*
X168166500Y-98108000D01*
X168396500Y-95868000D02*
X168196500Y-95868000D01*
X158096500Y-93318000D02*
X157896500Y-93318000D01*
X158116500Y-95568000D02*
X158116500Y-93318000D01*
X157896500Y-95568000D02*
X158096500Y-95568000D01*
X157896500Y-96568000D02*
X157896500Y-95568000D01*
D17*
X159896500Y-94768000D02*
X166596500Y-94768000D01*
D16*
X158596500Y-93568000D02*
X158596500Y-96068000D01*
D15*
X158196500Y-96268000D02*
X159596500Y-96268000D01*
D18*
X166666500Y-94468000D02*
X166666500Y-96708000D01*
D19*
X167796500Y-97968000D02*
X167796500Y-96168000D01*
D10*
X168296499Y-95768000D02*
X168296500Y-94868001D01*
G04 #@! TO.C,SW19*
X206360499Y-95768000D02*
X206360500Y-94868001D01*
D19*
X205860500Y-97968000D02*
X205860500Y-96168000D01*
D18*
X204730500Y-94468000D02*
X204730500Y-96708000D01*
D15*
X196260500Y-96268000D02*
X197660500Y-96268000D01*
D16*
X196660500Y-93568000D02*
X196660500Y-96068000D01*
D17*
X197960500Y-94768000D02*
X204660500Y-94768000D01*
D13*
X195960500Y-96568000D02*
X195960500Y-95568000D01*
X195960500Y-95568000D02*
X196160500Y-95568000D01*
X196180500Y-95568000D02*
X196180500Y-93318000D01*
X196160500Y-93318000D02*
X195960500Y-93318000D01*
X206460500Y-95868000D02*
X206260500Y-95868000D01*
X206230500Y-95868000D02*
X206230500Y-98108000D01*
X206260500Y-98108000D02*
X206460500Y-98108000D01*
X206460500Y-98468000D02*
X206460500Y-98108000D01*
X206460500Y-94868000D02*
X206460500Y-95868000D01*
X206460500Y-98468000D02*
X203180500Y-98468000D01*
X200960500Y-96568000D02*
X195960500Y-96568000D01*
X195960500Y-92968000D02*
X204360500Y-92967999D01*
X203176818Y-98446529D02*
G75*
G03X200960500Y-96568000I-2151318J-291471D01*
G01*
X206460501Y-94868000D02*
G75*
G03X204360500Y-92967999I-2000001J-100000D01*
G01*
X195960500Y-93318000D02*
X195960500Y-92968000D01*
D16*
X203576818Y-98046529D02*
G75*
G03X201360500Y-96168000I-2151318J-291471D01*
G01*
D15*
X206260500Y-98268000D02*
X203560500Y-98268000D01*
D14*
X196160500Y-93168000D02*
X197560500Y-93168000D01*
X196160500Y-95668000D02*
X196160500Y-96368000D01*
D10*
G04 #@! TO.C,SW20*
X106383999Y-114818000D02*
X106384000Y-113918001D01*
D19*
X105884000Y-117018000D02*
X105884000Y-115218000D01*
D18*
X104754000Y-113518000D02*
X104754000Y-115758000D01*
D15*
X96284000Y-115318000D02*
X97684000Y-115318000D01*
D16*
X96684000Y-112618000D02*
X96684000Y-115118000D01*
D17*
X97984000Y-113818000D02*
X104684000Y-113818000D01*
D13*
X95984000Y-115618000D02*
X95984000Y-114618000D01*
X95984000Y-114618000D02*
X96184000Y-114618000D01*
X96204000Y-114618000D02*
X96204000Y-112368000D01*
X96184000Y-112368000D02*
X95984000Y-112368000D01*
X106484000Y-114918000D02*
X106284000Y-114918000D01*
X106254000Y-114918000D02*
X106254000Y-117158000D01*
X106284000Y-117158000D02*
X106484000Y-117158000D01*
X106484000Y-117518000D02*
X106484000Y-117158000D01*
X106484000Y-113918000D02*
X106484000Y-114918000D01*
X106484000Y-117518000D02*
X103204000Y-117518000D01*
X100984000Y-115618000D02*
X95984000Y-115618000D01*
X95984000Y-112018000D02*
X104384000Y-112017999D01*
X103200318Y-117496529D02*
G75*
G03X100984000Y-115618000I-2151318J-291471D01*
G01*
X106484001Y-113918000D02*
G75*
G03X104384000Y-112017999I-2000001J-100000D01*
G01*
X95984000Y-112368000D02*
X95984000Y-112018000D01*
D16*
X103600318Y-117096529D02*
G75*
G03X101384000Y-115218000I-2151318J-291471D01*
G01*
D15*
X106284000Y-117318000D02*
X103584000Y-117318000D01*
D14*
X96184000Y-112218000D02*
X97584000Y-112218000D01*
X96184000Y-114718000D02*
X96184000Y-115418000D01*
G04 #@! TO.C,SW21*
X115234000Y-114718000D02*
X115234000Y-115418000D01*
X115234000Y-112218000D02*
X116634000Y-112218000D01*
D15*
X125334000Y-117318000D02*
X122634000Y-117318000D01*
D16*
X122650318Y-117096529D02*
G75*
G03X120434000Y-115218000I-2151318J-291471D01*
G01*
D13*
X115034000Y-112368000D02*
X115034000Y-112018000D01*
X125534001Y-113918000D02*
G75*
G03X123434000Y-112017999I-2000001J-100000D01*
G01*
X122250318Y-117496529D02*
G75*
G03X120034000Y-115618000I-2151318J-291471D01*
G01*
X115034000Y-112018000D02*
X123434000Y-112017999D01*
X120034000Y-115618000D02*
X115034000Y-115618000D01*
X125534000Y-117518000D02*
X122254000Y-117518000D01*
X125534000Y-113918000D02*
X125534000Y-114918000D01*
X125534000Y-117518000D02*
X125534000Y-117158000D01*
X125334000Y-117158000D02*
X125534000Y-117158000D01*
X125304000Y-114918000D02*
X125304000Y-117158000D01*
X125534000Y-114918000D02*
X125334000Y-114918000D01*
X115234000Y-112368000D02*
X115034000Y-112368000D01*
X115254000Y-114618000D02*
X115254000Y-112368000D01*
X115034000Y-114618000D02*
X115234000Y-114618000D01*
X115034000Y-115618000D02*
X115034000Y-114618000D01*
D17*
X117034000Y-113818000D02*
X123734000Y-113818000D01*
D16*
X115734000Y-112618000D02*
X115734000Y-115118000D01*
D15*
X115334000Y-115318000D02*
X116734000Y-115318000D01*
D18*
X123804000Y-113518000D02*
X123804000Y-115758000D01*
D19*
X124934000Y-117018000D02*
X124934000Y-115218000D01*
D10*
X125433999Y-114818000D02*
X125434000Y-113918001D01*
G04 #@! TO.C,SW22*
X144483999Y-114818000D02*
X144484000Y-113918001D01*
D19*
X143984000Y-117018000D02*
X143984000Y-115218000D01*
D18*
X142854000Y-113518000D02*
X142854000Y-115758000D01*
D15*
X134384000Y-115318000D02*
X135784000Y-115318000D01*
D16*
X134784000Y-112618000D02*
X134784000Y-115118000D01*
D17*
X136084000Y-113818000D02*
X142784000Y-113818000D01*
D13*
X134084000Y-115618000D02*
X134084000Y-114618000D01*
X134084000Y-114618000D02*
X134284000Y-114618000D01*
X134304000Y-114618000D02*
X134304000Y-112368000D01*
X134284000Y-112368000D02*
X134084000Y-112368000D01*
X144584000Y-114918000D02*
X144384000Y-114918000D01*
X144354000Y-114918000D02*
X144354000Y-117158000D01*
X144384000Y-117158000D02*
X144584000Y-117158000D01*
X144584000Y-117518000D02*
X144584000Y-117158000D01*
X144584000Y-113918000D02*
X144584000Y-114918000D01*
X144584000Y-117518000D02*
X141304000Y-117518000D01*
X139084000Y-115618000D02*
X134084000Y-115618000D01*
X134084000Y-112018000D02*
X142484000Y-112017999D01*
X141300318Y-117496529D02*
G75*
G03X139084000Y-115618000I-2151318J-291471D01*
G01*
X144584001Y-113918000D02*
G75*
G03X142484000Y-112017999I-2000001J-100000D01*
G01*
X134084000Y-112368000D02*
X134084000Y-112018000D01*
D16*
X141700318Y-117096529D02*
G75*
G03X139484000Y-115218000I-2151318J-291471D01*
G01*
D15*
X144384000Y-117318000D02*
X141684000Y-117318000D01*
D14*
X134284000Y-112218000D02*
X135684000Y-112218000D01*
X134284000Y-114718000D02*
X134284000Y-115418000D01*
G04 #@! TO.C,SW23*
X153334000Y-114718000D02*
X153334000Y-115418000D01*
X153334000Y-112218000D02*
X154734000Y-112218000D01*
D15*
X163434000Y-117318000D02*
X160734000Y-117318000D01*
D16*
X160750318Y-117096529D02*
G75*
G03X158534000Y-115218000I-2151318J-291471D01*
G01*
D13*
X153134000Y-112368000D02*
X153134000Y-112018000D01*
X163634001Y-113918000D02*
G75*
G03X161534000Y-112017999I-2000001J-100000D01*
G01*
X160350318Y-117496529D02*
G75*
G03X158134000Y-115618000I-2151318J-291471D01*
G01*
X153134000Y-112018000D02*
X161534000Y-112017999D01*
X158134000Y-115618000D02*
X153134000Y-115618000D01*
X163634000Y-117518000D02*
X160354000Y-117518000D01*
X163634000Y-113918000D02*
X163634000Y-114918000D01*
X163634000Y-117518000D02*
X163634000Y-117158000D01*
X163434000Y-117158000D02*
X163634000Y-117158000D01*
X163404000Y-114918000D02*
X163404000Y-117158000D01*
X163634000Y-114918000D02*
X163434000Y-114918000D01*
X153334000Y-112368000D02*
X153134000Y-112368000D01*
X153354000Y-114618000D02*
X153354000Y-112368000D01*
X153134000Y-114618000D02*
X153334000Y-114618000D01*
X153134000Y-115618000D02*
X153134000Y-114618000D01*
D17*
X155134000Y-113818000D02*
X161834000Y-113818000D01*
D16*
X153834000Y-112618000D02*
X153834000Y-115118000D01*
D15*
X153434000Y-115318000D02*
X154834000Y-115318000D01*
D18*
X161904000Y-113518000D02*
X161904000Y-115758000D01*
D19*
X163034000Y-117018000D02*
X163034000Y-115218000D01*
D10*
X163533999Y-114818000D02*
X163534000Y-113918001D01*
D14*
G04 #@! TO.C,SW24*
X172384000Y-114718000D02*
X172384000Y-115418000D01*
X172384000Y-112218000D02*
X173784000Y-112218000D01*
D15*
X182484000Y-117318000D02*
X179784000Y-117318000D01*
D16*
X179800318Y-117096529D02*
G75*
G03X177584000Y-115218000I-2151318J-291471D01*
G01*
D13*
X172184000Y-112368000D02*
X172184000Y-112018000D01*
X182684001Y-113918000D02*
G75*
G03X180584000Y-112017999I-2000001J-100000D01*
G01*
X179400318Y-117496529D02*
G75*
G03X177184000Y-115618000I-2151318J-291471D01*
G01*
X172184000Y-112018000D02*
X180584000Y-112017999D01*
X177184000Y-115618000D02*
X172184000Y-115618000D01*
X182684000Y-117518000D02*
X179404000Y-117518000D01*
X182684000Y-113918000D02*
X182684000Y-114918000D01*
X182684000Y-117518000D02*
X182684000Y-117158000D01*
X182484000Y-117158000D02*
X182684000Y-117158000D01*
X182454000Y-114918000D02*
X182454000Y-117158000D01*
X182684000Y-114918000D02*
X182484000Y-114918000D01*
X172384000Y-112368000D02*
X172184000Y-112368000D01*
X172404000Y-114618000D02*
X172404000Y-112368000D01*
X172184000Y-114618000D02*
X172384000Y-114618000D01*
X172184000Y-115618000D02*
X172184000Y-114618000D01*
D17*
X174184000Y-113818000D02*
X180884000Y-113818000D01*
D16*
X172884000Y-112618000D02*
X172884000Y-115118000D01*
D15*
X172484000Y-115318000D02*
X173884000Y-115318000D01*
D18*
X180954000Y-113518000D02*
X180954000Y-115758000D01*
D19*
X182084000Y-117018000D02*
X182084000Y-115218000D01*
D10*
X182583999Y-114818000D02*
X182584000Y-113918001D01*
D13*
G04 #@! TO.C,U1*
X133553200Y-89270000D02*
X103073200Y-89270000D01*
X133553200Y-86730000D02*
X133553200Y-89270000D01*
X103073200Y-86730000D02*
X133553200Y-86730000D01*
X103073200Y-89270000D02*
X103073200Y-86730000D01*
X133553200Y-104490000D02*
X103073200Y-104490000D01*
X133553200Y-101950000D02*
X133553200Y-104490000D01*
X103073200Y-101950000D02*
X133553200Y-101950000D01*
X103073200Y-104490000D02*
X103073200Y-101950000D01*
D20*
G04 #@! TO.C,G\002A\002A\002A*
G36*
X196086525Y-80841395D02*
X196838197Y-81052404D01*
X197563531Y-81426107D01*
X197847202Y-81624311D01*
X198432715Y-82147009D01*
X198912527Y-82758300D01*
X199303931Y-83483624D01*
X199557531Y-84140576D01*
X199694573Y-84722980D01*
X199760721Y-85395959D01*
X199755976Y-86096309D01*
X199680336Y-86760827D01*
X199557531Y-87258623D01*
X199222766Y-88089854D01*
X198812997Y-88787330D01*
X198310933Y-89376491D01*
X197847202Y-89774888D01*
X197170411Y-90193419D01*
X196447436Y-90470292D01*
X195704707Y-90599796D01*
X194968652Y-90576220D01*
X194547066Y-90487874D01*
X193758194Y-90183928D01*
X193058084Y-89738909D01*
X192438166Y-89146960D01*
X192247981Y-88916128D01*
X191772359Y-88176112D01*
X191437274Y-87375275D01*
X191240193Y-86535070D01*
X191221150Y-86269844D01*
X194983691Y-86269844D01*
X195076233Y-86320860D01*
X195330364Y-86368059D01*
X195681945Y-86331749D01*
X195721816Y-86324016D01*
X195929144Y-86266709D01*
X195976840Y-86215383D01*
X195874602Y-86176705D01*
X195632131Y-86157340D01*
X195478400Y-86156723D01*
X195161957Y-86173796D01*
X194994643Y-86212487D01*
X194983691Y-86269844D01*
X191221150Y-86269844D01*
X191178579Y-85676948D01*
X191180973Y-85648258D01*
X194547066Y-85648258D01*
X194612462Y-85802521D01*
X194814831Y-85897475D01*
X195163446Y-85936023D01*
X195455781Y-85932924D01*
X195840900Y-85901863D01*
X196088525Y-85841735D01*
X196212741Y-85763543D01*
X196310851Y-85622853D01*
X196277639Y-85560626D01*
X196140933Y-85597488D01*
X196057703Y-85648630D01*
X195820975Y-85740923D01*
X195494189Y-85782052D01*
X195147866Y-85771812D01*
X194852526Y-85710000D01*
X194735238Y-85652465D01*
X194599216Y-85569087D01*
X194551473Y-85591018D01*
X194547066Y-85648258D01*
X191180973Y-85648258D01*
X191249899Y-84822362D01*
X191293493Y-84643072D01*
X195250188Y-84643072D01*
X195272808Y-84795900D01*
X195351575Y-84930428D01*
X195416683Y-84908025D01*
X195461246Y-84740955D01*
X195478381Y-84441486D01*
X195478400Y-84429600D01*
X195467036Y-84161676D01*
X195441095Y-84000009D01*
X196588873Y-84000009D01*
X196612428Y-84140418D01*
X196715991Y-84250857D01*
X196849285Y-84230798D01*
X196953873Y-84094312D01*
X196965951Y-84055296D01*
X196996109Y-83771422D01*
X196926045Y-83593152D01*
X196789573Y-83540600D01*
X196653516Y-83595465D01*
X196593919Y-83780585D01*
X196588873Y-84000009D01*
X195441095Y-84000009D01*
X195437499Y-83977601D01*
X195403346Y-83921600D01*
X195344854Y-83996371D01*
X195293922Y-84181112D01*
X195259413Y-84416465D01*
X195250188Y-84643072D01*
X191293493Y-84643072D01*
X191451617Y-83992764D01*
X191540605Y-83781309D01*
X193715252Y-83781309D01*
X193716141Y-84052305D01*
X193778350Y-84215993D01*
X193881485Y-84253614D01*
X194005150Y-84146409D01*
X194043287Y-84083047D01*
X194097772Y-83861878D01*
X194085574Y-83696421D01*
X193995058Y-83537572D01*
X193871110Y-83516913D01*
X193760792Y-83623659D01*
X193715252Y-83781309D01*
X191540605Y-83781309D01*
X191781199Y-83209605D01*
X191983326Y-82891795D01*
X193205668Y-82891795D01*
X193220833Y-83026908D01*
X193285521Y-83097808D01*
X193434234Y-83139155D01*
X193699997Y-83157260D01*
X193915298Y-83159600D01*
X194240525Y-83156824D01*
X194430225Y-83141536D01*
X194518190Y-83103293D01*
X194538214Y-83031653D01*
X194534479Y-82995291D01*
X196091307Y-82995291D01*
X196159567Y-83087378D01*
X196373568Y-83140517D01*
X196743285Y-83159410D01*
X196795730Y-83159600D01*
X197117163Y-83156911D01*
X197305077Y-83140825D01*
X197395278Y-83099311D01*
X197423573Y-83020338D01*
X197425733Y-82947933D01*
X197416802Y-82836593D01*
X197365198Y-82773272D01*
X197233702Y-82744442D01*
X196985096Y-82736574D01*
X196843433Y-82736266D01*
X196468928Y-82752368D01*
X196240835Y-82803081D01*
X196158811Y-82859557D01*
X196091307Y-82995291D01*
X194534479Y-82995291D01*
X194531788Y-82969100D01*
X194502149Y-82867656D01*
X194423442Y-82807278D01*
X194257078Y-82774342D01*
X193964465Y-82755224D01*
X193920459Y-82753273D01*
X193537351Y-82753317D01*
X193304114Y-82797524D01*
X193205668Y-82891795D01*
X191983326Y-82891795D01*
X192236109Y-82494339D01*
X192813814Y-81868416D01*
X193109597Y-81624311D01*
X193820050Y-81184540D01*
X194562794Y-80907464D01*
X195323171Y-80793082D01*
X196086525Y-80841395D01*
X196086525Y-80841395D01*
G37*
X196086525Y-80841395D02*
X196838197Y-81052404D01*
X197563531Y-81426107D01*
X197847202Y-81624311D01*
X198432715Y-82147009D01*
X198912527Y-82758300D01*
X199303931Y-83483624D01*
X199557531Y-84140576D01*
X199694573Y-84722980D01*
X199760721Y-85395959D01*
X199755976Y-86096309D01*
X199680336Y-86760827D01*
X199557531Y-87258623D01*
X199222766Y-88089854D01*
X198812997Y-88787330D01*
X198310933Y-89376491D01*
X197847202Y-89774888D01*
X197170411Y-90193419D01*
X196447436Y-90470292D01*
X195704707Y-90599796D01*
X194968652Y-90576220D01*
X194547066Y-90487874D01*
X193758194Y-90183928D01*
X193058084Y-89738909D01*
X192438166Y-89146960D01*
X192247981Y-88916128D01*
X191772359Y-88176112D01*
X191437274Y-87375275D01*
X191240193Y-86535070D01*
X191221150Y-86269844D01*
X194983691Y-86269844D01*
X195076233Y-86320860D01*
X195330364Y-86368059D01*
X195681945Y-86331749D01*
X195721816Y-86324016D01*
X195929144Y-86266709D01*
X195976840Y-86215383D01*
X195874602Y-86176705D01*
X195632131Y-86157340D01*
X195478400Y-86156723D01*
X195161957Y-86173796D01*
X194994643Y-86212487D01*
X194983691Y-86269844D01*
X191221150Y-86269844D01*
X191178579Y-85676948D01*
X191180973Y-85648258D01*
X194547066Y-85648258D01*
X194612462Y-85802521D01*
X194814831Y-85897475D01*
X195163446Y-85936023D01*
X195455781Y-85932924D01*
X195840900Y-85901863D01*
X196088525Y-85841735D01*
X196212741Y-85763543D01*
X196310851Y-85622853D01*
X196277639Y-85560626D01*
X196140933Y-85597488D01*
X196057703Y-85648630D01*
X195820975Y-85740923D01*
X195494189Y-85782052D01*
X195147866Y-85771812D01*
X194852526Y-85710000D01*
X194735238Y-85652465D01*
X194599216Y-85569087D01*
X194551473Y-85591018D01*
X194547066Y-85648258D01*
X191180973Y-85648258D01*
X191249899Y-84822362D01*
X191293493Y-84643072D01*
X195250188Y-84643072D01*
X195272808Y-84795900D01*
X195351575Y-84930428D01*
X195416683Y-84908025D01*
X195461246Y-84740955D01*
X195478381Y-84441486D01*
X195478400Y-84429600D01*
X195467036Y-84161676D01*
X195441095Y-84000009D01*
X196588873Y-84000009D01*
X196612428Y-84140418D01*
X196715991Y-84250857D01*
X196849285Y-84230798D01*
X196953873Y-84094312D01*
X196965951Y-84055296D01*
X196996109Y-83771422D01*
X196926045Y-83593152D01*
X196789573Y-83540600D01*
X196653516Y-83595465D01*
X196593919Y-83780585D01*
X196588873Y-84000009D01*
X195441095Y-84000009D01*
X195437499Y-83977601D01*
X195403346Y-83921600D01*
X195344854Y-83996371D01*
X195293922Y-84181112D01*
X195259413Y-84416465D01*
X195250188Y-84643072D01*
X191293493Y-84643072D01*
X191451617Y-83992764D01*
X191540605Y-83781309D01*
X193715252Y-83781309D01*
X193716141Y-84052305D01*
X193778350Y-84215993D01*
X193881485Y-84253614D01*
X194005150Y-84146409D01*
X194043287Y-84083047D01*
X194097772Y-83861878D01*
X194085574Y-83696421D01*
X193995058Y-83537572D01*
X193871110Y-83516913D01*
X193760792Y-83623659D01*
X193715252Y-83781309D01*
X191540605Y-83781309D01*
X191781199Y-83209605D01*
X191983326Y-82891795D01*
X193205668Y-82891795D01*
X193220833Y-83026908D01*
X193285521Y-83097808D01*
X193434234Y-83139155D01*
X193699997Y-83157260D01*
X193915298Y-83159600D01*
X194240525Y-83156824D01*
X194430225Y-83141536D01*
X194518190Y-83103293D01*
X194538214Y-83031653D01*
X194534479Y-82995291D01*
X196091307Y-82995291D01*
X196159567Y-83087378D01*
X196373568Y-83140517D01*
X196743285Y-83159410D01*
X196795730Y-83159600D01*
X197117163Y-83156911D01*
X197305077Y-83140825D01*
X197395278Y-83099311D01*
X197423573Y-83020338D01*
X197425733Y-82947933D01*
X197416802Y-82836593D01*
X197365198Y-82773272D01*
X197233702Y-82744442D01*
X196985096Y-82736574D01*
X196843433Y-82736266D01*
X196468928Y-82752368D01*
X196240835Y-82803081D01*
X196158811Y-82859557D01*
X196091307Y-82995291D01*
X194534479Y-82995291D01*
X194531788Y-82969100D01*
X194502149Y-82867656D01*
X194423442Y-82807278D01*
X194257078Y-82774342D01*
X193964465Y-82755224D01*
X193920459Y-82753273D01*
X193537351Y-82753317D01*
X193304114Y-82797524D01*
X193205668Y-82891795D01*
X191983326Y-82891795D01*
X192236109Y-82494339D01*
X192813814Y-81868416D01*
X193109597Y-81624311D01*
X193820050Y-81184540D01*
X194562794Y-80907464D01*
X195323171Y-80793082D01*
X196086525Y-80841395D01*
G04 #@! TO.C,Underglow*
D12*
X107613676Y-108082590D02*
X107613676Y-108487352D01*
X107637485Y-108534971D01*
X107661295Y-108558780D01*
X107708914Y-108582590D01*
X107804152Y-108582590D01*
X107851771Y-108558780D01*
X107875580Y-108534971D01*
X107899390Y-108487352D01*
X107899390Y-108082590D01*
X108137485Y-108249257D02*
X108137485Y-108582590D01*
X108137485Y-108296876D02*
X108161295Y-108273066D01*
X108208914Y-108249257D01*
X108280342Y-108249257D01*
X108327961Y-108273066D01*
X108351771Y-108320685D01*
X108351771Y-108582590D01*
X108804152Y-108582590D02*
X108804152Y-108082590D01*
X108804152Y-108558780D02*
X108756533Y-108582590D01*
X108661295Y-108582590D01*
X108613676Y-108558780D01*
X108589866Y-108534971D01*
X108566057Y-108487352D01*
X108566057Y-108344495D01*
X108589866Y-108296876D01*
X108613676Y-108273066D01*
X108661295Y-108249257D01*
X108756533Y-108249257D01*
X108804152Y-108273066D01*
X109232723Y-108558780D02*
X109185104Y-108582590D01*
X109089866Y-108582590D01*
X109042247Y-108558780D01*
X109018438Y-108511161D01*
X109018438Y-108320685D01*
X109042247Y-108273066D01*
X109089866Y-108249257D01*
X109185104Y-108249257D01*
X109232723Y-108273066D01*
X109256533Y-108320685D01*
X109256533Y-108368304D01*
X109018438Y-108415923D01*
X109470819Y-108582590D02*
X109470819Y-108249257D01*
X109470819Y-108344495D02*
X109494628Y-108296876D01*
X109518438Y-108273066D01*
X109566057Y-108249257D01*
X109613676Y-108249257D01*
X109994628Y-108249257D02*
X109994628Y-108654019D01*
X109970819Y-108701638D01*
X109947009Y-108725447D01*
X109899390Y-108749257D01*
X109827961Y-108749257D01*
X109780342Y-108725447D01*
X109994628Y-108558780D02*
X109947009Y-108582590D01*
X109851771Y-108582590D01*
X109804152Y-108558780D01*
X109780342Y-108534971D01*
X109756533Y-108487352D01*
X109756533Y-108344495D01*
X109780342Y-108296876D01*
X109804152Y-108273066D01*
X109851771Y-108249257D01*
X109947009Y-108249257D01*
X109994628Y-108273066D01*
X110304152Y-108582590D02*
X110256533Y-108558780D01*
X110232723Y-108511161D01*
X110232723Y-108082590D01*
X110566057Y-108582590D02*
X110518438Y-108558780D01*
X110494628Y-108534971D01*
X110470819Y-108487352D01*
X110470819Y-108344495D01*
X110494628Y-108296876D01*
X110518438Y-108273066D01*
X110566057Y-108249257D01*
X110637485Y-108249257D01*
X110685104Y-108273066D01*
X110708914Y-108296876D01*
X110732723Y-108344495D01*
X110732723Y-108487352D01*
X110708914Y-108534971D01*
X110685104Y-108558780D01*
X110637485Y-108582590D01*
X110566057Y-108582590D01*
X110899390Y-108249257D02*
X110994628Y-108582590D01*
X111089866Y-108344495D01*
X111185104Y-108582590D01*
X111280342Y-108249257D01*
G04 #@! TO.C,J2*
D13*
X207636380Y-70376105D02*
X207636380Y-69804677D01*
X208636380Y-70090391D02*
X207636380Y-70090391D01*
X208636380Y-68899915D02*
X208160190Y-69233248D01*
X208636380Y-69471343D02*
X207636380Y-69471343D01*
X207636380Y-69090391D01*
X207684000Y-68995153D01*
X207731619Y-68947534D01*
X207826857Y-68899915D01*
X207969714Y-68899915D01*
X208064952Y-68947534D01*
X208112571Y-68995153D01*
X208160190Y-69090391D01*
X208160190Y-69471343D01*
X208636380Y-67899915D02*
X208160190Y-68233248D01*
X208636380Y-68471343D02*
X207636380Y-68471343D01*
X207636380Y-68090391D01*
X207684000Y-67995153D01*
X207731619Y-67947534D01*
X207826857Y-67899915D01*
X207969714Y-67899915D01*
X208064952Y-67947534D01*
X208112571Y-67995153D01*
X208160190Y-68090391D01*
X208160190Y-68471343D01*
X208588761Y-67518962D02*
X208636380Y-67376105D01*
X208636380Y-67138010D01*
X208588761Y-67042772D01*
X208541142Y-66995153D01*
X208445904Y-66947534D01*
X208350666Y-66947534D01*
X208255428Y-66995153D01*
X208207809Y-67042772D01*
X208160190Y-67138010D01*
X208112571Y-67328486D01*
X208064952Y-67423724D01*
X208017333Y-67471343D01*
X207922095Y-67518962D01*
X207826857Y-67518962D01*
X207731619Y-67471343D01*
X207684000Y-67423724D01*
X207636380Y-67328486D01*
X207636380Y-67090391D01*
X207684000Y-66947534D01*
G04 #@! TO.C,P1*
X198739276Y-69277895D02*
X198739276Y-68465095D01*
X199048914Y-68465095D01*
X199126323Y-68503800D01*
X199165028Y-68542504D01*
X199203733Y-68619914D01*
X199203733Y-68736028D01*
X199165028Y-68813438D01*
X199126323Y-68852142D01*
X199048914Y-68890847D01*
X198739276Y-68890847D01*
X199977828Y-69277895D02*
X199513371Y-69277895D01*
X199745600Y-69277895D02*
X199745600Y-68465095D01*
X199668190Y-68581209D01*
X199590780Y-68658619D01*
X199513371Y-68697323D01*
G04 #@! TO.C,P2*
X215096876Y-67550695D02*
X215096876Y-66737895D01*
X215406514Y-66737895D01*
X215483923Y-66776600D01*
X215522628Y-66815304D01*
X215561333Y-66892714D01*
X215561333Y-67008828D01*
X215522628Y-67086238D01*
X215483923Y-67124942D01*
X215406514Y-67163647D01*
X215096876Y-67163647D01*
X215870971Y-66815304D02*
X215909676Y-66776600D01*
X215987085Y-66737895D01*
X216180609Y-66737895D01*
X216258019Y-66776600D01*
X216296723Y-66815304D01*
X216335428Y-66892714D01*
X216335428Y-66970123D01*
X216296723Y-67086238D01*
X215832266Y-67550695D01*
X216335428Y-67550695D01*
G04 #@! TO.C,R1*
X196664533Y-71110495D02*
X196393600Y-70723447D01*
X196200076Y-71110495D02*
X196200076Y-70297695D01*
X196509714Y-70297695D01*
X196587123Y-70336400D01*
X196625828Y-70375104D01*
X196664533Y-70452514D01*
X196664533Y-70568628D01*
X196625828Y-70646038D01*
X196587123Y-70684742D01*
X196509714Y-70723447D01*
X196200076Y-70723447D01*
X197438628Y-71110495D02*
X196974171Y-71110495D01*
X197206400Y-71110495D02*
X197206400Y-70297695D01*
X197128990Y-70413809D01*
X197051580Y-70491219D01*
X196974171Y-70529923D01*
G04 #@! TO.C,R2*
X189501733Y-71110495D02*
X189230800Y-70723447D01*
X189037276Y-71110495D02*
X189037276Y-70297695D01*
X189346914Y-70297695D01*
X189424323Y-70336400D01*
X189463028Y-70375104D01*
X189501733Y-70452514D01*
X189501733Y-70568628D01*
X189463028Y-70646038D01*
X189424323Y-70684742D01*
X189346914Y-70723447D01*
X189037276Y-70723447D01*
X189811371Y-70375104D02*
X189850076Y-70336400D01*
X189927485Y-70297695D01*
X190121009Y-70297695D01*
X190198419Y-70336400D01*
X190237123Y-70375104D01*
X190275828Y-70452514D01*
X190275828Y-70529923D01*
X190237123Y-70646038D01*
X189772666Y-71110495D01*
X190275828Y-71110495D01*
G04 #@! TO.C,SW1*
X110595851Y-124418028D02*
X110119661Y-124751362D01*
X110595851Y-124989457D02*
X109595851Y-124989457D01*
X109595851Y-124608505D01*
X109643471Y-124513267D01*
X109691090Y-124465648D01*
X109786328Y-124418028D01*
X109929185Y-124418028D01*
X110024423Y-124465648D01*
X110072042Y-124513267D01*
X110119661Y-124608505D01*
X110119661Y-124989457D01*
X110072042Y-123989457D02*
X110072042Y-123656124D01*
X110595851Y-123513267D02*
X110595851Y-123989457D01*
X109595851Y-123989457D01*
X109595851Y-123513267D01*
X110548232Y-123132314D02*
X110595851Y-122989457D01*
X110595851Y-122751362D01*
X110548232Y-122656124D01*
X110500613Y-122608505D01*
X110405375Y-122560886D01*
X110310137Y-122560886D01*
X110214899Y-122608505D01*
X110167280Y-122656124D01*
X110119661Y-122751362D01*
X110072042Y-122941838D01*
X110024423Y-123037076D01*
X109976804Y-123084695D01*
X109881566Y-123132314D01*
X109786328Y-123132314D01*
X109691090Y-123084695D01*
X109643471Y-123037076D01*
X109595851Y-122941838D01*
X109595851Y-122703743D01*
X109643471Y-122560886D01*
X110072042Y-122132314D02*
X110072042Y-121798981D01*
X110595851Y-121656124D02*
X110595851Y-122132314D01*
X109595851Y-122132314D01*
X109595851Y-121656124D01*
X109595851Y-121370409D02*
X109595851Y-120798981D01*
X110595851Y-121084695D02*
X109595851Y-121084695D01*
G04 #@! TO.C,U1*
D21*
X122462485Y-91037352D02*
X122105342Y-91204019D01*
X122462485Y-91323066D02*
X121712485Y-91323066D01*
X121712485Y-91132590D01*
X121748200Y-91084971D01*
X121783914Y-91061161D01*
X121855342Y-91037352D01*
X121962485Y-91037352D01*
X122033914Y-91061161D01*
X122069628Y-91084971D01*
X122105342Y-91132590D01*
X122105342Y-91323066D01*
X121712485Y-90727828D02*
X121712485Y-90632590D01*
X121748200Y-90584971D01*
X121819628Y-90537352D01*
X121962485Y-90513542D01*
X122212485Y-90513542D01*
X122355342Y-90537352D01*
X122426771Y-90584971D01*
X122462485Y-90632590D01*
X122462485Y-90727828D01*
X122426771Y-90775447D01*
X122355342Y-90823066D01*
X122212485Y-90846876D01*
X121962485Y-90846876D01*
X121819628Y-90823066D01*
X121748200Y-90775447D01*
X121712485Y-90727828D01*
X121712485Y-90346876D02*
X122462485Y-90227828D01*
X121926771Y-90132590D01*
X122462485Y-90037352D01*
X121712485Y-89918304D01*
X122462485Y-89465923D02*
X122462485Y-89751638D01*
X122462485Y-89608780D02*
X121712485Y-89608780D01*
X121819628Y-89656400D01*
X121891057Y-89704019D01*
X121926771Y-89751638D01*
X124939057Y-106154019D02*
X124974771Y-106177828D01*
X125010485Y-106249257D01*
X125010485Y-106296876D01*
X124974771Y-106368304D01*
X124903342Y-106415923D01*
X124831914Y-106439733D01*
X124689057Y-106463542D01*
X124581914Y-106463542D01*
X124439057Y-106439733D01*
X124367628Y-106415923D01*
X124296200Y-106368304D01*
X124260485Y-106296876D01*
X124260485Y-106249257D01*
X124296200Y-106177828D01*
X124331914Y-106154019D01*
X124260485Y-105844495D02*
X124260485Y-105749257D01*
X124296200Y-105701638D01*
X124367628Y-105654019D01*
X124510485Y-105630209D01*
X124760485Y-105630209D01*
X124903342Y-105654019D01*
X124974771Y-105701638D01*
X125010485Y-105749257D01*
X125010485Y-105844495D01*
X124974771Y-105892114D01*
X124903342Y-105939733D01*
X124760485Y-105963542D01*
X124510485Y-105963542D01*
X124367628Y-105939733D01*
X124296200Y-105892114D01*
X124260485Y-105844495D01*
X125010485Y-105177828D02*
X125010485Y-105415923D01*
X124260485Y-105415923D01*
X124510485Y-104796876D02*
X125010485Y-104796876D01*
X124224771Y-104915923D02*
X124760485Y-105034971D01*
X124760485Y-104725447D01*
X125010485Y-91087352D02*
X124653342Y-91254019D01*
X125010485Y-91373066D02*
X124260485Y-91373066D01*
X124260485Y-91182590D01*
X124296200Y-91134971D01*
X124331914Y-91111161D01*
X124403342Y-91087352D01*
X124510485Y-91087352D01*
X124581914Y-91111161D01*
X124617628Y-91134971D01*
X124653342Y-91182590D01*
X124653342Y-91373066D01*
X124260485Y-90777828D02*
X124260485Y-90682590D01*
X124296200Y-90634971D01*
X124367628Y-90587352D01*
X124510485Y-90563542D01*
X124760485Y-90563542D01*
X124903342Y-90587352D01*
X124974771Y-90634971D01*
X125010485Y-90682590D01*
X125010485Y-90777828D01*
X124974771Y-90825447D01*
X124903342Y-90873066D01*
X124760485Y-90896876D01*
X124510485Y-90896876D01*
X124367628Y-90873066D01*
X124296200Y-90825447D01*
X124260485Y-90777828D01*
X124260485Y-90396876D02*
X125010485Y-90277828D01*
X124474771Y-90182590D01*
X125010485Y-90087352D01*
X124260485Y-89968304D01*
X124331914Y-89801638D02*
X124296200Y-89777828D01*
X124260485Y-89730209D01*
X124260485Y-89611161D01*
X124296200Y-89563542D01*
X124331914Y-89539733D01*
X124403342Y-89515923D01*
X124474771Y-89515923D01*
X124581914Y-89539733D01*
X125010485Y-89825447D01*
X125010485Y-89515923D01*
X127534557Y-106154019D02*
X127570271Y-106177828D01*
X127605985Y-106249257D01*
X127605985Y-106296876D01*
X127570271Y-106368304D01*
X127498842Y-106415923D01*
X127427414Y-106439733D01*
X127284557Y-106463542D01*
X127177414Y-106463542D01*
X127034557Y-106439733D01*
X126963128Y-106415923D01*
X126891700Y-106368304D01*
X126855985Y-106296876D01*
X126855985Y-106249257D01*
X126891700Y-106177828D01*
X126927414Y-106154019D01*
X126855985Y-105844495D02*
X126855985Y-105749257D01*
X126891700Y-105701638D01*
X126963128Y-105654019D01*
X127105985Y-105630209D01*
X127355985Y-105630209D01*
X127498842Y-105654019D01*
X127570271Y-105701638D01*
X127605985Y-105749257D01*
X127605985Y-105844495D01*
X127570271Y-105892114D01*
X127498842Y-105939733D01*
X127355985Y-105963542D01*
X127105985Y-105963542D01*
X126963128Y-105939733D01*
X126891700Y-105892114D01*
X126855985Y-105844495D01*
X127605985Y-105177828D02*
X127605985Y-105415923D01*
X126855985Y-105415923D01*
X126855985Y-104773066D02*
X126855985Y-105011161D01*
X127213128Y-105034971D01*
X127177414Y-105011161D01*
X127141700Y-104963542D01*
X127141700Y-104844495D01*
X127177414Y-104796876D01*
X127213128Y-104773066D01*
X127284557Y-104749257D01*
X127463128Y-104749257D01*
X127534557Y-104773066D01*
X127570271Y-104796876D01*
X127605985Y-104844495D01*
X127605985Y-104963542D01*
X127570271Y-105011161D01*
X127534557Y-105034971D01*
X127605985Y-91087352D02*
X127248842Y-91254019D01*
X127605985Y-91373066D02*
X126855985Y-91373066D01*
X126855985Y-91182590D01*
X126891700Y-91134971D01*
X126927414Y-91111161D01*
X126998842Y-91087352D01*
X127105985Y-91087352D01*
X127177414Y-91111161D01*
X127213128Y-91134971D01*
X127248842Y-91182590D01*
X127248842Y-91373066D01*
X126855985Y-90777828D02*
X126855985Y-90682590D01*
X126891700Y-90634971D01*
X126963128Y-90587352D01*
X127105985Y-90563542D01*
X127355985Y-90563542D01*
X127498842Y-90587352D01*
X127570271Y-90634971D01*
X127605985Y-90682590D01*
X127605985Y-90777828D01*
X127570271Y-90825447D01*
X127498842Y-90873066D01*
X127355985Y-90896876D01*
X127105985Y-90896876D01*
X126963128Y-90873066D01*
X126891700Y-90825447D01*
X126855985Y-90777828D01*
X126855985Y-90396876D02*
X127605985Y-90277828D01*
X127070271Y-90182590D01*
X127605985Y-90087352D01*
X126855985Y-89968304D01*
X126855985Y-89825447D02*
X126855985Y-89515923D01*
X127141700Y-89682590D01*
X127141700Y-89611161D01*
X127177414Y-89563542D01*
X127213128Y-89539733D01*
X127284557Y-89515923D01*
X127463128Y-89515923D01*
X127534557Y-89539733D01*
X127570271Y-89563542D01*
X127605985Y-89611161D01*
X127605985Y-89754019D01*
X127570271Y-89801638D01*
X127534557Y-89825447D01*
X129717628Y-105808780D02*
X129753342Y-105737352D01*
X129789057Y-105713542D01*
X129860485Y-105689733D01*
X129967628Y-105689733D01*
X130039057Y-105713542D01*
X130074771Y-105737352D01*
X130110485Y-105784971D01*
X130110485Y-105975447D01*
X129360485Y-105975447D01*
X129360485Y-105808780D01*
X129396200Y-105761161D01*
X129431914Y-105737352D01*
X129503342Y-105713542D01*
X129574771Y-105713542D01*
X129646200Y-105737352D01*
X129681914Y-105761161D01*
X129717628Y-105808780D01*
X129717628Y-105975447D01*
X129431914Y-105499257D02*
X129396200Y-105475447D01*
X129360485Y-105427828D01*
X129360485Y-105308780D01*
X129396200Y-105261161D01*
X129431914Y-105237352D01*
X129503342Y-105213542D01*
X129574771Y-105213542D01*
X129681914Y-105237352D01*
X130110485Y-105523066D01*
X130110485Y-105213542D01*
X129689628Y-90658780D02*
X129725342Y-90587352D01*
X129761057Y-90563542D01*
X129832485Y-90539733D01*
X129939628Y-90539733D01*
X130011057Y-90563542D01*
X130046771Y-90587352D01*
X130082485Y-90634971D01*
X130082485Y-90825447D01*
X129332485Y-90825447D01*
X129332485Y-90658780D01*
X129368200Y-90611161D01*
X129403914Y-90587352D01*
X129475342Y-90563542D01*
X129546771Y-90563542D01*
X129618200Y-90587352D01*
X129653914Y-90611161D01*
X129689628Y-90658780D01*
X129689628Y-90825447D01*
X129582485Y-90111161D02*
X130082485Y-90111161D01*
X129296771Y-90230209D02*
X129832485Y-90349257D01*
X129832485Y-90039733D01*
X132293128Y-90658780D02*
X132328842Y-90587352D01*
X132364557Y-90563542D01*
X132435985Y-90539733D01*
X132543128Y-90539733D01*
X132614557Y-90563542D01*
X132650271Y-90587352D01*
X132685985Y-90634971D01*
X132685985Y-90825447D01*
X131935985Y-90825447D01*
X131935985Y-90658780D01*
X131971700Y-90611161D01*
X132007414Y-90587352D01*
X132078842Y-90563542D01*
X132150271Y-90563542D01*
X132221700Y-90587352D01*
X132257414Y-90611161D01*
X132293128Y-90658780D01*
X132293128Y-90825447D01*
X131935985Y-90087352D02*
X131935985Y-90325447D01*
X132293128Y-90349257D01*
X132257414Y-90325447D01*
X132221700Y-90277828D01*
X132221700Y-90158780D01*
X132257414Y-90111161D01*
X132293128Y-90087352D01*
X132364557Y-90063542D01*
X132543128Y-90063542D01*
X132614557Y-90087352D01*
X132650271Y-90111161D01*
X132685985Y-90158780D01*
X132685985Y-90277828D01*
X132650271Y-90325447D01*
X132614557Y-90349257D01*
X132267628Y-105908780D02*
X132303342Y-105837352D01*
X132339057Y-105813542D01*
X132410485Y-105789733D01*
X132517628Y-105789733D01*
X132589057Y-105813542D01*
X132624771Y-105837352D01*
X132660485Y-105884971D01*
X132660485Y-106075447D01*
X131910485Y-106075447D01*
X131910485Y-105908780D01*
X131946200Y-105861161D01*
X131981914Y-105837352D01*
X132053342Y-105813542D01*
X132124771Y-105813542D01*
X132196200Y-105837352D01*
X132231914Y-105861161D01*
X132267628Y-105908780D01*
X132267628Y-106075447D01*
X131910485Y-105361161D02*
X131910485Y-105456400D01*
X131946200Y-105504019D01*
X131981914Y-105527828D01*
X132089057Y-105575447D01*
X132231914Y-105599257D01*
X132517628Y-105599257D01*
X132589057Y-105575447D01*
X132624771Y-105551638D01*
X132660485Y-105504019D01*
X132660485Y-105408780D01*
X132624771Y-105361161D01*
X132589057Y-105337352D01*
X132517628Y-105313542D01*
X132339057Y-105313542D01*
X132267628Y-105337352D01*
X132231914Y-105361161D01*
X132196200Y-105408780D01*
X132196200Y-105504019D01*
X132231914Y-105551638D01*
X132267628Y-105575447D01*
X132339057Y-105599257D01*
X114789057Y-106104019D02*
X114824771Y-106127828D01*
X114860485Y-106199257D01*
X114860485Y-106246876D01*
X114824771Y-106318304D01*
X114753342Y-106365923D01*
X114681914Y-106389733D01*
X114539057Y-106413542D01*
X114431914Y-106413542D01*
X114289057Y-106389733D01*
X114217628Y-106365923D01*
X114146200Y-106318304D01*
X114110485Y-106246876D01*
X114110485Y-106199257D01*
X114146200Y-106127828D01*
X114181914Y-106104019D01*
X114110485Y-105794495D02*
X114110485Y-105699257D01*
X114146200Y-105651638D01*
X114217628Y-105604019D01*
X114360485Y-105580209D01*
X114610485Y-105580209D01*
X114753342Y-105604019D01*
X114824771Y-105651638D01*
X114860485Y-105699257D01*
X114860485Y-105794495D01*
X114824771Y-105842114D01*
X114753342Y-105889733D01*
X114610485Y-105913542D01*
X114360485Y-105913542D01*
X114217628Y-105889733D01*
X114146200Y-105842114D01*
X114110485Y-105794495D01*
X114860485Y-105127828D02*
X114860485Y-105365923D01*
X114110485Y-105365923D01*
X114110485Y-104865923D02*
X114110485Y-104818304D01*
X114146200Y-104770685D01*
X114181914Y-104746876D01*
X114253342Y-104723066D01*
X114396200Y-104699257D01*
X114574771Y-104699257D01*
X114717628Y-104723066D01*
X114789057Y-104746876D01*
X114824771Y-104770685D01*
X114860485Y-104818304D01*
X114860485Y-104865923D01*
X114824771Y-104913542D01*
X114789057Y-104937352D01*
X114717628Y-104961161D01*
X114574771Y-104984971D01*
X114396200Y-104984971D01*
X114253342Y-104961161D01*
X114181914Y-104937352D01*
X114146200Y-104913542D01*
X114110485Y-104865923D01*
X114806771Y-90802542D02*
X114842485Y-90731114D01*
X114842485Y-90612066D01*
X114806771Y-90564447D01*
X114771057Y-90540638D01*
X114699628Y-90516828D01*
X114628200Y-90516828D01*
X114556771Y-90540638D01*
X114521057Y-90564447D01*
X114485342Y-90612066D01*
X114449628Y-90707304D01*
X114413914Y-90754923D01*
X114378200Y-90778733D01*
X114306771Y-90802542D01*
X114235342Y-90802542D01*
X114163914Y-90778733D01*
X114128200Y-90754923D01*
X114092485Y-90707304D01*
X114092485Y-90588257D01*
X114128200Y-90516828D01*
X114842485Y-90302542D02*
X114092485Y-90302542D01*
X114092485Y-90183495D01*
X114128200Y-90112066D01*
X114199628Y-90064447D01*
X114271057Y-90040638D01*
X114413914Y-90016828D01*
X114521057Y-90016828D01*
X114663914Y-90040638D01*
X114735342Y-90064447D01*
X114806771Y-90112066D01*
X114842485Y-90183495D01*
X114842485Y-90302542D01*
X114628200Y-89826352D02*
X114628200Y-89588257D01*
X114842485Y-89873971D02*
X114092485Y-89707304D01*
X114842485Y-89540638D01*
X117311057Y-106054019D02*
X117346771Y-106077828D01*
X117382485Y-106149257D01*
X117382485Y-106196876D01*
X117346771Y-106268304D01*
X117275342Y-106315923D01*
X117203914Y-106339733D01*
X117061057Y-106363542D01*
X116953914Y-106363542D01*
X116811057Y-106339733D01*
X116739628Y-106315923D01*
X116668200Y-106268304D01*
X116632485Y-106196876D01*
X116632485Y-106149257D01*
X116668200Y-106077828D01*
X116703914Y-106054019D01*
X116632485Y-105744495D02*
X116632485Y-105649257D01*
X116668200Y-105601638D01*
X116739628Y-105554019D01*
X116882485Y-105530209D01*
X117132485Y-105530209D01*
X117275342Y-105554019D01*
X117346771Y-105601638D01*
X117382485Y-105649257D01*
X117382485Y-105744495D01*
X117346771Y-105792114D01*
X117275342Y-105839733D01*
X117132485Y-105863542D01*
X116882485Y-105863542D01*
X116739628Y-105839733D01*
X116668200Y-105792114D01*
X116632485Y-105744495D01*
X117382485Y-105077828D02*
X117382485Y-105315923D01*
X116632485Y-105315923D01*
X117382485Y-104649257D02*
X117382485Y-104934971D01*
X117382485Y-104792114D02*
X116632485Y-104792114D01*
X116739628Y-104839733D01*
X116811057Y-104887352D01*
X116846771Y-104934971D01*
X117346771Y-90790638D02*
X117382485Y-90719209D01*
X117382485Y-90600161D01*
X117346771Y-90552542D01*
X117311057Y-90528733D01*
X117239628Y-90504923D01*
X117168200Y-90504923D01*
X117096771Y-90528733D01*
X117061057Y-90552542D01*
X117025342Y-90600161D01*
X116989628Y-90695400D01*
X116953914Y-90743019D01*
X116918200Y-90766828D01*
X116846771Y-90790638D01*
X116775342Y-90790638D01*
X116703914Y-90766828D01*
X116668200Y-90743019D01*
X116632485Y-90695400D01*
X116632485Y-90576352D01*
X116668200Y-90504923D01*
X117311057Y-90004923D02*
X117346771Y-90028733D01*
X117382485Y-90100161D01*
X117382485Y-90147780D01*
X117346771Y-90219209D01*
X117275342Y-90266828D01*
X117203914Y-90290638D01*
X117061057Y-90314447D01*
X116953914Y-90314447D01*
X116811057Y-90290638D01*
X116739628Y-90266828D01*
X116668200Y-90219209D01*
X116632485Y-90147780D01*
X116632485Y-90100161D01*
X116668200Y-90028733D01*
X116703914Y-90004923D01*
X117382485Y-89552542D02*
X117382485Y-89790638D01*
X116632485Y-89790638D01*
X119851057Y-106104019D02*
X119886771Y-106127828D01*
X119922485Y-106199257D01*
X119922485Y-106246876D01*
X119886771Y-106318304D01*
X119815342Y-106365923D01*
X119743914Y-106389733D01*
X119601057Y-106413542D01*
X119493914Y-106413542D01*
X119351057Y-106389733D01*
X119279628Y-106365923D01*
X119208200Y-106318304D01*
X119172485Y-106246876D01*
X119172485Y-106199257D01*
X119208200Y-106127828D01*
X119243914Y-106104019D01*
X119172485Y-105794495D02*
X119172485Y-105699257D01*
X119208200Y-105651638D01*
X119279628Y-105604019D01*
X119422485Y-105580209D01*
X119672485Y-105580209D01*
X119815342Y-105604019D01*
X119886771Y-105651638D01*
X119922485Y-105699257D01*
X119922485Y-105794495D01*
X119886771Y-105842114D01*
X119815342Y-105889733D01*
X119672485Y-105913542D01*
X119422485Y-105913542D01*
X119279628Y-105889733D01*
X119208200Y-105842114D01*
X119172485Y-105794495D01*
X119922485Y-105127828D02*
X119922485Y-105365923D01*
X119172485Y-105365923D01*
X119243914Y-104984971D02*
X119208200Y-104961161D01*
X119172485Y-104913542D01*
X119172485Y-104794495D01*
X119208200Y-104746876D01*
X119243914Y-104723066D01*
X119315342Y-104699257D01*
X119386771Y-104699257D01*
X119493914Y-104723066D01*
X119922485Y-105008780D01*
X119922485Y-104699257D01*
X119960485Y-91087352D02*
X119603342Y-91254019D01*
X119960485Y-91373066D02*
X119210485Y-91373066D01*
X119210485Y-91182590D01*
X119246200Y-91134971D01*
X119281914Y-91111161D01*
X119353342Y-91087352D01*
X119460485Y-91087352D01*
X119531914Y-91111161D01*
X119567628Y-91134971D01*
X119603342Y-91182590D01*
X119603342Y-91373066D01*
X119210485Y-90777828D02*
X119210485Y-90682590D01*
X119246200Y-90634971D01*
X119317628Y-90587352D01*
X119460485Y-90563542D01*
X119710485Y-90563542D01*
X119853342Y-90587352D01*
X119924771Y-90634971D01*
X119960485Y-90682590D01*
X119960485Y-90777828D01*
X119924771Y-90825447D01*
X119853342Y-90873066D01*
X119710485Y-90896876D01*
X119460485Y-90896876D01*
X119317628Y-90873066D01*
X119246200Y-90825447D01*
X119210485Y-90777828D01*
X119210485Y-90396876D02*
X119960485Y-90277828D01*
X119424771Y-90182590D01*
X119960485Y-90087352D01*
X119210485Y-89968304D01*
X119210485Y-89682590D02*
X119210485Y-89634971D01*
X119246200Y-89587352D01*
X119281914Y-89563542D01*
X119353342Y-89539733D01*
X119496200Y-89515923D01*
X119674771Y-89515923D01*
X119817628Y-89539733D01*
X119889057Y-89563542D01*
X119924771Y-89587352D01*
X119960485Y-89634971D01*
X119960485Y-89682590D01*
X119924771Y-89730209D01*
X119889057Y-89754019D01*
X119817628Y-89777828D01*
X119674771Y-89801638D01*
X119496200Y-89801638D01*
X119353342Y-89777828D01*
X119281914Y-89754019D01*
X119246200Y-89730209D01*
X119210485Y-89682590D01*
X122439057Y-106204019D02*
X122474771Y-106227828D01*
X122510485Y-106299257D01*
X122510485Y-106346876D01*
X122474771Y-106418304D01*
X122403342Y-106465923D01*
X122331914Y-106489733D01*
X122189057Y-106513542D01*
X122081914Y-106513542D01*
X121939057Y-106489733D01*
X121867628Y-106465923D01*
X121796200Y-106418304D01*
X121760485Y-106346876D01*
X121760485Y-106299257D01*
X121796200Y-106227828D01*
X121831914Y-106204019D01*
X121760485Y-105894495D02*
X121760485Y-105799257D01*
X121796200Y-105751638D01*
X121867628Y-105704019D01*
X122010485Y-105680209D01*
X122260485Y-105680209D01*
X122403342Y-105704019D01*
X122474771Y-105751638D01*
X122510485Y-105799257D01*
X122510485Y-105894495D01*
X122474771Y-105942114D01*
X122403342Y-105989733D01*
X122260485Y-106013542D01*
X122010485Y-106013542D01*
X121867628Y-105989733D01*
X121796200Y-105942114D01*
X121760485Y-105894495D01*
X122510485Y-105227828D02*
X122510485Y-105465923D01*
X121760485Y-105465923D01*
X121760485Y-105108780D02*
X121760485Y-104799257D01*
X122046200Y-104965923D01*
X122046200Y-104894495D01*
X122081914Y-104846876D01*
X122117628Y-104823066D01*
X122189057Y-104799257D01*
X122367628Y-104799257D01*
X122439057Y-104823066D01*
X122474771Y-104846876D01*
X122510485Y-104894495D01*
X122510485Y-105037352D01*
X122474771Y-105084971D01*
X122439057Y-105108780D01*
X111651700Y-90576352D02*
X111615985Y-90623971D01*
X111615985Y-90695400D01*
X111651700Y-90766828D01*
X111723128Y-90814447D01*
X111794557Y-90838257D01*
X111937414Y-90862066D01*
X112044557Y-90862066D01*
X112187414Y-90838257D01*
X112258842Y-90814447D01*
X112330271Y-90766828D01*
X112365985Y-90695400D01*
X112365985Y-90647780D01*
X112330271Y-90576352D01*
X112294557Y-90552542D01*
X112044557Y-90552542D01*
X112044557Y-90647780D01*
X112365985Y-90338257D02*
X111615985Y-90338257D01*
X112365985Y-90052542D01*
X111615985Y-90052542D01*
X112365985Y-89814447D02*
X111615985Y-89814447D01*
X111615985Y-89695400D01*
X111651700Y-89623971D01*
X111723128Y-89576352D01*
X111794557Y-89552542D01*
X111937414Y-89528733D01*
X112044557Y-89528733D01*
X112187414Y-89552542D01*
X112258842Y-89576352D01*
X112330271Y-89623971D01*
X112365985Y-89695400D01*
X112365985Y-89814447D01*
X111552485Y-106038566D02*
X112302485Y-105871900D01*
X111552485Y-105705233D01*
X112231057Y-105252852D02*
X112266771Y-105276661D01*
X112302485Y-105348090D01*
X112302485Y-105395709D01*
X112266771Y-105467138D01*
X112195342Y-105514757D01*
X112123914Y-105538566D01*
X111981057Y-105562376D01*
X111873914Y-105562376D01*
X111731057Y-105538566D01*
X111659628Y-105514757D01*
X111588200Y-105467138D01*
X111552485Y-105395709D01*
X111552485Y-105348090D01*
X111588200Y-105276661D01*
X111623914Y-105252852D01*
X112231057Y-104752852D02*
X112266771Y-104776661D01*
X112302485Y-104848090D01*
X112302485Y-104895709D01*
X112266771Y-104967138D01*
X112195342Y-105014757D01*
X112123914Y-105038566D01*
X111981057Y-105062376D01*
X111873914Y-105062376D01*
X111731057Y-105038566D01*
X111659628Y-105014757D01*
X111588200Y-104967138D01*
X111552485Y-104895709D01*
X111552485Y-104848090D01*
X111588200Y-104776661D01*
X111623914Y-104752852D01*
X109111700Y-90512852D02*
X109075985Y-90560471D01*
X109075985Y-90631900D01*
X109111700Y-90703328D01*
X109183128Y-90750947D01*
X109254557Y-90774757D01*
X109397414Y-90798566D01*
X109504557Y-90798566D01*
X109647414Y-90774757D01*
X109718842Y-90750947D01*
X109790271Y-90703328D01*
X109825985Y-90631900D01*
X109825985Y-90584280D01*
X109790271Y-90512852D01*
X109754557Y-90489042D01*
X109504557Y-90489042D01*
X109504557Y-90584280D01*
X109825985Y-90274757D02*
X109075985Y-90274757D01*
X109825985Y-89989042D01*
X109075985Y-89989042D01*
X109825985Y-89750947D02*
X109075985Y-89750947D01*
X109075985Y-89631900D01*
X109111700Y-89560471D01*
X109183128Y-89512852D01*
X109254557Y-89489042D01*
X109397414Y-89465233D01*
X109504557Y-89465233D01*
X109647414Y-89489042D01*
X109718842Y-89512852D01*
X109790271Y-89560471D01*
X109825985Y-89631900D01*
X109825985Y-89750947D01*
X109825985Y-105645709D02*
X109468842Y-105812376D01*
X109825985Y-105931423D02*
X109075985Y-105931423D01*
X109075985Y-105740947D01*
X109111700Y-105693328D01*
X109147414Y-105669519D01*
X109218842Y-105645709D01*
X109325985Y-105645709D01*
X109397414Y-105669519D01*
X109433128Y-105693328D01*
X109468842Y-105740947D01*
X109468842Y-105931423D01*
X109790271Y-105455233D02*
X109825985Y-105383804D01*
X109825985Y-105264757D01*
X109790271Y-105217138D01*
X109754557Y-105193328D01*
X109683128Y-105169519D01*
X109611700Y-105169519D01*
X109540271Y-105193328D01*
X109504557Y-105217138D01*
X109468842Y-105264757D01*
X109433128Y-105359995D01*
X109397414Y-105407614D01*
X109361700Y-105431423D01*
X109290271Y-105455233D01*
X109218842Y-105455233D01*
X109147414Y-105431423D01*
X109111700Y-105407614D01*
X109075985Y-105359995D01*
X109075985Y-105240947D01*
X109111700Y-105169519D01*
X109075985Y-105026661D02*
X109075985Y-104740947D01*
X109825985Y-104883804D02*
X109075985Y-104883804D01*
X107210485Y-91056400D02*
X106460485Y-91056400D01*
X106460485Y-90937352D01*
X106496200Y-90865923D01*
X106567628Y-90818304D01*
X106639057Y-90794495D01*
X106781914Y-90770685D01*
X106889057Y-90770685D01*
X107031914Y-90794495D01*
X107103342Y-90818304D01*
X107174771Y-90865923D01*
X107210485Y-90937352D01*
X107210485Y-91056400D01*
X106996200Y-90580209D02*
X106996200Y-90342114D01*
X107210485Y-90627828D02*
X106460485Y-90461161D01*
X107210485Y-90294495D01*
X106460485Y-90199257D02*
X106460485Y-89913542D01*
X107210485Y-90056400D02*
X106460485Y-90056400D01*
X106996200Y-89770685D02*
X106996200Y-89532590D01*
X107210485Y-89818304D02*
X106460485Y-89651638D01*
X107210485Y-89484971D01*
X106508200Y-105752852D02*
X106472485Y-105800471D01*
X106472485Y-105871900D01*
X106508200Y-105943328D01*
X106579628Y-105990947D01*
X106651057Y-106014757D01*
X106793914Y-106038566D01*
X106901057Y-106038566D01*
X107043914Y-106014757D01*
X107115342Y-105990947D01*
X107186771Y-105943328D01*
X107222485Y-105871900D01*
X107222485Y-105824280D01*
X107186771Y-105752852D01*
X107151057Y-105729042D01*
X106901057Y-105729042D01*
X106901057Y-105824280D01*
X107222485Y-105514757D02*
X106472485Y-105514757D01*
X107222485Y-105229042D01*
X106472485Y-105229042D01*
X107222485Y-104990947D02*
X106472485Y-104990947D01*
X106472485Y-104871900D01*
X106508200Y-104800471D01*
X106579628Y-104752852D01*
X106651057Y-104729042D01*
X106793914Y-104705233D01*
X106901057Y-104705233D01*
X107043914Y-104729042D01*
X107115342Y-104752852D01*
X107186771Y-104800471D01*
X107222485Y-104871900D01*
X107222485Y-104990947D01*
X104682485Y-90477828D02*
X104682485Y-90715923D01*
X103932485Y-90715923D01*
X104289628Y-90311161D02*
X104289628Y-90144495D01*
X104682485Y-90073066D02*
X104682485Y-90311161D01*
X103932485Y-90311161D01*
X103932485Y-90073066D01*
X104682485Y-89858780D02*
X103932485Y-89858780D01*
X103932485Y-89739733D01*
X103968200Y-89668304D01*
X104039628Y-89620685D01*
X104111057Y-89596876D01*
X104253914Y-89573066D01*
X104361057Y-89573066D01*
X104503914Y-89596876D01*
X104575342Y-89620685D01*
X104646771Y-89668304D01*
X104682485Y-89739733D01*
X104682485Y-89858780D01*
X104682485Y-105717138D02*
X104325342Y-105883804D01*
X104682485Y-106002852D02*
X103932485Y-106002852D01*
X103932485Y-105812376D01*
X103968200Y-105764757D01*
X104003914Y-105740947D01*
X104075342Y-105717138D01*
X104182485Y-105717138D01*
X104253914Y-105740947D01*
X104289628Y-105764757D01*
X104325342Y-105812376D01*
X104325342Y-106002852D01*
X104468200Y-105526661D02*
X104468200Y-105288566D01*
X104682485Y-105574280D02*
X103932485Y-105407614D01*
X104682485Y-105240947D01*
X103932485Y-105121900D02*
X104682485Y-105002852D01*
X104146771Y-104907614D01*
X104682485Y-104812376D01*
X103932485Y-104693328D01*
D13*
G04 #@! TD*
M02*
