G04 #@! TF.GenerationSoftware,KiCad,Pcbnew,(5.0.2)-1*
G04 #@! TF.CreationDate,2019-04-14T12:57:09+09:00*
G04 #@! TF.ProjectId,sockets-split,736f636b-6574-4732-9d73-706c69742e6b,1*
G04 #@! TF.SameCoordinates,Original*
G04 #@! TF.FileFunction,Legend,Bot*
G04 #@! TF.FilePolarity,Positive*
%FSLAX46Y46*%
G04 Gerber Fmt 4.6, Leading zero omitted, Abs format (unit mm)*
G04 Created by KiCad (PCBNEW (5.0.2)-1) date 2019/04/14 12:57:09*
%MOMM*%
%LPD*%
G01*
G04 APERTURE LIST*
%ADD10C,0.300000*%
%ADD11C,0.100000*%
%ADD12C,0.800000*%
%ADD13C,3.000000*%
%ADD14C,0.500000*%
%ADD15C,1.000000*%
%ADD16C,3.500000*%
%ADD17C,0.150000*%
%ADD18C,0.400000*%
%ADD19C,0.010000*%
%ADD20C,0.125000*%
G04 APERTURE END LIST*
D10*
X142270800Y-88867371D02*
X142270800Y-87867371D01*
X142270800Y-88010228D02*
X142199371Y-87938800D01*
X142056514Y-87867371D01*
X141842228Y-87867371D01*
X141699371Y-87938800D01*
X141627942Y-88081657D01*
X141627942Y-88867371D01*
X141627942Y-88081657D02*
X141556514Y-87938800D01*
X141413657Y-87867371D01*
X141199371Y-87867371D01*
X141056514Y-87938800D01*
X140985085Y-88081657D01*
X140985085Y-88867371D01*
X140413657Y-88867371D02*
X139627942Y-87867371D01*
X140413657Y-87867371D02*
X139627942Y-88867371D01*
X142243714Y-91254971D02*
X142243714Y-90254971D01*
X142243714Y-90540685D02*
X142172285Y-90397828D01*
X142100857Y-90326400D01*
X141958000Y-90254971D01*
X141815142Y-90254971D01*
X140743714Y-91183542D02*
X140886571Y-91254971D01*
X141172285Y-91254971D01*
X141315142Y-91183542D01*
X141386571Y-91040685D01*
X141386571Y-90469257D01*
X141315142Y-90326400D01*
X141172285Y-90254971D01*
X140886571Y-90254971D01*
X140743714Y-90326400D01*
X140672285Y-90469257D01*
X140672285Y-90612114D01*
X141386571Y-90754971D01*
X140172285Y-90254971D02*
X139815142Y-91254971D01*
X139458000Y-90254971D01*
X138100857Y-91254971D02*
X138958000Y-91254971D01*
X138529428Y-91254971D02*
X138529428Y-89754971D01*
X138672285Y-89969257D01*
X138815142Y-90112114D01*
X138958000Y-90183542D01*
X192552761Y-90923809D02*
X192076571Y-91161904D01*
X191124190Y-91161904D01*
X190647999Y-90923809D01*
X190409904Y-90447619D01*
X190409904Y-90209523D01*
X190647999Y-89733333D01*
X191124190Y-89495238D01*
X191838476Y-89495238D01*
X192314666Y-89257142D01*
X192552761Y-88780952D01*
X192552761Y-88542857D01*
X192314666Y-88066666D01*
X191838476Y-87828571D01*
X191124190Y-87828571D01*
X190647999Y-88066666D01*
X187552761Y-91161904D02*
X188028952Y-90923809D01*
X188267047Y-90685714D01*
X188505142Y-90209523D01*
X188505142Y-88780952D01*
X188267047Y-88304761D01*
X188028952Y-88066666D01*
X187552761Y-87828571D01*
X186838476Y-87828571D01*
X186362285Y-88066666D01*
X186124190Y-88304761D01*
X185886095Y-88780952D01*
X185886095Y-90209523D01*
X186124190Y-90685714D01*
X186362285Y-90923809D01*
X186838476Y-91161904D01*
X187552761Y-91161904D01*
X181600380Y-90923809D02*
X182076571Y-91161904D01*
X183028952Y-91161904D01*
X183505142Y-90923809D01*
X183743238Y-90685714D01*
X183981333Y-90209523D01*
X183981333Y-88780952D01*
X183743238Y-88304761D01*
X183505142Y-88066666D01*
X183028952Y-87828571D01*
X182076571Y-87828571D01*
X181600380Y-88066666D01*
X179457523Y-91161904D02*
X179457523Y-86161904D01*
X178981333Y-89257142D02*
X177552761Y-91161904D01*
X177552761Y-87828571D02*
X179457523Y-89733333D01*
X173505142Y-90923809D02*
X173981333Y-91161904D01*
X174933714Y-91161904D01*
X175409904Y-90923809D01*
X175648000Y-90447619D01*
X175648000Y-88542857D01*
X175409904Y-88066666D01*
X174933714Y-87828571D01*
X173981333Y-87828571D01*
X173505142Y-88066666D01*
X173267047Y-88542857D01*
X173267047Y-89019047D01*
X175648000Y-89495238D01*
X171838476Y-87828571D02*
X169933714Y-87828571D01*
X171124190Y-86161904D02*
X171124190Y-90447619D01*
X170886095Y-90923809D01*
X170409904Y-91161904D01*
X169933714Y-91161904D01*
X168505142Y-90923809D02*
X168028952Y-91161904D01*
X167076571Y-91161904D01*
X166600380Y-90923809D01*
X166362285Y-90447619D01*
X166362285Y-90209523D01*
X166600380Y-89733333D01*
X167076571Y-89495238D01*
X167790857Y-89495238D01*
X168267047Y-89257142D01*
X168505142Y-88780952D01*
X168505142Y-88542857D01*
X168267047Y-88066666D01*
X167790857Y-87828571D01*
X167076571Y-87828571D01*
X166600380Y-88066666D01*
X164219428Y-89257142D02*
X160409904Y-89257142D01*
X158267047Y-90923809D02*
X157790857Y-91161904D01*
X156838476Y-91161904D01*
X156362285Y-90923809D01*
X156124190Y-90447619D01*
X156124190Y-90209523D01*
X156362285Y-89733333D01*
X156838476Y-89495238D01*
X157552761Y-89495238D01*
X158028952Y-89257142D01*
X158267047Y-88780952D01*
X158267047Y-88542857D01*
X158028952Y-88066666D01*
X157552761Y-87828571D01*
X156838476Y-87828571D01*
X156362285Y-88066666D01*
X153981333Y-87828571D02*
X153981333Y-92828571D01*
X153981333Y-88066666D02*
X153505142Y-87828571D01*
X152552761Y-87828571D01*
X152076571Y-88066666D01*
X151838476Y-88304761D01*
X151600380Y-88780952D01*
X151600380Y-90209523D01*
X151838476Y-90685714D01*
X152076571Y-90923809D01*
X152552761Y-91161904D01*
X153505142Y-91161904D01*
X153981333Y-90923809D01*
X148743238Y-91161904D02*
X149219428Y-90923809D01*
X149457523Y-90447619D01*
X149457523Y-86161904D01*
X146838476Y-91161904D02*
X146838476Y-87828571D01*
X146838476Y-86161904D02*
X147076571Y-86400000D01*
X146838476Y-86638095D01*
X146600380Y-86400000D01*
X146838476Y-86161904D01*
X146838476Y-86638095D01*
X145171809Y-87828571D02*
X143267047Y-87828571D01*
X144457523Y-86161904D02*
X144457523Y-90447619D01*
X144219428Y-90923809D01*
X143743238Y-91161904D01*
X143267047Y-91161904D01*
D11*
X111232723Y-108082590D02*
X111232723Y-108487352D01*
X111208914Y-108534971D01*
X111185104Y-108558780D01*
X111137485Y-108582590D01*
X111042247Y-108582590D01*
X110994628Y-108558780D01*
X110970819Y-108534971D01*
X110947009Y-108487352D01*
X110947009Y-108082590D01*
X110708914Y-108249257D02*
X110708914Y-108582590D01*
X110708914Y-108296876D02*
X110685104Y-108273066D01*
X110637485Y-108249257D01*
X110566057Y-108249257D01*
X110518438Y-108273066D01*
X110494628Y-108320685D01*
X110494628Y-108582590D01*
X110042247Y-108582590D02*
X110042247Y-108082590D01*
X110042247Y-108558780D02*
X110089866Y-108582590D01*
X110185104Y-108582590D01*
X110232723Y-108558780D01*
X110256533Y-108534971D01*
X110280342Y-108487352D01*
X110280342Y-108344495D01*
X110256533Y-108296876D01*
X110232723Y-108273066D01*
X110185104Y-108249257D01*
X110089866Y-108249257D01*
X110042247Y-108273066D01*
X109613676Y-108558780D02*
X109661295Y-108582590D01*
X109756533Y-108582590D01*
X109804152Y-108558780D01*
X109827961Y-108511161D01*
X109827961Y-108320685D01*
X109804152Y-108273066D01*
X109756533Y-108249257D01*
X109661295Y-108249257D01*
X109613676Y-108273066D01*
X109589866Y-108320685D01*
X109589866Y-108368304D01*
X109827961Y-108415923D01*
X109375580Y-108582590D02*
X109375580Y-108249257D01*
X109375580Y-108344495D02*
X109351771Y-108296876D01*
X109327961Y-108273066D01*
X109280342Y-108249257D01*
X109232723Y-108249257D01*
X108851771Y-108249257D02*
X108851771Y-108654019D01*
X108875580Y-108701638D01*
X108899390Y-108725447D01*
X108947009Y-108749257D01*
X109018438Y-108749257D01*
X109066057Y-108725447D01*
X108851771Y-108558780D02*
X108899390Y-108582590D01*
X108994628Y-108582590D01*
X109042247Y-108558780D01*
X109066057Y-108534971D01*
X109089866Y-108487352D01*
X109089866Y-108344495D01*
X109066057Y-108296876D01*
X109042247Y-108273066D01*
X108994628Y-108249257D01*
X108899390Y-108249257D01*
X108851771Y-108273066D01*
X108542247Y-108582590D02*
X108589866Y-108558780D01*
X108613676Y-108511161D01*
X108613676Y-108082590D01*
X108280342Y-108582590D02*
X108327961Y-108558780D01*
X108351771Y-108534971D01*
X108375580Y-108487352D01*
X108375580Y-108344495D01*
X108351771Y-108296876D01*
X108327961Y-108273066D01*
X108280342Y-108249257D01*
X108208914Y-108249257D01*
X108161295Y-108273066D01*
X108137485Y-108296876D01*
X108113676Y-108344495D01*
X108113676Y-108487352D01*
X108137485Y-108534971D01*
X108161295Y-108558780D01*
X108208914Y-108582590D01*
X108280342Y-108582590D01*
X107947009Y-108249257D02*
X107851771Y-108582590D01*
X107756533Y-108344495D01*
X107661295Y-108582590D01*
X107566057Y-108249257D01*
X112629866Y-110622590D02*
X112463200Y-111122590D01*
X112296533Y-110622590D01*
X111844152Y-111074971D02*
X111867961Y-111098780D01*
X111939390Y-111122590D01*
X111987009Y-111122590D01*
X112058438Y-111098780D01*
X112106057Y-111051161D01*
X112129866Y-111003542D01*
X112153676Y-110908304D01*
X112153676Y-110836876D01*
X112129866Y-110741638D01*
X112106057Y-110694019D01*
X112058438Y-110646400D01*
X111987009Y-110622590D01*
X111939390Y-110622590D01*
X111867961Y-110646400D01*
X111844152Y-110670209D01*
X111344152Y-111074971D02*
X111367961Y-111098780D01*
X111439390Y-111122590D01*
X111487009Y-111122590D01*
X111558438Y-111098780D01*
X111606057Y-111051161D01*
X111629866Y-111003542D01*
X111653676Y-110908304D01*
X111653676Y-110836876D01*
X111629866Y-110741638D01*
X111606057Y-110694019D01*
X111558438Y-110646400D01*
X111487009Y-110622590D01*
X111439390Y-110622590D01*
X111367961Y-110646400D01*
X111344152Y-110670209D01*
X109744628Y-111122590D02*
X109982723Y-111122590D01*
X109982723Y-110622590D01*
X109577961Y-110860685D02*
X109411295Y-110860685D01*
X109339866Y-111122590D02*
X109577961Y-111122590D01*
X109577961Y-110622590D01*
X109339866Y-110622590D01*
X109125580Y-111122590D02*
X109125580Y-110622590D01*
X109006533Y-110622590D01*
X108935104Y-110646400D01*
X108887485Y-110694019D01*
X108863676Y-110741638D01*
X108839866Y-110836876D01*
X108839866Y-110908304D01*
X108863676Y-111003542D01*
X108887485Y-111051161D01*
X108935104Y-111098780D01*
X109006533Y-111122590D01*
X109125580Y-111122590D01*
X107264152Y-110646400D02*
X107311771Y-110622590D01*
X107383200Y-110622590D01*
X107454628Y-110646400D01*
X107502247Y-110694019D01*
X107526057Y-110741638D01*
X107549866Y-110836876D01*
X107549866Y-110908304D01*
X107526057Y-111003542D01*
X107502247Y-111051161D01*
X107454628Y-111098780D01*
X107383200Y-111122590D01*
X107335580Y-111122590D01*
X107264152Y-111098780D01*
X107240342Y-111074971D01*
X107240342Y-110908304D01*
X107335580Y-110908304D01*
X107026057Y-111122590D02*
X107026057Y-110622590D01*
X106740342Y-111122590D01*
X106740342Y-110622590D01*
X106502247Y-111122590D02*
X106502247Y-110622590D01*
X106383200Y-110622590D01*
X106311771Y-110646400D01*
X106264152Y-110694019D01*
X106240342Y-110741638D01*
X106216533Y-110836876D01*
X106216533Y-110908304D01*
X106240342Y-111003542D01*
X106264152Y-111051161D01*
X106311771Y-111098780D01*
X106383200Y-111122590D01*
X106502247Y-111122590D01*
D10*
G04 #@! TO.C,SW18*
X175746500Y-95767999D02*
X175746500Y-94868000D01*
D12*
X176246500Y-97968000D02*
X176246500Y-96168001D01*
D13*
X177376500Y-94468000D02*
X177376500Y-96708000D01*
D14*
X185846500Y-96268000D02*
X184446500Y-96268000D01*
D15*
X185446500Y-93568000D02*
X185446500Y-96068000D01*
D16*
X184146500Y-94768000D02*
X177446500Y-94768000D01*
D17*
X186146500Y-96568000D02*
X186146500Y-95568000D01*
X186146500Y-95568000D02*
X185946500Y-95568000D01*
X185926500Y-95568000D02*
X185926500Y-93318000D01*
X185946500Y-93318000D02*
X186146500Y-93318000D01*
X175646500Y-95868000D02*
X175846500Y-95868000D01*
X175876500Y-95868000D02*
X175876500Y-98108000D01*
X175846500Y-98108000D02*
X175646500Y-98108000D01*
X175646500Y-98468000D02*
X175646500Y-98108000D01*
X175646500Y-94868000D02*
X175646500Y-95868000D01*
X175646500Y-98468000D02*
X178926500Y-98468000D01*
X181146500Y-96568000D02*
X186146500Y-96568000D01*
X186146500Y-92968000D02*
X177746499Y-92968000D01*
X178930182Y-98446529D02*
G75*
G02X181146500Y-96568000I2151318J-291471D01*
G01*
X175646500Y-94868001D02*
G75*
G02X177746499Y-92968000I2000000J-99999D01*
G01*
X186146500Y-93318000D02*
X186146500Y-92968000D01*
D15*
X178530182Y-98046529D02*
G75*
G02X180746500Y-96168000I2151318J-291471D01*
G01*
D14*
X175846500Y-98268000D02*
X178546500Y-98268000D01*
D18*
X185946500Y-93168000D02*
X184546500Y-93168000D01*
X185946500Y-95668000D02*
X185946500Y-96368000D01*
D10*
G04 #@! TO.C,SW25*
X190034000Y-114817999D02*
X190034000Y-113918000D01*
D12*
X190534000Y-117018000D02*
X190534000Y-115218001D01*
D13*
X191664000Y-113518000D02*
X191664000Y-115758000D01*
D14*
X200134000Y-115318000D02*
X198734000Y-115318000D01*
D15*
X199734000Y-112618000D02*
X199734000Y-115118000D01*
D16*
X198434000Y-113818000D02*
X191734000Y-113818000D01*
D17*
X200434000Y-115618000D02*
X200434000Y-114618000D01*
X200434000Y-114618000D02*
X200234000Y-114618000D01*
X200214000Y-114618000D02*
X200214000Y-112368000D01*
X200234000Y-112368000D02*
X200434000Y-112368000D01*
X189934000Y-114918000D02*
X190134000Y-114918000D01*
X190164000Y-114918000D02*
X190164000Y-117158000D01*
X190134000Y-117158000D02*
X189934000Y-117158000D01*
X189934000Y-117518000D02*
X189934000Y-117158000D01*
X189934000Y-113918000D02*
X189934000Y-114918000D01*
X189934000Y-117518000D02*
X193214000Y-117518000D01*
X195434000Y-115618000D02*
X200434000Y-115618000D01*
X200434000Y-112018000D02*
X192033999Y-112018000D01*
X193217682Y-117496529D02*
G75*
G02X195434000Y-115618000I2151318J-291471D01*
G01*
X189934000Y-113918001D02*
G75*
G02X192033999Y-112018000I2000000J-99999D01*
G01*
X200434000Y-112368000D02*
X200434000Y-112018000D01*
D15*
X192817682Y-117096529D02*
G75*
G02X195034000Y-115218000I2151318J-291471D01*
G01*
D14*
X190134000Y-117318000D02*
X192834000Y-117318000D01*
D18*
X200234000Y-112218000D02*
X198834000Y-112218000D01*
X200234000Y-114718000D02*
X200234000Y-115418000D01*
D17*
G04 #@! TO.C,D1*
X117254000Y-67298000D02*
X117254000Y-65798000D01*
X111854000Y-67298000D02*
X117254000Y-67298000D01*
X111854000Y-65798000D02*
X111854000Y-67298000D01*
X117254000Y-65798000D02*
X111854000Y-65798000D01*
X114054000Y-66048000D02*
X114054000Y-67048000D01*
X115054000Y-67048000D02*
X114154000Y-66548000D01*
X115054000Y-66048000D02*
X115054000Y-67048000D01*
X114154000Y-66548000D02*
X115054000Y-66048000D01*
G04 #@! TO.C,D2*
X133204000Y-66548000D02*
X134104000Y-66048000D01*
X134104000Y-66048000D02*
X134104000Y-67048000D01*
X134104000Y-67048000D02*
X133204000Y-66548000D01*
X133104000Y-66048000D02*
X133104000Y-67048000D01*
X136304000Y-65798000D02*
X130904000Y-65798000D01*
X130904000Y-65798000D02*
X130904000Y-67298000D01*
X130904000Y-67298000D02*
X136304000Y-67298000D01*
X136304000Y-67298000D02*
X136304000Y-65798000D01*
G04 #@! TO.C,D3*
X152558800Y-66497200D02*
X153458800Y-65997200D01*
X153458800Y-65997200D02*
X153458800Y-66997200D01*
X153458800Y-66997200D02*
X152558800Y-66497200D01*
X152458800Y-65997200D02*
X152458800Y-66997200D01*
X155658800Y-65747200D02*
X150258800Y-65747200D01*
X150258800Y-65747200D02*
X150258800Y-67247200D01*
X150258800Y-67247200D02*
X155658800Y-67247200D01*
X155658800Y-67247200D02*
X155658800Y-65747200D01*
G04 #@! TO.C,D4*
X174404000Y-67298000D02*
X174404000Y-65798000D01*
X169004000Y-67298000D02*
X174404000Y-67298000D01*
X169004000Y-65798000D02*
X169004000Y-67298000D01*
X174404000Y-65798000D02*
X169004000Y-65798000D01*
X171204000Y-66048000D02*
X171204000Y-67048000D01*
X172204000Y-67048000D02*
X171304000Y-66548000D01*
X172204000Y-66048000D02*
X172204000Y-67048000D01*
X171304000Y-66548000D02*
X172204000Y-66048000D01*
G04 #@! TO.C,D5*
X193911200Y-65672400D02*
X193911200Y-64172400D01*
X188511200Y-65672400D02*
X193911200Y-65672400D01*
X188511200Y-64172400D02*
X188511200Y-65672400D01*
X193911200Y-64172400D02*
X188511200Y-64172400D01*
X190711200Y-64422400D02*
X190711200Y-65422400D01*
X191711200Y-65422400D02*
X190811200Y-64922400D01*
X191711200Y-64422400D02*
X191711200Y-65422400D01*
X190811200Y-64922400D02*
X191711200Y-64422400D01*
G04 #@! TO.C,D6*
X190760400Y-66903600D02*
X191660400Y-66403600D01*
X191660400Y-66403600D02*
X191660400Y-67403600D01*
X191660400Y-67403600D02*
X190760400Y-66903600D01*
X190660400Y-66403600D02*
X190660400Y-67403600D01*
X193860400Y-66153600D02*
X188460400Y-66153600D01*
X188460400Y-66153600D02*
X188460400Y-67653600D01*
X188460400Y-67653600D02*
X193860400Y-67653600D01*
X193860400Y-67653600D02*
X193860400Y-66153600D01*
G04 #@! TO.C,D7*
X112174000Y-86348000D02*
X112174000Y-84848000D01*
X106774000Y-86348000D02*
X112174000Y-86348000D01*
X106774000Y-84848000D02*
X106774000Y-86348000D01*
X112174000Y-84848000D02*
X106774000Y-84848000D01*
X108974000Y-85098000D02*
X108974000Y-86098000D01*
X109974000Y-86098000D02*
X109074000Y-85598000D01*
X109974000Y-85098000D02*
X109974000Y-86098000D01*
X109074000Y-85598000D02*
X109974000Y-85098000D01*
G04 #@! TO.C,D8*
X128124000Y-85598000D02*
X129024000Y-85098000D01*
X129024000Y-85098000D02*
X129024000Y-86098000D01*
X129024000Y-86098000D02*
X128124000Y-85598000D01*
X128024000Y-85098000D02*
X128024000Y-86098000D01*
X131224000Y-84848000D02*
X125824000Y-84848000D01*
X125824000Y-84848000D02*
X125824000Y-86348000D01*
X125824000Y-86348000D02*
X131224000Y-86348000D01*
X131224000Y-86348000D02*
X131224000Y-84848000D01*
G04 #@! TO.C,D9*
X147174000Y-85598000D02*
X148074000Y-85098000D01*
X148074000Y-85098000D02*
X148074000Y-86098000D01*
X148074000Y-86098000D02*
X147174000Y-85598000D01*
X147074000Y-85098000D02*
X147074000Y-86098000D01*
X150274000Y-84848000D02*
X144874000Y-84848000D01*
X144874000Y-84848000D02*
X144874000Y-86348000D01*
X144874000Y-86348000D02*
X150274000Y-86348000D01*
X150274000Y-86348000D02*
X150274000Y-84848000D01*
G04 #@! TO.C,D10*
X169324000Y-86348000D02*
X169324000Y-84848000D01*
X163924000Y-86348000D02*
X169324000Y-86348000D01*
X163924000Y-84848000D02*
X163924000Y-86348000D01*
X169324000Y-84848000D02*
X163924000Y-84848000D01*
X166124000Y-85098000D02*
X166124000Y-86098000D01*
X167124000Y-86098000D02*
X166224000Y-85598000D01*
X167124000Y-85098000D02*
X167124000Y-86098000D01*
X166224000Y-85598000D02*
X167124000Y-85098000D01*
G04 #@! TO.C,D11*
X188374000Y-86348000D02*
X188374000Y-84848000D01*
X182974000Y-86348000D02*
X188374000Y-86348000D01*
X182974000Y-84848000D02*
X182974000Y-86348000D01*
X188374000Y-84848000D02*
X182974000Y-84848000D01*
X185174000Y-85098000D02*
X185174000Y-86098000D01*
X186174000Y-86098000D02*
X185274000Y-85598000D01*
X186174000Y-85098000D02*
X186174000Y-86098000D01*
X185274000Y-85598000D02*
X186174000Y-85098000D01*
G04 #@! TO.C,D12*
X204324000Y-85598000D02*
X205224000Y-85098000D01*
X205224000Y-85098000D02*
X205224000Y-86098000D01*
X205224000Y-86098000D02*
X204324000Y-85598000D01*
X204224000Y-85098000D02*
X204224000Y-86098000D01*
X207424000Y-84848000D02*
X202024000Y-84848000D01*
X202024000Y-84848000D02*
X202024000Y-86348000D01*
X202024000Y-86348000D02*
X207424000Y-86348000D01*
X207424000Y-86348000D02*
X207424000Y-84848000D01*
G04 #@! TO.C,D13*
X100387200Y-109778800D02*
X101287200Y-109278800D01*
X101287200Y-109278800D02*
X101287200Y-110278800D01*
X101287200Y-110278800D02*
X100387200Y-109778800D01*
X100287200Y-109278800D02*
X100287200Y-110278800D01*
X103487200Y-109028800D02*
X98087200Y-109028800D01*
X98087200Y-109028800D02*
X98087200Y-110528800D01*
X98087200Y-110528800D02*
X103487200Y-110528800D01*
X103487200Y-110528800D02*
X103487200Y-109028800D01*
G04 #@! TO.C,D14*
X122080000Y-110528800D02*
X122080000Y-109028800D01*
X116680000Y-110528800D02*
X122080000Y-110528800D01*
X116680000Y-109028800D02*
X116680000Y-110528800D01*
X122080000Y-109028800D02*
X116680000Y-109028800D01*
X118880000Y-109278800D02*
X118880000Y-110278800D01*
X119880000Y-110278800D02*
X118980000Y-109778800D01*
X119880000Y-109278800D02*
X119880000Y-110278800D01*
X118980000Y-109778800D02*
X119880000Y-109278800D01*
G04 #@! TO.C,D15*
X143364000Y-104648000D02*
X144264000Y-104148000D01*
X144264000Y-104148000D02*
X144264000Y-105148000D01*
X144264000Y-105148000D02*
X143364000Y-104648000D01*
X143264000Y-104148000D02*
X143264000Y-105148000D01*
X146464000Y-103898000D02*
X141064000Y-103898000D01*
X141064000Y-103898000D02*
X141064000Y-105398000D01*
X141064000Y-105398000D02*
X146464000Y-105398000D01*
X146464000Y-105398000D02*
X146464000Y-103898000D01*
G04 #@! TO.C,D16*
X165514000Y-105398000D02*
X165514000Y-103898000D01*
X160114000Y-105398000D02*
X165514000Y-105398000D01*
X160114000Y-103898000D02*
X160114000Y-105398000D01*
X165514000Y-103898000D02*
X160114000Y-103898000D01*
X162314000Y-104148000D02*
X162314000Y-105148000D01*
X163314000Y-105148000D02*
X162414000Y-104648000D01*
X163314000Y-104148000D02*
X163314000Y-105148000D01*
X162414000Y-104648000D02*
X163314000Y-104148000D01*
G04 #@! TO.C,D17*
X181464000Y-104648000D02*
X182364000Y-104148000D01*
X182364000Y-104148000D02*
X182364000Y-105148000D01*
X182364000Y-105148000D02*
X181464000Y-104648000D01*
X181364000Y-104148000D02*
X181364000Y-105148000D01*
X184564000Y-103898000D02*
X179164000Y-103898000D01*
X179164000Y-103898000D02*
X179164000Y-105398000D01*
X179164000Y-105398000D02*
X184564000Y-105398000D01*
X184564000Y-105398000D02*
X184564000Y-103898000D01*
G04 #@! TO.C,D18*
X203614000Y-105398000D02*
X203614000Y-103898000D01*
X198214000Y-105398000D02*
X203614000Y-105398000D01*
X198214000Y-103898000D02*
X198214000Y-105398000D01*
X203614000Y-103898000D02*
X198214000Y-103898000D01*
X200414000Y-104148000D02*
X200414000Y-105148000D01*
X201414000Y-105148000D02*
X200514000Y-104648000D01*
X201414000Y-104148000D02*
X201414000Y-105148000D01*
X200514000Y-104648000D02*
X201414000Y-104148000D01*
G04 #@! TO.C,D19*
X100184000Y-123698000D02*
X101084000Y-123198000D01*
X101084000Y-123198000D02*
X101084000Y-124198000D01*
X101084000Y-124198000D02*
X100184000Y-123698000D01*
X100084000Y-123198000D02*
X100084000Y-124198000D01*
X103284000Y-122948000D02*
X97884000Y-122948000D01*
X97884000Y-122948000D02*
X97884000Y-124448000D01*
X97884000Y-124448000D02*
X103284000Y-124448000D01*
X103284000Y-124448000D02*
X103284000Y-122948000D01*
G04 #@! TO.C,D20*
X122334000Y-124448000D02*
X122334000Y-122948000D01*
X116934000Y-124448000D02*
X122334000Y-124448000D01*
X116934000Y-122948000D02*
X116934000Y-124448000D01*
X122334000Y-122948000D02*
X116934000Y-122948000D01*
X119134000Y-123198000D02*
X119134000Y-124198000D01*
X120134000Y-124198000D02*
X119234000Y-123698000D01*
X120134000Y-123198000D02*
X120134000Y-124198000D01*
X119234000Y-123698000D02*
X120134000Y-123198000D01*
G04 #@! TO.C,D21*
X138284000Y-123698000D02*
X139184000Y-123198000D01*
X139184000Y-123198000D02*
X139184000Y-124198000D01*
X139184000Y-124198000D02*
X138284000Y-123698000D01*
X138184000Y-123198000D02*
X138184000Y-124198000D01*
X141384000Y-122948000D02*
X135984000Y-122948000D01*
X135984000Y-122948000D02*
X135984000Y-124448000D01*
X135984000Y-124448000D02*
X141384000Y-124448000D01*
X141384000Y-124448000D02*
X141384000Y-122948000D01*
G04 #@! TO.C,D22*
X160434000Y-124448000D02*
X160434000Y-122948000D01*
X155034000Y-124448000D02*
X160434000Y-124448000D01*
X155034000Y-122948000D02*
X155034000Y-124448000D01*
X160434000Y-122948000D02*
X155034000Y-122948000D01*
X157234000Y-123198000D02*
X157234000Y-124198000D01*
X158234000Y-124198000D02*
X157334000Y-123698000D01*
X158234000Y-123198000D02*
X158234000Y-124198000D01*
X157334000Y-123698000D02*
X158234000Y-123198000D01*
G04 #@! TO.C,D23*
X176384000Y-123698000D02*
X177284000Y-123198000D01*
X177284000Y-123198000D02*
X177284000Y-124198000D01*
X177284000Y-124198000D02*
X176384000Y-123698000D01*
X176284000Y-123198000D02*
X176284000Y-124198000D01*
X179484000Y-122948000D02*
X174084000Y-122948000D01*
X174084000Y-122948000D02*
X174084000Y-124448000D01*
X174084000Y-124448000D02*
X179484000Y-124448000D01*
X179484000Y-124448000D02*
X179484000Y-122948000D01*
G04 #@! TO.C,D24*
X198534000Y-124448000D02*
X198534000Y-122948000D01*
X193134000Y-124448000D02*
X198534000Y-124448000D01*
X193134000Y-122948000D02*
X193134000Y-124448000D01*
X198534000Y-122948000D02*
X193134000Y-122948000D01*
X195334000Y-123198000D02*
X195334000Y-124198000D01*
X196334000Y-124198000D02*
X195434000Y-123698000D01*
X196334000Y-123198000D02*
X196334000Y-124198000D01*
X195434000Y-123698000D02*
X196334000Y-123198000D01*
G04 #@! TO.C,J2*
X202634000Y-64614201D02*
X214634000Y-64614201D01*
X202634000Y-70614201D02*
X202634000Y-64614201D01*
X214634000Y-70614201D02*
X202634000Y-70614201D01*
X214634000Y-64614201D02*
X214634000Y-70614201D01*
G04 #@! TO.C,P1*
X198339200Y-68259200D02*
X198339200Y-66259200D01*
X200339200Y-68259200D02*
X198339200Y-68259200D01*
X200339200Y-66259200D02*
X200339200Y-68259200D01*
X198339200Y-66259200D02*
X200339200Y-66259200D01*
G04 #@! TO.C,P2*
X214696800Y-64532000D02*
X216696800Y-64532000D01*
X216696800Y-64532000D02*
X216696800Y-66532000D01*
X216696800Y-66532000D02*
X214696800Y-66532000D01*
X214696800Y-66532000D02*
X214696800Y-64532000D01*
G04 #@! TO.C,R1*
X198350000Y-69662800D02*
X198350000Y-71662800D01*
X195350000Y-69662800D02*
X198350000Y-69662800D01*
X195350000Y-71662800D02*
X195350000Y-69662800D01*
X198350000Y-71662800D02*
X195350000Y-71662800D01*
G04 #@! TO.C,R2*
X191187200Y-71662800D02*
X188187200Y-71662800D01*
X188187200Y-71662800D02*
X188187200Y-69662800D01*
X188187200Y-69662800D02*
X191187200Y-69662800D01*
X191187200Y-69662800D02*
X191187200Y-71662800D01*
G04 #@! TO.C,SW1*
X112393471Y-119715648D02*
X107893471Y-119715648D01*
X107893471Y-119715648D02*
X107893471Y-126215648D01*
X107893471Y-126215648D02*
X112393471Y-126215648D01*
X112393471Y-126215648D02*
X112393471Y-119715648D01*
D10*
G04 #@! TO.C,SW2*
X109071500Y-57667999D02*
X109071500Y-56768000D01*
D12*
X109571500Y-59868000D02*
X109571500Y-58068001D01*
D13*
X110701500Y-56368000D02*
X110701500Y-58608000D01*
D14*
X119171500Y-58168000D02*
X117771500Y-58168000D01*
D15*
X118771500Y-55468000D02*
X118771500Y-57968000D01*
D16*
X117471500Y-56668000D02*
X110771500Y-56668000D01*
D17*
X119471500Y-58468000D02*
X119471500Y-57468000D01*
X119471500Y-57468000D02*
X119271500Y-57468000D01*
X119251500Y-57468000D02*
X119251500Y-55218000D01*
X119271500Y-55218000D02*
X119471500Y-55218000D01*
X108971500Y-57768000D02*
X109171500Y-57768000D01*
X109201500Y-57768000D02*
X109201500Y-60008000D01*
X109171500Y-60008000D02*
X108971500Y-60008000D01*
X108971500Y-60368000D02*
X108971500Y-60008000D01*
X108971500Y-56768000D02*
X108971500Y-57768000D01*
X108971500Y-60368000D02*
X112251500Y-60368000D01*
X114471500Y-58468000D02*
X119471500Y-58468000D01*
X119471500Y-54868000D02*
X111071499Y-54868000D01*
X112255182Y-60346529D02*
G75*
G02X114471500Y-58468000I2151318J-291471D01*
G01*
X108971500Y-56768001D02*
G75*
G02X111071499Y-54868000I2000000J-99999D01*
G01*
X119471500Y-55218000D02*
X119471500Y-54868000D01*
D15*
X111855182Y-59946529D02*
G75*
G02X114071500Y-58068000I2151318J-291471D01*
G01*
D14*
X109171500Y-60168000D02*
X111871500Y-60168000D01*
D18*
X119271500Y-55068000D02*
X117871500Y-55068000D01*
X119271500Y-57568000D02*
X119271500Y-58268000D01*
G04 #@! TO.C,SW3*
X138321500Y-57568000D02*
X138321500Y-58268000D01*
X138321500Y-55068000D02*
X136921500Y-55068000D01*
D14*
X128221500Y-60168000D02*
X130921500Y-60168000D01*
D15*
X130905182Y-59946529D02*
G75*
G02X133121500Y-58068000I2151318J-291471D01*
G01*
D17*
X138521500Y-55218000D02*
X138521500Y-54868000D01*
X128021500Y-56768001D02*
G75*
G02X130121499Y-54868000I2000000J-99999D01*
G01*
X131305182Y-60346529D02*
G75*
G02X133521500Y-58468000I2151318J-291471D01*
G01*
X138521500Y-54868000D02*
X130121499Y-54868000D01*
X133521500Y-58468000D02*
X138521500Y-58468000D01*
X128021500Y-60368000D02*
X131301500Y-60368000D01*
X128021500Y-56768000D02*
X128021500Y-57768000D01*
X128021500Y-60368000D02*
X128021500Y-60008000D01*
X128221500Y-60008000D02*
X128021500Y-60008000D01*
X128251500Y-57768000D02*
X128251500Y-60008000D01*
X128021500Y-57768000D02*
X128221500Y-57768000D01*
X138321500Y-55218000D02*
X138521500Y-55218000D01*
X138301500Y-57468000D02*
X138301500Y-55218000D01*
X138521500Y-57468000D02*
X138321500Y-57468000D01*
X138521500Y-58468000D02*
X138521500Y-57468000D01*
D16*
X136521500Y-56668000D02*
X129821500Y-56668000D01*
D15*
X137821500Y-55468000D02*
X137821500Y-57968000D01*
D14*
X138221500Y-58168000D02*
X136821500Y-58168000D01*
D13*
X129751500Y-56368000D02*
X129751500Y-58608000D01*
D12*
X128621500Y-59868000D02*
X128621500Y-58068001D01*
D10*
X128121500Y-57667999D02*
X128121500Y-56768000D01*
G04 #@! TO.C,SW4*
X147171500Y-57667999D02*
X147171500Y-56768000D01*
D12*
X147671500Y-59868000D02*
X147671500Y-58068001D01*
D13*
X148801500Y-56368000D02*
X148801500Y-58608000D01*
D14*
X157271500Y-58168000D02*
X155871500Y-58168000D01*
D15*
X156871500Y-55468000D02*
X156871500Y-57968000D01*
D16*
X155571500Y-56668000D02*
X148871500Y-56668000D01*
D17*
X157571500Y-58468000D02*
X157571500Y-57468000D01*
X157571500Y-57468000D02*
X157371500Y-57468000D01*
X157351500Y-57468000D02*
X157351500Y-55218000D01*
X157371500Y-55218000D02*
X157571500Y-55218000D01*
X147071500Y-57768000D02*
X147271500Y-57768000D01*
X147301500Y-57768000D02*
X147301500Y-60008000D01*
X147271500Y-60008000D02*
X147071500Y-60008000D01*
X147071500Y-60368000D02*
X147071500Y-60008000D01*
X147071500Y-56768000D02*
X147071500Y-57768000D01*
X147071500Y-60368000D02*
X150351500Y-60368000D01*
X152571500Y-58468000D02*
X157571500Y-58468000D01*
X157571500Y-54868000D02*
X149171499Y-54868000D01*
X150355182Y-60346529D02*
G75*
G02X152571500Y-58468000I2151318J-291471D01*
G01*
X147071500Y-56768001D02*
G75*
G02X149171499Y-54868000I2000000J-99999D01*
G01*
X157571500Y-55218000D02*
X157571500Y-54868000D01*
D15*
X149955182Y-59946529D02*
G75*
G02X152171500Y-58068000I2151318J-291471D01*
G01*
D14*
X147271500Y-60168000D02*
X149971500Y-60168000D01*
D18*
X157371500Y-55068000D02*
X155971500Y-55068000D01*
X157371500Y-57568000D02*
X157371500Y-58268000D01*
G04 #@! TO.C,SW5*
X176421500Y-57568000D02*
X176421500Y-58268000D01*
X176421500Y-55068000D02*
X175021500Y-55068000D01*
D14*
X166321500Y-60168000D02*
X169021500Y-60168000D01*
D15*
X169005182Y-59946529D02*
G75*
G02X171221500Y-58068000I2151318J-291471D01*
G01*
D17*
X176621500Y-55218000D02*
X176621500Y-54868000D01*
X166121500Y-56768001D02*
G75*
G02X168221499Y-54868000I2000000J-99999D01*
G01*
X169405182Y-60346529D02*
G75*
G02X171621500Y-58468000I2151318J-291471D01*
G01*
X176621500Y-54868000D02*
X168221499Y-54868000D01*
X171621500Y-58468000D02*
X176621500Y-58468000D01*
X166121500Y-60368000D02*
X169401500Y-60368000D01*
X166121500Y-56768000D02*
X166121500Y-57768000D01*
X166121500Y-60368000D02*
X166121500Y-60008000D01*
X166321500Y-60008000D02*
X166121500Y-60008000D01*
X166351500Y-57768000D02*
X166351500Y-60008000D01*
X166121500Y-57768000D02*
X166321500Y-57768000D01*
X176421500Y-55218000D02*
X176621500Y-55218000D01*
X176401500Y-57468000D02*
X176401500Y-55218000D01*
X176621500Y-57468000D02*
X176421500Y-57468000D01*
X176621500Y-58468000D02*
X176621500Y-57468000D01*
D16*
X174621500Y-56668000D02*
X167921500Y-56668000D01*
D15*
X175921500Y-55468000D02*
X175921500Y-57968000D01*
D14*
X176321500Y-58168000D02*
X174921500Y-58168000D01*
D13*
X167851500Y-56368000D02*
X167851500Y-58608000D01*
D12*
X166721500Y-59868000D02*
X166721500Y-58068001D01*
D10*
X166221500Y-57667999D02*
X166221500Y-56768000D01*
D18*
G04 #@! TO.C,SW6*
X195471500Y-57568000D02*
X195471500Y-58268000D01*
X195471500Y-55068000D02*
X194071500Y-55068000D01*
D14*
X185371500Y-60168000D02*
X188071500Y-60168000D01*
D15*
X188055182Y-59946529D02*
G75*
G02X190271500Y-58068000I2151318J-291471D01*
G01*
D17*
X195671500Y-55218000D02*
X195671500Y-54868000D01*
X185171500Y-56768001D02*
G75*
G02X187271499Y-54868000I2000000J-99999D01*
G01*
X188455182Y-60346529D02*
G75*
G02X190671500Y-58468000I2151318J-291471D01*
G01*
X195671500Y-54868000D02*
X187271499Y-54868000D01*
X190671500Y-58468000D02*
X195671500Y-58468000D01*
X185171500Y-60368000D02*
X188451500Y-60368000D01*
X185171500Y-56768000D02*
X185171500Y-57768000D01*
X185171500Y-60368000D02*
X185171500Y-60008000D01*
X185371500Y-60008000D02*
X185171500Y-60008000D01*
X185401500Y-57768000D02*
X185401500Y-60008000D01*
X185171500Y-57768000D02*
X185371500Y-57768000D01*
X195471500Y-55218000D02*
X195671500Y-55218000D01*
X195451500Y-57468000D02*
X195451500Y-55218000D01*
X195671500Y-57468000D02*
X195471500Y-57468000D01*
X195671500Y-58468000D02*
X195671500Y-57468000D01*
D16*
X193671500Y-56668000D02*
X186971500Y-56668000D01*
D15*
X194971500Y-55468000D02*
X194971500Y-57968000D01*
D14*
X195371500Y-58168000D02*
X193971500Y-58168000D01*
D13*
X186901500Y-56368000D02*
X186901500Y-58608000D01*
D12*
X185771500Y-59868000D02*
X185771500Y-58068001D01*
D10*
X185271500Y-57667999D02*
X185271500Y-56768000D01*
D18*
G04 #@! TO.C,SW7*
X214413500Y-57568000D02*
X214413500Y-58268000D01*
X214413500Y-55068000D02*
X213013500Y-55068000D01*
D14*
X204313500Y-60168000D02*
X207013500Y-60168000D01*
D15*
X206997182Y-59946529D02*
G75*
G02X209213500Y-58068000I2151318J-291471D01*
G01*
D17*
X214613500Y-55218000D02*
X214613500Y-54868000D01*
X204113500Y-56768001D02*
G75*
G02X206213499Y-54868000I2000000J-99999D01*
G01*
X207397182Y-60346529D02*
G75*
G02X209613500Y-58468000I2151318J-291471D01*
G01*
X214613500Y-54868000D02*
X206213499Y-54868000D01*
X209613500Y-58468000D02*
X214613500Y-58468000D01*
X204113500Y-60368000D02*
X207393500Y-60368000D01*
X204113500Y-56768000D02*
X204113500Y-57768000D01*
X204113500Y-60368000D02*
X204113500Y-60008000D01*
X204313500Y-60008000D02*
X204113500Y-60008000D01*
X204343500Y-57768000D02*
X204343500Y-60008000D01*
X204113500Y-57768000D02*
X204313500Y-57768000D01*
X214413500Y-55218000D02*
X214613500Y-55218000D01*
X214393500Y-57468000D02*
X214393500Y-55218000D01*
X214613500Y-57468000D02*
X214413500Y-57468000D01*
X214613500Y-58468000D02*
X214613500Y-57468000D01*
D16*
X212613500Y-56668000D02*
X205913500Y-56668000D01*
D15*
X213913500Y-55468000D02*
X213913500Y-57968000D01*
D14*
X214313500Y-58168000D02*
X212913500Y-58168000D01*
D13*
X205843500Y-56368000D02*
X205843500Y-58608000D01*
D12*
X204713500Y-59868000D02*
X204713500Y-58068001D01*
D10*
X204213500Y-57667999D02*
X204213500Y-56768000D01*
G04 #@! TO.C,SW8*
X104309000Y-76717999D02*
X104309000Y-75818000D01*
D12*
X104809000Y-78918000D02*
X104809000Y-77118001D01*
D13*
X105939000Y-75418000D02*
X105939000Y-77658000D01*
D14*
X114409000Y-77218000D02*
X113009000Y-77218000D01*
D15*
X114009000Y-74518000D02*
X114009000Y-77018000D01*
D16*
X112709000Y-75718000D02*
X106009000Y-75718000D01*
D17*
X114709000Y-77518000D02*
X114709000Y-76518000D01*
X114709000Y-76518000D02*
X114509000Y-76518000D01*
X114489000Y-76518000D02*
X114489000Y-74268000D01*
X114509000Y-74268000D02*
X114709000Y-74268000D01*
X104209000Y-76818000D02*
X104409000Y-76818000D01*
X104439000Y-76818000D02*
X104439000Y-79058000D01*
X104409000Y-79058000D02*
X104209000Y-79058000D01*
X104209000Y-79418000D02*
X104209000Y-79058000D01*
X104209000Y-75818000D02*
X104209000Y-76818000D01*
X104209000Y-79418000D02*
X107489000Y-79418000D01*
X109709000Y-77518000D02*
X114709000Y-77518000D01*
X114709000Y-73918000D02*
X106308999Y-73918000D01*
X107492682Y-79396529D02*
G75*
G02X109709000Y-77518000I2151318J-291471D01*
G01*
X104209000Y-75818001D02*
G75*
G02X106308999Y-73918000I2000000J-99999D01*
G01*
X114709000Y-74268000D02*
X114709000Y-73918000D01*
D15*
X107092682Y-78996529D02*
G75*
G02X109309000Y-77118000I2151318J-291471D01*
G01*
D14*
X104409000Y-79218000D02*
X107109000Y-79218000D01*
D18*
X114509000Y-74118000D02*
X113109000Y-74118000D01*
X114509000Y-76618000D02*
X114509000Y-77318000D01*
D10*
G04 #@! TO.C,SW9*
X123359000Y-76717999D02*
X123359000Y-75818000D01*
D12*
X123859000Y-78918000D02*
X123859000Y-77118001D01*
D13*
X124989000Y-75418000D02*
X124989000Y-77658000D01*
D14*
X133459000Y-77218000D02*
X132059000Y-77218000D01*
D15*
X133059000Y-74518000D02*
X133059000Y-77018000D01*
D16*
X131759000Y-75718000D02*
X125059000Y-75718000D01*
D17*
X133759000Y-77518000D02*
X133759000Y-76518000D01*
X133759000Y-76518000D02*
X133559000Y-76518000D01*
X133539000Y-76518000D02*
X133539000Y-74268000D01*
X133559000Y-74268000D02*
X133759000Y-74268000D01*
X123259000Y-76818000D02*
X123459000Y-76818000D01*
X123489000Y-76818000D02*
X123489000Y-79058000D01*
X123459000Y-79058000D02*
X123259000Y-79058000D01*
X123259000Y-79418000D02*
X123259000Y-79058000D01*
X123259000Y-75818000D02*
X123259000Y-76818000D01*
X123259000Y-79418000D02*
X126539000Y-79418000D01*
X128759000Y-77518000D02*
X133759000Y-77518000D01*
X133759000Y-73918000D02*
X125358999Y-73918000D01*
X126542682Y-79396529D02*
G75*
G02X128759000Y-77518000I2151318J-291471D01*
G01*
X123259000Y-75818001D02*
G75*
G02X125358999Y-73918000I2000000J-99999D01*
G01*
X133759000Y-74268000D02*
X133759000Y-73918000D01*
D15*
X126142682Y-78996529D02*
G75*
G02X128359000Y-77118000I2151318J-291471D01*
G01*
D14*
X123459000Y-79218000D02*
X126159000Y-79218000D01*
D18*
X133559000Y-74118000D02*
X132159000Y-74118000D01*
X133559000Y-76618000D02*
X133559000Y-77318000D01*
G04 #@! TO.C,SW10*
X152609000Y-76618000D02*
X152609000Y-77318000D01*
X152609000Y-74118000D02*
X151209000Y-74118000D01*
D14*
X142509000Y-79218000D02*
X145209000Y-79218000D01*
D15*
X145192682Y-78996529D02*
G75*
G02X147409000Y-77118000I2151318J-291471D01*
G01*
D17*
X152809000Y-74268000D02*
X152809000Y-73918000D01*
X142309000Y-75818001D02*
G75*
G02X144408999Y-73918000I2000000J-99999D01*
G01*
X145592682Y-79396529D02*
G75*
G02X147809000Y-77518000I2151318J-291471D01*
G01*
X152809000Y-73918000D02*
X144408999Y-73918000D01*
X147809000Y-77518000D02*
X152809000Y-77518000D01*
X142309000Y-79418000D02*
X145589000Y-79418000D01*
X142309000Y-75818000D02*
X142309000Y-76818000D01*
X142309000Y-79418000D02*
X142309000Y-79058000D01*
X142509000Y-79058000D02*
X142309000Y-79058000D01*
X142539000Y-76818000D02*
X142539000Y-79058000D01*
X142309000Y-76818000D02*
X142509000Y-76818000D01*
X152609000Y-74268000D02*
X152809000Y-74268000D01*
X152589000Y-76518000D02*
X152589000Y-74268000D01*
X152809000Y-76518000D02*
X152609000Y-76518000D01*
X152809000Y-77518000D02*
X152809000Y-76518000D01*
D16*
X150809000Y-75718000D02*
X144109000Y-75718000D01*
D15*
X152109000Y-74518000D02*
X152109000Y-77018000D01*
D14*
X152509000Y-77218000D02*
X151109000Y-77218000D01*
D13*
X144039000Y-75418000D02*
X144039000Y-77658000D01*
D12*
X142909000Y-78918000D02*
X142909000Y-77118001D01*
D10*
X142409000Y-76717999D02*
X142409000Y-75818000D01*
G04 #@! TO.C,SW11*
X161459000Y-76717999D02*
X161459000Y-75818000D01*
D12*
X161959000Y-78918000D02*
X161959000Y-77118001D01*
D13*
X163089000Y-75418000D02*
X163089000Y-77658000D01*
D14*
X171559000Y-77218000D02*
X170159000Y-77218000D01*
D15*
X171159000Y-74518000D02*
X171159000Y-77018000D01*
D16*
X169859000Y-75718000D02*
X163159000Y-75718000D01*
D17*
X171859000Y-77518000D02*
X171859000Y-76518000D01*
X171859000Y-76518000D02*
X171659000Y-76518000D01*
X171639000Y-76518000D02*
X171639000Y-74268000D01*
X171659000Y-74268000D02*
X171859000Y-74268000D01*
X161359000Y-76818000D02*
X161559000Y-76818000D01*
X161589000Y-76818000D02*
X161589000Y-79058000D01*
X161559000Y-79058000D02*
X161359000Y-79058000D01*
X161359000Y-79418000D02*
X161359000Y-79058000D01*
X161359000Y-75818000D02*
X161359000Y-76818000D01*
X161359000Y-79418000D02*
X164639000Y-79418000D01*
X166859000Y-77518000D02*
X171859000Y-77518000D01*
X171859000Y-73918000D02*
X163458999Y-73918000D01*
X164642682Y-79396529D02*
G75*
G02X166859000Y-77518000I2151318J-291471D01*
G01*
X161359000Y-75818001D02*
G75*
G02X163458999Y-73918000I2000000J-99999D01*
G01*
X171859000Y-74268000D02*
X171859000Y-73918000D01*
D15*
X164242682Y-78996529D02*
G75*
G02X166459000Y-77118000I2151318J-291471D01*
G01*
D14*
X161559000Y-79218000D02*
X164259000Y-79218000D01*
D18*
X171659000Y-74118000D02*
X170259000Y-74118000D01*
X171659000Y-76618000D02*
X171659000Y-77318000D01*
G04 #@! TO.C,SW12*
X190709000Y-76618000D02*
X190709000Y-77318000D01*
X190709000Y-74118000D02*
X189309000Y-74118000D01*
D14*
X180609000Y-79218000D02*
X183309000Y-79218000D01*
D15*
X183292682Y-78996529D02*
G75*
G02X185509000Y-77118000I2151318J-291471D01*
G01*
D17*
X190909000Y-74268000D02*
X190909000Y-73918000D01*
X180409000Y-75818001D02*
G75*
G02X182508999Y-73918000I2000000J-99999D01*
G01*
X183692682Y-79396529D02*
G75*
G02X185909000Y-77518000I2151318J-291471D01*
G01*
X190909000Y-73918000D02*
X182508999Y-73918000D01*
X185909000Y-77518000D02*
X190909000Y-77518000D01*
X180409000Y-79418000D02*
X183689000Y-79418000D01*
X180409000Y-75818000D02*
X180409000Y-76818000D01*
X180409000Y-79418000D02*
X180409000Y-79058000D01*
X180609000Y-79058000D02*
X180409000Y-79058000D01*
X180639000Y-76818000D02*
X180639000Y-79058000D01*
X180409000Y-76818000D02*
X180609000Y-76818000D01*
X190709000Y-74268000D02*
X190909000Y-74268000D01*
X190689000Y-76518000D02*
X190689000Y-74268000D01*
X190909000Y-76518000D02*
X190709000Y-76518000D01*
X190909000Y-77518000D02*
X190909000Y-76518000D01*
D16*
X188909000Y-75718000D02*
X182209000Y-75718000D01*
D15*
X190209000Y-74518000D02*
X190209000Y-77018000D01*
D14*
X190609000Y-77218000D02*
X189209000Y-77218000D01*
D13*
X182139000Y-75418000D02*
X182139000Y-77658000D01*
D12*
X181009000Y-78918000D02*
X181009000Y-77118001D01*
D10*
X180509000Y-76717999D02*
X180509000Y-75818000D01*
G04 #@! TO.C,SW13*
X199559000Y-76717999D02*
X199559000Y-75818000D01*
D12*
X200059000Y-78918000D02*
X200059000Y-77118001D01*
D13*
X201189000Y-75418000D02*
X201189000Y-77658000D01*
D14*
X209659000Y-77218000D02*
X208259000Y-77218000D01*
D15*
X209259000Y-74518000D02*
X209259000Y-77018000D01*
D16*
X207959000Y-75718000D02*
X201259000Y-75718000D01*
D17*
X209959000Y-77518000D02*
X209959000Y-76518000D01*
X209959000Y-76518000D02*
X209759000Y-76518000D01*
X209739000Y-76518000D02*
X209739000Y-74268000D01*
X209759000Y-74268000D02*
X209959000Y-74268000D01*
X199459000Y-76818000D02*
X199659000Y-76818000D01*
X199689000Y-76818000D02*
X199689000Y-79058000D01*
X199659000Y-79058000D02*
X199459000Y-79058000D01*
X199459000Y-79418000D02*
X199459000Y-79058000D01*
X199459000Y-75818000D02*
X199459000Y-76818000D01*
X199459000Y-79418000D02*
X202739000Y-79418000D01*
X204959000Y-77518000D02*
X209959000Y-77518000D01*
X209959000Y-73918000D02*
X201558999Y-73918000D01*
X202742682Y-79396529D02*
G75*
G02X204959000Y-77518000I2151318J-291471D01*
G01*
X199459000Y-75818001D02*
G75*
G02X201558999Y-73918000I2000000J-99999D01*
G01*
X209959000Y-74268000D02*
X209959000Y-73918000D01*
D15*
X202342682Y-78996529D02*
G75*
G02X204559000Y-77118000I2151318J-291471D01*
G01*
D14*
X199659000Y-79218000D02*
X202359000Y-79218000D01*
D18*
X209759000Y-74118000D02*
X208359000Y-74118000D01*
X209759000Y-76618000D02*
X209759000Y-77318000D01*
D10*
G04 #@! TO.C,SW14*
X99546500Y-95767999D02*
X99546500Y-94868000D01*
D12*
X100046500Y-97968000D02*
X100046500Y-96168001D01*
D13*
X101176500Y-94468000D02*
X101176500Y-96708000D01*
D14*
X109646500Y-96268000D02*
X108246500Y-96268000D01*
D15*
X109246500Y-93568000D02*
X109246500Y-96068000D01*
D16*
X107946500Y-94768000D02*
X101246500Y-94768000D01*
D17*
X109946500Y-96568000D02*
X109946500Y-95568000D01*
X109946500Y-95568000D02*
X109746500Y-95568000D01*
X109726500Y-95568000D02*
X109726500Y-93318000D01*
X109746500Y-93318000D02*
X109946500Y-93318000D01*
X99446500Y-95868000D02*
X99646500Y-95868000D01*
X99676500Y-95868000D02*
X99676500Y-98108000D01*
X99646500Y-98108000D02*
X99446500Y-98108000D01*
X99446500Y-98468000D02*
X99446500Y-98108000D01*
X99446500Y-94868000D02*
X99446500Y-95868000D01*
X99446500Y-98468000D02*
X102726500Y-98468000D01*
X104946500Y-96568000D02*
X109946500Y-96568000D01*
X109946500Y-92968000D02*
X101546499Y-92968000D01*
X102730182Y-98446529D02*
G75*
G02X104946500Y-96568000I2151318J-291471D01*
G01*
X99446500Y-94868001D02*
G75*
G02X101546499Y-92968000I2000000J-99999D01*
G01*
X109946500Y-93318000D02*
X109946500Y-92968000D01*
D15*
X102330182Y-98046529D02*
G75*
G02X104546500Y-96168000I2151318J-291471D01*
G01*
D14*
X99646500Y-98268000D02*
X102346500Y-98268000D01*
D18*
X109746500Y-93168000D02*
X108346500Y-93168000D01*
X109746500Y-95668000D02*
X109746500Y-96368000D01*
G04 #@! TO.C,SW15*
X128796500Y-95668000D02*
X128796500Y-96368000D01*
X128796500Y-93168000D02*
X127396500Y-93168000D01*
D14*
X118696500Y-98268000D02*
X121396500Y-98268000D01*
D15*
X121380182Y-98046529D02*
G75*
G02X123596500Y-96168000I2151318J-291471D01*
G01*
D17*
X128996500Y-93318000D02*
X128996500Y-92968000D01*
X118496500Y-94868001D02*
G75*
G02X120596499Y-92968000I2000000J-99999D01*
G01*
X121780182Y-98446529D02*
G75*
G02X123996500Y-96568000I2151318J-291471D01*
G01*
X128996500Y-92968000D02*
X120596499Y-92968000D01*
X123996500Y-96568000D02*
X128996500Y-96568000D01*
X118496500Y-98468000D02*
X121776500Y-98468000D01*
X118496500Y-94868000D02*
X118496500Y-95868000D01*
X118496500Y-98468000D02*
X118496500Y-98108000D01*
X118696500Y-98108000D02*
X118496500Y-98108000D01*
X118726500Y-95868000D02*
X118726500Y-98108000D01*
X118496500Y-95868000D02*
X118696500Y-95868000D01*
X128796500Y-93318000D02*
X128996500Y-93318000D01*
X128776500Y-95568000D02*
X128776500Y-93318000D01*
X128996500Y-95568000D02*
X128796500Y-95568000D01*
X128996500Y-96568000D02*
X128996500Y-95568000D01*
D16*
X126996500Y-94768000D02*
X120296500Y-94768000D01*
D15*
X128296500Y-93568000D02*
X128296500Y-96068000D01*
D14*
X128696500Y-96268000D02*
X127296500Y-96268000D01*
D13*
X120226500Y-94468000D02*
X120226500Y-96708000D01*
D12*
X119096500Y-97968000D02*
X119096500Y-96168001D01*
D10*
X118596500Y-95767999D02*
X118596500Y-94868000D01*
D18*
G04 #@! TO.C,SW16*
X147846500Y-95668000D02*
X147846500Y-96368000D01*
X147846500Y-93168000D02*
X146446500Y-93168000D01*
D14*
X137746500Y-98268000D02*
X140446500Y-98268000D01*
D15*
X140430182Y-98046529D02*
G75*
G02X142646500Y-96168000I2151318J-291471D01*
G01*
D17*
X148046500Y-93318000D02*
X148046500Y-92968000D01*
X137546500Y-94868001D02*
G75*
G02X139646499Y-92968000I2000000J-99999D01*
G01*
X140830182Y-98446529D02*
G75*
G02X143046500Y-96568000I2151318J-291471D01*
G01*
X148046500Y-92968000D02*
X139646499Y-92968000D01*
X143046500Y-96568000D02*
X148046500Y-96568000D01*
X137546500Y-98468000D02*
X140826500Y-98468000D01*
X137546500Y-94868000D02*
X137546500Y-95868000D01*
X137546500Y-98468000D02*
X137546500Y-98108000D01*
X137746500Y-98108000D02*
X137546500Y-98108000D01*
X137776500Y-95868000D02*
X137776500Y-98108000D01*
X137546500Y-95868000D02*
X137746500Y-95868000D01*
X147846500Y-93318000D02*
X148046500Y-93318000D01*
X147826500Y-95568000D02*
X147826500Y-93318000D01*
X148046500Y-95568000D02*
X147846500Y-95568000D01*
X148046500Y-96568000D02*
X148046500Y-95568000D01*
D16*
X146046500Y-94768000D02*
X139346500Y-94768000D01*
D15*
X147346500Y-93568000D02*
X147346500Y-96068000D01*
D14*
X147746500Y-96268000D02*
X146346500Y-96268000D01*
D13*
X139276500Y-94468000D02*
X139276500Y-96708000D01*
D12*
X138146500Y-97968000D02*
X138146500Y-96168001D01*
D10*
X137646500Y-95767999D02*
X137646500Y-94868000D01*
G04 #@! TO.C,SW17*
X156696500Y-95767999D02*
X156696500Y-94868000D01*
D12*
X157196500Y-97968000D02*
X157196500Y-96168001D01*
D13*
X158326500Y-94468000D02*
X158326500Y-96708000D01*
D14*
X166796500Y-96268000D02*
X165396500Y-96268000D01*
D15*
X166396500Y-93568000D02*
X166396500Y-96068000D01*
D16*
X165096500Y-94768000D02*
X158396500Y-94768000D01*
D17*
X167096500Y-96568000D02*
X167096500Y-95568000D01*
X167096500Y-95568000D02*
X166896500Y-95568000D01*
X166876500Y-95568000D02*
X166876500Y-93318000D01*
X166896500Y-93318000D02*
X167096500Y-93318000D01*
X156596500Y-95868000D02*
X156796500Y-95868000D01*
X156826500Y-95868000D02*
X156826500Y-98108000D01*
X156796500Y-98108000D02*
X156596500Y-98108000D01*
X156596500Y-98468000D02*
X156596500Y-98108000D01*
X156596500Y-94868000D02*
X156596500Y-95868000D01*
X156596500Y-98468000D02*
X159876500Y-98468000D01*
X162096500Y-96568000D02*
X167096500Y-96568000D01*
X167096500Y-92968000D02*
X158696499Y-92968000D01*
X159880182Y-98446529D02*
G75*
G02X162096500Y-96568000I2151318J-291471D01*
G01*
X156596500Y-94868001D02*
G75*
G02X158696499Y-92968000I2000000J-99999D01*
G01*
X167096500Y-93318000D02*
X167096500Y-92968000D01*
D15*
X159480182Y-98046529D02*
G75*
G02X161696500Y-96168000I2151318J-291471D01*
G01*
D14*
X156796500Y-98268000D02*
X159496500Y-98268000D01*
D18*
X166896500Y-93168000D02*
X165496500Y-93168000D01*
X166896500Y-95668000D02*
X166896500Y-96368000D01*
G04 #@! TO.C,SW19*
X204960500Y-95668000D02*
X204960500Y-96368000D01*
X204960500Y-93168000D02*
X203560500Y-93168000D01*
D14*
X194860500Y-98268000D02*
X197560500Y-98268000D01*
D15*
X197544182Y-98046529D02*
G75*
G02X199760500Y-96168000I2151318J-291471D01*
G01*
D17*
X205160500Y-93318000D02*
X205160500Y-92968000D01*
X194660500Y-94868001D02*
G75*
G02X196760499Y-92968000I2000000J-99999D01*
G01*
X197944182Y-98446529D02*
G75*
G02X200160500Y-96568000I2151318J-291471D01*
G01*
X205160500Y-92968000D02*
X196760499Y-92968000D01*
X200160500Y-96568000D02*
X205160500Y-96568000D01*
X194660500Y-98468000D02*
X197940500Y-98468000D01*
X194660500Y-94868000D02*
X194660500Y-95868000D01*
X194660500Y-98468000D02*
X194660500Y-98108000D01*
X194860500Y-98108000D02*
X194660500Y-98108000D01*
X194890500Y-95868000D02*
X194890500Y-98108000D01*
X194660500Y-95868000D02*
X194860500Y-95868000D01*
X204960500Y-93318000D02*
X205160500Y-93318000D01*
X204940500Y-95568000D02*
X204940500Y-93318000D01*
X205160500Y-95568000D02*
X204960500Y-95568000D01*
X205160500Y-96568000D02*
X205160500Y-95568000D01*
D16*
X203160500Y-94768000D02*
X196460500Y-94768000D01*
D15*
X204460500Y-93568000D02*
X204460500Y-96068000D01*
D14*
X204860500Y-96268000D02*
X203460500Y-96268000D01*
D13*
X196390500Y-94468000D02*
X196390500Y-96708000D01*
D12*
X195260500Y-97968000D02*
X195260500Y-96168001D01*
D10*
X194760500Y-95767999D02*
X194760500Y-94868000D01*
D18*
G04 #@! TO.C,SW20*
X104984000Y-114718000D02*
X104984000Y-115418000D01*
X104984000Y-112218000D02*
X103584000Y-112218000D01*
D14*
X94884000Y-117318000D02*
X97584000Y-117318000D01*
D15*
X97567682Y-117096529D02*
G75*
G02X99784000Y-115218000I2151318J-291471D01*
G01*
D17*
X105184000Y-112368000D02*
X105184000Y-112018000D01*
X94684000Y-113918001D02*
G75*
G02X96783999Y-112018000I2000000J-99999D01*
G01*
X97967682Y-117496529D02*
G75*
G02X100184000Y-115618000I2151318J-291471D01*
G01*
X105184000Y-112018000D02*
X96783999Y-112018000D01*
X100184000Y-115618000D02*
X105184000Y-115618000D01*
X94684000Y-117518000D02*
X97964000Y-117518000D01*
X94684000Y-113918000D02*
X94684000Y-114918000D01*
X94684000Y-117518000D02*
X94684000Y-117158000D01*
X94884000Y-117158000D02*
X94684000Y-117158000D01*
X94914000Y-114918000D02*
X94914000Y-117158000D01*
X94684000Y-114918000D02*
X94884000Y-114918000D01*
X104984000Y-112368000D02*
X105184000Y-112368000D01*
X104964000Y-114618000D02*
X104964000Y-112368000D01*
X105184000Y-114618000D02*
X104984000Y-114618000D01*
X105184000Y-115618000D02*
X105184000Y-114618000D01*
D16*
X103184000Y-113818000D02*
X96484000Y-113818000D01*
D15*
X104484000Y-112618000D02*
X104484000Y-115118000D01*
D14*
X104884000Y-115318000D02*
X103484000Y-115318000D01*
D13*
X96414000Y-113518000D02*
X96414000Y-115758000D01*
D12*
X95284000Y-117018000D02*
X95284000Y-115218001D01*
D10*
X94784000Y-114817999D02*
X94784000Y-113918000D01*
G04 #@! TO.C,SW21*
X113834000Y-114817999D02*
X113834000Y-113918000D01*
D12*
X114334000Y-117018000D02*
X114334000Y-115218001D01*
D13*
X115464000Y-113518000D02*
X115464000Y-115758000D01*
D14*
X123934000Y-115318000D02*
X122534000Y-115318000D01*
D15*
X123534000Y-112618000D02*
X123534000Y-115118000D01*
D16*
X122234000Y-113818000D02*
X115534000Y-113818000D01*
D17*
X124234000Y-115618000D02*
X124234000Y-114618000D01*
X124234000Y-114618000D02*
X124034000Y-114618000D01*
X124014000Y-114618000D02*
X124014000Y-112368000D01*
X124034000Y-112368000D02*
X124234000Y-112368000D01*
X113734000Y-114918000D02*
X113934000Y-114918000D01*
X113964000Y-114918000D02*
X113964000Y-117158000D01*
X113934000Y-117158000D02*
X113734000Y-117158000D01*
X113734000Y-117518000D02*
X113734000Y-117158000D01*
X113734000Y-113918000D02*
X113734000Y-114918000D01*
X113734000Y-117518000D02*
X117014000Y-117518000D01*
X119234000Y-115618000D02*
X124234000Y-115618000D01*
X124234000Y-112018000D02*
X115833999Y-112018000D01*
X117017682Y-117496529D02*
G75*
G02X119234000Y-115618000I2151318J-291471D01*
G01*
X113734000Y-113918001D02*
G75*
G02X115833999Y-112018000I2000000J-99999D01*
G01*
X124234000Y-112368000D02*
X124234000Y-112018000D01*
D15*
X116617682Y-117096529D02*
G75*
G02X118834000Y-115218000I2151318J-291471D01*
G01*
D14*
X113934000Y-117318000D02*
X116634000Y-117318000D01*
D18*
X124034000Y-112218000D02*
X122634000Y-112218000D01*
X124034000Y-114718000D02*
X124034000Y-115418000D01*
G04 #@! TO.C,SW22*
X143084000Y-114718000D02*
X143084000Y-115418000D01*
X143084000Y-112218000D02*
X141684000Y-112218000D01*
D14*
X132984000Y-117318000D02*
X135684000Y-117318000D01*
D15*
X135667682Y-117096529D02*
G75*
G02X137884000Y-115218000I2151318J-291471D01*
G01*
D17*
X143284000Y-112368000D02*
X143284000Y-112018000D01*
X132784000Y-113918001D02*
G75*
G02X134883999Y-112018000I2000000J-99999D01*
G01*
X136067682Y-117496529D02*
G75*
G02X138284000Y-115618000I2151318J-291471D01*
G01*
X143284000Y-112018000D02*
X134883999Y-112018000D01*
X138284000Y-115618000D02*
X143284000Y-115618000D01*
X132784000Y-117518000D02*
X136064000Y-117518000D01*
X132784000Y-113918000D02*
X132784000Y-114918000D01*
X132784000Y-117518000D02*
X132784000Y-117158000D01*
X132984000Y-117158000D02*
X132784000Y-117158000D01*
X133014000Y-114918000D02*
X133014000Y-117158000D01*
X132784000Y-114918000D02*
X132984000Y-114918000D01*
X143084000Y-112368000D02*
X143284000Y-112368000D01*
X143064000Y-114618000D02*
X143064000Y-112368000D01*
X143284000Y-114618000D02*
X143084000Y-114618000D01*
X143284000Y-115618000D02*
X143284000Y-114618000D01*
D16*
X141284000Y-113818000D02*
X134584000Y-113818000D01*
D15*
X142584000Y-112618000D02*
X142584000Y-115118000D01*
D14*
X142984000Y-115318000D02*
X141584000Y-115318000D01*
D13*
X134514000Y-113518000D02*
X134514000Y-115758000D01*
D12*
X133384000Y-117018000D02*
X133384000Y-115218001D01*
D10*
X132884000Y-114817999D02*
X132884000Y-113918000D01*
G04 #@! TO.C,SW23*
X151934000Y-114817999D02*
X151934000Y-113918000D01*
D12*
X152434000Y-117018000D02*
X152434000Y-115218001D01*
D13*
X153564000Y-113518000D02*
X153564000Y-115758000D01*
D14*
X162034000Y-115318000D02*
X160634000Y-115318000D01*
D15*
X161634000Y-112618000D02*
X161634000Y-115118000D01*
D16*
X160334000Y-113818000D02*
X153634000Y-113818000D01*
D17*
X162334000Y-115618000D02*
X162334000Y-114618000D01*
X162334000Y-114618000D02*
X162134000Y-114618000D01*
X162114000Y-114618000D02*
X162114000Y-112368000D01*
X162134000Y-112368000D02*
X162334000Y-112368000D01*
X151834000Y-114918000D02*
X152034000Y-114918000D01*
X152064000Y-114918000D02*
X152064000Y-117158000D01*
X152034000Y-117158000D02*
X151834000Y-117158000D01*
X151834000Y-117518000D02*
X151834000Y-117158000D01*
X151834000Y-113918000D02*
X151834000Y-114918000D01*
X151834000Y-117518000D02*
X155114000Y-117518000D01*
X157334000Y-115618000D02*
X162334000Y-115618000D01*
X162334000Y-112018000D02*
X153933999Y-112018000D01*
X155117682Y-117496529D02*
G75*
G02X157334000Y-115618000I2151318J-291471D01*
G01*
X151834000Y-113918001D02*
G75*
G02X153933999Y-112018000I2000000J-99999D01*
G01*
X162334000Y-112368000D02*
X162334000Y-112018000D01*
D15*
X154717682Y-117096529D02*
G75*
G02X156934000Y-115218000I2151318J-291471D01*
G01*
D14*
X152034000Y-117318000D02*
X154734000Y-117318000D01*
D18*
X162134000Y-112218000D02*
X160734000Y-112218000D01*
X162134000Y-114718000D02*
X162134000Y-115418000D01*
D10*
G04 #@! TO.C,SW24*
X170984000Y-114817999D02*
X170984000Y-113918000D01*
D12*
X171484000Y-117018000D02*
X171484000Y-115218001D01*
D13*
X172614000Y-113518000D02*
X172614000Y-115758000D01*
D14*
X181084000Y-115318000D02*
X179684000Y-115318000D01*
D15*
X180684000Y-112618000D02*
X180684000Y-115118000D01*
D16*
X179384000Y-113818000D02*
X172684000Y-113818000D01*
D17*
X181384000Y-115618000D02*
X181384000Y-114618000D01*
X181384000Y-114618000D02*
X181184000Y-114618000D01*
X181164000Y-114618000D02*
X181164000Y-112368000D01*
X181184000Y-112368000D02*
X181384000Y-112368000D01*
X170884000Y-114918000D02*
X171084000Y-114918000D01*
X171114000Y-114918000D02*
X171114000Y-117158000D01*
X171084000Y-117158000D02*
X170884000Y-117158000D01*
X170884000Y-117518000D02*
X170884000Y-117158000D01*
X170884000Y-113918000D02*
X170884000Y-114918000D01*
X170884000Y-117518000D02*
X174164000Y-117518000D01*
X176384000Y-115618000D02*
X181384000Y-115618000D01*
X181384000Y-112018000D02*
X172983999Y-112018000D01*
X174167682Y-117496529D02*
G75*
G02X176384000Y-115618000I2151318J-291471D01*
G01*
X170884000Y-113918001D02*
G75*
G02X172983999Y-112018000I2000000J-99999D01*
G01*
X181384000Y-112368000D02*
X181384000Y-112018000D01*
D15*
X173767682Y-117096529D02*
G75*
G02X175984000Y-115218000I2151318J-291471D01*
G01*
D14*
X171084000Y-117318000D02*
X173784000Y-117318000D01*
D18*
X181184000Y-112218000D02*
X179784000Y-112218000D01*
X181184000Y-114718000D02*
X181184000Y-115418000D01*
D19*
G04 #@! TO.C,G\002A\002A\002A*
G36*
X138588680Y-82018273D02*
X138555383Y-82121829D01*
X138556204Y-82124398D01*
X138661194Y-82226424D01*
X138816960Y-82239181D01*
X138915553Y-82172688D01*
X138911536Y-82049665D01*
X138867625Y-82006501D01*
X138716413Y-81970875D01*
X138588680Y-82018273D01*
X138588680Y-82018273D01*
G37*
X138588680Y-82018273D02*
X138555383Y-82121829D01*
X138556204Y-82124398D01*
X138661194Y-82226424D01*
X138816960Y-82239181D01*
X138915553Y-82172688D01*
X138911536Y-82049665D01*
X138867625Y-82006501D01*
X138716413Y-81970875D01*
X138588680Y-82018273D01*
G36*
X138253189Y-79786364D02*
X137728889Y-79961576D01*
X137235391Y-80221551D01*
X136926435Y-80454730D01*
X136503035Y-80898529D01*
X136226553Y-81353136D01*
X136077558Y-81860995D01*
X136036401Y-82398749D01*
X136040737Y-82737012D01*
X136066959Y-82992632D01*
X136130586Y-83225899D01*
X136247138Y-83497105D01*
X136395969Y-83795749D01*
X136582357Y-84129133D01*
X136826704Y-84519260D01*
X137111493Y-84942897D01*
X137419209Y-85376809D01*
X137732334Y-85797765D01*
X138033351Y-86182531D01*
X138304743Y-86507874D01*
X138528994Y-86750561D01*
X138688587Y-86887358D01*
X138743267Y-86909053D01*
X138833201Y-86848329D01*
X138999032Y-86686577D01*
X139210166Y-86454431D01*
X139287515Y-86364102D01*
X140010962Y-85462300D01*
X140596364Y-84636784D01*
X141040280Y-83892458D01*
X141090565Y-83795749D01*
X141263102Y-83446825D01*
X141369777Y-83186107D01*
X141426110Y-82953302D01*
X141447617Y-82688120D01*
X141448651Y-82569077D01*
X138882016Y-82569077D01*
X138769559Y-82583736D01*
X138743267Y-82584294D01*
X138598671Y-82575143D01*
X138585940Y-82548638D01*
X138593489Y-82545264D01*
X138761568Y-82528515D01*
X138847489Y-82542127D01*
X138882016Y-82569077D01*
X141448651Y-82569077D01*
X141450132Y-82398749D01*
X141421496Y-82065391D01*
X139106985Y-82065391D01*
X139075910Y-82173978D01*
X139047204Y-82210638D01*
X138857266Y-82326745D01*
X138628711Y-82328734D01*
X138446933Y-82219800D01*
X138384214Y-82084287D01*
X138446933Y-81965800D01*
X138639222Y-81849600D01*
X138876855Y-81884851D01*
X138999055Y-81956638D01*
X139106985Y-82065391D01*
X141421496Y-82065391D01*
X141399270Y-81806660D01*
X141300781Y-81500133D01*
X138772232Y-81500133D01*
X138758926Y-81620329D01*
X138729527Y-81605967D01*
X138718344Y-81432624D01*
X138729527Y-81394300D01*
X138760430Y-81383664D01*
X138772232Y-81500133D01*
X141300781Y-81500133D01*
X141238413Y-81306029D01*
X141145494Y-81161467D01*
X139462933Y-81161467D01*
X139427477Y-81299047D01*
X139378267Y-81330800D01*
X139309477Y-81259887D01*
X139294406Y-81166463D01*
X138277600Y-81166463D01*
X138245007Y-81283533D01*
X138192933Y-81288467D01*
X138115029Y-81165964D01*
X138108267Y-81114136D01*
X138155606Y-81004709D01*
X138192933Y-80992133D01*
X138261059Y-81063259D01*
X138277600Y-81166463D01*
X139294406Y-81166463D01*
X139293600Y-81161467D01*
X139329056Y-81023886D01*
X139378267Y-80992133D01*
X139447057Y-81063046D01*
X139462933Y-81161467D01*
X141145494Y-81161467D01*
X140948129Y-80854410D01*
X140560098Y-80454730D01*
X140131814Y-80148651D01*
X139624285Y-79907802D01*
X139102535Y-79758400D01*
X138743267Y-79722133D01*
X138253189Y-79786364D01*
X138253189Y-79786364D01*
G37*
X138253189Y-79786364D02*
X137728889Y-79961576D01*
X137235391Y-80221551D01*
X136926435Y-80454730D01*
X136503035Y-80898529D01*
X136226553Y-81353136D01*
X136077558Y-81860995D01*
X136036401Y-82398749D01*
X136040737Y-82737012D01*
X136066959Y-82992632D01*
X136130586Y-83225899D01*
X136247138Y-83497105D01*
X136395969Y-83795749D01*
X136582357Y-84129133D01*
X136826704Y-84519260D01*
X137111493Y-84942897D01*
X137419209Y-85376809D01*
X137732334Y-85797765D01*
X138033351Y-86182531D01*
X138304743Y-86507874D01*
X138528994Y-86750561D01*
X138688587Y-86887358D01*
X138743267Y-86909053D01*
X138833201Y-86848329D01*
X138999032Y-86686577D01*
X139210166Y-86454431D01*
X139287515Y-86364102D01*
X140010962Y-85462300D01*
X140596364Y-84636784D01*
X141040280Y-83892458D01*
X141090565Y-83795749D01*
X141263102Y-83446825D01*
X141369777Y-83186107D01*
X141426110Y-82953302D01*
X141447617Y-82688120D01*
X141448651Y-82569077D01*
X138882016Y-82569077D01*
X138769559Y-82583736D01*
X138743267Y-82584294D01*
X138598671Y-82575143D01*
X138585940Y-82548638D01*
X138593489Y-82545264D01*
X138761568Y-82528515D01*
X138847489Y-82542127D01*
X138882016Y-82569077D01*
X141448651Y-82569077D01*
X141450132Y-82398749D01*
X141421496Y-82065391D01*
X139106985Y-82065391D01*
X139075910Y-82173978D01*
X139047204Y-82210638D01*
X138857266Y-82326745D01*
X138628711Y-82328734D01*
X138446933Y-82219800D01*
X138384214Y-82084287D01*
X138446933Y-81965800D01*
X138639222Y-81849600D01*
X138876855Y-81884851D01*
X138999055Y-81956638D01*
X139106985Y-82065391D01*
X141421496Y-82065391D01*
X141399270Y-81806660D01*
X141300781Y-81500133D01*
X138772232Y-81500133D01*
X138758926Y-81620329D01*
X138729527Y-81605967D01*
X138718344Y-81432624D01*
X138729527Y-81394300D01*
X138760430Y-81383664D01*
X138772232Y-81500133D01*
X141300781Y-81500133D01*
X141238413Y-81306029D01*
X141145494Y-81161467D01*
X139462933Y-81161467D01*
X139427477Y-81299047D01*
X139378267Y-81330800D01*
X139309477Y-81259887D01*
X139294406Y-81166463D01*
X138277600Y-81166463D01*
X138245007Y-81283533D01*
X138192933Y-81288467D01*
X138115029Y-81165964D01*
X138108267Y-81114136D01*
X138155606Y-81004709D01*
X138192933Y-80992133D01*
X138261059Y-81063259D01*
X138277600Y-81166463D01*
X139294406Y-81166463D01*
X139293600Y-81161467D01*
X139329056Y-81023886D01*
X139378267Y-80992133D01*
X139447057Y-81063046D01*
X139462933Y-81161467D01*
X141145494Y-81161467D01*
X140948129Y-80854410D01*
X140560098Y-80454730D01*
X140131814Y-80148651D01*
X139624285Y-79907802D01*
X139102535Y-79758400D01*
X138743267Y-79722133D01*
X138253189Y-79786364D01*
D17*
G04 #@! TO.C,U1*
X133604000Y-105918000D02*
X103124000Y-105918000D01*
X133604000Y-103378000D02*
X133604000Y-105918000D01*
X103124000Y-103378000D02*
X133604000Y-103378000D01*
X103124000Y-105918000D02*
X103124000Y-103378000D01*
X133604000Y-90678000D02*
X103124000Y-90678000D01*
X133604000Y-88138000D02*
X133604000Y-90678000D01*
X103124000Y-88138000D02*
X133604000Y-88138000D01*
X103124000Y-90678000D02*
X103124000Y-88138000D01*
G04 #@! TO.C,J2*
X207672880Y-66776796D02*
X207672880Y-67348224D01*
X208672880Y-67062510D02*
X207672880Y-67062510D01*
X208672880Y-68252986D02*
X208196690Y-67919653D01*
X208672880Y-67681558D02*
X207672880Y-67681558D01*
X207672880Y-68062510D01*
X207720500Y-68157748D01*
X207768119Y-68205367D01*
X207863357Y-68252986D01*
X208006214Y-68252986D01*
X208101452Y-68205367D01*
X208149071Y-68157748D01*
X208196690Y-68062510D01*
X208196690Y-67681558D01*
X208672880Y-69252986D02*
X208196690Y-68919653D01*
X208672880Y-68681558D02*
X207672880Y-68681558D01*
X207672880Y-69062510D01*
X207720500Y-69157748D01*
X207768119Y-69205367D01*
X207863357Y-69252986D01*
X208006214Y-69252986D01*
X208101452Y-69205367D01*
X208149071Y-69157748D01*
X208196690Y-69062510D01*
X208196690Y-68681558D01*
X208625261Y-69633939D02*
X208672880Y-69776796D01*
X208672880Y-70014891D01*
X208625261Y-70110129D01*
X208577642Y-70157748D01*
X208482404Y-70205367D01*
X208387166Y-70205367D01*
X208291928Y-70157748D01*
X208244309Y-70110129D01*
X208196690Y-70014891D01*
X208149071Y-69824415D01*
X208101452Y-69729177D01*
X208053833Y-69681558D01*
X207958595Y-69633939D01*
X207863357Y-69633939D01*
X207768119Y-69681558D01*
X207720500Y-69729177D01*
X207672880Y-69824415D01*
X207672880Y-70062510D01*
X207720500Y-70205367D01*
G04 #@! TO.C,P1*
X199648838Y-68465095D02*
X199648838Y-68658619D01*
X199842361Y-68581209D02*
X199648838Y-68658619D01*
X199455314Y-68581209D01*
X199764952Y-68813438D02*
X199648838Y-68658619D01*
X199532723Y-68813438D01*
X199029561Y-68465095D02*
X199029561Y-68658619D01*
X199223085Y-68581209D02*
X199029561Y-68658619D01*
X198836038Y-68581209D01*
X199145676Y-68813438D02*
X199029561Y-68658619D01*
X198913447Y-68813438D01*
G04 #@! TO.C,P2*
X216006438Y-66737895D02*
X216006438Y-66931419D01*
X216199961Y-66854009D02*
X216006438Y-66931419D01*
X215812914Y-66854009D01*
X216122552Y-67086238D02*
X216006438Y-66931419D01*
X215890323Y-67086238D01*
X215387161Y-66737895D02*
X215387161Y-66931419D01*
X215580685Y-66854009D02*
X215387161Y-66931419D01*
X215193638Y-66854009D01*
X215503276Y-67086238D02*
X215387161Y-66931419D01*
X215271047Y-67086238D01*
G04 #@! TO.C,R1*
X197159638Y-70281195D02*
X197159638Y-70474719D01*
X197353161Y-70397309D02*
X197159638Y-70474719D01*
X196966114Y-70397309D01*
X197275752Y-70629538D02*
X197159638Y-70474719D01*
X197043523Y-70629538D01*
X196540361Y-70281195D02*
X196540361Y-70474719D01*
X196733885Y-70397309D02*
X196540361Y-70474719D01*
X196346838Y-70397309D01*
X196656476Y-70629538D02*
X196540361Y-70474719D01*
X196424247Y-70629538D01*
G04 #@! TO.C,R2*
X189996838Y-70281195D02*
X189996838Y-70474719D01*
X190190361Y-70397309D02*
X189996838Y-70474719D01*
X189803314Y-70397309D01*
X190112952Y-70629538D02*
X189996838Y-70474719D01*
X189880723Y-70629538D01*
X189377561Y-70281195D02*
X189377561Y-70474719D01*
X189571085Y-70397309D02*
X189377561Y-70474719D01*
X189184038Y-70397309D01*
X189493676Y-70629538D02*
X189377561Y-70474719D01*
X189261447Y-70629538D01*
G04 #@! TO.C,SW1*
X110595851Y-121640267D02*
X110119661Y-121306933D01*
X110595851Y-121068838D02*
X109595851Y-121068838D01*
X109595851Y-121449790D01*
X109643471Y-121545028D01*
X109691090Y-121592648D01*
X109786328Y-121640267D01*
X109929185Y-121640267D01*
X110024423Y-121592648D01*
X110072042Y-121545028D01*
X110119661Y-121449790D01*
X110119661Y-121068838D01*
X110072042Y-122068838D02*
X110072042Y-122402171D01*
X110595851Y-122545028D02*
X110595851Y-122068838D01*
X109595851Y-122068838D01*
X109595851Y-122545028D01*
X110548232Y-122925981D02*
X110595851Y-123068838D01*
X110595851Y-123306933D01*
X110548232Y-123402171D01*
X110500613Y-123449790D01*
X110405375Y-123497409D01*
X110310137Y-123497409D01*
X110214899Y-123449790D01*
X110167280Y-123402171D01*
X110119661Y-123306933D01*
X110072042Y-123116457D01*
X110024423Y-123021219D01*
X109976804Y-122973600D01*
X109881566Y-122925981D01*
X109786328Y-122925981D01*
X109691090Y-122973600D01*
X109643471Y-123021219D01*
X109595851Y-123116457D01*
X109595851Y-123354552D01*
X109643471Y-123497409D01*
X110072042Y-123925981D02*
X110072042Y-124259314D01*
X110595851Y-124402171D02*
X110595851Y-123925981D01*
X109595851Y-123925981D01*
X109595851Y-124402171D01*
X109595851Y-124687886D02*
X109595851Y-125259314D01*
X110595851Y-124973600D02*
X109595851Y-124973600D01*
G04 #@! TO.C,U1*
D20*
X122362500Y-106449857D02*
X122362500Y-106687952D01*
X122576785Y-106402238D02*
X121826785Y-106568904D01*
X122576785Y-106735571D01*
X121826785Y-106997476D02*
X121826785Y-107045095D01*
X121862500Y-107092714D01*
X121898214Y-107116523D01*
X121969642Y-107140333D01*
X122112500Y-107164142D01*
X122291071Y-107164142D01*
X122433928Y-107140333D01*
X122505357Y-107116523D01*
X122541071Y-107092714D01*
X122576785Y-107045095D01*
X122576785Y-106997476D01*
X122541071Y-106949857D01*
X122505357Y-106926047D01*
X122433928Y-106902238D01*
X122291071Y-106878428D01*
X122112500Y-106878428D01*
X121969642Y-106902238D01*
X121898214Y-106926047D01*
X121862500Y-106949857D01*
X121826785Y-106997476D01*
X124303285Y-91408238D02*
X124303285Y-91313000D01*
X124339000Y-91265380D01*
X124374714Y-91241571D01*
X124481857Y-91193952D01*
X124624714Y-91170142D01*
X124910428Y-91170142D01*
X124981857Y-91193952D01*
X125017571Y-91217761D01*
X125053285Y-91265380D01*
X125053285Y-91360619D01*
X125017571Y-91408238D01*
X124981857Y-91432047D01*
X124910428Y-91455857D01*
X124731857Y-91455857D01*
X124660428Y-91432047D01*
X124624714Y-91408238D01*
X124589000Y-91360619D01*
X124589000Y-91265380D01*
X124624714Y-91217761D01*
X124660428Y-91193952D01*
X124731857Y-91170142D01*
X125180285Y-106711761D02*
X125180285Y-106426047D01*
X125180285Y-106568904D02*
X124430285Y-106568904D01*
X124537428Y-106521285D01*
X124608857Y-106473666D01*
X124644571Y-106426047D01*
X124430285Y-107164142D02*
X124430285Y-106926047D01*
X124787428Y-106902238D01*
X124751714Y-106926047D01*
X124716000Y-106973666D01*
X124716000Y-107092714D01*
X124751714Y-107140333D01*
X124787428Y-107164142D01*
X124858857Y-107187952D01*
X125037428Y-107187952D01*
X125108857Y-107164142D01*
X125144571Y-107140333D01*
X125180285Y-107092714D01*
X125180285Y-106973666D01*
X125144571Y-106926047D01*
X125108857Y-106902238D01*
X126941285Y-91146333D02*
X126941285Y-91479666D01*
X127691285Y-91265380D01*
X127691285Y-106711761D02*
X127691285Y-106426047D01*
X127691285Y-106568904D02*
X126941285Y-106568904D01*
X127048428Y-106521285D01*
X127119857Y-106473666D01*
X127155571Y-106426047D01*
X127191285Y-107140333D02*
X127691285Y-107140333D01*
X126905571Y-107021285D02*
X127441285Y-106902238D01*
X127441285Y-107211761D01*
X129641214Y-91201880D02*
X129605500Y-91154261D01*
X129569785Y-91130452D01*
X129498357Y-91106642D01*
X129462642Y-91106642D01*
X129391214Y-91130452D01*
X129355500Y-91154261D01*
X129319785Y-91201880D01*
X129319785Y-91297119D01*
X129355500Y-91344738D01*
X129391214Y-91368547D01*
X129462642Y-91392357D01*
X129498357Y-91392357D01*
X129569785Y-91368547D01*
X129605500Y-91344738D01*
X129641214Y-91297119D01*
X129641214Y-91201880D01*
X129676928Y-91154261D01*
X129712642Y-91130452D01*
X129784071Y-91106642D01*
X129926928Y-91106642D01*
X129998357Y-91130452D01*
X130034071Y-91154261D01*
X130069785Y-91201880D01*
X130069785Y-91297119D01*
X130034071Y-91344738D01*
X129998357Y-91368547D01*
X129926928Y-91392357D01*
X129784071Y-91392357D01*
X129712642Y-91368547D01*
X129676928Y-91344738D01*
X129641214Y-91297119D01*
X130196785Y-106711761D02*
X130196785Y-106426047D01*
X130196785Y-106568904D02*
X129446785Y-106568904D01*
X129553928Y-106521285D01*
X129625357Y-106473666D01*
X129661071Y-106426047D01*
X129446785Y-107140333D02*
X129446785Y-107045095D01*
X129482500Y-106997476D01*
X129518214Y-106973666D01*
X129625357Y-106926047D01*
X129768214Y-106902238D01*
X130053928Y-106902238D01*
X130125357Y-106926047D01*
X130161071Y-106949857D01*
X130196785Y-106997476D01*
X130196785Y-107092714D01*
X130161071Y-107140333D01*
X130125357Y-107164142D01*
X130053928Y-107187952D01*
X129875357Y-107187952D01*
X129803928Y-107164142D01*
X129768214Y-107140333D01*
X129732500Y-107092714D01*
X129732500Y-106997476D01*
X129768214Y-106949857D01*
X129803928Y-106926047D01*
X129875357Y-106902238D01*
X132736785Y-106711761D02*
X132736785Y-106426047D01*
X132736785Y-106568904D02*
X131986785Y-106568904D01*
X132093928Y-106521285D01*
X132165357Y-106473666D01*
X132201071Y-106426047D01*
X131986785Y-107021285D02*
X131986785Y-107068904D01*
X132022500Y-107116523D01*
X132058214Y-107140333D01*
X132129642Y-107164142D01*
X132272500Y-107187952D01*
X132451071Y-107187952D01*
X132593928Y-107164142D01*
X132665357Y-107140333D01*
X132701071Y-107116523D01*
X132736785Y-107068904D01*
X132736785Y-107021285D01*
X132701071Y-106973666D01*
X132665357Y-106949857D01*
X132593928Y-106926047D01*
X132451071Y-106902238D01*
X132272500Y-106902238D01*
X132129642Y-106926047D01*
X132058214Y-106949857D01*
X132022500Y-106973666D01*
X131986785Y-107021285D01*
X132673285Y-91217761D02*
X132673285Y-91313000D01*
X132637571Y-91360619D01*
X132601857Y-91384428D01*
X132494714Y-91432047D01*
X132351857Y-91455857D01*
X132066142Y-91455857D01*
X131994714Y-91432047D01*
X131959000Y-91408238D01*
X131923285Y-91360619D01*
X131923285Y-91265380D01*
X131959000Y-91217761D01*
X131994714Y-91193952D01*
X132066142Y-91170142D01*
X132244714Y-91170142D01*
X132316142Y-91193952D01*
X132351857Y-91217761D01*
X132387571Y-91265380D01*
X132387571Y-91360619D01*
X132351857Y-91408238D01*
X132316142Y-91432047D01*
X132244714Y-91455857D01*
X114312714Y-91170142D02*
X114277000Y-91193952D01*
X114241285Y-91241571D01*
X114241285Y-91360619D01*
X114277000Y-91408238D01*
X114312714Y-91432047D01*
X114384142Y-91455857D01*
X114455571Y-91455857D01*
X114562714Y-91432047D01*
X114991285Y-91146333D01*
X114991285Y-91455857D01*
X114742500Y-106449857D02*
X114742500Y-106687952D01*
X114956785Y-106402238D02*
X114206785Y-106568904D01*
X114956785Y-106735571D01*
X114206785Y-106854619D02*
X114206785Y-107164142D01*
X114492500Y-106997476D01*
X114492500Y-107068904D01*
X114528214Y-107116523D01*
X114563928Y-107140333D01*
X114635357Y-107164142D01*
X114813928Y-107164142D01*
X114885357Y-107140333D01*
X114921071Y-107116523D01*
X114956785Y-107068904D01*
X114956785Y-106926047D01*
X114921071Y-106878428D01*
X114885357Y-106854619D01*
X116746785Y-91146333D02*
X116746785Y-91455857D01*
X117032500Y-91289190D01*
X117032500Y-91360619D01*
X117068214Y-91408238D01*
X117103928Y-91432047D01*
X117175357Y-91455857D01*
X117353928Y-91455857D01*
X117425357Y-91432047D01*
X117461071Y-91408238D01*
X117496785Y-91360619D01*
X117496785Y-91217761D01*
X117461071Y-91170142D01*
X117425357Y-91146333D01*
X117282500Y-106449857D02*
X117282500Y-106687952D01*
X117496785Y-106402238D02*
X116746785Y-106568904D01*
X117496785Y-106735571D01*
X116818214Y-106878428D02*
X116782500Y-106902238D01*
X116746785Y-106949857D01*
X116746785Y-107068904D01*
X116782500Y-107116523D01*
X116818214Y-107140333D01*
X116889642Y-107164142D01*
X116961071Y-107164142D01*
X117068214Y-107140333D01*
X117496785Y-106854619D01*
X117496785Y-107164142D01*
X119541285Y-91408238D02*
X120041285Y-91408238D01*
X119255571Y-91289190D02*
X119791285Y-91170142D01*
X119791285Y-91479666D01*
X119759000Y-106449857D02*
X119759000Y-106687952D01*
X119973285Y-106402238D02*
X119223285Y-106568904D01*
X119973285Y-106735571D01*
X119973285Y-107164142D02*
X119973285Y-106878428D01*
X119973285Y-107021285D02*
X119223285Y-107021285D01*
X119330428Y-106973666D01*
X119401857Y-106926047D01*
X119437571Y-106878428D01*
X121791285Y-91432047D02*
X121791285Y-91193952D01*
X122148428Y-91170142D01*
X122112714Y-91193952D01*
X122077000Y-91241571D01*
X122077000Y-91360619D01*
X122112714Y-91408238D01*
X122148428Y-91432047D01*
X122219857Y-91455857D01*
X122398428Y-91455857D01*
X122469857Y-91432047D01*
X122505571Y-91408238D01*
X122541285Y-91360619D01*
X122541285Y-91241571D01*
X122505571Y-91193952D01*
X122469857Y-91170142D01*
X111666785Y-106140333D02*
X112416785Y-106307000D01*
X111666785Y-106473666D01*
X112345357Y-106926047D02*
X112381071Y-106902238D01*
X112416785Y-106830809D01*
X112416785Y-106783190D01*
X112381071Y-106711761D01*
X112309642Y-106664142D01*
X112238214Y-106640333D01*
X112095357Y-106616523D01*
X111988214Y-106616523D01*
X111845357Y-106640333D01*
X111773928Y-106664142D01*
X111702500Y-106711761D01*
X111666785Y-106783190D01*
X111666785Y-106830809D01*
X111702500Y-106902238D01*
X111738214Y-106926047D01*
X112345357Y-107426047D02*
X112381071Y-107402238D01*
X112416785Y-107330809D01*
X112416785Y-107283190D01*
X112381071Y-107211761D01*
X112309642Y-107164142D01*
X112238214Y-107140333D01*
X112095357Y-107116523D01*
X111988214Y-107116523D01*
X111845357Y-107140333D01*
X111773928Y-107164142D01*
X111702500Y-107211761D01*
X111666785Y-107283190D01*
X111666785Y-107330809D01*
X111702500Y-107402238D01*
X111738214Y-107426047D01*
X111702500Y-91249547D02*
X111666785Y-91201928D01*
X111666785Y-91130500D01*
X111702500Y-91059071D01*
X111773928Y-91011452D01*
X111845357Y-90987642D01*
X111988214Y-90963833D01*
X112095357Y-90963833D01*
X112238214Y-90987642D01*
X112309642Y-91011452D01*
X112381071Y-91059071D01*
X112416785Y-91130500D01*
X112416785Y-91178119D01*
X112381071Y-91249547D01*
X112345357Y-91273357D01*
X112095357Y-91273357D01*
X112095357Y-91178119D01*
X112416785Y-91487642D02*
X111666785Y-91487642D01*
X112416785Y-91773357D01*
X111666785Y-91773357D01*
X112416785Y-92011452D02*
X111666785Y-92011452D01*
X111666785Y-92130500D01*
X111702500Y-92201928D01*
X111773928Y-92249547D01*
X111845357Y-92273357D01*
X111988214Y-92297166D01*
X112095357Y-92297166D01*
X112238214Y-92273357D01*
X112309642Y-92249547D01*
X112381071Y-92201928D01*
X112416785Y-92130500D01*
X112416785Y-92011452D01*
X109876785Y-106533190D02*
X109519642Y-106366523D01*
X109876785Y-106247476D02*
X109126785Y-106247476D01*
X109126785Y-106437952D01*
X109162500Y-106485571D01*
X109198214Y-106509380D01*
X109269642Y-106533190D01*
X109376785Y-106533190D01*
X109448214Y-106509380D01*
X109483928Y-106485571D01*
X109519642Y-106437952D01*
X109519642Y-106247476D01*
X109841071Y-106723666D02*
X109876785Y-106795095D01*
X109876785Y-106914142D01*
X109841071Y-106961761D01*
X109805357Y-106985571D01*
X109733928Y-107009380D01*
X109662500Y-107009380D01*
X109591071Y-106985571D01*
X109555357Y-106961761D01*
X109519642Y-106914142D01*
X109483928Y-106818904D01*
X109448214Y-106771285D01*
X109412500Y-106747476D01*
X109341071Y-106723666D01*
X109269642Y-106723666D01*
X109198214Y-106747476D01*
X109162500Y-106771285D01*
X109126785Y-106818904D01*
X109126785Y-106937952D01*
X109162500Y-107009380D01*
X109126785Y-107152238D02*
X109126785Y-107437952D01*
X109876785Y-107295095D02*
X109126785Y-107295095D01*
X109162500Y-91186047D02*
X109126785Y-91138428D01*
X109126785Y-91067000D01*
X109162500Y-90995571D01*
X109233928Y-90947952D01*
X109305357Y-90924142D01*
X109448214Y-90900333D01*
X109555357Y-90900333D01*
X109698214Y-90924142D01*
X109769642Y-90947952D01*
X109841071Y-90995571D01*
X109876785Y-91067000D01*
X109876785Y-91114619D01*
X109841071Y-91186047D01*
X109805357Y-91209857D01*
X109555357Y-91209857D01*
X109555357Y-91114619D01*
X109876785Y-91424142D02*
X109126785Y-91424142D01*
X109876785Y-91709857D01*
X109126785Y-91709857D01*
X109876785Y-91947952D02*
X109126785Y-91947952D01*
X109126785Y-92067000D01*
X109162500Y-92138428D01*
X109233928Y-92186047D01*
X109305357Y-92209857D01*
X109448214Y-92233666D01*
X109555357Y-92233666D01*
X109698214Y-92209857D01*
X109769642Y-92186047D01*
X109841071Y-92138428D01*
X109876785Y-92067000D01*
X109876785Y-91947952D01*
X106727000Y-106426047D02*
X106691285Y-106378428D01*
X106691285Y-106307000D01*
X106727000Y-106235571D01*
X106798428Y-106187952D01*
X106869857Y-106164142D01*
X107012714Y-106140333D01*
X107119857Y-106140333D01*
X107262714Y-106164142D01*
X107334142Y-106187952D01*
X107405571Y-106235571D01*
X107441285Y-106307000D01*
X107441285Y-106354619D01*
X107405571Y-106426047D01*
X107369857Y-106449857D01*
X107119857Y-106449857D01*
X107119857Y-106354619D01*
X107441285Y-106664142D02*
X106691285Y-106664142D01*
X107441285Y-106949857D01*
X106691285Y-106949857D01*
X107441285Y-107187952D02*
X106691285Y-107187952D01*
X106691285Y-107307000D01*
X106727000Y-107378428D01*
X106798428Y-107426047D01*
X106869857Y-107449857D01*
X107012714Y-107473666D01*
X107119857Y-107473666D01*
X107262714Y-107449857D01*
X107334142Y-107426047D01*
X107405571Y-107378428D01*
X107441285Y-107307000D01*
X107441285Y-107187952D01*
X107273285Y-91309071D02*
X106916142Y-91142404D01*
X107273285Y-91023357D02*
X106523285Y-91023357D01*
X106523285Y-91213833D01*
X106559000Y-91261452D01*
X106594714Y-91285261D01*
X106666142Y-91309071D01*
X106773285Y-91309071D01*
X106844714Y-91285261D01*
X106880428Y-91261452D01*
X106916142Y-91213833D01*
X106916142Y-91023357D01*
X106523285Y-91475738D02*
X107273285Y-91809071D01*
X106523285Y-91809071D02*
X107273285Y-91475738D01*
X106523285Y-92094785D02*
X106523285Y-92142404D01*
X106559000Y-92190023D01*
X106594714Y-92213833D01*
X106666142Y-92237642D01*
X106809000Y-92261452D01*
X106987571Y-92261452D01*
X107130428Y-92237642D01*
X107201857Y-92213833D01*
X107237571Y-92190023D01*
X107273285Y-92142404D01*
X107273285Y-92094785D01*
X107237571Y-92047166D01*
X107201857Y-92023357D01*
X107130428Y-91999547D01*
X106987571Y-91975738D01*
X106809000Y-91975738D01*
X106666142Y-91999547D01*
X106594714Y-92023357D01*
X106559000Y-92047166D01*
X106523285Y-92094785D01*
X104796785Y-106461761D02*
X104439642Y-106295095D01*
X104796785Y-106176047D02*
X104046785Y-106176047D01*
X104046785Y-106366523D01*
X104082500Y-106414142D01*
X104118214Y-106437952D01*
X104189642Y-106461761D01*
X104296785Y-106461761D01*
X104368214Y-106437952D01*
X104403928Y-106414142D01*
X104439642Y-106366523D01*
X104439642Y-106176047D01*
X104582500Y-106652238D02*
X104582500Y-106890333D01*
X104796785Y-106604619D02*
X104046785Y-106771285D01*
X104796785Y-106937952D01*
X104046785Y-107057000D02*
X104796785Y-107176047D01*
X104261071Y-107271285D01*
X104796785Y-107366523D01*
X104046785Y-107485571D01*
X104046785Y-90947952D02*
X104046785Y-91233666D01*
X104796785Y-91090809D02*
X104046785Y-91090809D01*
X104046785Y-91352714D02*
X104796785Y-91686047D01*
X104046785Y-91686047D02*
X104796785Y-91352714D01*
X104046785Y-91971761D02*
X104046785Y-92019380D01*
X104082500Y-92067000D01*
X104118214Y-92090809D01*
X104189642Y-92114619D01*
X104332500Y-92138428D01*
X104511071Y-92138428D01*
X104653928Y-92114619D01*
X104725357Y-92090809D01*
X104761071Y-92067000D01*
X104796785Y-92019380D01*
X104796785Y-91971761D01*
X104761071Y-91924142D01*
X104725357Y-91900333D01*
X104653928Y-91876523D01*
X104511071Y-91852714D01*
X104332500Y-91852714D01*
X104189642Y-91876523D01*
X104118214Y-91900333D01*
X104082500Y-91924142D01*
X104046785Y-91971761D01*
G04 #@! TD*
M02*
