M48
;DRILL file {KiCad (5.0.2)-1} date 2019/04/14 12:57:18
;FORMAT={-:-/ absolute / metric / decimal}
FMAT,2
METRIC,TZ
T1C1.200
T2C1.900
T3C2.000
T4C3.000
T5C4.100
%
G90
G05
T1
X206.134Y-67.614
X206.134Y-69.364
X213.134Y-67.614
X213.134Y-69.364
T2
X133.604Y-118.618
X143.764Y-118.618
X152.654Y-118.618
X162.814Y-118.618
X171.704Y-118.618
X181.864Y-118.618
X200.279Y-80.518
X210.439Y-80.518
X114.554Y-118.618
X124.714Y-118.618
X143.129Y-80.518
X153.289Y-80.518
X204.933Y-61.468
X215.093Y-61.468
X181.229Y-80.518
X191.389Y-80.518
X190.754Y-118.618
X200.914Y-118.618
X95.504Y-118.618
X105.664Y-118.618
X195.48Y-99.568
X205.641Y-99.568
X185.992Y-61.468
X196.151Y-61.468
X176.466Y-99.568
X186.626Y-99.568
X138.367Y-99.568
X148.526Y-99.568
X119.316Y-99.568
X129.476Y-99.568
X128.841Y-61.468
X139.001Y-61.468
X162.179Y-80.518
X172.339Y-80.518
X105.029Y-80.518
X115.189Y-80.518
X100.266Y-99.568
X110.426Y-99.568
X109.791Y-61.468
X119.951Y-61.468
X157.416Y-99.568
X167.576Y-99.568
X166.941Y-61.468
X177.101Y-61.468
X124.079Y-80.518
X134.239Y-80.518
X147.891Y-61.468
X158.052Y-61.468
T3
X124.409Y-67.462
X186.322Y-123.562
X129.197Y-123.562
X181.559Y-67.462
T4
X172.974Y-116.078
X174.244Y-113.538
X179.324Y-113.538
X180.594Y-116.078
X201.549Y-77.978
X202.819Y-75.438
X207.899Y-75.438
X209.169Y-77.978
X115.824Y-116.078
X117.094Y-113.538
X122.174Y-113.538
X123.444Y-116.078
X144.399Y-77.978
X145.669Y-75.438
X150.749Y-75.438
X152.019Y-77.978
X206.203Y-58.928
X207.474Y-56.388
X212.553Y-56.388
X213.823Y-58.928
X182.499Y-77.978
X183.769Y-75.438
X188.849Y-75.438
X190.119Y-77.978
X192.024Y-116.078
X193.294Y-113.538
X198.374Y-113.538
X199.644Y-116.078
X96.774Y-116.078
X98.044Y-113.538
X103.124Y-113.538
X104.394Y-116.078
X196.75Y-97.028
X198.02Y-94.488
X203.1Y-94.488
X204.37Y-97.028
X187.261Y-58.928
X188.531Y-56.388
X193.611Y-56.388
X194.881Y-58.928
X177.736Y-97.028
X179.006Y-94.488
X184.087Y-94.488
X185.356Y-97.028
X139.636Y-97.028
X140.906Y-94.488
X145.987Y-94.488
X147.256Y-97.028
X120.587Y-97.028
X121.856Y-94.488
X126.936Y-94.488
X128.207Y-97.028
X130.112Y-58.928
X131.381Y-56.388
X136.462Y-56.388
X137.731Y-58.928
X163.449Y-77.978
X164.719Y-75.438
X169.799Y-75.438
X171.069Y-77.978
X106.299Y-77.978
X107.569Y-75.438
X112.649Y-75.438
X113.919Y-77.978
X101.536Y-97.028
X102.806Y-94.488
X107.886Y-94.488
X109.156Y-97.028
X111.061Y-58.928
X112.331Y-56.388
X117.411Y-56.388
X118.681Y-58.928
X158.686Y-97.028
X159.957Y-94.488
X165.036Y-94.488
X166.306Y-97.028
X168.212Y-58.928
X169.481Y-56.388
X174.561Y-56.388
X175.832Y-58.928
X125.349Y-77.978
X126.619Y-75.438
X131.699Y-75.438
X132.969Y-77.978
X149.161Y-58.928
X150.431Y-56.388
X155.511Y-56.388
X156.781Y-58.928
X134.874Y-116.078
X136.144Y-113.538
X141.224Y-113.538
X142.494Y-116.078
X153.924Y-116.078
X155.194Y-113.538
X160.274Y-113.538
X161.544Y-116.078
T5
X138.684Y-118.618
X157.734Y-118.618
X176.784Y-118.618
X205.359Y-80.518
X119.634Y-118.618
X148.209Y-80.518
X210.013Y-61.468
X186.309Y-80.518
X195.834Y-118.618
X100.584Y-118.618
X200.56Y-99.568
X191.071Y-61.468
X181.546Y-99.568
X143.446Y-99.568
X124.396Y-99.568
X133.921Y-61.468
X167.259Y-80.518
X110.109Y-80.518
X105.346Y-99.568
X114.871Y-61.468
X162.496Y-99.568
X172.022Y-61.468
X129.159Y-80.518
X152.971Y-61.468
T0
M30
